<svg width="160" height="101" viewBox="0 0 160 101" fill="none" xmlns="http://www.w3.org/2000/svg">
<path d="M11.52 0.468359H148.48C154.759 0.468359 159.85 5.55888 159.85 11.8384V88.7183C159.85 94.9978 154.759 100.088 148.48 100.088H11.52C5.24053 100.088 0.15 94.9978 0.15 88.7184V11.8384C0.15 5.5589 5.24052 0.468359 11.52 0.468359Z" fill="white"/>
<path d="M11.52 0.468359H148.48C154.759 0.468359 159.85 5.55888 159.85 11.8384V88.7183C159.85 94.9978 154.759 100.088 148.48 100.088H11.52C5.24053 100.088 0.15 94.9978 0.15 88.7184V11.8384C0.15 5.5589 5.24052 0.468359 11.52 0.468359Z" stroke="#848C8B" stroke-width="0.3"/>
<rect x="11.52" y="15.6782" width="136.96" height="48" rx="5.76" fill="#FFF7E5"/>
<path d="M13.1789 81.8784H11.6467L14.688 73.4573H16.1971L19.2384 81.8784H17.6832L17.0035 79.9315H13.8586L13.1789 81.8784ZM15.2525 75.9687L14.2963 78.6874H16.5773L15.6096 75.9687C15.5405 75.7498 15.4599 75.4963 15.4368 75.3235C15.4023 75.4848 15.3331 75.7383 15.2525 75.9687ZM19.4942 79.0215C19.4942 77.2589 20.6577 76.0147 22.3396 76.0147C23.8948 76.0147 24.9547 76.8787 25.1044 78.2496H23.699C23.5377 77.6045 23.0654 77.2704 22.3972 77.2704C21.4987 77.2704 20.8996 77.9501 20.8996 79.0215C20.8996 80.0928 21.4526 80.761 22.3512 80.761C23.0539 80.761 23.5492 80.4154 23.699 79.7933H25.116C24.9432 81.1181 23.8372 82.0282 22.3512 82.0282C20.6232 82.0282 19.4942 80.8301 19.4942 79.0215ZM25.8279 79.0215C25.8279 77.2589 26.9915 76.0147 28.6734 76.0147C30.2286 76.0147 31.2884 76.8787 31.4382 78.2496H30.0328C29.8715 77.6045 29.3992 77.2704 28.731 77.2704C27.8324 77.2704 27.2334 77.9501 27.2334 79.0215C27.2334 80.0928 27.7863 80.761 28.6849 80.761C29.3876 80.761 29.883 80.4154 30.0328 79.7933H31.4497C31.2769 81.1181 30.171 82.0282 28.6849 82.0282C26.9569 82.0282 25.8279 80.8301 25.8279 79.0215ZM35.0417 82.0282C33.3483 82.0282 32.1617 80.7955 32.1617 79.033C32.1617 77.2474 33.3252 76.0147 34.9956 76.0147C36.7006 76.0147 37.7835 77.1552 37.7835 78.9293V79.3555L33.498 79.3671C33.6017 80.3693 34.1316 80.8762 35.0647 80.8762C35.8366 80.8762 36.3435 80.5767 36.5047 80.0352H37.8065C37.5646 81.2794 36.5278 82.0282 35.0417 82.0282ZM35.0071 77.1667C34.1777 77.1667 33.6708 77.616 33.5326 78.4685H36.3895C36.3895 77.6851 35.8481 77.1667 35.0071 77.1667ZM40.3137 81.8784H38.9083V76.1875H40.21L40.3252 76.9248C40.6824 76.3488 41.3736 76.0147 42.1454 76.0147C43.5739 76.0147 44.3112 76.9018 44.3112 78.3763V81.8784H42.9057V78.7104C42.9057 77.7543 42.4334 77.2935 41.7076 77.2935C40.8436 77.2935 40.3137 77.8925 40.3137 78.8141V81.8784ZM47.6274 81.8784H46.222V77.3626H45.1276V76.1875H46.222V74.4135H47.6274V76.1875H48.7333V77.3626H47.6274V81.8784ZM58.3568 81.8669L52.5162 81.8784V80.7725L55.2695 78.4455C56.41 77.4778 56.7901 76.9248 56.7901 76.1184C56.7901 75.1623 56.2717 74.6208 55.3847 74.6208C54.4631 74.6208 53.8871 75.2659 53.8756 76.3488H52.4125C52.424 74.5056 53.5991 73.3075 55.3847 73.3075C57.1818 73.3075 58.2992 74.3328 58.2992 76.0378C58.2992 77.2128 57.6541 78.0999 56.3754 79.1943L54.8548 80.496H58.3568V81.8669Z" fill="#0A0D0D"/>
<path d="M101.394 78.3879H102.488L102.776 76.9594H101.509L101.774 75.6461H103.029L103.456 73.4573H104.85L104.423 75.6461H105.886L106.313 73.4573H107.706L107.28 75.6461H108.467L108.202 76.9594H107.027L106.75 78.3879H108.064L107.799 79.7011H106.497L106.071 81.8784H104.677L105.103 79.7011H103.628L103.202 81.8784H101.808L102.234 79.7011H101.129L101.394 78.3879ZM103.882 78.3879H105.356L105.633 76.9594H104.17L103.882 78.3879ZM114.477 78.4339H111.344V81.8784H109.869V73.4573H115.076V74.8167H111.344V77.1091H114.477V78.4339ZM121.014 78.4339H117.88V81.8784H116.406V73.4573H121.613V74.8167H117.88V77.1091H121.014V78.4339ZM127.55 78.4339H124.416V81.8784H122.942V73.4573H128.149V74.8167H124.416V77.1091H127.55V78.4339ZM128.626 73.4573H134.674V74.8167L131.621 81.8784H130.089L133.199 74.8167H128.626V73.4573ZM140.907 81.8784H135.677V73.4573H140.907V74.8167H137.151V76.9824H140.515V78.2842H137.151V80.5191H140.907V81.8784ZM144.971 82.0167C143.208 82.0167 142.045 80.8877 142.045 79.1827H143.508C143.508 80.1389 144.072 80.7034 145.005 80.7034C145.996 80.7034 146.63 80.0583 146.63 79.033C146.63 78.0538 146.042 77.3856 145.028 77.3856C144.383 77.3856 143.796 77.7082 143.496 78.1459L142.195 77.8695L143.231 73.4573H147.62V74.8167H144.291L143.842 76.5677C144.245 76.3027 144.752 76.153 145.328 76.153C147.01 76.153 148.127 77.2935 148.127 78.9523C148.127 80.7725 146.849 82.0167 144.971 82.0167Z" fill="#A1A6A6"/>
</svg>
