<svg width="160" height="101" viewBox="0 0 160 101" fill="none" xmlns="http://www.w3.org/2000/svg">
<path d="M11.52 0.468359H148.48C154.759 0.468359 159.85 5.55888 159.85 11.8384V88.7183C159.85 94.9978 154.759 100.088 148.48 100.088H11.52C5.24053 100.088 0.15 94.9978 0.15 88.7184V11.8384C0.15 5.5589 5.24052 0.468359 11.52 0.468359Z" fill="white"/>
<path d="M11.52 0.468359H148.48C154.759 0.468359 159.85 5.55888 159.85 11.8384V88.7183C159.85 94.9978 154.759 100.088 148.48 100.088H11.52C5.24053 100.088 0.15 94.9978 0.15 88.7184V11.8384C0.15 5.5589 5.24052 0.468359 11.52 0.468359Z" stroke="#848C8B" stroke-width="0.3"/>
<rect x="11.52" y="15.6782" width="136.96" height="48" rx="5.76" fill="#008072"/>
<path d="M13.1789 81.8784H11.6467L14.688 73.4573H16.1971L19.2384 81.8784H17.6832L17.0035 79.9315H13.8586L13.1789 81.8784ZM15.2525 75.9687L14.2963 78.6874H16.5773L15.6096 75.9687C15.5405 75.7498 15.4599 75.4963 15.4368 75.3235C15.4023 75.4848 15.3331 75.7383 15.2525 75.9687ZM19.4942 79.0215C19.4942 77.2589 20.6577 76.0147 22.3396 76.0147C23.8948 76.0147 24.9547 76.8787 25.1044 78.2496H23.699C23.5377 77.6045 23.0654 77.2704 22.3972 77.2704C21.4987 77.2704 20.8996 77.9501 20.8996 79.0215C20.8996 80.0928 21.4526 80.761 22.3512 80.761C23.0539 80.761 23.5492 80.4154 23.699 79.7933H25.116C24.9432 81.1181 23.8372 82.0282 22.3512 82.0282C20.6232 82.0282 19.4942 80.8301 19.4942 79.0215ZM25.8279 79.0215C25.8279 77.2589 26.9915 76.0147 28.6734 76.0147C30.2286 76.0147 31.2884 76.8787 31.4382 78.2496H30.0328C29.8715 77.6045 29.3992 77.2704 28.731 77.2704C27.8324 77.2704 27.2334 77.9501 27.2334 79.0215C27.2334 80.0928 27.7863 80.761 28.6849 80.761C29.3876 80.761 29.883 80.4154 30.0328 79.7933H31.4497C31.2769 81.1181 30.171 82.0282 28.6849 82.0282C26.9569 82.0282 25.8279 80.8301 25.8279 79.0215ZM35.0417 82.0282C33.3483 82.0282 32.1617 80.7955 32.1617 79.033C32.1617 77.2474 33.3252 76.0147 34.9956 76.0147C36.7006 76.0147 37.7835 77.1552 37.7835 78.9293V79.3555L33.498 79.3671C33.6017 80.3693 34.1316 80.8762 35.0647 80.8762C35.8366 80.8762 36.3435 80.5767 36.5047 80.0352H37.8065C37.5646 81.2794 36.5278 82.0282 35.0417 82.0282ZM35.0071 77.1667C34.1777 77.1667 33.6708 77.616 33.5326 78.4685H36.3895C36.3895 77.6851 35.8481 77.1667 35.0071 77.1667ZM40.3137 81.8784H38.9083V76.1875H40.21L40.3252 76.9248C40.6824 76.3488 41.3736 76.0147 42.1454 76.0147C43.5739 76.0147 44.3112 76.9018 44.3112 78.3763V81.8784H42.9057V78.7104C42.9057 77.7543 42.4334 77.2935 41.7076 77.2935C40.8436 77.2935 40.3137 77.8925 40.3137 78.8141V81.8784ZM47.6274 81.8784H46.222V77.3626H45.1276V76.1875H46.222V74.4135H47.6274V76.1875H48.7333V77.3626H47.6274V81.8784ZM54.2212 74.7821H52.378V73.4573H55.6381V81.8784H54.2212V74.7821Z" fill="#0A0D0D"/>
<path d="M96.3873 78.3879H97.4817L97.7697 76.9594H96.5025L96.7674 75.6461H98.0231L98.4493 73.4573H99.8433L99.417 75.6461H100.88L101.306 73.4573H102.7L102.274 75.6461H103.461L103.196 76.9594H102.021L101.744 78.3879H103.057L102.792 79.7011H101.491L101.064 81.8784H99.6705L100.097 79.7011H98.6221L98.1959 81.8784H96.802L97.2282 79.7011H96.1223L96.3873 78.3879ZM98.8756 78.3879H100.35L100.627 76.9594H99.1636L98.8756 78.3879ZM104.425 77.6851C104.425 75.0701 105.831 73.296 107.985 73.296C110.139 73.296 111.556 75.0701 111.556 77.6851C111.556 80.2887 110.22 82.0282 107.985 82.0282C105.75 82.0282 104.425 80.2887 104.425 77.6851ZM105.877 77.6851C105.877 79.632 106.66 80.7264 107.985 80.7264C109.321 80.7264 110.105 79.632 110.105 77.6851C110.105 75.6922 109.321 74.5978 107.985 74.5978C106.66 74.5978 105.877 75.6922 105.877 77.6851ZM112.548 77.6851C112.548 75.0701 113.953 73.296 116.108 73.296C118.262 73.296 119.679 75.0701 119.679 77.6851C119.679 80.2887 118.342 82.0282 116.108 82.0282C113.873 82.0282 112.548 80.2887 112.548 77.6851ZM113.999 77.6851C113.999 79.632 114.783 80.7264 116.108 80.7264C117.444 80.7264 118.227 79.632 118.227 77.6851C118.227 75.6922 117.444 74.5978 116.108 74.5978C114.783 74.5978 113.999 75.6922 113.999 77.6851ZM120.659 79.4938C120.659 78.4915 121.223 77.6851 122.099 77.3511C121.362 77.017 120.958 76.3834 120.958 75.5655C120.958 74.2291 122.145 73.3075 123.884 73.3075C125.612 73.3075 126.776 74.2176 126.776 75.5885C126.776 76.4064 126.361 77.04 125.612 77.3511C126.499 77.6621 127.075 78.48 127.075 79.4938C127.075 81.0144 125.82 82.0167 123.861 82.0167C121.915 82.0167 120.659 81.0259 120.659 79.4938ZM122.295 75.6922C122.295 76.3949 122.905 76.8442 123.861 76.8442C124.806 76.8442 125.405 76.4064 125.405 75.7037C125.405 75.001 124.806 74.5632 123.861 74.5632C122.905 74.5632 122.295 75.001 122.295 75.6922ZM122.099 79.3901C122.099 80.208 122.779 80.7149 123.873 80.7149C124.944 80.7149 125.624 80.208 125.624 79.3901C125.624 78.5722 124.944 78.0653 123.861 78.0653C122.779 78.0653 122.099 78.5722 122.099 79.3901ZM128.05 77.6851C128.05 75.0701 129.456 73.296 131.61 73.296C133.764 73.296 135.181 75.0701 135.181 77.6851C135.181 80.2887 133.845 82.0282 131.61 82.0282C129.375 82.0282 128.05 80.2887 128.05 77.6851ZM129.502 77.6851C129.502 79.632 130.285 80.7264 131.61 80.7264C132.946 80.7264 133.73 79.632 133.73 77.6851C133.73 75.6922 132.946 74.5978 131.61 74.5978C130.285 74.5978 129.502 75.6922 129.502 77.6851ZM135.612 73.4573H141.66V74.8167L138.607 81.8784H137.075L140.185 74.8167H135.612V73.4573ZM148.067 81.8669L142.226 81.8784V80.7725L144.979 78.4455C146.12 77.4778 146.5 76.9248 146.5 76.1184C146.5 75.1623 145.982 74.6208 145.095 74.6208C144.173 74.6208 143.597 75.2659 143.586 76.3488H142.122C142.134 74.5056 143.309 73.3075 145.095 73.3075C146.892 73.3075 148.009 74.3328 148.009 76.0378C148.009 77.2128 147.364 78.0999 146.085 79.1943L144.565 80.496H148.067V81.8669Z" fill="#A1A6A6"/>
</svg>
