<svg width="144" height="101" viewBox="0 0 144 101" fill="none" xmlns="http://www.w3.org/2000/svg">
<path d="M0.25 12.1999C0.25 5.9757 5.29575 0.929932 11.52 0.929932H131.52C137.744 0.929932 142.79 5.97568 142.79 12.1999V89.0799C142.79 95.3042 137.744 100.35 131.52 100.35H11.52C5.29575 100.35 0.25 95.3042 0.25 89.0799V12.1999Z" fill="white"/>
<path d="M0.25 12.1999C0.25 5.9757 5.29575 0.929932 11.52 0.929932H131.52C137.744 0.929932 142.79 5.97568 142.79 12.1999V89.0799C142.79 95.3042 137.744 100.35 131.52 100.35H11.52C5.29575 100.35 0.25 95.3042 0.25 89.0799V12.1999Z" stroke="#848C8B" stroke-width="0.5"/>
<rect x="11.52" y="16.04" width="120" height="48" rx="5.76" fill="#E3F6FC"/>
<path d="M13.7549 75.1437H11.9117V73.8189H15.1719V82.24H13.7549V75.1437ZM16.6054 78.0467C16.6054 75.4317 18.0108 73.6576 20.1651 73.6576C22.3193 73.6576 23.7363 75.4317 23.7363 78.0467C23.7363 80.6502 22.3999 82.3898 20.1651 82.3898C17.9302 82.3898 16.6054 80.6502 16.6054 78.0467ZM18.0569 78.0467C18.0569 79.9936 18.8403 81.088 20.1651 81.088C21.5014 81.088 22.2847 79.9936 22.2847 78.0467C22.2847 76.0537 21.5014 74.9593 20.1651 74.9593C18.8403 74.9593 18.0569 76.0537 18.0569 78.0467ZM24.7279 78.0467C24.7279 75.4317 26.1333 73.6576 28.2876 73.6576C30.4418 73.6576 31.8588 75.4317 31.8588 78.0467C31.8588 80.6502 30.5224 82.3898 28.2876 82.3898C26.0527 82.3898 24.7279 80.6502 24.7279 78.0467ZM26.1794 78.0467C26.1794 79.9936 26.9628 81.088 28.2876 81.088C29.6239 81.088 30.4072 79.9936 30.4072 78.0467C30.4072 76.0537 29.6239 74.9593 28.2876 74.9593C26.9628 74.9593 26.1794 76.0537 26.1794 78.0467Z" fill="#0A0D0D"/>
<path d="M81.2573 78.7494H82.3517L82.6397 77.3209H81.3725L81.6375 76.0077H82.8931L83.3194 73.8189H84.7133L84.2871 76.0077H85.7501L86.1763 73.8189H87.5703L87.144 76.0077H88.3306L88.0656 77.3209H86.8906L86.6141 78.7494H87.9274L87.6624 80.0627H86.3607L85.9344 82.24H84.5405L84.9667 80.0627H83.4922L83.0659 82.24H81.672L82.0983 80.0627H80.9923L81.2573 78.7494ZM83.7456 78.7494H85.2202L85.4967 77.3209H84.0336L83.7456 78.7494ZM94.9632 82.24H89.7331V73.8189H94.9632V75.1782H91.2077V77.344H94.5715V78.6458H91.2077V80.8806H94.9632V82.24ZM99.5917 82.24H96.5619V73.8189H99.511C101.999 73.8189 103.716 75.5353 103.716 78.0467C103.716 80.5235 102.034 82.24 99.5917 82.24ZM99.3728 75.1782H98.0365V80.8806H99.4534C101.135 80.8806 102.161 79.7977 102.161 78.0467C102.161 76.2611 101.112 75.1782 99.3728 75.1782ZM109.697 78.7955H106.564V82.24H105.089V73.8189H110.296V75.1782H106.564V77.4707H109.697V78.7955ZM117.063 82.2285L111.222 82.24V81.1341L113.976 78.807C115.116 77.8393 115.496 77.2864 115.496 76.48C115.496 75.5238 114.978 74.9824 114.091 74.9824C113.169 74.9824 112.593 75.6275 112.582 76.7104H111.119C111.13 74.8672 112.305 73.6691 114.091 73.6691C115.888 73.6691 117.005 74.6944 117.005 76.3993C117.005 77.5744 116.36 78.4614 115.082 79.5558L113.561 80.8576H117.063V82.2285ZM123.017 78.7955H119.884V82.24H118.409V73.8189H123.616V75.1782H119.884V77.4707H123.017V78.7955ZM130.383 82.2285L124.542 82.24V81.1341L127.296 78.807C128.436 77.8393 128.816 77.2864 128.816 76.48C128.816 75.5238 128.298 74.9824 127.411 74.9824C126.489 74.9824 125.913 75.6275 125.902 76.7104H124.439C124.45 74.8672 125.625 73.6691 127.411 73.6691C129.208 73.6691 130.325 74.6944 130.325 76.3993C130.325 77.5744 129.68 78.4614 128.402 79.5558L126.881 80.8576H130.383V82.2285Z" fill="#A1A6A6"/>
</svg>
