<svg width="144" height="101" viewBox="0 0 144 101" fill="none" xmlns="http://www.w3.org/2000/svg">
<path d="M0.290039 12.1999C0.290039 5.9757 5.33579 0.929932 11.56 0.929932H131.56C137.784 0.929932 142.83 5.97568 142.83 12.1999V89.0799C142.83 95.3042 137.784 100.35 131.56 100.35H11.56C5.33579 100.35 0.290039 95.3042 0.290039 89.0799V12.1999Z" fill="white"/>
<path d="M0.290039 12.1999C0.290039 5.9757 5.33579 0.929932 11.56 0.929932H131.56C137.784 0.929932 142.83 5.97568 142.83 12.1999V89.0799C142.83 95.3042 137.784 100.35 131.56 100.35H11.56C5.33579 100.35 0.290039 95.3042 0.290039 89.0799V12.1999Z" stroke="#848C8B" stroke-width="0.5"/>
<rect x="11.5601" y="16.04" width="120" height="48" rx="5.76" fill="#17B1E5"/>
<path d="M17.9306 82.2285L12.09 82.24V81.1341L14.8433 78.807C15.9837 77.8393 16.3639 77.2864 16.3639 76.48C16.3639 75.5238 15.8455 74.9824 14.9585 74.9824C14.0369 74.9824 13.4609 75.6275 13.4493 76.7104H11.9863C11.9978 74.8672 13.1729 73.6691 14.9585 73.6691C16.7556 73.6691 17.873 74.6944 17.873 76.3993C17.873 77.5744 17.2279 78.4614 15.9492 79.5558L14.4285 80.8576H17.9306V82.2285ZM18.8392 78.0467C18.8392 75.4317 20.2446 73.6576 22.3988 73.6576C24.5531 73.6576 25.97 75.4317 25.97 78.0467C25.97 80.6502 24.6337 82.3898 22.3988 82.3898C20.164 82.3898 18.8392 80.6502 18.8392 78.0467ZM20.2907 78.0467C20.2907 79.9936 21.074 81.088 22.3988 81.088C23.7352 81.088 24.5185 79.9936 24.5185 78.0467C24.5185 76.0537 23.7352 74.9593 22.3988 74.9593C21.074 74.9593 20.2907 76.0537 20.2907 78.0467ZM26.9617 78.0467C26.9617 75.4317 28.3671 73.6576 30.5213 73.6576C32.6756 73.6576 34.0925 75.4317 34.0925 78.0467C34.0925 80.6502 32.7562 82.3898 30.5213 82.3898C28.2865 82.3898 26.9617 80.6502 26.9617 78.0467ZM28.4132 78.0467C28.4132 79.9936 29.1965 81.088 30.5213 81.088C31.8577 81.088 32.641 79.9936 32.641 78.0467C32.641 76.0537 31.8577 74.9593 30.5213 74.9593C29.1965 74.9593 28.4132 76.0537 28.4132 78.0467Z" fill="#0A0D0D"/>
<path d="M76.6998 78.7494H77.7942L78.0822 77.3209H76.815L77.08 76.0077H78.3357L78.7619 73.8189H80.1558L79.7296 76.0077H81.1926L81.6189 73.8189H83.0128L82.5866 76.0077H83.7731L83.5082 77.3209H82.3331L82.0566 78.7494H83.3699L83.105 80.0627H81.8032L81.377 82.24H79.983L80.4093 80.0627H78.9347L78.5085 82.24H77.1146L77.5408 80.0627H76.4349L76.6998 78.7494ZM79.1882 78.7494H80.6627L80.9392 77.3209H79.4762L79.1882 78.7494ZM88.2054 82.24H85.1757V73.8189H88.1248C90.6131 73.8189 92.3296 75.5353 92.3296 78.0467C92.3296 80.5235 90.6477 82.24 88.2054 82.24ZM87.9866 75.1782H86.6502V80.8806H88.0672C89.7491 80.8806 90.7744 79.7977 90.7744 78.0467C90.7744 76.2611 89.7261 75.1782 87.9866 75.1782ZM99.7857 80.6387H98.7605V82.24H97.3665V80.6387H93.0926V79.3485L96.9057 73.8189H98.7605V79.3485H99.7857V80.6387ZM94.6593 79.3485H97.3665V75.4086L94.6593 79.3485ZM104.18 82.24H101.151V73.8189H104.1C106.588 73.8189 108.305 75.5353 108.305 78.0467C108.305 80.5235 106.623 82.24 104.18 82.24ZM103.962 75.1782H102.625V80.8806H104.042C105.724 80.8806 106.749 79.7977 106.749 78.0467C106.749 76.2611 105.701 75.1782 103.962 75.1782ZM114.194 79.7632L112.374 82.24H110.692L112.708 79.5558C112.501 79.6134 112.282 79.648 112.074 79.648C110.335 79.648 109.16 78.4269 109.16 76.7219C109.16 74.9248 110.496 73.6691 112.293 73.6691C114.113 73.6691 115.473 75.0054 115.473 76.7334C115.473 77.7472 115.139 78.4845 114.194 79.7632ZM113.964 76.7219C113.964 75.6966 113.284 74.9824 112.293 74.9824C111.326 74.9824 110.646 75.6966 110.646 76.7219C110.646 77.7357 111.326 78.4384 112.293 78.4384C113.295 78.4384 113.964 77.7357 113.964 76.7219ZM119.852 82.24H116.822V73.8189H119.771C122.259 73.8189 123.976 75.5353 123.976 78.0467C123.976 80.5235 122.294 82.24 119.852 82.24ZM119.633 75.1782H118.296V80.8806H119.713C121.395 80.8806 122.421 79.7977 122.421 78.0467C122.421 76.2611 121.372 75.1782 119.633 75.1782ZM129.865 79.7632L128.045 82.24H126.363L128.379 79.5558C128.172 79.6134 127.953 79.648 127.746 79.648C126.006 79.648 124.831 78.4269 124.831 76.7219C124.831 74.9248 126.167 73.6691 127.964 73.6691C129.785 73.6691 131.144 75.0054 131.144 76.7334C131.144 77.7472 130.81 78.4845 129.865 79.7632ZM129.635 76.7219C129.635 75.6966 128.955 74.9824 127.964 74.9824C126.997 74.9824 126.317 75.6966 126.317 76.7219C126.317 77.7357 126.997 78.4384 127.964 78.4384C128.967 78.4384 129.635 77.7357 129.635 76.7219Z" fill="#A1A6A6"/>
</svg>
