<svg width="144" height="101" viewBox="0 0 144 101" fill="none" xmlns="http://www.w3.org/2000/svg">
<path d="M0.330078 12.1999C0.330078 5.9757 5.37583 0.929932 11.6001 0.929932H131.6C137.824 0.929932 142.87 5.97568 142.87 12.1999V89.0799C142.87 95.3042 137.824 100.35 131.6 100.35H11.6001C5.37583 100.35 0.330078 95.3042 0.330078 89.0799V12.1999Z" fill="white"/>
<path d="M0.330078 12.1999C0.330078 5.9757 5.37583 0.929932 11.6001 0.929932H131.6C137.824 0.929932 142.87 5.97568 142.87 12.1999V89.0799C142.87 95.3042 137.824 100.35 131.6 100.35H11.6001C5.37583 100.35 0.330078 95.3042 0.330078 89.0799V12.1999Z" stroke="#848C8B" stroke-width="0.5"/>
<rect x="11.6001" y="16.04" width="120" height="48" rx="5.76" fill="#007399"/>
<path d="M14.5838 78.0697H13.5585V77.1136L15.7243 75.1206H12.2222V73.8189H17.5675V74.9939L15.5169 76.8832C16.8071 77.1366 17.8094 78.0813 17.8094 79.5674C17.8094 81.2954 16.4615 82.3898 14.7566 82.3898C13.1092 82.3898 11.8305 81.376 11.8305 79.5558H13.282C13.282 80.5235 13.8811 81.0765 14.7796 81.0765C15.7012 81.0765 16.3118 80.4774 16.3118 79.5443C16.3118 78.6918 15.7588 78.0697 14.5838 78.0697ZM18.6542 78.0467C18.6542 75.4317 20.0596 73.6576 22.2139 73.6576C24.3681 73.6576 25.7851 75.4317 25.7851 78.0467C25.7851 80.6502 24.4488 82.3898 22.2139 82.3898C19.979 82.3898 18.6542 80.6502 18.6542 78.0467ZM20.1057 78.0467C20.1057 79.9936 20.8891 81.088 22.2139 81.088C23.5502 81.088 24.3336 79.9936 24.3336 78.0467C24.3336 76.0537 23.5502 74.9593 22.2139 74.9593C20.8891 74.9593 20.1057 76.0537 20.1057 78.0467ZM26.7767 78.0467C26.7767 75.4317 28.1821 73.6576 30.3364 73.6576C32.4906 73.6576 33.9076 75.4317 33.9076 78.0467C33.9076 80.6502 32.5713 82.3898 30.3364 82.3898C28.1015 82.3898 26.7767 80.6502 26.7767 78.0467ZM28.2282 78.0467C28.2282 79.9936 29.0116 81.088 30.3364 81.088C31.6727 81.088 32.4561 79.9936 32.4561 78.0467C32.4561 76.0537 31.6727 74.9593 30.3364 74.9593C29.0116 74.9593 28.2282 76.0537 28.2282 78.0467Z" fill="#0A0D0D"/>
<path d="M80.9699 78.7494H82.0643L82.3523 77.3209H81.0851L81.35 76.0077H82.6057L83.032 73.8189H84.4259L83.9996 76.0077H85.4627L85.8889 73.8189H87.2828L86.8566 76.0077H88.0432L87.7782 77.3209H86.6032L86.3267 78.7494H87.64L87.375 80.0627H86.0732L85.647 82.24H84.2531L84.6793 80.0627H83.2048L82.7785 82.24H81.3846L81.8108 80.0627H80.7049L80.9699 78.7494ZM83.4582 78.7494H84.9328L85.2092 77.3209H83.7462L83.4582 78.7494ZM89.4457 82.24V73.8189H92.798C94.4569 73.8189 95.4707 74.6829 95.4707 76.0883C95.4707 77.0214 95.056 77.6896 94.2611 78.0237C95.1481 78.3117 95.5974 78.9798 95.5974 79.959C95.5974 81.399 94.5952 82.24 92.8556 82.24H89.4457ZM92.6713 75.1206H90.9203V77.4131H92.7059C93.5123 77.4131 93.9616 76.9869 93.9616 76.2381C93.9616 75.5123 93.5008 75.1206 92.6713 75.1206ZM92.798 78.6573H90.9203V80.9382H92.798C93.6275 80.9382 94.0883 80.535 94.0883 79.7747C94.0883 79.0605 93.616 78.6573 92.798 78.6573ZM96.9495 82.24V73.8189H100.302C101.961 73.8189 102.974 74.6829 102.974 76.0883C102.974 77.0214 102.56 77.6896 101.765 78.0237C102.652 78.3117 103.101 78.9798 103.101 79.959C103.101 81.399 102.099 82.24 100.359 82.24H96.9495ZM100.175 75.1206H98.424V77.4131H100.21C101.016 77.4131 101.465 76.9869 101.465 76.2381C101.465 75.5123 101.005 75.1206 100.175 75.1206ZM100.302 78.6573H98.424V80.9382H100.302C101.131 80.9382 101.592 80.535 101.592 79.7747C101.592 79.0605 101.12 78.6573 100.302 78.6573ZM104.453 82.24V73.8189H107.806C109.464 73.8189 110.478 74.6829 110.478 76.0883C110.478 77.0214 110.063 77.6896 109.269 78.0237C110.156 78.3117 110.605 78.9798 110.605 79.959C110.605 81.399 109.603 82.24 107.863 82.24H104.453ZM107.679 75.1206H105.928V77.4131H107.713C108.52 77.4131 108.969 76.9869 108.969 76.2381C108.969 75.5123 108.508 75.1206 107.679 75.1206ZM107.806 78.6573H105.928V80.9382H107.806C108.635 80.9382 109.096 80.535 109.096 79.7747C109.096 79.0605 108.623 78.6573 107.806 78.6573ZM116.565 78.7955H113.432V82.24H111.957V73.8189H117.164V75.1782H113.432V77.4707H116.565V78.7955ZM118.493 82.24V73.8189H121.846C123.504 73.8189 124.518 74.6829 124.518 76.0883C124.518 77.0214 124.103 77.6896 123.309 78.0237C124.196 78.3117 124.645 78.9798 124.645 79.959C124.645 81.399 123.643 82.24 121.903 82.24H118.493ZM121.719 75.1206H119.968V77.4131H121.753C122.56 77.4131 123.009 76.9869 123.009 76.2381C123.009 75.5123 122.548 75.1206 121.719 75.1206ZM121.846 78.6573H119.968V80.9382H121.846C122.675 80.9382 123.136 80.535 123.136 79.7747C123.136 79.0605 122.663 78.6573 121.846 78.6573ZM130.605 78.7955H127.472V82.24H125.997V73.8189H131.204V75.1782H127.472V77.4707H130.605V78.7955Z" fill="#A1A6A6"/>
</svg>
