<svg width="72" height="73" viewBox="0 0 72 73" fill="none" xmlns="http://www.w3.org/2000/svg">
<mask id="mask0_143_6555" style="mask-type:alpha" maskUnits="userSpaceOnUse" x="0" y="0" width="72" height="73">
<path d="M0 20.77C0 9.71326 8.96326 0.75 20.02 0.75H51.48C62.5367 0.75 71.5 9.71326 71.5 20.77V52.23C71.5 63.2867 62.5367 72.25 51.48 72.25H20.02C8.96326 72.25 0 63.2867 0 52.23V20.77Z" fill="#024751"/>
</mask>
<g mask="url(#mask0_143_6555)">
<path d="M0 20.77C0 9.71326 8.96326 0.75 20.02 0.75H51.48C62.5367 0.75 71.5 9.71326 71.5 20.77V52.23C71.5 63.2867 62.5367 72.25 51.48 72.25H20.02C8.96326 72.25 0 63.2867 0 52.23V20.77Z" fill="#0A0D0D"/>
</g>
<g clip-path="url(#clip0_143_6555)">
<path fill-rule="evenodd" clip-rule="evenodd" d="M31.5899 35.3799L18.6379 27.7479L31.5929 19.4909L31.5919 35.3799H31.5899ZM17.8199 44.3829L31.5919 38.5649L31.5929 52.2939L17.8199 44.3829ZM24.6129 55.8439L17.7239 46.5919L30.9339 54.1359L24.6139 55.8439H24.6129ZM17.1999 29.1429L30.4799 36.9389L16.0939 43.0239L17.1999 29.1429ZM26.9069 17.1329L30.3299 17.9769L21.0749 23.8629L26.9069 17.1329ZM32.7519 16.5569L26.9179 15.0369C26.6992 14.9829 26.4699 14.9899 26.2549 15.0573C26.04 15.1246 25.8476 15.2497 25.6989 15.4189L15.6549 27.0689C15.4642 27.293 15.3479 27.5708 15.3219 27.8639L14.0039 44.3969C13.9789 44.7069 14.0749 45.0419 14.2619 45.2949L23.3229 57.5199C23.4673 57.7125 23.6663 57.8572 23.8941 57.9352C24.1218 58.0131 24.3678 58.0207 24.5999 57.9569L32.7619 55.6869C33.2719 55.5469 33.6279 55.0819 33.6279 54.5539L33.6259 37.7649L33.6279 17.6899C33.6279 17.1579 33.2679 16.6919 32.7509 16.5569H32.7519ZM40.1499 36.9399L53.4299 29.1429L54.5349 43.0239L40.1499 36.9399ZM46.0149 55.8439L39.6949 54.1359L52.9049 46.5919L46.0149 55.8439ZM39.0369 38.5639L52.8089 44.3829L39.0359 52.2929L39.0369 38.5649V38.5639ZM51.9909 27.7479L39.0369 35.3799L39.0359 19.4909L51.9909 27.7479ZM43.7209 17.1339L49.5539 23.8639L40.2989 17.9769L43.7209 17.1339ZM54.9729 27.0689L44.9289 15.4199C44.7802 15.2507 44.5879 15.1256 44.3729 15.058C44.158 14.9905 43.9287 14.9832 43.7099 15.0369L37.8769 16.5569C37.626 16.6222 37.4038 16.7688 37.2451 16.9738C37.0864 17.1788 37.0002 17.4307 36.9999 17.6899L37.0019 37.7649L36.9999 54.5549C36.9999 55.0819 37.3559 55.5469 37.8659 55.6859L46.0279 57.9569C46.26 58.0205 46.5059 58.0129 46.7337 57.935C46.9614 57.857 47.1604 57.7124 47.3049 57.5199L56.3649 45.2949C56.5534 45.035 56.6454 44.7174 56.6249 44.3969L55.3059 27.8639C55.2797 27.5709 55.1634 27.2932 54.9729 27.0689Z" fill="white"/>
</g>
<defs>
<clipPath id="clip0_143_6555">
<rect width="43" height="43" fill="white" transform="translate(14 15)"/>
</clipPath>
</defs>
</svg>
