<svg width="160" height="101" viewBox="0 0 160 101" fill="none" xmlns="http://www.w3.org/2000/svg">
<path d="M11.52 0.468359H148.48C154.759 0.468359 159.85 5.55888 159.85 11.8384V88.7183C159.85 94.9978 154.759 100.088 148.48 100.088H11.52C5.24053 100.088 0.15 94.9978 0.15 88.7184V11.8384C0.15 5.5589 5.24052 0.468359 11.52 0.468359Z" fill="white"/>
<path d="M11.52 0.468359H148.48C154.759 0.468359 159.85 5.55888 159.85 11.8384V88.7183C159.85 94.9978 154.759 100.088 148.48 100.088H11.52C5.24053 100.088 0.15 94.9978 0.15 88.7184V11.8384C0.15 5.5589 5.24052 0.468359 11.52 0.468359Z" stroke="#848C8B" stroke-width="0.3"/>
<rect x="11.52" y="15.6782" width="136.96" height="48" rx="5.76" fill="#CC008C"/>
<path d="M12.4531 81.8784V73.4573H15.8055C17.4643 73.4573 18.4781 74.3213 18.4781 75.7267C18.4781 76.6599 18.0634 77.328 17.2685 77.6621C18.1555 77.9501 18.6048 78.6183 18.6048 79.5975C18.6048 81.0375 17.6026 81.8784 15.8631 81.8784H12.4531ZM15.6787 74.7591H13.9277V77.0515H15.7133C16.5197 77.0515 16.969 76.6253 16.969 75.8765C16.969 75.1507 16.5082 74.7591 15.6787 74.7591ZM15.8055 78.2957H13.9277V80.5767H15.8055C16.6349 80.5767 17.0957 80.1735 17.0957 79.4131C17.0957 78.6989 16.6234 78.2957 15.8055 78.2957ZM23.3207 76.1645V77.4663H22.8023C21.7886 77.4663 21.155 78.0077 21.155 79.1136V81.8784H19.7495V76.1991H21.0743L21.155 77.0285C21.3969 76.464 21.9383 76.0839 22.6987 76.0839C22.8945 76.0839 23.0903 76.1069 23.3207 76.1645ZM25.7405 82.0282C24.5309 82.0282 23.7936 81.3255 23.7936 80.2541C23.7936 79.2058 24.5539 78.5491 25.9018 78.4455L27.6067 78.3187V78.192C27.6067 77.4202 27.1459 77.1091 26.4317 77.1091C25.6022 77.1091 25.1414 77.4547 25.1414 78.0538H23.9434C23.9434 76.8211 24.9571 76.0147 26.5008 76.0147C28.033 76.0147 28.9776 76.8442 28.9776 78.4224V81.8784H27.745L27.6413 81.0375C27.3994 81.625 26.6275 82.0282 25.7405 82.0282ZM26.2013 80.9683C27.0653 80.9683 27.6182 80.4499 27.6182 79.5744V79.2749L26.4317 79.3671C25.5562 79.4477 25.2221 79.7357 25.2221 80.1965C25.2221 80.7149 25.5677 80.9683 26.2013 80.9683ZM31.7637 81.8784H30.3583V76.1875H31.66L31.7752 76.9248C32.1324 76.3488 32.8236 76.0147 33.5954 76.0147C35.0239 76.0147 35.7612 76.9018 35.7612 78.3763V81.8784H34.3557V78.7104C34.3557 77.7543 33.8834 77.2935 33.1576 77.2935C32.2936 77.2935 31.7637 77.8925 31.7637 78.8141V81.8784ZM39.4806 82.0282C37.8332 82.0282 36.808 80.8186 36.808 79.056C36.808 77.2819 37.8448 76.0147 39.5612 76.0147C40.3561 76.0147 41.0588 76.3488 41.416 76.9133V73.3075H42.8099V81.8784H41.5196L41.4275 80.9914C41.0819 81.648 40.3446 82.0282 39.4806 82.0282ZM39.7916 80.7379C40.7708 80.7379 41.4044 80.0352 41.4044 79.0099C41.4044 77.9847 40.7708 77.2704 39.7916 77.2704C38.8124 77.2704 38.2134 77.9962 38.2134 79.0099C38.2134 80.0237 38.8124 80.7379 39.7916 80.7379ZM48.8887 74.7821H47.0455V73.4573H50.3056V81.8784H48.8887V74.7821Z" fill="#0A0D0D"/>
<path d="M90.2173 78.3879H91.3117L91.5997 76.9594H90.3325L90.5974 75.6461H91.8531L92.2793 73.4573H93.6733L93.247 75.6461H94.7101L95.1363 73.4573H96.5302L96.104 75.6461H97.2905L97.0256 76.9594H95.8505L95.5741 78.3879H96.8873L96.6224 79.7011H95.3206L94.8944 81.8784H93.5005L93.9267 79.7011H92.4521L92.0259 81.8784H90.632L91.0582 79.7011H89.9523L90.2173 78.3879ZM92.7056 78.3879H94.1801L94.4566 76.9594H92.9936L92.7056 78.3879ZM102.253 82.0167C99.799 82.0167 98.2093 80.3117 98.2093 77.6736C98.2093 75.0586 99.8566 73.3191 102.322 73.3191C104.315 73.3191 105.801 74.4826 106.089 76.2912H104.534C104.246 75.312 103.405 74.736 102.287 74.736C100.732 74.736 99.7529 75.865 99.7529 77.6621C99.7529 79.4477 100.744 80.5997 102.287 80.5997C103.428 80.5997 104.303 80.0007 104.58 79.0675H106.112C105.789 80.8416 104.246 82.0167 102.253 82.0167ZM110.994 82.0167C108.54 82.0167 106.951 80.3117 106.951 77.6736C106.951 75.0586 108.598 73.3191 111.063 73.3191C113.056 73.3191 114.542 74.4826 114.83 76.2912H113.275C112.987 75.312 112.146 74.736 111.029 74.736C109.473 74.736 108.494 75.865 108.494 77.6621C108.494 79.4477 109.485 80.5997 111.029 80.5997C112.169 80.5997 113.045 80.0007 113.321 79.0675H114.853C114.531 80.8416 112.987 82.0167 110.994 82.0167ZM115.738 77.6851C115.738 75.0701 117.143 73.296 119.298 73.296C121.452 73.296 122.869 75.0701 122.869 77.6851C122.869 80.2887 121.532 82.0282 119.298 82.0282C117.063 82.0282 115.738 80.2887 115.738 77.6851ZM117.189 77.6851C117.189 79.632 117.973 80.7264 119.298 80.7264C120.634 80.7264 121.417 79.632 121.417 77.6851C121.417 75.6922 120.634 74.5978 119.298 74.5978C117.973 74.5978 117.189 75.6922 117.189 77.6851ZM123.86 77.6851C123.86 75.0701 125.266 73.296 127.42 73.296C129.574 73.296 130.991 75.0701 130.991 77.6851C130.991 80.2887 129.655 82.0282 127.42 82.0282C125.185 82.0282 123.86 80.2887 123.86 77.6851ZM125.312 77.6851C125.312 79.632 126.095 80.7264 127.42 80.7264C128.756 80.7264 129.54 79.632 129.54 77.6851C129.54 75.6922 128.756 74.5978 127.42 74.5978C126.095 74.5978 125.312 75.6922 125.312 77.6851ZM131.971 79.4938C131.971 78.4915 132.536 77.6851 133.411 77.3511C132.674 77.017 132.271 76.3834 132.271 75.5655C132.271 74.2291 133.457 73.3075 135.197 73.3075C136.925 73.3075 138.088 74.2176 138.088 75.5885C138.088 76.4064 137.674 77.04 136.925 77.3511C137.812 77.6621 138.388 78.48 138.388 79.4938C138.388 81.0144 137.132 82.0167 135.174 82.0167C133.227 82.0167 131.971 81.0259 131.971 79.4938ZM133.607 75.6922C133.607 76.3949 134.218 76.8442 135.174 76.8442C136.119 76.8442 136.718 76.4064 136.718 75.7037C136.718 75.001 136.119 74.5632 135.174 74.5632C134.218 74.5632 133.607 75.001 133.607 75.6922ZM133.411 79.3901C133.411 80.208 134.091 80.7149 135.185 80.7149C136.257 80.7149 136.936 80.208 136.936 79.3901C136.936 78.5722 136.257 78.0653 135.174 78.0653C134.091 78.0653 133.411 78.5722 133.411 79.3901ZM143.36 82.0167C140.907 82.0167 139.317 80.3117 139.317 77.6736C139.317 75.0586 140.964 73.3191 143.429 73.3191C145.422 73.3191 146.908 74.4826 147.196 76.2912H145.641C145.353 75.312 144.512 74.736 143.395 74.736C141.84 74.736 140.86 75.865 140.86 77.6621C140.86 79.4477 141.851 80.5997 143.395 80.5997C144.535 80.5997 145.411 80.0007 145.687 79.0675H147.219C146.897 80.8416 145.353 82.0167 143.36 82.0167Z" fill="#A1A6A6"/>
</svg>
