<svg width="160" height="101" viewBox="0 0 160 101" fill="none" xmlns="http://www.w3.org/2000/svg">
<path d="M11.52 0.468359H148.48C154.759 0.468359 159.85 5.55888 159.85 11.8384V88.7183C159.85 94.9978 154.759 100.088 148.48 100.088H11.52C5.24053 100.088 0.15 94.9978 0.15 88.7184V11.8384C0.15 5.5589 5.24052 0.468359 11.52 0.468359Z" fill="white"/>
<path d="M11.52 0.468359H148.48C154.759 0.468359 159.85 5.55888 159.85 11.8384V88.7183C159.85 94.9978 154.759 100.088 148.48 100.088H11.52C5.24053 100.088 0.15 94.9978 0.15 88.7184V11.8384C0.15 5.5589 5.24052 0.468359 11.52 0.468359Z" stroke="#848C8B" stroke-width="0.3"/>
<rect x="11.52" y="15.6782" width="136.96" height="48" rx="5.76" fill="#B2007A"/>
<path d="M12.4531 81.8784V73.4573H15.8055C17.4643 73.4573 18.4781 74.3213 18.4781 75.7267C18.4781 76.6599 18.0634 77.328 17.2685 77.6621C18.1555 77.9501 18.6048 78.6183 18.6048 79.5975C18.6048 81.0375 17.6026 81.8784 15.8631 81.8784H12.4531ZM15.6787 74.7591H13.9277V77.0515H15.7133C16.5197 77.0515 16.969 76.6253 16.969 75.8765C16.969 75.1507 16.5082 74.7591 15.6787 74.7591ZM15.8055 78.2957H13.9277V80.5767H15.8055C16.6349 80.5767 17.0957 80.1735 17.0957 79.4131C17.0957 78.6989 16.6234 78.2957 15.8055 78.2957ZM23.3207 76.1645V77.4663H22.8023C21.7886 77.4663 21.155 78.0077 21.155 79.1136V81.8784H19.7495V76.1991H21.0743L21.155 77.0285C21.3969 76.464 21.9383 76.0839 22.6987 76.0839C22.8945 76.0839 23.0903 76.1069 23.3207 76.1645ZM25.7405 82.0282C24.5309 82.0282 23.7936 81.3255 23.7936 80.2541C23.7936 79.2058 24.5539 78.5491 25.9018 78.4455L27.6067 78.3187V78.192C27.6067 77.4202 27.1459 77.1091 26.4317 77.1091C25.6022 77.1091 25.1414 77.4547 25.1414 78.0538H23.9434C23.9434 76.8211 24.9571 76.0147 26.5008 76.0147C28.033 76.0147 28.9776 76.8442 28.9776 78.4224V81.8784H27.745L27.6413 81.0375C27.3994 81.625 26.6275 82.0282 25.7405 82.0282ZM26.2013 80.9683C27.0653 80.9683 27.6182 80.4499 27.6182 79.5744V79.2749L26.4317 79.3671C25.5562 79.4477 25.2221 79.7357 25.2221 80.1965C25.2221 80.7149 25.5677 80.9683 26.2013 80.9683ZM31.7637 81.8784H30.3583V76.1875H31.66L31.7752 76.9248C32.1324 76.3488 32.8236 76.0147 33.5954 76.0147C35.0239 76.0147 35.7612 76.9018 35.7612 78.3763V81.8784H34.3557V78.7104C34.3557 77.7543 33.8834 77.2935 33.1576 77.2935C32.2936 77.2935 31.7637 77.8925 31.7637 78.8141V81.8784ZM39.4806 82.0282C37.8332 82.0282 36.808 80.8186 36.808 79.056C36.808 77.2819 37.8448 76.0147 39.5612 76.0147C40.3561 76.0147 41.0588 76.3488 41.416 76.9133V73.3075H42.8099V81.8784H41.5196L41.4275 80.9914C41.0819 81.648 40.3446 82.0282 39.4806 82.0282ZM39.7916 80.7379C40.7708 80.7379 41.4044 80.0352 41.4044 79.0099C41.4044 77.9847 40.7708 77.2704 39.7916 77.2704C38.8124 77.2704 38.2134 77.9962 38.2134 79.0099C38.2134 80.0237 38.8124 80.7379 39.7916 80.7379ZM53.0243 81.8669L47.1837 81.8784V80.7725L49.937 78.4455C51.0775 77.4778 51.4576 76.9248 51.4576 76.1184C51.4576 75.1623 50.9392 74.6208 50.0522 74.6208C49.1306 74.6208 48.5546 75.2659 48.5431 76.3488H47.08C47.0915 74.5056 48.2666 73.3075 50.0522 73.3075C51.8493 73.3075 52.9667 74.3328 52.9667 76.0378C52.9667 77.2128 52.3216 78.0999 51.0429 79.1943L49.5223 80.496H53.0243V81.8669Z" fill="#0A0D0D"/>
<path d="M96.511 78.3879H97.6054L97.8934 76.9594H96.6262L96.8912 75.6461H98.1468L98.5731 73.4573H99.967L99.5408 75.6461H101.004L101.43 73.4573H102.824L102.398 75.6461H103.584L103.319 76.9594H102.144L101.868 78.3879H103.181L102.916 79.7011H101.614L101.188 81.8784H99.7942L100.22 79.7011H98.7459L98.3196 81.8784H96.9257L97.352 79.7011H96.246L96.511 78.3879ZM98.9993 78.3879H100.474L100.75 76.9594H99.2873L98.9993 78.3879ZM104.987 81.8784V73.4573H108.339C109.998 73.4573 111.012 74.3213 111.012 75.7267C111.012 76.6599 110.597 77.328 109.802 77.6621C110.689 77.9501 111.139 78.6183 111.139 79.5975C111.139 81.0375 110.136 81.8784 108.397 81.8784H104.987ZM108.212 74.7591H106.461V77.0515H108.247C109.053 77.0515 109.503 76.6253 109.503 75.8765C109.503 75.1507 109.042 74.7591 108.212 74.7591ZM108.339 78.2957H106.461V80.5767H108.339C109.169 80.5767 109.629 80.1735 109.629 79.4131C109.629 78.6989 109.157 78.2957 108.339 78.2957ZM117.928 81.8669L112.087 81.8784V80.7725L114.841 78.4455C115.981 77.4778 116.361 76.9248 116.361 76.1184C116.361 75.1623 115.843 74.6208 114.956 74.6208C114.034 74.6208 113.458 75.2659 113.447 76.3488H111.984C111.995 74.5056 113.17 73.3075 114.956 73.3075C116.753 73.3075 117.87 74.3328 117.87 76.0378C117.87 77.2128 117.225 78.0999 115.947 79.1943L114.426 80.496H117.928V81.8669ZM118.837 77.6851C118.837 75.0701 120.242 73.296 122.396 73.296C124.551 73.296 125.967 75.0701 125.967 77.6851C125.967 80.2887 124.631 82.0282 122.396 82.0282C120.161 82.0282 118.837 80.2887 118.837 77.6851ZM120.288 77.6851C120.288 79.632 121.071 80.7264 122.396 80.7264C123.733 80.7264 124.516 79.632 124.516 77.6851C124.516 75.6922 123.733 74.5978 122.396 74.5978C121.071 74.5978 120.288 75.6922 120.288 77.6851ZM126.959 77.6851C126.959 75.0701 128.365 73.296 130.519 73.296C132.673 73.296 134.09 75.0701 134.09 77.6851C134.09 80.2887 132.754 82.0282 130.519 82.0282C128.284 82.0282 126.959 80.2887 126.959 77.6851ZM128.411 77.6851C128.411 79.632 129.194 80.7264 130.519 80.7264C131.855 80.7264 132.638 79.632 132.638 77.6851C132.638 75.6922 131.855 74.5978 130.519 74.5978C129.194 74.5978 128.411 75.6922 128.411 77.6851ZM134.521 73.4573H140.569V74.8167L137.516 81.8784H135.984L139.094 74.8167H134.521V73.4573ZM142.298 81.8784H140.765L143.807 73.4573H145.316L148.357 81.8784H146.802L146.122 79.9315H142.977L142.298 81.8784ZM144.371 75.9687L143.415 78.6874H145.696L144.728 75.9687C144.659 75.7498 144.579 75.4963 144.556 75.3235C144.521 75.4848 144.452 75.7383 144.371 75.9687Z" fill="#A1A6A6"/>
</svg>
