<svg width="496" height="483" viewBox="0 0 496 483" fill="none" xmlns="http://www.w3.org/2000/svg">
<g filter="url(#filter0_d_143_6620)">
<path d="M11 27C11 18.1635 18.1634 11 27 11H461C469.837 11 477 18.1634 477 27V448C477 456.837 469.837 464 461 464H27C18.1635 464 11 456.837 11 448V27Z" fill="white" shape-rendering="crispEdges"/>
<path d="M11.5 27C11.5 18.4396 18.4396 11.5 27 11.5H461C469.56 11.5 476.5 18.4396 476.5 27V448C476.5 456.56 469.56 463.5 461 463.5H27C18.4396 463.5 11.5 456.56 11.5 448V27Z" stroke="#D4D9D9" shape-rendering="crispEdges"/>
<path d="M44.944 67V49.456H51.928C55.384 49.456 57.496 51.256 57.496 54.184C57.496 56.128 56.632 57.52 54.976 58.216C56.824 58.816 57.76 60.208 57.76 62.248C57.76 65.248 55.672 67 52.048 67H44.944ZM51.664 52.168H48.016V56.944H51.736C53.416 56.944 54.352 56.056 54.352 54.496C54.352 52.984 53.392 52.168 51.664 52.168ZM51.928 59.536H48.016V64.288H51.928C53.656 64.288 54.616 63.448 54.616 61.864C54.616 60.376 53.632 59.536 51.928 59.536ZM67.5848 55.096V57.808H66.5048C64.3928 57.808 63.0728 58.936 63.0728 61.24V67H60.1448V55.168H62.9048L63.0728 56.896C63.5768 55.72 64.7048 54.928 66.2888 54.928C66.6968 54.928 67.1048 54.976 67.5848 55.096ZM72.6259 67.312C70.1059 67.312 68.5699 65.848 68.5699 63.616C68.5699 61.432 70.1539 60.064 72.9619 59.848L76.5139 59.584V59.32C76.5139 57.712 75.5539 57.064 74.0659 57.064C72.3379 57.064 71.3779 57.784 71.3779 59.032H68.8819C68.8819 56.464 70.9939 54.784 74.2099 54.784C77.4019 54.784 79.3699 56.512 79.3699 59.8V67H76.8019L76.5859 65.248C76.0819 66.472 74.4739 67.312 72.6259 67.312ZM73.5859 65.104C75.3859 65.104 76.5379 64.024 76.5379 62.2V61.576L74.0659 61.768C72.2419 61.936 71.5459 62.536 71.5459 63.496C71.5459 64.576 72.2659 65.104 73.5859 65.104ZM85.1744 67H82.2464V55.144H84.9584L85.1984 56.68C85.9424 55.48 87.3824 54.784 88.9904 54.784C91.9664 54.784 93.5024 56.632 93.5024 59.704V67H90.5744V60.4C90.5744 58.408 89.5904 57.448 88.0784 57.448C86.2784 57.448 85.1744 58.696 85.1744 60.616V67ZM101.251 67.312C97.8192 67.312 95.6832 64.792 95.6832 61.12C95.6832 57.424 97.8432 54.784 101.419 54.784C103.075 54.784 104.539 55.48 105.283 56.656V49.144H108.187V67H105.499L105.307 65.152C104.587 66.52 103.051 67.312 101.251 67.312ZM101.899 64.624C103.939 64.624 105.259 63.16 105.259 61.024C105.259 58.888 103.939 57.4 101.899 57.4C99.8592 57.4 98.6112 58.912 98.6112 61.024C98.6112 63.136 99.8592 64.624 101.899 64.624ZM125.555 67.288C120.443 67.288 117.131 63.736 117.131 58.24C117.131 52.792 120.563 49.168 125.699 49.168C129.851 49.168 132.947 51.592 133.547 55.36H130.307C129.707 53.32 127.955 52.12 125.627 52.12C122.387 52.12 120.347 54.472 120.347 58.216C120.347 61.936 122.411 64.336 125.627 64.336C128.003 64.336 129.827 63.088 130.403 61.144H133.595C132.923 64.84 129.707 67.288 125.555 67.288ZM138.729 67H135.801V49.144H138.753V56.68C139.497 55.528 140.889 54.784 142.593 54.784C145.521 54.784 147.057 56.632 147.057 59.704V67H144.129V60.4C144.129 58.408 143.145 57.448 141.657 57.448C139.809 57.448 138.729 58.744 138.729 60.52V67ZM153.462 67.312C150.942 67.312 149.406 65.848 149.406 63.616C149.406 61.432 150.99 60.064 153.798 59.848L157.35 59.584V59.32C157.35 57.712 156.39 57.064 154.902 57.064C153.174 57.064 152.214 57.784 152.214 59.032H149.718C149.718 56.464 151.83 54.784 155.046 54.784C158.238 54.784 160.206 56.512 160.206 59.8V67H157.638L157.422 65.248C156.918 66.472 155.31 67.312 153.462 67.312ZM154.422 65.104C156.222 65.104 157.374 64.024 157.374 62.2V61.576L154.902 61.768C153.078 61.936 152.382 62.536 152.382 63.496C152.382 64.576 153.102 65.104 154.422 65.104ZM170.522 55.096V57.808H169.442C167.33 57.808 166.01 58.936 166.01 61.24V67H163.082V55.168H165.842L166.01 56.896C166.514 55.72 167.642 54.928 169.226 54.928C169.634 54.928 170.042 54.976 170.522 55.096ZM175.563 67.312C173.043 67.312 171.507 65.848 171.507 63.616C171.507 61.432 173.091 60.064 175.899 59.848L179.451 59.584V59.32C179.451 57.712 178.491 57.064 177.003 57.064C175.275 57.064 174.315 57.784 174.315 59.032H171.819C171.819 56.464 173.931 54.784 177.147 54.784C180.339 54.784 182.307 56.512 182.307 59.8V67H179.739L179.523 65.248C179.019 66.472 177.411 67.312 175.563 67.312ZM176.523 65.104C178.323 65.104 179.475 64.024 179.475 62.2V61.576L177.003 61.768C175.179 61.936 174.483 62.536 174.483 63.496C174.483 64.576 175.203 65.104 176.523 65.104ZM184.488 61.048C184.488 57.376 186.912 54.784 190.416 54.784C193.656 54.784 195.864 56.584 196.176 59.44H193.248C192.912 58.096 191.928 57.4 190.536 57.4C188.664 57.4 187.416 58.816 187.416 61.048C187.416 63.28 188.568 64.672 190.44 64.672C191.904 64.672 192.936 63.952 193.248 62.656H196.2C195.84 65.416 193.536 67.312 190.44 67.312C186.84 67.312 184.488 64.816 184.488 61.048ZM202.411 67H199.483V57.592H197.203V55.144H199.483V51.448H202.411V55.144H204.715V57.592H202.411V67ZM211.722 67.312C208.194 67.312 205.722 64.744 205.722 61.072C205.722 57.352 208.146 54.784 211.626 54.784C215.178 54.784 217.434 57.16 217.434 60.856V61.744L208.506 61.768C208.722 63.856 209.826 64.912 211.77 64.912C213.378 64.912 214.434 64.288 214.77 63.16H217.482C216.978 65.752 214.818 67.312 211.722 67.312ZM211.65 57.184C209.922 57.184 208.866 58.12 208.578 59.896H214.53C214.53 58.264 213.402 57.184 211.65 57.184ZM227.218 55.096V57.808H226.138C224.026 57.808 222.706 58.936 222.706 61.24V67H219.778V55.168H222.538L222.706 56.896C223.21 55.72 224.338 54.928 225.922 54.928C226.33 54.928 226.738 54.976 227.218 55.096Z" fill="#CC008C"/>
<path d="M43 104C43 99.5817 46.5817 96 51 96H437C441.418 96 445 99.5817 445 104V136C445 140.418 441.418 144 437 144H51C46.5817 144 43 140.418 43 136V104Z" fill="#FCF2FA"/>
<path d="M59 120C59 116.686 61.6863 114 65 114C68.3137 114 71 116.686 71 120C71 123.314 68.3137 126 65 126C61.6863 126 59 123.314 59 120Z" fill="#E517C3"/>
<path d="M101.064 126.176C97.864 126.176 95.688 123.792 95.688 120.272C95.688 116.752 97.896 114.352 101.128 114.352C103.592 114.352 105.528 115.84 105.992 118.112H104.76C104.28 116.464 102.872 115.456 101.08 115.456C98.568 115.456 96.888 117.376 96.888 120.272C96.888 123.152 98.568 125.072 101.08 125.072C102.888 125.072 104.328 124.096 104.824 122.56H106.056C105.528 124.72 103.528 126.176 101.064 126.176ZM107.264 122.128C107.264 119.76 108.928 118.048 111.2 118.048C113.472 118.048 115.136 119.76 115.136 122.128C115.136 124.48 113.472 126.192 111.2 126.192C108.928 126.192 107.264 124.48 107.264 122.128ZM108.384 122.112C108.384 123.936 109.536 125.2 111.2 125.2C112.848 125.2 114.016 123.936 114.016 122.112C114.016 120.32 112.848 119.04 111.2 119.04C109.536 119.04 108.384 120.32 108.384 122.112ZM118.006 126H116.902V118.256H117.862L117.99 119.36C118.374 118.544 119.238 118.048 120.326 118.048C121.542 118.048 122.454 118.688 122.822 119.696C123.174 118.688 124.118 118.048 125.366 118.048C127.046 118.048 128.15 119.136 128.15 120.928V126H127.078V121.152C127.078 119.824 126.342 119.04 125.158 119.04C123.862 119.04 123.094 120.016 123.094 121.216V126H122.006V121.136C122.006 119.824 121.254 119.056 120.086 119.056C118.79 119.056 118.006 120.016 118.006 121.2V126ZM131.475 126H130.371V118.256H131.331L131.459 119.36C131.843 118.544 132.707 118.048 133.795 118.048C135.011 118.048 135.923 118.688 136.291 119.696C136.643 118.688 137.587 118.048 138.835 118.048C140.515 118.048 141.619 119.136 141.619 120.928V126H140.547V121.152C140.547 119.824 139.811 119.04 138.627 119.04C137.331 119.04 136.563 120.016 136.563 121.216V126H135.475V121.136C135.475 119.824 134.723 119.056 133.555 119.056C132.259 119.056 131.475 120.016 131.475 121.2V126ZM149.28 118.256H150.384V126H149.424L149.28 124.688C148.848 125.584 147.776 126.192 146.56 126.192C144.736 126.192 143.743 124.944 143.743 123.056V118.24H144.864V122.704C144.864 124.544 145.68 125.2 146.911 125.2C148.4 125.2 149.28 124.208 149.28 122.368V118.256ZM153.787 126H152.683V118.256H153.643L153.803 119.6C154.315 118.608 155.339 118.048 156.459 118.048C158.587 118.048 159.467 119.312 159.467 121.264V126H158.363V121.504C158.363 119.696 157.547 119.056 156.267 119.056C154.683 119.056 153.787 120.208 153.787 121.952V126ZM162.212 116.128C161.764 116.128 161.396 115.76 161.396 115.312C161.396 114.864 161.764 114.48 162.212 114.48C162.66 114.48 163.044 114.864 163.044 115.312C163.044 115.76 162.66 116.128 162.212 116.128ZM161.668 126V118.256H162.772V126H161.668ZM166.85 126H165.762V119.184H164.21V118.256H165.762V115.808H166.85V118.256H168.402V119.184H166.85V126ZM169.056 129.376V128.464H169.904C170.576 128.464 171.248 128.416 171.632 127.376L171.968 126.464L168.832 118.256H170L172.496 125.008L174.944 118.256H176.08L172.528 127.776C172.08 128.992 171.328 129.488 170.224 129.488C169.76 129.488 169.408 129.456 169.056 129.376ZM176.852 122.288V121.296H181.492V122.288H176.852ZM186.708 126.192C184.452 126.192 183.124 124.464 183.124 122.144C183.124 119.808 184.452 118.048 186.756 118.048C188.036 118.048 189.06 118.608 189.604 119.728V114.336H190.708V126H189.748L189.636 124.416C189.092 125.616 188.004 126.192 186.708 126.192ZM186.9 125.184C188.596 125.184 189.588 123.904 189.588 122.112C189.588 120.336 188.596 119.04 186.9 119.04C185.22 119.04 184.244 120.336 184.244 122.112C184.244 123.904 185.22 125.184 186.9 125.184ZM197.059 118.16V119.152H196.451C195.027 119.152 194.115 120.112 194.115 121.584V126H193.011V118.256H194.051L194.131 119.456C194.435 118.624 195.251 118.08 196.339 118.08C196.579 118.08 196.787 118.096 197.059 118.16ZM199.071 116.128C198.623 116.128 198.255 115.76 198.255 115.312C198.255 114.864 198.623 114.48 199.071 114.48C199.519 114.48 199.903 114.864 199.903 115.312C199.903 115.76 199.519 116.128 199.071 116.128ZM198.527 126V118.256H199.631V126H198.527ZM204.093 126L200.925 118.256H202.109L204.109 123.248C204.317 123.808 204.525 124.336 204.669 124.848C204.813 124.32 205.021 123.808 205.245 123.248L207.277 118.256H208.413L205.197 126H204.093ZM212.619 126.192C210.347 126.192 208.827 124.56 208.827 122.128C208.827 119.712 210.331 118.048 212.539 118.048C214.635 118.048 216.059 119.536 216.059 121.728V122.272H209.899C209.979 124.16 210.971 125.248 212.635 125.248C213.899 125.248 214.715 124.704 215.003 123.68H216.059C215.643 125.312 214.443 126.192 212.619 126.192ZM212.539 118.992C211.083 118.992 210.123 119.952 209.931 121.472H214.955C214.955 119.984 213.995 118.992 212.539 118.992ZM218.928 126H217.824V118.256H218.784L218.944 119.6C219.456 118.608 220.48 118.048 221.6 118.048C223.728 118.048 224.608 119.312 224.608 121.264V126H223.504V121.504C223.504 119.696 222.688 119.056 221.408 119.056C219.824 119.056 218.928 120.208 218.928 121.952V126Z" fill="#273540"/>
<path d="M59 168C59 164.686 61.6863 162 65 162C68.3137 162 71 164.686 71 168C71 171.314 68.3137 174 65 174C61.6863 174 59 171.314 59 168Z" fill="#E517C3"/>
<path d="M103.256 174H96.392V162.544H103.24V163.6H97.544V167.728H102.712V168.768H97.544V172.944H103.256V174ZM106.459 174H105.355V166.256H106.315L106.443 167.36C106.827 166.544 107.691 166.048 108.779 166.048C109.995 166.048 110.907 166.688 111.275 167.696C111.627 166.688 112.571 166.048 113.819 166.048C115.499 166.048 116.603 167.136 116.603 168.928V174H115.531V169.152C115.531 167.824 114.795 167.04 113.611 167.04C112.315 167.04 111.547 168.016 111.547 169.216V174H110.459V169.136C110.459 167.824 109.707 167.056 108.539 167.056C107.243 167.056 106.459 168.016 106.459 169.2V174ZM118.824 177.376V166.256H119.784L119.896 167.824C120.44 166.624 121.528 166.048 122.824 166.048C125.064 166.048 126.408 167.76 126.408 170.096C126.408 172.432 125.112 174.192 122.824 174.192C121.512 174.192 120.472 173.632 119.928 172.512V177.376H118.824ZM119.944 170.128C119.944 171.904 120.936 173.2 122.632 173.2C124.312 173.2 125.288 171.904 125.288 170.128C125.288 168.336 124.312 167.056 122.632 167.056C120.936 167.056 119.944 168.336 119.944 170.128ZM127.624 170.128C127.624 167.76 129.288 166.048 131.56 166.048C133.832 166.048 135.496 167.76 135.496 170.128C135.496 172.48 133.832 174.192 131.56 174.192C129.288 174.192 127.624 172.48 127.624 170.128ZM128.744 170.112C128.744 171.936 129.896 173.2 131.56 173.2C133.208 173.2 134.376 171.936 134.376 170.112C134.376 168.32 133.208 167.04 131.56 167.04C129.896 167.04 128.744 168.32 128.744 170.112ZM138.55 174L135.99 166.256H137.126L138.646 170.928C138.822 171.44 138.966 171.968 139.126 172.592C139.254 171.968 139.51 171.184 139.59 170.928L141.126 166.256H142.262L143.782 170.928C143.926 171.344 144.118 172.016 144.262 172.592C144.422 171.952 144.454 171.76 144.726 170.928L146.262 166.256H147.414L144.79 174H143.718L142.118 169.136C141.926 168.56 141.798 168.08 141.702 167.616C141.59 168.032 141.462 168.496 141.254 169.136L139.654 174H138.55ZM151.697 174.192C149.425 174.192 147.905 172.56 147.905 170.128C147.905 167.712 149.409 166.048 151.617 166.048C153.713 166.048 155.137 167.536 155.137 169.728V170.272H148.977C149.057 172.16 150.049 173.248 151.713 173.248C152.977 173.248 153.793 172.704 154.081 171.68H155.137C154.721 173.312 153.521 174.192 151.697 174.192ZM151.617 166.992C150.161 166.992 149.201 167.952 149.009 169.472H154.033C154.033 167.984 153.073 166.992 151.617 166.992ZM160.95 166.16V167.152H160.342C158.918 167.152 158.006 168.112 158.006 169.584V174H156.902V166.256H157.942L158.022 167.456C158.326 166.624 159.142 166.08 160.23 166.08C160.47 166.08 160.678 166.096 160.95 166.16ZM162.962 164.128C162.514 164.128 162.146 163.76 162.146 163.312C162.146 162.864 162.514 162.48 162.962 162.48C163.41 162.48 163.794 162.864 163.794 163.312C163.794 163.76 163.41 164.128 162.962 164.128ZM162.418 174V166.256H163.522V174H162.418ZM166.928 174H165.824V166.256H166.784L166.944 167.6C167.456 166.608 168.48 166.048 169.6 166.048C171.728 166.048 172.608 167.312 172.608 169.264V174H171.504V169.504C171.504 167.696 170.688 167.056 169.408 167.056C167.824 167.056 166.928 168.208 166.928 169.952V174ZM174.28 169.904C174.28 167.792 175.64 166.048 177.912 166.048C179.256 166.048 180.28 166.672 180.776 167.808L180.888 166.256H181.848V173.76C181.848 176.064 180.376 177.568 178.104 177.568C176.12 177.568 174.728 176.448 174.424 174.576H175.528C175.768 175.824 176.728 176.56 178.12 176.56C179.704 176.56 180.76 175.488 180.76 173.872V172.032C180.232 173.12 179.16 173.76 177.832 173.76C175.624 173.76 174.28 172.016 174.28 169.904ZM175.384 169.888C175.384 171.472 176.36 172.768 177.992 172.768C179.672 172.768 180.664 171.552 180.664 169.888C180.664 168.24 179.704 167.024 178.008 167.024C176.344 167.024 175.384 168.32 175.384 169.888Z" fill="#273540"/>
<path d="M43 200C43 195.582 46.5817 192 51 192H437C441.418 192 445 195.582 445 200V232C445 236.418 441.418 240 437 240H51C46.5817 240 43 236.418 43 232V200Z" fill="#FCF2FA"/>
<path d="M59 216C59 212.686 61.6863 210 65 210C68.3137 210 71 212.686 71 216C71 219.314 68.3137 222 65 222C61.6863 222 59 219.314 59 216Z" fill="#E517C3"/>
<path d="M101.064 222.176C97.864 222.176 95.688 219.792 95.688 216.272C95.688 212.752 97.896 210.352 101.128 210.352C103.592 210.352 105.528 211.84 105.992 214.112H104.76C104.28 212.464 102.872 211.456 101.08 211.456C98.568 211.456 96.888 213.376 96.888 216.272C96.888 219.152 98.568 221.072 101.08 221.072C102.888 221.072 104.328 220.096 104.824 218.56H106.056C105.528 220.72 103.528 222.176 101.064 222.176ZM109.876 222.192C108.228 222.192 107.252 221.264 107.252 219.904C107.252 218.48 108.34 217.584 110.148 217.44L112.708 217.232V216.976C112.708 215.456 111.796 214.976 110.66 214.976C109.316 214.976 108.516 215.584 108.516 216.624H107.508C107.508 215.056 108.788 214.048 110.692 214.048C112.484 214.048 113.796 214.944 113.796 216.992V222H112.868L112.724 220.64C112.244 221.616 111.188 222.192 109.876 222.192ZM110.132 221.296C111.764 221.296 112.708 220.16 112.708 218.48V218.064L110.42 218.24C108.964 218.368 108.372 219.008 108.372 219.872C108.372 220.816 109.076 221.296 110.132 221.296ZM117.115 222H116.011V214.256H116.971L117.131 215.6C117.643 214.608 118.667 214.048 119.787 214.048C121.915 214.048 122.795 215.312 122.795 217.264V222H121.691V217.504C121.691 215.696 120.875 215.056 119.595 215.056C118.011 215.056 117.115 216.208 117.115 217.952V222ZM127.22 222.192C125.572 222.192 124.596 221.264 124.596 219.904C124.596 218.48 125.684 217.584 127.492 217.44L130.052 217.232V216.976C130.052 215.456 129.14 214.976 128.004 214.976C126.66 214.976 125.86 215.584 125.86 216.624H124.852C124.852 215.056 126.132 214.048 128.036 214.048C129.828 214.048 131.14 214.944 131.14 216.992V222H130.212L130.068 220.64C129.588 221.616 128.532 222.192 127.22 222.192ZM127.476 221.296C129.108 221.296 130.052 220.16 130.052 218.48V218.064L127.764 218.24C126.308 218.368 125.716 219.008 125.716 219.872C125.716 220.816 126.42 221.296 127.476 221.296ZM136.395 222.192C134.139 222.192 132.811 220.464 132.811 218.144C132.811 215.808 134.139 214.048 136.443 214.048C137.723 214.048 138.747 214.608 139.291 215.728V210.336H140.395V222H139.435L139.323 220.416C138.779 221.616 137.691 222.192 136.395 222.192ZM136.587 221.184C138.283 221.184 139.275 219.904 139.275 218.112C139.275 216.336 138.283 215.04 136.587 215.04C134.907 215.04 133.931 216.336 133.931 218.112C133.931 219.904 134.907 221.184 136.587 221.184ZM143.243 212.128C142.795 212.128 142.427 211.76 142.427 211.312C142.427 210.864 142.795 210.48 143.243 210.48C143.691 210.48 144.075 210.864 144.075 211.312C144.075 211.76 143.691 212.128 143.243 212.128ZM142.699 222V214.256H143.803V222H142.699ZM148.329 222.192C146.681 222.192 145.705 221.264 145.705 219.904C145.705 218.48 146.793 217.584 148.601 217.44L151.161 217.232V216.976C151.161 215.456 150.249 214.976 149.113 214.976C147.769 214.976 146.969 215.584 146.969 216.624H145.961C145.961 215.056 147.241 214.048 149.145 214.048C150.937 214.048 152.249 214.944 152.249 216.992V222H151.321L151.177 220.64C150.697 221.616 149.641 222.192 148.329 222.192ZM148.585 221.296C150.217 221.296 151.161 220.16 151.161 218.48V218.064L148.873 218.24C147.417 218.368 146.825 219.008 146.825 219.872C146.825 220.816 147.529 221.296 148.585 221.296ZM155.569 222H154.465V214.256H155.424L155.585 215.6C156.097 214.608 157.121 214.048 158.241 214.048C160.369 214.048 161.249 215.312 161.249 217.264V222H160.145V217.504C160.145 215.696 159.329 215.056 158.049 215.056C156.465 215.056 155.569 216.208 155.569 217.952V222Z" fill="#273540"/>
<path d="M59 264C59 260.686 61.6863 258 65 258C68.3137 258 71 260.686 71 264C71 267.314 68.3137 270 65 270C61.6863 270 59 267.314 59 264Z" fill="#E517C3"/>
<path d="M102.232 264.96H97.544V270H96.392V258.544H103.144V259.6H97.544V263.92H102.232V264.96ZM106.423 270.192C104.775 270.192 103.799 269.264 103.799 267.904C103.799 266.48 104.887 265.584 106.695 265.44L109.255 265.232V264.976C109.255 263.456 108.343 262.976 107.207 262.976C105.863 262.976 105.063 263.584 105.063 264.624H104.055C104.055 263.056 105.335 262.048 107.239 262.048C109.031 262.048 110.343 262.944 110.343 264.992V270H109.415L109.271 268.64C108.791 269.616 107.735 270.192 106.423 270.192ZM106.679 269.296C108.311 269.296 109.255 268.16 109.255 266.48V266.064L106.967 266.24C105.511 266.368 104.919 267.008 104.919 267.872C104.919 268.816 105.623 269.296 106.679 269.296ZM113.662 270H112.558V262.256H113.518L113.646 263.36C114.03 262.544 114.894 262.048 115.982 262.048C117.198 262.048 118.11 262.688 118.478 263.696C118.83 262.688 119.774 262.048 121.022 262.048C122.702 262.048 123.806 263.136 123.806 264.928V270H122.734V265.152C122.734 263.824 121.998 263.04 120.814 263.04C119.518 263.04 118.75 264.016 118.75 265.216V270H117.662V265.136C117.662 263.824 116.91 263.056 115.742 263.056C114.446 263.056 113.662 264.016 113.662 265.2V270ZM126.571 260.128C126.123 260.128 125.755 259.76 125.755 259.312C125.755 258.864 126.123 258.48 126.571 258.48C127.019 258.48 127.403 258.864 127.403 259.312C127.403 259.76 127.019 260.128 126.571 260.128ZM126.027 270V262.256H127.131V270H126.027ZM130.585 270H129.481V258.336H130.585V270ZM132.149 273.376V272.464H132.997C133.669 272.464 134.341 272.416 134.725 271.376L135.061 270.464L131.925 262.256H133.093L135.589 269.008L138.037 262.256H139.173L135.621 271.776C135.173 272.992 134.421 273.488 133.317 273.488C132.853 273.488 132.501 273.456 132.149 273.376ZM139.946 266.288V265.296H144.586V266.288H139.946ZM145.585 262.256H146.769V260.752C146.769 259.008 147.729 258.336 148.913 258.336C149.185 258.336 149.505 258.352 149.761 258.4V259.344H149.105C148.129 259.344 147.873 259.84 147.873 260.752V262.256H149.697V263.184H147.873V270H146.769V263.184H145.585V262.256ZM150.421 266.128C150.421 263.76 152.085 262.048 154.357 262.048C156.629 262.048 158.293 263.76 158.293 266.128C158.293 268.48 156.629 270.192 154.357 270.192C152.085 270.192 150.421 268.48 150.421 266.128ZM151.541 266.112C151.541 267.936 152.693 269.2 154.357 269.2C156.005 269.2 157.173 267.936 157.173 266.112C157.173 264.32 156.005 263.04 154.357 263.04C152.693 263.04 151.541 264.32 151.541 266.112ZM159.514 266.144C159.514 263.712 161.002 262.048 163.258 262.048C165.05 262.048 166.362 263.088 166.666 264.688H165.562C165.274 263.616 164.346 263.024 163.274 263.024C161.706 263.024 160.602 264.224 160.602 266.128C160.602 267.968 161.626 269.2 163.194 269.2C164.346 269.2 165.274 268.56 165.578 267.568H166.698C166.33 269.152 164.954 270.192 163.194 270.192C161.002 270.192 159.514 268.576 159.514 266.144ZM173.811 262.256H174.915V270H173.955L173.811 268.688C173.379 269.584 172.307 270.192 171.091 270.192C169.267 270.192 168.275 268.944 168.275 267.056V262.24H169.395V266.704C169.395 268.544 170.211 269.2 171.443 269.2C172.931 269.2 173.811 268.208 173.811 266.368V262.256ZM176.402 267.824H177.458C177.458 268.72 178.13 269.28 179.218 269.28C180.418 269.28 181.122 268.768 181.122 267.936C181.122 267.296 180.802 266.928 179.89 266.704L178.562 266.368C177.218 266.032 176.562 265.328 176.562 264.272C176.562 262.912 177.698 262.048 179.362 262.048C180.994 262.048 182.05 262.944 182.098 264.384H181.026C180.994 263.488 180.37 262.96 179.33 262.96C178.242 262.96 177.634 263.424 177.634 264.256C177.634 264.848 178.05 265.264 178.898 265.472L180.226 265.808C181.57 266.144 182.178 266.768 182.178 267.888C182.178 269.28 180.994 270.192 179.234 270.192C177.49 270.192 176.402 269.264 176.402 267.824ZM187.244 270.192C184.972 270.192 183.452 268.56 183.452 266.128C183.452 263.712 184.956 262.048 187.164 262.048C189.26 262.048 190.684 263.536 190.684 265.728V266.272H184.524C184.604 268.16 185.596 269.248 187.26 269.248C188.524 269.248 189.34 268.704 189.628 267.68H190.684C190.268 269.312 189.068 270.192 187.244 270.192ZM187.164 262.992C185.708 262.992 184.748 263.952 184.556 265.472H189.58C189.58 263.984 188.62 262.992 187.164 262.992ZM195.489 270.192C193.233 270.192 191.905 268.464 191.905 266.144C191.905 263.808 193.233 262.048 195.537 262.048C196.817 262.048 197.841 262.608 198.385 263.728V258.336H199.489V270H198.529L198.417 268.416C197.873 269.616 196.785 270.192 195.489 270.192ZM195.681 269.184C197.377 269.184 198.369 267.904 198.369 266.112C198.369 264.336 197.377 263.04 195.681 263.04C194.001 263.04 193.025 264.336 193.025 266.112C193.025 267.904 194.001 269.184 195.681 269.184Z" fill="#273540"/>
<path d="M43 296C43 291.582 46.5817 288 51 288H437C441.418 288 445 291.582 445 296V328C445 332.418 441.418 336 437 336H51C46.5817 336 43 332.418 43 328V296Z" fill="#FCF2FA"/>
<path d="M59 312C59 308.686 61.6863 306 65 306C68.3137 306 71 308.686 71 312C71 315.314 68.3137 318 65 318C61.6863 318 59 315.314 59 312Z" fill="#E517C3"/>
<path d="M97.544 306.544V316.944H102.808V318H96.392V306.544H97.544ZM103.592 314.128C103.592 311.76 105.256 310.048 107.528 310.048C109.8 310.048 111.464 311.76 111.464 314.128C111.464 316.48 109.8 318.192 107.528 318.192C105.256 318.192 103.592 316.48 103.592 314.128ZM104.712 314.112C104.712 315.936 105.864 317.2 107.528 317.2C109.176 317.2 110.344 315.936 110.344 314.112C110.344 312.32 109.176 311.04 107.528 311.04C105.864 311.04 104.712 312.32 104.712 314.112ZM112.686 314.144C112.686 311.712 114.174 310.048 116.43 310.048C118.222 310.048 119.534 311.088 119.838 312.688H118.734C118.446 311.616 117.518 311.024 116.446 311.024C114.878 311.024 113.774 312.224 113.774 314.128C113.774 315.968 114.798 317.2 116.366 317.2C117.518 317.2 118.446 316.56 118.75 315.568H119.87C119.502 317.152 118.126 318.192 116.366 318.192C114.174 318.192 112.686 316.576 112.686 314.144ZM123.767 318.192C122.119 318.192 121.143 317.264 121.143 315.904C121.143 314.48 122.231 313.584 124.039 313.44L126.599 313.232V312.976C126.599 311.456 125.687 310.976 124.551 310.976C123.207 310.976 122.407 311.584 122.407 312.624H121.399C121.399 311.056 122.679 310.048 124.583 310.048C126.375 310.048 127.687 310.944 127.687 312.992V318H126.759L126.615 316.64C126.135 317.616 125.079 318.192 123.767 318.192ZM124.023 317.296C125.655 317.296 126.599 316.16 126.599 314.48V314.064L124.311 314.24C122.855 314.368 122.263 315.008 122.263 315.872C122.263 316.816 122.967 317.296 124.023 317.296ZM131.054 318H129.95V306.336H131.054V318Z" fill="#273540"/>
<path d="M59 360C59 356.686 61.6863 354 65 354C68.3137 354 71 356.686 71 360C71 363.314 68.3137 366 65 366C61.6863 366 59 363.314 59 360Z" fill="#E517C3"/>
<path d="M97.544 354.544V364.944H102.808V366H96.392V354.544H97.544ZM107.384 366.192C105.112 366.192 103.592 364.56 103.592 362.128C103.592 359.712 105.096 358.048 107.304 358.048C109.4 358.048 110.824 359.536 110.824 361.728V362.272H104.664C104.744 364.16 105.736 365.248 107.4 365.248C108.664 365.248 109.48 364.704 109.768 363.68H110.824C110.408 365.312 109.208 366.192 107.384 366.192ZM107.304 358.992C105.848 358.992 104.888 359.952 104.696 361.472H109.72C109.72 359.984 108.76 358.992 107.304 358.992ZM112.062 361.904C112.062 359.792 113.422 358.048 115.694 358.048C117.038 358.048 118.062 358.672 118.558 359.808L118.67 358.256H119.63V365.76C119.63 368.064 118.158 369.568 115.886 369.568C113.902 369.568 112.51 368.448 112.206 366.576H113.31C113.549 367.824 114.51 368.56 115.902 368.56C117.486 368.56 118.542 367.488 118.542 365.872V364.032C118.014 365.12 116.942 365.76 115.614 365.76C113.406 365.76 112.062 364.016 112.062 361.904ZM113.166 361.888C113.166 363.472 114.142 364.768 115.774 364.768C117.454 364.768 118.446 363.552 118.446 361.888C118.446 360.24 117.486 359.024 115.79 359.024C114.126 359.024 113.166 360.32 113.166 361.888ZM124.157 366.192C122.509 366.192 121.533 365.264 121.533 363.904C121.533 362.48 122.621 361.584 124.429 361.44L126.989 361.232V360.976C126.989 359.456 126.077 358.976 124.941 358.976C123.597 358.976 122.797 359.584 122.797 360.624H121.789C121.789 359.056 123.069 358.048 124.973 358.048C126.765 358.048 128.077 358.944 128.077 360.992V366H127.149L127.005 364.64C126.525 365.616 125.469 366.192 124.157 366.192ZM124.413 365.296C126.045 365.296 126.989 364.16 126.989 362.48V362.064L124.701 362.24C123.245 362.368 122.653 363.008 122.653 363.872C122.653 364.816 123.357 365.296 124.413 365.296ZM129.749 362.144C129.749 359.712 131.237 358.048 133.493 358.048C135.285 358.048 136.597 359.088 136.901 360.688H135.797C135.509 359.616 134.581 359.024 133.509 359.024C131.941 359.024 130.837 360.224 130.837 362.128C130.837 363.968 131.861 365.2 133.429 365.2C134.581 365.2 135.509 364.56 135.813 363.568H136.933C136.565 365.152 135.189 366.192 133.429 366.192C131.237 366.192 129.749 364.576 129.749 362.144ZM137.665 369.376V368.464H138.513C139.185 368.464 139.857 368.416 140.241 367.376L140.577 366.464L137.441 358.256H138.609L141.105 365.008L143.553 358.256H144.689L141.137 367.776C140.689 368.992 139.937 369.488 138.833 369.488C138.369 369.488 138.017 369.456 137.665 369.376Z" fill="#273540"/>
<path d="M43 392C43 387.582 46.5817 384 51 384H437C441.418 384 445 387.582 445 392V424C445 428.418 441.418 432 437 432H51C46.5817 432 43 428.418 43 424V392Z" fill="#FCF2FA"/>
<path d="M59 408C59 404.686 61.6863 402 65 402C68.3137 402 71 404.686 71 408C71 411.314 68.3137 414 65 414C61.6863 414 59 411.314 59 408Z" fill="#E517C3"/>
<path d="M101.064 414.176C97.864 414.176 95.688 411.792 95.688 408.272C95.688 404.752 97.896 402.352 101.128 402.352C103.592 402.352 105.528 403.84 105.992 406.112H104.76C104.28 404.464 102.872 403.456 101.08 403.456C98.568 403.456 96.888 405.376 96.888 408.272C96.888 411.152 98.568 413.072 101.08 413.072C102.888 413.072 104.328 412.096 104.824 410.56H106.056C105.528 412.72 103.528 414.176 101.064 414.176ZM111.856 406.16V407.152H111.248C109.824 407.152 108.912 408.112 108.912 409.584V414H107.808V406.256H108.848L108.928 407.456C109.232 406.624 110.048 406.08 111.136 406.08C111.376 406.08 111.584 406.096 111.856 406.16ZM112.483 410.128C112.483 407.76 114.147 406.048 116.419 406.048C118.691 406.048 120.355 407.76 120.355 410.128C120.355 412.48 118.691 414.192 116.419 414.192C114.147 414.192 112.483 412.48 112.483 410.128ZM113.603 410.112C113.603 411.936 114.755 413.2 116.419 413.2C118.067 413.2 119.235 411.936 119.235 410.112C119.235 408.32 118.067 407.04 116.419 407.04C114.755 407.04 113.603 408.32 113.603 410.112ZM121.465 411.824H122.521C122.521 412.72 123.193 413.28 124.281 413.28C125.481 413.28 126.185 412.768 126.185 411.936C126.185 411.296 125.865 410.928 124.953 410.704L123.625 410.368C122.281 410.032 121.625 409.328 121.625 408.272C121.625 406.912 122.761 406.048 124.425 406.048C126.057 406.048 127.113 406.944 127.161 408.384H126.089C126.057 407.488 125.433 406.96 124.393 406.96C123.305 406.96 122.697 407.424 122.697 408.256C122.697 408.848 123.113 409.264 123.961 409.472L125.289 409.808C126.633 410.144 127.241 410.768 127.241 411.888C127.241 413.28 126.057 414.192 124.297 414.192C122.553 414.192 121.465 413.264 121.465 411.824ZM128.402 411.824H129.458C129.458 412.72 130.13 413.28 131.218 413.28C132.418 413.28 133.122 412.768 133.122 411.936C133.122 411.296 132.802 410.928 131.89 410.704L130.562 410.368C129.218 410.032 128.562 409.328 128.562 408.272C128.562 406.912 129.698 406.048 131.362 406.048C132.994 406.048 134.05 406.944 134.098 408.384H133.026C132.994 407.488 132.37 406.96 131.33 406.96C130.242 406.96 129.634 407.424 129.634 408.256C129.634 408.848 130.05 409.264 130.898 409.472L132.226 409.808C133.57 410.144 134.178 410.768 134.178 411.888C134.178 413.28 132.994 414.192 131.234 414.192C129.49 414.192 128.402 413.264 128.402 411.824ZM135.587 410.288V409.296H140.227V410.288H135.587ZM141.874 409.904C141.874 407.792 143.234 406.048 145.506 406.048C146.85 406.048 147.874 406.672 148.37 407.808L148.482 406.256H149.442V413.76C149.442 416.064 147.97 417.568 145.698 417.568C143.714 417.568 142.322 416.448 142.018 414.576H143.122C143.362 415.824 144.322 416.56 145.714 416.56C147.298 416.56 148.354 415.488 148.354 413.872V412.032C147.826 413.12 146.754 413.76 145.426 413.76C143.218 413.76 141.874 412.016 141.874 409.904ZM142.978 409.888C142.978 411.472 143.954 412.768 145.586 412.768C147.266 412.768 148.258 411.552 148.258 409.888C148.258 408.24 147.298 407.024 145.602 407.024C143.938 407.024 142.978 408.32 142.978 409.888ZM154.994 414.192C152.722 414.192 151.202 412.56 151.202 410.128C151.202 407.712 152.706 406.048 154.914 406.048C157.01 406.048 158.434 407.536 158.434 409.728V410.272H152.274C152.354 412.16 153.346 413.248 155.01 413.248C156.274 413.248 157.09 412.704 157.378 411.68H158.434C158.018 413.312 156.818 414.192 154.994 414.192ZM154.914 406.992C153.458 406.992 152.498 407.952 152.306 409.472H157.33C157.33 407.984 156.37 406.992 154.914 406.992ZM161.303 414H160.199V406.256H161.159L161.319 407.6C161.831 406.608 162.855 406.048 163.975 406.048C166.103 406.048 166.983 407.312 166.983 409.264V414H165.879V409.504C165.879 407.696 165.063 407.056 163.783 407.056C162.199 407.056 161.303 408.208 161.303 409.952V414ZM172.431 414.192C170.159 414.192 168.639 412.56 168.639 410.128C168.639 407.712 170.143 406.048 172.351 406.048C174.447 406.048 175.871 407.536 175.871 409.728V410.272H169.711C169.791 412.16 170.783 413.248 172.447 413.248C173.711 413.248 174.527 412.704 174.815 411.68H175.871C175.455 413.312 174.255 414.192 172.431 414.192ZM172.351 406.992C170.895 406.992 169.935 407.952 169.743 409.472H174.767C174.767 407.984 173.807 406.992 172.351 406.992ZM181.684 406.16V407.152H181.076C179.652 407.152 178.74 408.112 178.74 409.584V414H177.636V406.256H178.676L178.756 407.456C179.06 406.624 179.876 406.08 180.964 406.08C181.204 406.08 181.412 406.096 181.684 406.16ZM185.064 414.192C183.416 414.192 182.44 413.264 182.44 411.904C182.44 410.48 183.528 409.584 185.336 409.44L187.896 409.232V408.976C187.896 407.456 186.984 406.976 185.848 406.976C184.504 406.976 183.704 407.584 183.704 408.624H182.696C182.696 407.056 183.976 406.048 185.88 406.048C187.672 406.048 188.984 406.944 188.984 408.992V414H188.056L187.912 412.64C187.432 413.616 186.376 414.192 185.064 414.192ZM185.32 413.296C186.952 413.296 187.896 412.16 187.896 410.48V410.064L185.608 410.24C184.152 410.368 183.56 411.008 183.56 411.872C183.56 412.816 184.264 413.296 185.32 413.296ZM192.834 414H191.746V407.184H190.194V406.256H191.746V403.808H192.834V406.256H194.386V407.184H192.834V414ZM196.368 404.128C195.92 404.128 195.552 403.76 195.552 403.312C195.552 402.864 195.92 402.48 196.368 402.48C196.816 402.48 197.2 402.864 197.2 403.312C197.2 403.76 196.816 404.128 196.368 404.128ZM195.824 414V406.256H196.928V414H195.824ZM198.686 410.128C198.686 407.76 200.35 406.048 202.622 406.048C204.894 406.048 206.558 407.76 206.558 410.128C206.558 412.48 204.894 414.192 202.622 414.192C200.35 414.192 198.686 412.48 198.686 410.128ZM199.806 410.112C199.806 411.936 200.958 413.2 202.622 413.2C204.27 413.2 205.438 411.936 205.438 410.112C205.438 408.32 204.27 407.04 202.622 407.04C200.958 407.04 199.806 408.32 199.806 410.112ZM209.428 414H208.324V406.256H209.284L209.444 407.6C209.956 406.608 210.98 406.048 212.1 406.048C214.228 406.048 215.108 407.312 215.108 409.264V414H214.004V409.504C214.004 407.696 213.188 407.056 211.908 407.056C210.324 407.056 209.428 408.208 209.428 409.952V414ZM219.532 414.192C217.884 414.192 216.908 413.264 216.908 411.904C216.908 410.48 217.996 409.584 219.804 409.44L222.364 409.232V408.976C222.364 407.456 221.452 406.976 220.316 406.976C218.972 406.976 218.172 407.584 218.172 408.624H217.164C217.164 407.056 218.444 406.048 220.348 406.048C222.14 406.048 223.452 406.944 223.452 408.992V414H222.524L222.38 412.64C221.9 413.616 220.844 414.192 219.532 414.192ZM219.788 413.296C221.42 413.296 222.364 412.16 222.364 410.48V410.064L220.076 410.24C218.62 410.368 218.028 411.008 218.028 411.872C218.028 412.816 218.732 413.296 219.788 413.296ZM226.82 414H225.716V402.336H226.82V414Z" fill="#273540"/>
</g>
<defs>
<filter id="filter0_d_143_6620" x="0" y="0" width="496" height="483" filterUnits="userSpaceOnUse" color-interpolation-filters="sRGB">
<feFlood flood-opacity="0" result="BackgroundImageFix"/>
<feColorMatrix in="SourceAlpha" type="matrix" values="0 0 0 0 0 0 0 0 0 0 0 0 0 0 0 0 0 0 127 0" result="hardAlpha"/>
<feOffset dx="4" dy="4"/>
<feGaussianBlur stdDeviation="7.5"/>
<feComposite in2="hardAlpha" operator="out"/>
<feColorMatrix type="matrix" values="0 0 0 0 0.898039 0 0 0 0 0.0901961 0 0 0 0 0.764706 0 0 0 0.1 0"/>
<feBlend mode="normal" in2="BackgroundImageFix" result="effect1_dropShadow_143_6620"/>
<feBlend mode="normal" in="SourceGraphic" in2="effect1_dropShadow_143_6620" result="shape"/>
</filter>
</defs>
</svg>
