<svg width="256" height="16" viewBox="0 0 256 16" fill="none" xmlns="http://www.w3.org/2000/svg">
<path d="M1.036 11.79C0.905333 11.79 0.751333 11.692 0.574 11.496C0.396667 11.2907 0.308 11.0993 0.308 10.922C0.308 10.7447 0.452667 10.138 0.742 9.102C1.04067 8.066 1.33467 6.82 1.624 5.364C1.92267 3.89867 2.072 2.55933 2.072 1.346C2.072 1.066 2.17467 0.926 2.38 0.926C2.52933 0.926 2.71133 1.066 2.926 1.346C3.14067 1.61667 3.248 1.88267 3.248 2.144C3.248 3.292 2.996 4.93 2.492 7.058C3.60267 5.55533 4.61067 4.804 5.516 4.804C5.95467 4.804 6.32333 5.01867 6.622 5.448C6.93 5.87733 7.084 6.39067 7.084 6.988C7.084 7.576 6.91133 8.25267 6.566 9.018C6.23 9.78333 5.77267 10.4413 5.194 10.992C4.61533 11.5333 4.00867 11.804 3.374 11.804C2.73933 11.804 2.114 11.482 1.498 10.838L1.484 10.852C1.27867 11.4773 1.12933 11.79 1.036 11.79ZM3.262 10.712C3.86867 10.712 4.46133 10.3013 5.04 9.48C5.628 8.64933 5.922 7.77667 5.922 6.862C5.922 6.31133 5.754 6.036 5.418 6.036C4.87667 6.036 4.27 6.414 3.598 7.17C2.93533 7.926 2.36133 8.82667 1.876 9.872C2.31467 10.432 2.77667 10.712 3.262 10.712ZM12.7455 5.238C12.7828 5.08867 12.8201 4.986 12.8575 4.93C12.8948 4.874 12.9741 4.846 13.0955 4.846C13.2261 4.846 13.3801 4.96733 13.5575 5.21C13.7441 5.45267 13.8375 5.686 13.8375 5.91C13.8375 6.03133 13.6321 6.75 13.2215 8.066C12.8108 9.382 12.4935 10.4273 12.2695 11.202C12.1575 11.594 11.9988 11.79 11.7935 11.79C11.6721 11.79 11.5695 11.7387 11.4855 11.636C11.4015 11.5333 11.3595 11.3467 11.3595 11.076C11.3595 10.8053 11.4668 10.3153 11.6815 9.606C11.2895 10.2407 10.8648 10.7633 10.4075 11.174C9.95014 11.5847 9.53014 11.79 9.14747 11.79C8.77414 11.79 8.41947 11.6127 8.08347 11.258C7.74747 10.9033 7.57947 10.5393 7.57947 10.166C7.57947 9.27933 7.83614 8.17333 8.34947 6.848C8.87214 5.51333 9.30614 4.846 9.65147 4.846C9.81947 4.846 9.96414 4.92533 10.0855 5.084C10.2161 5.23333 10.2815 5.406 10.2815 5.602C10.2815 5.686 10.1555 5.98933 9.90347 6.512C9.65147 7.02533 9.39947 7.632 9.14747 8.332C8.89547 9.02267 8.76947 9.62933 8.76947 10.152C8.76947 10.3013 8.81614 10.4273 8.90947 10.53C9.0028 10.6233 9.1148 10.67 9.24547 10.67C9.60014 10.67 10.0201 10.3573 10.5055 9.732C11.0001 9.10667 11.4481 8.37867 11.8495 7.548C12.2508 6.71733 12.5495 5.94733 12.7455 5.238ZM16.0977 10.39C16.0977 10.5673 16.2004 10.656 16.4057 10.656C16.7604 10.656 17.1897 10.558 17.6937 10.362C18.207 10.1567 18.4917 10.054 18.5477 10.054C18.7157 10.054 18.7997 10.1427 18.7997 10.32C18.7997 10.5907 18.5197 10.9033 17.9597 11.258C17.409 11.6127 16.905 11.79 16.4477 11.79C15.9997 11.79 15.6264 11.6687 15.3277 11.426C15.029 11.174 14.8797 10.9173 14.8797 10.656C14.8797 10.3947 14.9357 10.0633 15.0477 9.662C15.1597 9.25133 15.3184 8.71467 15.5237 8.052C15.7384 7.38 15.9064 6.82467 16.0277 6.386C15.589 6.48867 15.295 6.54 15.1457 6.54C14.9964 6.54 14.847 6.46533 14.6977 6.316C14.5577 6.15733 14.4877 6.008 14.4877 5.868C14.4877 5.644 15.0944 5.42933 16.3077 5.224C16.4757 4.44933 16.5597 3.76333 16.5597 3.166C16.5597 2.886 16.653 2.746 16.8397 2.746C16.9984 2.746 17.1944 2.84867 17.4277 3.054C17.661 3.25 17.7777 3.474 17.7777 3.726C17.7777 3.978 17.6984 4.42133 17.5397 5.056C18.0717 5.00933 18.4964 4.986 18.8137 4.986C19.3737 4.986 19.6537 5.10733 19.6537 5.35C19.6537 5.49 19.4997 5.60667 19.1917 5.7C18.893 5.79333 18.2584 5.938 17.2877 6.134C17.0917 6.87133 16.8444 7.716 16.5457 8.668C16.247 9.61067 16.0977 10.1847 16.0977 10.39ZM29.7909 7.226C29.7909 6.90867 29.7396 6.61 29.6369 6.33C29.5342 6.04067 29.3849 5.83067 29.1889 5.7C28.5449 5.87733 27.9896 6.37667 27.5229 7.198C27.0656 8.01 26.8369 8.77533 26.8369 9.494C26.8369 10.2127 27.0142 10.6607 27.3689 10.838C28.0409 10.7073 28.6102 10.25 29.0769 9.466C29.5529 8.67267 29.7909 7.926 29.7909 7.226ZM26.1089 7.352C26.4356 6.624 26.8602 6.02667 27.3829 5.56C27.9149 5.084 28.4562 4.846 29.0069 4.846C29.5669 4.846 30.0336 5.084 30.4069 5.56C30.7802 6.02667 30.9669 6.60067 30.9669 7.282C30.9669 7.954 30.8036 8.64467 30.4769 9.354C30.1502 10.054 29.6976 10.6373 29.1189 11.104C28.5496 11.5613 27.9429 11.79 27.2989 11.79C26.8229 11.79 26.4262 11.5707 26.1089 11.132C25.7916 10.6933 25.6329 10.138 25.6329 9.466C25.6329 8.78467 25.7916 8.08 26.1089 7.352ZM32.7467 6.554L32.7047 5.504C32.7047 5.06533 32.8073 4.846 33.0127 4.846C33.19 4.846 33.358 4.96267 33.5167 5.196C33.6847 5.42 33.7687 5.69067 33.7687 6.008C33.7687 6.316 33.7593 6.54933 33.7407 6.708C34.5527 5.476 35.3227 4.86 36.0507 4.86C36.508 4.86 36.7367 4.972 36.7367 5.196C36.7367 5.308 36.6853 5.41067 36.5827 5.504C36.48 5.59733 36.3167 5.70467 36.0927 5.826C35.598 6.04067 35.178 6.372 34.8327 6.82C34.4967 7.25867 34.2213 7.758 34.0067 8.318C33.792 8.878 33.6193 9.34933 33.4887 9.732C33.3673 10.1147 33.274 10.4133 33.2087 10.628C33.1433 10.8427 33.0687 11.0527 32.9847 11.258C32.8353 11.6313 32.6627 11.818 32.4667 11.818C32.308 11.818 32.1773 11.7293 32.0747 11.552C31.9813 11.3653 31.9347 11.188 31.9347 11.02C31.9347 10.8427 32.014 10.4973 32.1727 9.984C32.5553 8.808 32.7467 7.66467 32.7467 6.554ZM38.3334 2.858C38.3334 2.67133 38.4081 2.494 38.5574 2.326C38.7068 2.158 38.8561 2.074 39.0054 2.074C39.1641 2.074 39.3508 2.26533 39.5654 2.648C39.7801 3.02133 39.8874 3.334 39.8874 3.586C39.8874 3.67933 39.8454 3.76333 39.7614 3.838C39.6774 3.91267 39.5888 3.95 39.4954 3.95C39.2714 3.95 39.0194 3.81467 38.7394 3.544C38.4688 3.27333 38.3334 3.04467 38.3334 2.858ZM38.2634 4.846C38.4408 4.846 38.6088 4.95333 38.7674 5.168C38.9261 5.38267 39.0054 5.59267 39.0054 5.798C39.0054 6.00333 38.8701 6.61933 38.5994 7.646C38.3288 8.66333 37.9881 9.80667 37.5774 11.076C37.4188 11.5427 37.2181 11.776 36.9754 11.776C36.8448 11.776 36.7328 11.7247 36.6394 11.622C36.5461 11.51 36.4994 11.3887 36.4994 11.258C36.4994 11.118 36.5321 10.9033 36.5974 10.614C36.6721 10.3153 36.7748 9.92333 36.9054 9.438C37.0454 8.94333 37.1528 8.542 37.2274 8.234C37.3114 7.926 37.3954 7.58067 37.4794 7.198C37.5634 6.806 37.6288 6.49333 37.6754 6.26C37.7314 6.01733 37.7921 5.77467 37.8574 5.532C37.9881 5.07467 38.1234 4.846 38.2634 4.846ZM45.4214 8.01C45.4214 8.38333 45.258 8.808 44.9314 9.284C44.6794 9.85333 44.4087 10.6747 44.1194 11.748C43.83 12.812 43.5874 13.5727 43.3914 14.03C42.9994 14.982 42.3974 15.458 41.5854 15.458C40.9227 15.458 40.3627 15.276 39.9054 14.912C39.4574 14.5573 39.2334 14.2027 39.2334 13.848C39.2334 13.6987 39.28 13.5493 39.3734 13.4C39.4574 13.2507 39.546 13.176 39.6394 13.176C39.742 13.176 39.854 13.246 39.9754 13.386C40.0967 13.526 40.2087 13.6753 40.3114 13.834C40.4234 14.002 40.5867 14.156 40.8014 14.296C41.0254 14.436 41.24 14.506 41.4454 14.506C41.6507 14.506 41.8047 14.4733 41.9074 14.408C42.01 14.352 42.108 14.254 42.2014 14.114C42.2947 13.9833 42.374 13.848 42.4394 13.708C42.5047 13.5773 42.5747 13.386 42.6494 13.134C42.7334 12.8913 42.7987 12.6813 42.8454 12.504C42.892 12.3267 42.9574 12.0793 43.0414 11.762C43.1254 11.4353 43.1954 11.174 43.2514 10.978C42.5234 11.5193 41.9307 11.79 41.4734 11.79C41.016 11.79 40.6194 11.608 40.2834 11.244C39.9474 10.8707 39.7794 10.4413 39.7794 9.956C39.7794 9.46133 39.9614 8.808 40.3254 7.996C40.6987 7.184 41.198 6.456 41.8234 5.812C42.4487 5.168 43.06 4.846 43.6574 4.846C44.04 4.846 44.362 4.99067 44.6234 5.28C45.0527 5.756 45.2674 6.43267 45.2674 7.31C45.2674 7.422 45.2627 7.50133 45.2534 7.548C45.3654 7.70667 45.4214 7.86067 45.4214 8.01ZM40.9134 10.096C40.9134 10.2547 40.9647 10.3853 41.0674 10.488C41.17 10.5813 41.3007 10.628 41.4594 10.628C41.926 10.628 42.4767 10.3527 43.1114 9.802C43.746 9.242 44.194 8.59333 44.4554 7.856C44.418 7.73467 44.3854 7.548 44.3574 7.296C44.3294 7.044 44.3014 6.84333 44.2734 6.694C44.2454 6.54467 44.1847 6.39533 44.0914 6.246C43.998 6.08733 43.8767 6.008 43.7274 6.008C43.3634 6.008 42.9527 6.26933 42.4954 6.792C42.038 7.31467 41.66 7.898 41.3614 8.542C41.0627 9.186 40.9134 9.704 40.9134 10.096ZM48.3139 2.858C48.3139 2.67133 48.3886 2.494 48.5379 2.326C48.6872 2.158 48.8366 2.074 48.9859 2.074C49.1446 2.074 49.3312 2.26533 49.5459 2.648C49.7606 3.02133 49.8679 3.334 49.8679 3.586C49.8679 3.67933 49.8259 3.76333 49.7419 3.838C49.6579 3.91267 49.5692 3.95 49.4759 3.95C49.2519 3.95 48.9999 3.81467 48.7199 3.544C48.4492 3.27333 48.3139 3.04467 48.3139 2.858ZM48.2439 4.846C48.4212 4.846 48.5892 4.95333 48.7479 5.168C48.9066 5.38267 48.9859 5.59267 48.9859 5.798C48.9859 6.00333 48.8506 6.61933 48.5799 7.646C48.3092 8.66333 47.9686 9.80667 47.5579 11.076C47.3992 11.5427 47.1986 11.776 46.9559 11.776C46.8252 11.776 46.7132 11.7247 46.6199 11.622C46.5266 11.51 46.4799 11.3887 46.4799 11.258C46.4799 11.118 46.5126 10.9033 46.5779 10.614C46.6526 10.3153 46.7552 9.92333 46.8859 9.438C47.0259 8.94333 47.1332 8.542 47.2079 8.234C47.2919 7.926 47.3759 7.58067 47.4599 7.198C47.5439 6.806 47.6092 6.49333 47.6559 6.26C47.7119 6.01733 47.7726 5.77467 47.8379 5.532C47.9686 5.07467 48.1039 4.846 48.2439 4.846ZM51.2298 9.354C52.1258 7.83267 52.8538 6.70333 53.4138 5.966C53.9832 5.21933 54.4452 4.846 54.7998 4.846C55.1638 4.846 55.5045 5.03733 55.8218 5.42C56.1485 5.80267 56.3118 6.20867 56.3118 6.638C56.3118 7.31 56.1578 8.13133 55.8498 9.102C55.2898 10.894 54.7858 11.79 54.3378 11.79C54.1325 11.79 54.0298 11.65 54.0298 11.37C54.0298 11.174 54.1278 10.7773 54.3238 10.18C54.5292 9.57333 54.7158 8.98067 54.8838 8.402C55.0612 7.814 55.1498 7.37533 55.1498 7.086C55.1498 6.78733 55.1032 6.568 55.0098 6.428C54.9258 6.288 54.8372 6.218 54.7438 6.218C54.6598 6.218 54.5712 6.246 54.4778 6.302C54.3845 6.358 54.2772 6.45133 54.1558 6.582C54.0438 6.71267 53.9365 6.84333 53.8338 6.974C53.7312 7.09533 53.6005 7.27267 53.4418 7.506C53.2925 7.73933 53.1665 7.94 53.0638 8.108C52.9612 8.26667 52.8118 8.5 52.6158 8.808C52.4198 9.116 52.2705 9.34933 52.1678 9.508C52.0652 9.66667 51.9298 9.88133 51.7618 10.152C51.5938 10.4227 51.4585 10.6327 51.3558 10.782C51.2625 10.9313 51.1552 11.0947 51.0338 11.272C50.8005 11.6173 50.6138 11.79 50.4738 11.79C50.3432 11.79 50.1892 11.6873 50.0118 11.482C49.8345 11.2673 49.7458 11.0807 49.7458 10.922C49.7458 10.8753 49.7785 10.7493 49.8438 10.544C50.0212 10.0027 50.2172 9.33533 50.4318 8.542C50.6465 7.73933 50.7632 6.82933 50.7818 5.812C50.8098 5.13067 50.9078 4.79 51.0758 4.79C51.2812 4.79 51.4865 4.89733 51.6918 5.112C51.8972 5.32667 51.9998 5.56467 51.9998 5.826C51.9998 6.078 51.9205 6.57267 51.7618 7.31C51.6125 8.038 51.4352 8.71933 51.2298 9.354ZM61.0467 4.846C61.4667 4.846 61.854 5.06067 62.2087 5.49C62.5633 5.91 62.7407 6.29267 62.7407 6.638C62.7407 6.974 62.624 7.31933 62.3907 7.674C62.5027 7.814 62.5587 7.93533 62.5587 8.038C62.5587 8.29933 62.498 8.74733 62.3767 9.382C62.2647 10.0167 62.1947 10.432 62.1667 10.628C62.148 10.824 62.1293 10.9827 62.1107 11.104C62.092 11.216 62.0687 11.328 62.0407 11.44C62.0033 11.6733 61.9193 11.79 61.7887 11.79C61.6207 11.79 61.4807 11.6453 61.3687 11.356C61.266 11.0573 61.2053 10.6747 61.1867 10.208C60.356 11.2627 59.586 11.79 58.8767 11.79C58.4473 11.79 58.0227 11.608 57.6027 11.244C57.192 10.8707 56.9867 10.488 56.9867 10.096C56.9867 9.536 57.192 8.84533 57.6027 8.024C58.0133 7.19333 58.5453 6.456 59.1987 5.812C59.852 5.168 60.468 4.846 61.0467 4.846ZM61.6907 7.31C61.6907 6.442 61.518 6.008 61.1727 6.008C60.8087 6.008 60.384 6.26933 59.8987 6.792C59.4133 7.30533 59.0027 7.88867 58.6667 8.542C58.3307 9.19533 58.1627 9.71333 58.1627 10.096C58.1627 10.2547 58.228 10.3853 58.3587 10.488C58.4893 10.5813 58.6433 10.628 58.8207 10.628C59.2593 10.628 59.754 10.334 60.3047 9.746C60.8553 9.14867 61.238 8.42533 61.4527 7.576C61.4807 7.436 61.56 7.352 61.6907 7.324V7.31ZM66.6432 2.102C66.6432 3.85667 66.2792 6.134 65.5512 8.934C65.0845 10.838 64.7578 11.79 64.5712 11.79C64.4405 11.79 64.2865 11.6873 64.1092 11.482C63.9412 11.2767 63.8572 11.118 63.8572 11.006C63.8572 10.894 63.9925 10.3153 64.2632 9.27C64.5338 8.22467 64.8045 6.94133 65.0752 5.42C65.3458 3.88933 65.4812 2.51267 65.4812 1.29C65.4812 1.15933 65.4998 1.066 65.5372 1.01C65.5745 0.954 65.6538 0.926 65.7752 0.926C65.8965 0.926 66.0692 1.06133 66.2932 1.332C66.5265 1.59333 66.6432 1.85 66.6432 2.102ZM70.0748 2.102C70.0748 3.85667 69.7108 6.134 68.9828 8.934C68.5161 10.838 68.1895 11.79 68.0028 11.79C67.8721 11.79 67.7181 11.6873 67.5408 11.482C67.3728 11.2767 67.2888 11.118 67.2888 11.006C67.2888 10.894 67.4241 10.3153 67.6948 9.27C67.9655 8.22467 68.2361 6.94133 68.5068 5.42C68.7775 3.88933 68.9128 2.51267 68.9128 1.29C68.9128 1.15933 68.9315 1.066 68.9688 1.01C69.0061 0.954 69.0855 0.926 69.2068 0.926C69.3281 0.926 69.5008 1.06133 69.7248 1.332C69.9581 1.59333 70.0748 1.85 70.0748 2.102ZM76.2225 4.846C76.3718 4.846 76.5305 4.958 76.6985 5.182C76.8758 5.39667 76.9645 5.63933 76.9645 5.91C76.9645 6.09667 76.7731 6.73133 76.3905 7.814C76.0078 8.89667 75.7465 9.634 75.6065 10.026C75.4758 10.4087 75.2938 10.922 75.0605 11.566C74.8365 12.2007 74.6171 12.8213 74.4025 13.428C73.9358 14.7627 73.2358 15.43 72.3025 15.43C71.7705 15.43 71.2618 15.2667 70.7765 14.94C70.2911 14.6227 70.0485 14.2913 70.0485 13.946C70.0485 13.8153 70.1091 13.6707 70.2305 13.512C70.3425 13.3533 70.4405 13.274 70.5245 13.274C70.6085 13.274 70.7438 13.3767 70.9305 13.582C71.4718 14.198 71.9338 14.506 72.3165 14.506C72.6058 14.506 72.8671 14.2493 73.1005 13.736C73.3338 13.232 73.5531 12.658 73.7585 12.014C73.9731 11.3793 74.0898 11.0293 74.1085 10.964C74.1365 10.8987 74.1645 10.8147 74.1925 10.712C74.2298 10.6093 74.2625 10.516 74.2905 10.432C73.6278 11.3373 72.9745 11.79 72.3305 11.79C71.9385 11.79 71.5745 11.608 71.2385 11.244C70.9118 10.88 70.7485 10.4507 70.7485 9.956C70.7485 9.46133 70.8698 8.794 71.1125 7.954C71.3551 7.114 71.6398 6.386 71.9665 5.77C72.2931 5.154 72.5591 4.846 72.7645 4.846C72.9325 4.846 73.0865 4.92533 73.2265 5.084C73.3758 5.23333 73.4505 5.38733 73.4505 5.546C73.4505 5.70467 73.3291 6.036 73.0865 6.54C72.3305 8.08933 71.9525 9.29333 71.9525 10.152C71.9525 10.3013 71.9991 10.4273 72.0925 10.53C72.1858 10.6233 72.2978 10.67 72.4285 10.67C72.7645 10.67 73.1658 10.3713 73.6325 9.774C74.0991 9.17667 74.5285 8.46733 74.9205 7.646C75.2471 6.95533 75.5878 6.07333 75.9425 5C75.9798 4.89733 76.0731 4.846 76.2225 4.846ZM83.9381 11.818C83.8168 11.818 83.6861 11.7293 83.5461 11.552C83.4061 11.3747 83.3361 11.23 83.3361 11.118C83.3361 11.006 83.3828 10.7867 83.4761 10.46C83.9428 8.78 84.2601 7.58067 84.4281 6.862C84.0268 6.95533 83.7514 7.002 83.6021 7.002C83.4528 7.002 83.3034 6.93667 83.1541 6.806C83.0048 6.67533 82.9301 6.53067 82.9301 6.372C82.9301 6.21333 83.1401 6.07333 83.5601 5.952C84.1014 5.82133 84.4748 5.73733 84.6801 5.7C84.7734 5.252 84.8434 4.90667 84.8901 4.664C85.1141 3.376 85.4174 2.44733 85.8001 1.878C86.1828 1.30867 86.7008 1.024 87.3541 1.024C87.8208 1.024 88.2034 1.21067 88.5021 1.584C88.8008 1.948 88.9501 2.382 88.9501 2.886C88.9501 3.38067 88.8194 3.628 88.5581 3.628C88.3341 3.628 88.1521 3.376 88.0121 2.872C87.9654 2.68533 87.8861 2.51267 87.7741 2.354C87.6621 2.19533 87.5268 2.116 87.3681 2.116C87.2094 2.116 87.0648 2.19067 86.9341 2.34C86.8034 2.48 86.6868 2.68533 86.5841 2.956C86.3134 3.712 86.1268 4.40267 86.0241 5.028L85.9121 5.518C86.2574 5.47133 86.5981 5.448 86.9341 5.448C87.2794 5.448 87.5268 5.48533 87.6761 5.56C87.8348 5.63467 87.9141 5.728 87.9141 5.84C87.9141 6.01733 87.7601 6.15267 87.4521 6.246C87.1441 6.33933 86.5421 6.46067 85.6461 6.61C84.9834 9.298 84.5308 10.8987 84.2881 11.412C84.1574 11.6827 84.0408 11.818 83.9381 11.818ZM89.0338 6.554L88.9918 5.504C88.9918 5.06533 89.0944 4.846 89.2998 4.846C89.4771 4.846 89.6451 4.96267 89.8038 5.196C89.9718 5.42 90.0558 5.69067 90.0558 6.008C90.0558 6.316 90.0464 6.54933 90.0278 6.708C90.8398 5.476 91.6098 4.86 92.3378 4.86C92.7951 4.86 93.0238 4.972 93.0238 5.196C93.0238 5.308 92.9724 5.41067 92.8698 5.504C92.7671 5.59733 92.6038 5.70467 92.3798 5.826C91.8851 6.04067 91.4651 6.372 91.1198 6.82C90.7838 7.25867 90.5084 7.758 90.2938 8.318C90.0791 8.878 89.9064 9.34933 89.7758 9.732C89.6544 10.1147 89.5611 10.4133 89.4958 10.628C89.4304 10.8427 89.3558 11.0527 89.2718 11.258C89.1224 11.6313 88.9498 11.818 88.7538 11.818C88.5951 11.818 88.4644 11.7293 88.3618 11.552C88.2684 11.3653 88.2218 11.188 88.2218 11.02C88.2218 10.8427 88.3011 10.4973 88.4598 9.984C88.8424 8.808 89.0338 7.66467 89.0338 6.554ZM97.0565 7.226C97.0565 6.90867 97.0052 6.61 96.9025 6.33C96.7999 6.04067 96.6505 5.83067 96.4545 5.7C95.8105 5.87733 95.2552 6.37667 94.7885 7.198C94.3312 8.01 94.1025 8.77533 94.1025 9.494C94.1025 10.2127 94.2799 10.6607 94.6345 10.838C95.3065 10.7073 95.8759 10.25 96.3425 9.466C96.8185 8.67267 97.0565 7.926 97.0565 7.226ZM93.3745 7.352C93.7012 6.624 94.1259 6.02667 94.6485 5.56C95.1805 5.084 95.7219 4.846 96.2725 4.846C96.8325 4.846 97.2992 5.084 97.6725 5.56C98.0459 6.02667 98.2325 6.60067 98.2325 7.282C98.2325 7.954 98.0692 8.64467 97.7425 9.354C97.4159 10.054 96.9632 10.6373 96.3845 11.104C95.8152 11.5613 95.2085 11.79 94.5645 11.79C94.0885 11.79 93.6919 11.5707 93.3745 11.132C93.0572 10.6933 92.8985 10.138 92.8985 9.466C92.8985 8.78467 93.0572 8.08 93.3745 7.352ZM108.23 4.846C108.51 4.846 108.758 5.042 108.972 5.434C109.196 5.81667 109.308 6.25533 109.308 6.75C109.308 7.23533 109.22 7.87 109.042 8.654C108.874 9.438 108.646 10.1567 108.356 10.81C108.067 11.4633 107.782 11.79 107.502 11.79C107.306 11.79 107.208 11.664 107.208 11.412C107.208 11.1507 107.367 10.5207 107.684 9.522C108.011 8.514 108.174 7.716 108.174 7.128C108.174 6.53067 108.081 6.232 107.894 6.232C107.661 6.232 107.39 6.43733 107.082 6.848C106.784 7.25867 106.462 7.75333 106.116 8.332C105.771 8.91067 105.584 9.22333 105.556 9.27C105.528 9.30733 105.491 9.36333 105.444 9.438C105.407 9.51267 105.36 9.592 105.304 9.676C105.258 9.76 105.127 10.012 104.912 10.432C104.707 10.852 104.525 11.1833 104.366 11.426C104.208 11.6593 104.068 11.776 103.946 11.776C103.834 11.776 103.708 11.7013 103.568 11.552C103.428 11.4027 103.358 11.2627 103.358 11.132C103.358 11.0013 103.442 10.7307 103.61 10.32C104.096 9.10667 104.338 7.97733 104.338 6.932C104.338 6.736 104.296 6.57267 104.212 6.442C104.128 6.302 104.035 6.232 103.932 6.232C103.83 6.232 103.722 6.27867 103.61 6.372C103.498 6.456 103.358 6.61467 103.19 6.848C103.022 7.072 102.873 7.28667 102.742 7.492C102.612 7.69733 102.411 8.01933 102.14 8.458C101.879 8.88733 101.678 9.20933 101.538 9.424C101.408 9.62933 101.254 9.872 101.076 10.152C100.899 10.4227 100.759 10.6327 100.656 10.782C100.563 10.9313 100.456 11.0947 100.334 11.272C100.082 11.6173 99.8956 11.79 99.7743 11.79C99.6623 11.79 99.5129 11.6873 99.3263 11.482C99.1396 11.2673 99.0463 11.1087 99.0463 11.006C99.0463 10.894 99.0649 10.7587 99.1023 10.6C99.1396 10.4413 99.1769 10.2873 99.2143 10.138C99.2609 9.98867 99.3263 9.76933 99.4103 9.48C99.5036 9.18133 99.6063 8.836 99.7183 8.444C99.8396 8.04267 99.9283 7.49667 99.9843 6.806C100.05 6.106 100.096 5.59733 100.124 5.28C100.152 4.95333 100.232 4.79 100.362 4.79C100.568 4.79 100.768 4.89733 100.964 5.112C101.17 5.32667 101.272 5.54133 101.272 5.756C101.272 6.57733 100.964 7.93067 100.348 9.816C101.394 7.856 102.052 6.694 102.322 6.33C102.593 5.966 102.826 5.672 103.022 5.448C103.386 5.04667 103.755 4.846 104.128 4.846C104.352 4.846 104.618 5.042 104.926 5.434C105.244 5.81667 105.402 6.204 105.402 6.596C105.402 6.988 105.346 7.47333 105.234 8.052C106.336 5.91467 107.334 4.846 108.23 4.846ZM116.97 11.72C116.839 11.72 116.685 11.6127 116.508 11.398C116.34 11.174 116.256 10.9453 116.256 10.712C116.256 10.4693 116.559 9.172 117.166 6.82C117.773 4.468 118.076 2.99333 118.076 2.396C118.076 2.228 118.095 2.11133 118.132 2.046C118.169 1.98067 118.253 1.948 118.384 1.948C118.524 1.948 118.687 2.09267 118.874 2.382C119.061 2.67133 119.154 3.00267 119.154 3.376C119.154 3.74933 118.911 4.85533 118.426 6.694C119.275 5.53667 120.171 4.47267 121.114 3.502C122.057 2.522 122.654 2.032 122.906 2.032C123.093 2.032 123.265 2.09267 123.424 2.214C123.592 2.33533 123.676 2.45667 123.676 2.578C123.676 2.69 123.452 2.95133 123.004 3.362C122.565 3.76333 121.973 4.328 121.226 5.056C120.479 5.784 119.84 6.512 119.308 7.24C119.308 7.62267 119.411 8.038 119.616 8.486C119.943 9.23267 120.615 9.85333 121.632 10.348C122.071 10.5627 122.411 10.7447 122.654 10.894C122.906 11.0433 123.032 11.1973 123.032 11.356C123.032 11.5987 122.85 11.72 122.486 11.72C122.122 11.72 121.739 11.6453 121.338 11.496C120.937 11.3373 120.535 11.118 120.134 10.838C119.733 10.558 119.364 10.1893 119.028 9.732C118.701 9.26533 118.477 8.75667 118.356 8.206C118.067 8.71933 117.796 9.396 117.544 10.236C117.236 11.2253 117.049 11.72 116.984 11.72H116.97ZM128.433 7.226C128.433 6.90867 128.382 6.61 128.279 6.33C128.177 6.04067 128.027 5.83067 127.831 5.7C127.187 5.87733 126.632 6.37667 126.165 7.198C125.708 8.01 125.479 8.77533 125.479 9.494C125.479 10.2127 125.657 10.6607 126.011 10.838C126.683 10.7073 127.253 10.25 127.719 9.466C128.195 8.67267 128.433 7.926 128.433 7.226ZM124.751 7.352C125.078 6.624 125.503 6.02667 126.025 5.56C126.557 5.084 127.099 4.846 127.649 4.846C128.209 4.846 128.676 5.084 129.049 5.56C129.423 6.02667 129.609 6.60067 129.609 7.282C129.609 7.954 129.446 8.64467 129.119 9.354C128.793 10.054 128.34 10.6373 127.761 11.104C127.192 11.5613 126.585 11.79 125.941 11.79C125.465 11.79 125.069 11.5707 124.751 11.132C124.434 10.6933 124.275 10.138 124.275 9.466C124.275 8.78467 124.434 8.08 124.751 7.352ZM132.117 10.39C132.117 10.5673 132.22 10.656 132.425 10.656C132.78 10.656 133.209 10.558 133.713 10.362C134.227 10.1567 134.511 10.054 134.567 10.054C134.735 10.054 134.819 10.1427 134.819 10.32C134.819 10.5907 134.539 10.9033 133.979 11.258C133.429 11.6127 132.925 11.79 132.467 11.79C132.019 11.79 131.646 11.6687 131.347 11.426C131.049 11.174 130.899 10.9173 130.899 10.656C130.899 10.3947 130.955 10.0633 131.067 9.662C131.179 9.25133 131.338 8.71467 131.543 8.052C131.758 7.38 131.926 6.82467 132.047 6.386C131.609 6.48867 131.315 6.54 131.165 6.54C131.016 6.54 130.867 6.46533 130.717 6.316C130.577 6.15733 130.507 6.008 130.507 5.868C130.507 5.644 131.114 5.42933 132.327 5.224C132.495 4.44933 132.579 3.76333 132.579 3.166C132.579 2.886 132.673 2.746 132.859 2.746C133.018 2.746 133.214 2.84867 133.447 3.054C133.681 3.25 133.797 3.474 133.797 3.726C133.797 3.978 133.718 4.42133 133.559 5.056C134.091 5.00933 134.516 4.986 134.833 4.986C135.393 4.986 135.673 5.10733 135.673 5.35C135.673 5.49 135.519 5.60667 135.211 5.7C134.913 5.79333 134.278 5.938 133.307 6.134C133.111 6.87133 132.864 7.716 132.565 8.668C132.267 9.61067 132.117 10.1847 132.117 10.39ZM139.687 4.846C140.107 4.846 140.495 5.06067 140.849 5.49C141.204 5.91 141.381 6.29267 141.381 6.638C141.381 6.974 141.265 7.31933 141.031 7.674C141.143 7.814 141.199 7.93533 141.199 8.038C141.199 8.29933 141.139 8.74733 141.017 9.382C140.905 10.0167 140.835 10.432 140.807 10.628C140.789 10.824 140.77 10.9827 140.751 11.104C140.733 11.216 140.709 11.328 140.681 11.44C140.644 11.6733 140.56 11.79 140.429 11.79C140.261 11.79 140.121 11.6453 140.009 11.356C139.907 11.0573 139.846 10.6747 139.827 10.208C138.997 11.2627 138.227 11.79 137.517 11.79C137.088 11.79 136.663 11.608 136.243 11.244C135.833 10.8707 135.627 10.488 135.627 10.096C135.627 9.536 135.833 8.84533 136.243 8.024C136.654 7.19333 137.186 6.456 137.839 5.812C138.493 5.168 139.109 4.846 139.687 4.846ZM140.331 7.31C140.331 6.442 140.159 6.008 139.813 6.008C139.449 6.008 139.025 6.26933 138.539 6.792C138.054 7.30533 137.643 7.88867 137.307 8.542C136.971 9.19533 136.803 9.71333 136.803 10.096C136.803 10.2547 136.869 10.3853 136.999 10.488C137.13 10.5813 137.284 10.628 137.461 10.628C137.9 10.628 138.395 10.334 138.945 9.746C139.496 9.14867 139.879 8.42533 140.093 7.576C140.121 7.436 140.201 7.352 140.331 7.324V7.31ZM149.181 11.72C149.05 11.72 148.896 11.6127 148.719 11.398C148.551 11.174 148.467 10.9453 148.467 10.712C148.467 10.4693 148.77 9.172 149.377 6.82C149.984 4.468 150.287 2.99333 150.287 2.396C150.287 2.228 150.306 2.11133 150.343 2.046C150.38 1.98067 150.464 1.948 150.595 1.948C150.735 1.948 150.898 2.09267 151.085 2.382C151.272 2.67133 151.365 3.00267 151.365 3.376C151.365 3.74933 151.122 4.85533 150.637 6.694C151.486 5.53667 152.382 4.47267 153.325 3.502C154.268 2.522 154.865 2.032 155.117 2.032C155.304 2.032 155.476 2.09267 155.635 2.214C155.803 2.33533 155.887 2.45667 155.887 2.578C155.887 2.69 155.663 2.95133 155.215 3.362C154.776 3.76333 154.184 4.328 153.437 5.056C152.69 5.784 152.051 6.512 151.519 7.24C151.519 7.62267 151.622 8.038 151.827 8.486C152.154 9.23267 152.826 9.85333 153.843 10.348C154.282 10.5627 154.622 10.7447 154.865 10.894C155.117 11.0433 155.243 11.1973 155.243 11.356C155.243 11.5987 155.061 11.72 154.697 11.72C154.333 11.72 153.95 11.6453 153.549 11.496C153.148 11.3373 152.746 11.118 152.345 10.838C151.944 10.558 151.575 10.1893 151.239 9.732C150.912 9.26533 150.688 8.75667 150.567 8.206C150.278 8.71933 150.007 9.396 149.755 10.236C149.447 11.2253 149.26 11.72 149.195 11.72H149.181ZM158.208 2.858C158.208 2.67133 158.283 2.494 158.432 2.326C158.582 2.158 158.731 2.074 158.88 2.074C159.039 2.074 159.226 2.26533 159.44 2.648C159.655 3.02133 159.762 3.334 159.762 3.586C159.762 3.67933 159.72 3.76333 159.636 3.838C159.552 3.91267 159.464 3.95 159.37 3.95C159.146 3.95 158.894 3.81467 158.614 3.544C158.344 3.27333 158.208 3.04467 158.208 2.858ZM158.138 4.846C158.316 4.846 158.484 4.95333 158.642 5.168C158.801 5.38267 158.88 5.59267 158.88 5.798C158.88 6.00333 158.745 6.61933 158.474 7.646C158.204 8.66333 157.863 9.80667 157.452 11.076C157.294 11.5427 157.093 11.776 156.85 11.776C156.72 11.776 156.608 11.7247 156.514 11.622C156.421 11.51 156.374 11.3887 156.374 11.258C156.374 11.118 156.407 10.9033 156.472 10.614C156.547 10.3153 156.65 9.92333 156.78 9.438C156.92 8.94333 157.028 8.542 157.102 8.234C157.186 7.926 157.27 7.58067 157.354 7.198C157.438 6.806 157.504 6.49333 157.55 6.26C157.606 6.01733 157.667 5.77467 157.732 5.532C157.863 5.07467 157.998 4.846 158.138 4.846ZM161.124 9.354C162.02 7.83267 162.748 6.70333 163.308 5.966C163.878 5.21933 164.34 4.846 164.694 4.846C165.058 4.846 165.399 5.03733 165.716 5.42C166.043 5.80267 166.206 6.20867 166.206 6.638C166.206 7.31 166.052 8.13133 165.744 9.102C165.184 10.894 164.68 11.79 164.232 11.79C164.027 11.79 163.924 11.65 163.924 11.37C163.924 11.174 164.022 10.7773 164.218 10.18C164.424 9.57333 164.61 8.98067 164.778 8.402C164.956 7.814 165.044 7.37533 165.044 7.086C165.044 6.78733 164.998 6.568 164.904 6.428C164.82 6.288 164.732 6.218 164.638 6.218C164.554 6.218 164.466 6.246 164.372 6.302C164.279 6.358 164.172 6.45133 164.05 6.582C163.938 6.71267 163.831 6.84333 163.728 6.974C163.626 7.09533 163.495 7.27267 163.336 7.506C163.187 7.73933 163.061 7.94 162.958 8.108C162.856 8.26667 162.706 8.5 162.51 8.808C162.314 9.116 162.165 9.34933 162.062 9.508C161.96 9.66667 161.824 9.88133 161.656 10.152C161.488 10.4227 161.353 10.6327 161.25 10.782C161.157 10.9313 161.05 11.0947 160.928 11.272C160.695 11.6173 160.508 11.79 160.368 11.79C160.238 11.79 160.084 11.6873 159.906 11.482C159.729 11.2673 159.64 11.0807 159.64 10.922C159.64 10.8753 159.673 10.7493 159.738 10.544C159.916 10.0027 160.112 9.33533 160.326 8.542C160.541 7.73933 160.658 6.82933 160.676 5.812C160.704 5.13067 160.802 4.79 160.97 4.79C161.176 4.79 161.381 4.89733 161.586 5.112C161.792 5.32667 161.894 5.56467 161.894 5.826C161.894 6.078 161.815 6.57267 161.656 7.31C161.507 8.038 161.33 8.71933 161.124 9.354ZM170.941 4.846C171.361 4.846 171.749 5.06067 172.103 5.49C172.458 5.91 172.635 6.29267 172.635 6.638C172.635 6.974 172.519 7.31933 172.285 7.674C172.397 7.814 172.453 7.93533 172.453 8.038C172.453 8.29933 172.393 8.74733 172.271 9.382C172.159 10.0167 172.089 10.432 172.061 10.628C172.043 10.824 172.024 10.9827 172.005 11.104C171.987 11.216 171.963 11.328 171.935 11.44C171.898 11.6733 171.814 11.79 171.683 11.79C171.515 11.79 171.375 11.6453 171.263 11.356C171.161 11.0573 171.1 10.6747 171.081 10.208C170.251 11.2627 169.481 11.79 168.771 11.79C168.342 11.79 167.917 11.608 167.497 11.244C167.087 10.8707 166.881 10.488 166.881 10.096C166.881 9.536 167.087 8.84533 167.497 8.024C167.908 7.19333 168.44 6.456 169.093 5.812C169.747 5.168 170.363 4.846 170.941 4.846ZM171.585 7.31C171.585 6.442 171.413 6.008 171.067 6.008C170.703 6.008 170.279 6.26933 169.793 6.792C169.308 7.30533 168.897 7.88867 168.561 8.542C168.225 9.19533 168.057 9.71333 168.057 10.096C168.057 10.2547 168.123 10.3853 168.253 10.488C168.384 10.5813 168.538 10.628 168.715 10.628C169.154 10.628 169.649 10.334 170.199 9.746C170.75 9.14867 171.133 8.42533 171.347 7.576C171.375 7.436 171.455 7.352 171.585 7.324V7.31ZM174.382 11.79C174.251 11.79 174.097 11.692 173.92 11.496C173.742 11.2907 173.654 11.0993 173.654 10.922C173.654 10.7447 173.798 10.138 174.088 9.102C174.386 8.066 174.68 6.82 174.97 5.364C175.268 3.89867 175.418 2.55933 175.418 1.346C175.418 1.066 175.52 0.926 175.726 0.926C175.875 0.926 176.057 1.066 176.272 1.346C176.486 1.61667 176.594 1.88267 176.594 2.144C176.594 3.292 176.342 4.93 175.838 7.058C176.948 5.55533 177.956 4.804 178.862 4.804C179.3 4.804 179.669 5.01867 179.968 5.448C180.276 5.87733 180.43 6.39067 180.43 6.988C180.43 7.576 180.257 8.25267 179.912 9.018C179.576 9.78333 179.118 10.4413 178.54 10.992C177.961 11.5333 177.354 11.804 176.72 11.804C176.085 11.804 175.46 11.482 174.844 10.838L174.83 10.852C174.624 11.4773 174.475 11.79 174.382 11.79ZM176.608 10.712C177.214 10.712 177.807 10.3013 178.386 9.48C178.974 8.64933 179.268 7.77667 179.268 6.862C179.268 6.31133 179.1 6.036 178.764 6.036C178.222 6.036 177.616 6.414 176.944 7.17C176.281 7.926 175.707 8.82667 175.222 9.872C175.66 10.432 176.122 10.712 176.608 10.712ZM184.859 4.846C185.279 4.846 185.667 5.06067 186.021 5.49C186.376 5.91 186.553 6.29267 186.553 6.638C186.553 6.974 186.437 7.31933 186.203 7.674C186.315 7.814 186.371 7.93533 186.371 8.038C186.371 8.29933 186.311 8.74733 186.189 9.382C186.077 10.0167 186.007 10.432 185.979 10.628C185.961 10.824 185.942 10.9827 185.923 11.104C185.905 11.216 185.881 11.328 185.853 11.44C185.816 11.6733 185.732 11.79 185.601 11.79C185.433 11.79 185.293 11.6453 185.181 11.356C185.079 11.0573 185.018 10.6747 184.999 10.208C184.169 11.2627 183.399 11.79 182.689 11.79C182.26 11.79 181.835 11.608 181.415 11.244C181.005 10.8707 180.799 10.488 180.799 10.096C180.799 9.536 181.005 8.84533 181.415 8.024C181.826 7.19333 182.358 6.456 183.011 5.812C183.665 5.168 184.281 4.846 184.859 4.846ZM185.503 7.31C185.503 6.442 185.331 6.008 184.985 6.008C184.621 6.008 184.197 6.26933 183.711 6.792C183.226 7.30533 182.815 7.88867 182.479 8.542C182.143 9.19533 181.975 9.71333 181.975 10.096C181.975 10.2547 182.041 10.3853 182.171 10.488C182.302 10.5813 182.456 10.628 182.633 10.628C183.072 10.628 183.567 10.334 184.117 9.746C184.668 9.14867 185.051 8.42533 185.265 7.576C185.293 7.436 185.373 7.352 185.503 7.324V7.31ZM190.456 2.102C190.456 3.85667 190.092 6.134 189.364 8.934C188.897 10.838 188.57 11.79 188.384 11.79C188.253 11.79 188.099 11.6873 187.922 11.482C187.754 11.2767 187.67 11.118 187.67 11.006C187.67 10.894 187.805 10.3153 188.076 9.27C188.346 8.22467 188.617 6.94133 188.888 5.42C189.158 3.88933 189.294 2.51267 189.294 1.29C189.294 1.15933 189.312 1.066 189.35 1.01C189.387 0.954 189.466 0.926 189.588 0.926C189.709 0.926 189.882 1.06133 190.106 1.332C190.339 1.59333 190.456 1.85 190.456 2.102ZM196.085 5.238C196.123 5.08867 196.16 4.986 196.197 4.93C196.235 4.874 196.314 4.846 196.435 4.846C196.566 4.846 196.72 4.96733 196.897 5.21C197.084 5.45267 197.177 5.686 197.177 5.91C197.177 6.03133 196.972 6.75 196.561 8.066C196.151 9.382 195.833 10.4273 195.609 11.202C195.497 11.594 195.339 11.79 195.133 11.79C195.012 11.79 194.909 11.7387 194.825 11.636C194.741 11.5333 194.699 11.3467 194.699 11.076C194.699 10.8053 194.807 10.3153 195.021 9.606C194.629 10.2407 194.205 10.7633 193.747 11.174C193.29 11.5847 192.87 11.79 192.487 11.79C192.114 11.79 191.759 11.6127 191.423 11.258C191.087 10.9033 190.919 10.5393 190.919 10.166C190.919 9.27933 191.176 8.17333 191.689 6.848C192.212 5.51333 192.646 4.846 192.991 4.846C193.159 4.846 193.304 4.92533 193.425 5.084C193.556 5.23333 193.621 5.406 193.621 5.602C193.621 5.686 193.495 5.98933 193.243 6.512C192.991 7.02533 192.739 7.632 192.487 8.332C192.235 9.02267 192.109 9.62933 192.109 10.152C192.109 10.3013 192.156 10.4273 192.249 10.53C192.343 10.6233 192.455 10.67 192.585 10.67C192.94 10.67 193.36 10.3573 193.845 9.732C194.34 9.10667 194.788 8.37867 195.189 7.548C195.591 6.71733 195.889 5.94733 196.085 5.238ZM199.872 11.636C199.872 12.224 199.62 12.84 199.116 13.484C198.612 14.1373 198.178 14.464 197.814 14.464C197.627 14.464 197.534 14.3987 197.534 14.268C197.534 14.1653 197.632 13.9973 197.828 13.764C198.416 13.064 198.71 12.4807 198.71 12.014C198.71 11.8647 198.649 11.7433 198.528 11.65C198.416 11.5473 198.299 11.454 198.178 11.37C198.056 11.286 197.996 11.1833 197.996 11.062C197.996 10.9313 198.075 10.7727 198.234 10.586C198.392 10.39 198.56 10.292 198.738 10.292C199.036 10.292 199.298 10.432 199.522 10.712C199.755 10.9827 199.872 11.2907 199.872 11.636ZM208.83 2.368C208.83 2.20933 208.849 2.102 208.886 2.046C208.933 1.98067 209.012 1.948 209.124 1.948C209.246 1.948 209.451 2.074 209.74 2.326C210.03 2.578 210.184 2.802 210.202 2.998C210.24 3.334 210.417 3.93133 210.734 4.79C211.052 5.63933 211.416 6.50267 211.826 7.38C212.349 6.764 213.007 5.94733 213.8 4.93C214.594 3.90333 215.182 3.17533 215.564 2.746C215.947 2.31667 216.222 2.102 216.39 2.102C216.558 2.102 216.736 2.19533 216.922 2.382C217.109 2.56867 217.202 2.746 217.202 2.914C217.202 3.082 217.184 3.27333 217.146 3.488C217.109 3.70267 217.044 3.98733 216.95 4.342C216.866 4.68733 216.787 4.99067 216.712 5.252C216.647 5.504 216.535 5.90067 216.376 6.442C216.218 6.98333 216.096 7.41733 216.012 7.744C215.928 8.06133 215.83 8.45333 215.718 8.92C215.606 9.37733 215.513 9.75533 215.438 10.054C215.373 10.3433 215.303 10.628 215.228 10.908C215.088 11.4493 214.953 11.72 214.822 11.72C214.701 11.72 214.58 11.608 214.458 11.384C214.337 11.16 214.276 10.8613 214.276 10.488C214.276 10.1053 214.435 9.23733 214.752 7.884C215.079 6.53067 215.429 5.34533 215.802 4.328C214.085 6.47467 213.026 7.758 212.624 8.178C212.232 8.598 211.906 8.808 211.644 8.808C211.392 8.808 211.154 8.66333 210.93 8.374C210.594 7.88867 210.142 6.74067 209.572 4.93C209.414 5.91 209.236 6.75 209.04 7.45C208.854 8.14067 208.728 8.60267 208.662 8.836C208.606 9.06 208.555 9.24667 208.508 9.396C208.471 9.54533 208.424 9.72267 208.368 9.928C208.312 10.124 208.261 10.2873 208.214 10.418C208.177 10.5487 208.135 10.6933 208.088 10.852C208.042 11.0013 208 11.1227 207.962 11.216C207.934 11.3093 207.902 11.398 207.864 11.482C207.79 11.6407 207.734 11.72 207.696 11.72C207.584 11.72 207.444 11.5987 207.276 11.356C207.108 11.1133 207.024 10.88 207.024 10.656C207.024 10.432 207.323 9.144 207.92 6.792C208.527 4.44 208.83 2.96533 208.83 2.368ZM221.445 4.846C221.865 4.846 222.252 5.06067 222.607 5.49C222.962 5.91 223.139 6.29267 223.139 6.638C223.139 6.974 223.022 7.31933 222.789 7.674C222.901 7.814 222.957 7.93533 222.957 8.038C222.957 8.29933 222.896 8.74733 222.775 9.382C222.663 10.0167 222.593 10.432 222.565 10.628C222.546 10.824 222.528 10.9827 222.509 11.104C222.49 11.216 222.467 11.328 222.439 11.44C222.402 11.6733 222.318 11.79 222.187 11.79C222.019 11.79 221.879 11.6453 221.767 11.356C221.664 11.0573 221.604 10.6747 221.585 10.208C220.754 11.2627 219.984 11.79 219.275 11.79C218.846 11.79 218.421 11.608 218.001 11.244C217.59 10.8707 217.385 10.488 217.385 10.096C217.385 9.536 217.59 8.84533 218.001 8.024C218.412 7.19333 218.944 6.456 219.597 5.812C220.25 5.168 220.866 4.846 221.445 4.846ZM222.089 7.31C222.089 6.442 221.916 6.008 221.571 6.008C221.207 6.008 220.782 6.26933 220.297 6.792C219.812 7.30533 219.401 7.88867 219.065 8.542C218.729 9.19533 218.561 9.71333 218.561 10.096C218.561 10.2547 218.626 10.3853 218.757 10.488C218.888 10.5813 219.042 10.628 219.219 10.628C219.658 10.628 220.152 10.334 220.703 9.746C221.254 9.14867 221.636 8.42533 221.851 7.576C221.879 7.436 221.958 7.352 222.089 7.324V7.31ZM227.042 2.102C227.042 3.85667 226.678 6.134 225.95 8.934C225.483 10.838 225.156 11.79 224.97 11.79C224.839 11.79 224.685 11.6873 224.508 11.482C224.34 11.2767 224.256 11.118 224.256 11.006C224.256 10.894 224.391 10.3153 224.662 9.27C224.932 8.22467 225.203 6.94133 225.474 5.42C225.744 3.88933 225.88 2.51267 225.88 1.29C225.88 1.15933 225.898 1.066 225.936 1.01C225.973 0.954 226.052 0.926 226.174 0.926C226.295 0.926 226.468 1.06133 226.692 1.332C226.925 1.59333 227.042 1.85 227.042 2.102ZM231.439 4.846C231.859 4.846 232.247 5.06067 232.601 5.49C232.956 5.91 233.133 6.29267 233.133 6.638C233.133 6.974 233.017 7.31933 232.783 7.674C232.895 7.814 232.951 7.93533 232.951 8.038C232.951 8.29933 232.891 8.74733 232.769 9.382C232.657 10.0167 232.587 10.432 232.559 10.628C232.541 10.824 232.522 10.9827 232.503 11.104C232.485 11.216 232.461 11.328 232.433 11.44C232.396 11.6733 232.312 11.79 232.181 11.79C232.013 11.79 231.873 11.6453 231.761 11.356C231.659 11.0573 231.598 10.6747 231.579 10.208C230.749 11.2627 229.979 11.79 229.269 11.79C228.84 11.79 228.415 11.608 227.995 11.244C227.585 10.8707 227.379 10.488 227.379 10.096C227.379 9.536 227.585 8.84533 227.995 8.024C228.406 7.19333 228.938 6.456 229.591 5.812C230.245 5.168 230.861 4.846 231.439 4.846ZM232.083 7.31C232.083 6.442 231.911 6.008 231.565 6.008C231.201 6.008 230.777 6.26933 230.291 6.792C229.806 7.30533 229.395 7.88867 229.059 8.542C228.723 9.19533 228.555 9.71333 228.555 10.096C228.555 10.2547 228.621 10.3853 228.751 10.488C228.882 10.5813 229.036 10.628 229.213 10.628C229.652 10.628 230.147 10.334 230.697 9.746C231.248 9.14867 231.631 8.42533 231.845 7.576C231.873 7.436 231.953 7.352 232.083 7.324V7.31ZM239.752 4.846C239.901 4.846 240.06 4.958 240.228 5.182C240.405 5.39667 240.494 5.63933 240.494 5.91C240.494 6.09667 240.302 6.73133 239.92 7.814C239.537 8.89667 239.276 9.634 239.136 10.026C239.005 10.4087 238.823 10.922 238.59 11.566C238.366 12.2007 238.146 12.8213 237.932 13.428C237.465 14.7627 236.765 15.43 235.832 15.43C235.3 15.43 234.791 15.2667 234.306 14.94C233.82 14.6227 233.578 14.2913 233.578 13.946C233.578 13.8153 233.638 13.6707 233.76 13.512C233.872 13.3533 233.97 13.274 234.054 13.274C234.138 13.274 234.273 13.3767 234.46 13.582C235.001 14.198 235.463 14.506 235.846 14.506C236.135 14.506 236.396 14.2493 236.63 13.736C236.863 13.232 237.082 12.658 237.288 12.014C237.502 11.3793 237.619 11.0293 237.638 10.964C237.666 10.8987 237.694 10.8147 237.722 10.712C237.759 10.6093 237.792 10.516 237.82 10.432C237.157 11.3373 236.504 11.79 235.86 11.79C235.468 11.79 235.104 11.608 234.768 11.244C234.441 10.88 234.278 10.4507 234.278 9.956C234.278 9.46133 234.399 8.794 234.642 7.954C234.884 7.114 235.169 6.386 235.496 5.77C235.822 5.154 236.088 4.846 236.294 4.846C236.462 4.846 236.616 4.92533 236.756 5.084C236.905 5.23333 236.98 5.38733 236.98 5.546C236.98 5.70467 236.858 6.036 236.616 6.54C235.86 8.08933 235.482 9.29333 235.482 10.152C235.482 10.3013 235.528 10.4273 235.622 10.53C235.715 10.6233 235.827 10.67 235.958 10.67C236.294 10.67 236.695 10.3713 237.162 9.774C237.628 9.17667 238.058 8.46733 238.45 7.646C238.776 6.95533 239.117 6.07333 239.472 5C239.509 4.89733 239.602 4.846 239.752 4.846ZM244.844 4.846C245.162 4.846 245.46 5.02333 245.74 5.378C246.02 5.72333 246.16 6.02667 246.16 6.288C246.16 6.44667 246.086 6.526 245.936 6.526C245.834 6.526 245.675 6.44667 245.46 6.288C245.246 6.12 245.026 6.036 244.802 6.036C244.578 6.036 244.224 6.16667 243.738 6.428C243.262 6.68933 243.024 6.96467 243.024 7.254C243.024 7.46867 243.454 7.83733 244.312 8.36C244.639 8.56533 244.933 8.83133 245.194 9.158C245.465 9.47533 245.6 9.82067 245.6 10.194C245.6 10.558 245.344 10.9173 244.83 11.272C244.326 11.6173 243.734 11.79 243.052 11.79C242.38 11.79 241.783 11.6267 241.26 11.3C240.747 10.9733 240.49 10.6653 240.49 10.376C240.49 10.2547 240.518 10.1613 240.574 10.096C240.64 10.0213 240.719 9.984 240.812 9.984C240.906 9.984 241.036 10.0447 241.204 10.166C241.708 10.53 242.231 10.712 242.772 10.712C243.323 10.712 243.72 10.6513 243.962 10.53C244.205 10.3993 244.326 10.2313 244.326 10.026C244.326 9.81133 244.191 9.58733 243.92 9.354C243.65 9.11133 243.351 8.89667 243.024 8.71C242.707 8.52333 242.413 8.29467 242.142 8.024C241.872 7.75333 241.736 7.478 241.736 7.198C241.736 6.70333 242.124 6.19 242.898 5.658C243.682 5.11667 244.331 4.846 244.844 4.846ZM248.593 2.858C248.593 2.67133 248.668 2.494 248.817 2.326C248.967 2.158 249.116 2.074 249.265 2.074C249.424 2.074 249.611 2.26533 249.825 2.648C250.04 3.02133 250.147 3.334 250.147 3.586C250.147 3.67933 250.105 3.76333 250.021 3.838C249.937 3.91267 249.849 3.95 249.755 3.95C249.531 3.95 249.279 3.81467 248.999 3.544C248.729 3.27333 248.593 3.04467 248.593 2.858ZM248.523 4.846C248.701 4.846 248.869 4.95333 249.027 5.168C249.186 5.38267 249.265 5.59267 249.265 5.798C249.265 6.00333 249.13 6.61933 248.859 7.646C248.589 8.66333 248.248 9.80667 247.837 11.076C247.679 11.5427 247.478 11.776 247.235 11.776C247.105 11.776 246.993 11.7247 246.899 11.622C246.806 11.51 246.759 11.3887 246.759 11.258C246.759 11.118 246.792 10.9033 246.857 10.614C246.932 10.3153 247.035 9.92333 247.165 9.438C247.305 8.94333 247.413 8.542 247.487 8.234C247.571 7.926 247.655 7.58067 247.739 7.198C247.823 6.806 247.889 6.49333 247.935 6.26C247.991 6.01733 248.052 5.77467 248.117 5.532C248.248 5.07467 248.383 4.846 248.523 4.846ZM253.861 4.846C254.281 4.846 254.668 5.06067 255.023 5.49C255.378 5.91 255.555 6.29267 255.555 6.638C255.555 6.974 255.438 7.31933 255.205 7.674C255.317 7.814 255.373 7.93533 255.373 8.038C255.373 8.29933 255.312 8.74733 255.191 9.382C255.079 10.0167 255.009 10.432 254.981 10.628C254.962 10.824 254.944 10.9827 254.925 11.104C254.906 11.216 254.883 11.328 254.855 11.44C254.818 11.6733 254.734 11.79 254.603 11.79C254.435 11.79 254.295 11.6453 254.183 11.356C254.08 11.0573 254.02 10.6747 254.001 10.208C253.17 11.2627 252.4 11.79 251.691 11.79C251.262 11.79 250.837 11.608 250.417 11.244C250.006 10.8707 249.801 10.488 249.801 10.096C249.801 9.536 250.006 8.84533 250.417 8.024C250.828 7.19333 251.36 6.456 252.013 5.812C252.666 5.168 253.282 4.846 253.861 4.846ZM254.505 7.31C254.505 6.442 254.332 6.008 253.987 6.008C253.623 6.008 253.198 6.26933 252.713 6.792C252.228 7.30533 251.817 7.88867 251.481 8.542C251.145 9.19533 250.977 9.71333 250.977 10.096C250.977 10.2547 251.042 10.3853 251.173 10.488C251.304 10.5813 251.458 10.628 251.635 10.628C252.074 10.628 252.568 10.334 253.119 9.746C253.67 9.14867 254.052 8.42533 254.267 7.576C254.295 7.436 254.374 7.352 254.505 7.324V7.31Z" fill="#BBBFBF"/>
</svg>
