<svg width="144" height="101" viewBox="0 0 144 101" fill="none" xmlns="http://www.w3.org/2000/svg">
<path d="M11.52 1.06797H131.52C137.799 1.06797 142.89 6.15849 142.89 12.438V89.318C142.89 95.5974 137.799 100.688 131.52 100.688H11.52C5.24052 100.688 0.15 95.5974 0.15 89.318V12.438C0.15 6.1585 5.24052 1.06797 11.52 1.06797Z" fill="#FFF7E5"/>
<path d="M11.52 1.06797H131.52C137.799 1.06797 142.89 6.15849 142.89 12.438V89.318C142.89 95.5974 137.799 100.688 131.52 100.688H11.52C5.24052 100.688 0.15 95.5974 0.15 89.318V12.438C0.15 6.1585 5.24052 1.06797 11.52 1.06797Z" stroke="#848C8B" stroke-width="0.3"/>
<path d="M16.896 26.676H18.226L18.576 24.94H17.036L17.358 23.344H18.884L19.402 20.684H21.096L20.578 23.344H22.356L22.874 20.684H24.568L24.05 23.344H25.492L25.17 24.94H23.742L23.406 26.676H25.002L24.68 28.272H23.098L22.58 30.918H20.886L21.404 28.272H19.612L19.094 30.918H17.4L17.918 28.272H16.574L16.896 26.676ZM19.92 26.676H21.712L22.048 24.94H20.27L19.92 26.676ZM31.5225 31.086C28.5405 31.086 26.6085 29.014 26.6085 25.808C26.6085 22.63 28.6105 20.516 31.6065 20.516C34.0285 20.516 35.8345 21.93 36.1845 24.128H34.2945C33.9445 22.938 32.9225 22.238 31.5645 22.238C29.6745 22.238 28.4845 23.61 28.4845 25.794C28.4845 27.964 29.6885 29.364 31.5645 29.364C32.9505 29.364 34.0145 28.636 34.3505 27.502H36.2125C35.8205 29.658 33.9445 31.086 31.5225 31.086ZM42.1455 31.086C39.1635 31.086 37.2315 29.014 37.2315 25.808C37.2315 22.63 39.2335 20.516 42.2295 20.516C44.6515 20.516 46.4575 21.93 46.8075 24.128H44.9175C44.5675 22.938 43.5455 22.238 42.1875 22.238C40.2975 22.238 39.1075 23.61 39.1075 25.794C39.1075 27.964 40.3115 29.364 42.1875 29.364C43.5735 29.364 44.6375 28.636 44.9735 27.502H46.8355C46.4435 29.658 44.5675 31.086 42.1455 31.086ZM47.9106 25.822C47.9106 22.644 49.6186 20.488 52.2366 20.488C54.8546 20.488 56.5766 22.644 56.5766 25.822C56.5766 28.986 54.9526 31.1 52.2366 31.1C49.5206 31.1 47.9106 28.986 47.9106 25.822ZM49.6746 25.822C49.6746 28.188 50.6266 29.518 52.2366 29.518C53.8606 29.518 54.8126 28.188 54.8126 25.822C54.8126 23.4 53.8606 22.07 52.2366 22.07C50.6266 22.07 49.6746 23.4 49.6746 25.822ZM57.7817 25.822C57.7817 22.644 59.4897 20.488 62.1077 20.488C64.7257 20.488 66.4477 22.644 66.4477 25.822C66.4477 28.986 64.8237 31.1 62.1077 31.1C59.3917 31.1 57.7817 28.986 57.7817 25.822ZM59.5457 25.822C59.5457 28.188 60.4977 29.518 62.1077 29.518C63.7317 29.518 64.6837 28.188 64.6837 25.822C64.6837 23.4 63.7317 22.07 62.1077 22.07C60.4977 22.07 59.5457 23.4 59.5457 25.822ZM67.6388 28.02C67.6388 26.802 68.3248 25.822 69.3888 25.416C68.4928 25.01 68.0028 24.24 68.0028 23.246C68.0028 21.622 69.4448 20.502 71.5588 20.502C73.6588 20.502 75.0728 21.608 75.0728 23.274C75.0728 24.268 74.5688 25.038 73.6588 25.416C74.7368 25.794 75.4368 26.788 75.4368 28.02C75.4368 29.868 73.9108 31.086 71.5308 31.086C69.1648 31.086 67.6388 29.882 67.6388 28.02ZM69.6268 23.4C69.6268 24.254 70.3688 24.8 71.5308 24.8C72.6788 24.8 73.4068 24.268 73.4068 23.414C73.4068 22.56 72.6788 22.028 71.5308 22.028C70.3688 22.028 69.6268 22.56 69.6268 23.4ZM69.3888 27.894C69.3888 28.888 70.2148 29.504 71.5448 29.504C72.8468 29.504 73.6728 28.888 73.6728 27.894C73.6728 26.9 72.8468 26.284 71.5308 26.284C70.2148 26.284 69.3888 26.9 69.3888 27.894ZM81.4795 31.086C78.4975 31.086 76.5655 29.014 76.5655 25.808C76.5655 22.63 78.5675 20.516 81.5635 20.516C83.9855 20.516 85.7915 21.93 86.1415 24.128H84.2515C83.9015 22.938 82.8795 22.238 81.5215 22.238C79.6315 22.238 78.4415 23.61 78.4415 25.794C78.4415 27.964 79.6455 29.364 81.5215 29.364C82.9075 29.364 83.9715 28.636 84.3075 27.502H86.1695C85.7775 29.658 83.9015 31.086 81.4795 31.086Z" fill="#CC008C"/>
<path d="M18.88 80.8379H16.22L21.5 66.2179H24.12L29.4 80.8379H26.7L25.52 77.4579H20.06L18.88 80.8379ZM22.48 70.5779L20.82 75.2979H24.78L23.1 70.5779C22.98 70.1979 22.84 69.7579 22.8 69.4579C22.74 69.7379 22.62 70.1779 22.48 70.5779ZM32.8839 80.8379H30.2239L35.5039 66.2179H38.1239L43.4039 80.8379H40.7039L39.5239 77.4579H34.0639L32.8839 80.8379ZM36.4839 70.5779L34.8239 75.2979H38.7839L37.1039 70.5779C36.9839 70.1979 36.8439 69.7579 36.8039 69.4579C36.7439 69.7379 36.6239 70.1779 36.4839 70.5779Z" fill="#CC008C"/>
</svg>
