<svg width="144" height="100" viewBox="0 0 144 100" fill="none" xmlns="http://www.w3.org/2000/svg">
<path d="M11.68 0.228125H131.68C137.96 0.228125 143.05 5.31865 143.05 11.5981V88.4781C143.05 94.7576 137.96 99.8481 131.68 99.8481H11.68C5.40056 99.8481 0.310034 94.7576 0.310034 88.4781V11.5981C0.310034 5.31866 5.40056 0.228125 11.68 0.228125Z" fill="#647582"/>
<path d="M11.68 0.228125H131.68C137.96 0.228125 143.05 5.31865 143.05 11.5981V88.4781C143.05 94.7576 137.96 99.8481 131.68 99.8481H11.68C5.40056 99.8481 0.310034 94.7576 0.310034 88.4781V11.5981C0.310034 5.31866 5.40056 0.228125 11.68 0.228125Z" stroke="#848C8B" stroke-width="0.3"/>
<path d="M17.3334 25.8361H18.6634L19.0134 24.1001H17.4734L17.7954 22.5041H19.3214L19.8394 19.8441H21.5334L21.0154 22.5041H22.7934L23.3114 19.8441H25.0054L24.4874 22.5041H25.9294L25.6074 24.1001H24.1794L23.8434 25.8361H25.4394L25.1174 27.4321H23.5354L23.0174 30.0781H21.3234L21.8414 27.4321H20.0494L19.5314 30.0781H17.8374L18.3554 27.4321H17.0114L17.3334 25.8361ZM20.3574 25.8361H22.1494L22.4854 24.1001H20.7074L20.3574 25.8361ZM33.2339 25.8921H29.4259V30.0781H27.6339V19.8441H33.9619V21.4961H29.4259V24.2821H33.2339V25.8921ZM41.1772 25.8921H37.3692V30.0781H35.5772V19.8441H41.9052V21.4961H37.3692V24.2821H41.1772V25.8921ZM49.1206 25.8921H45.3126V30.0781H43.5206V19.8441H49.8486V21.4961H45.3126V24.2821H49.1206V25.8921ZM57.064 25.8921H53.256V30.0781H51.464V19.8441H57.792V21.4961H53.256V24.2821H57.064V25.8921ZM65.0073 25.8921H61.1993V30.0781H59.4073V19.8441H65.7353V21.4961H61.1993V24.2821H65.0073V25.8921ZM72.9507 25.8921H69.1427V30.0781H67.3507V19.8441H73.6787V21.4961H69.1427V24.2821H72.9507V25.8921Z" fill="white"/>
<path d="M19.04 79.998H16.38L21.66 65.378H24.28L29.56 79.998H26.86L25.68 76.618H20.22L19.04 79.998ZM22.64 69.738L20.98 74.458H24.94L23.26 69.738C23.14 69.358 23 68.918 22.96 68.618C22.9 68.898 22.78 69.338 22.64 69.738ZM33.0439 79.998H30.3839L35.6639 65.378H38.2839L43.5639 79.998H40.8639L39.6839 76.618H34.2239L33.0439 79.998ZM36.6439 69.738L34.9839 74.458H38.9439L37.2639 69.738C37.1439 69.358 37.0039 68.918 36.9639 68.618C36.9039 68.898 36.7839 69.338 36.6439 69.738Z" fill="white"/>
</svg>
