<svg width="144" height="100" viewBox="0 0 144 100" fill="none" xmlns="http://www.w3.org/2000/svg">
<path d="M11.52 0.148047H131.52C137.799 0.148047 142.89 5.23857 142.89 11.518V88.398C142.89 94.6775 137.799 99.768 131.52 99.768H11.52C5.24052 99.768 0.15 94.6775 0.15 88.398V11.5181C0.15 5.23858 5.24052 0.148047 11.52 0.148047Z" fill="#CC008C"/>
<path d="M11.52 0.148047H131.52C137.799 0.148047 142.89 5.23857 142.89 11.518V88.398C142.89 94.6775 137.799 99.768 131.52 99.768H11.52C5.24052 99.768 0.15 94.6775 0.15 88.398V11.5181C0.15 5.23858 5.24052 0.148047 11.52 0.148047Z" stroke="#848C8B" stroke-width="0.3"/>
<path d="M17.1733 25.756H18.5033L18.8533 24.02H17.3133L17.6353 22.424H19.1613L19.6793 19.764H21.3733L20.8553 22.424H22.6333L23.1513 19.764H24.8453L24.3273 22.424H25.7693L25.4473 24.02H24.0193L23.6833 25.756H25.2793L24.9573 27.352H23.3753L22.8573 29.998H21.1633L21.6813 27.352H19.8893L19.3713 29.998H17.6773L18.1953 27.352H16.8513L17.1733 25.756ZM20.1973 25.756H21.9893L22.3253 24.02H20.5473L20.1973 25.756ZM33.0738 25.812H29.2658V29.998H27.4738V19.764H33.8018V21.416H29.2658V24.202H33.0738V25.812ZM41.0172 25.812H37.2092V29.998H35.4172V19.764H41.7452V21.416H37.2092V24.202H41.0172V25.812ZM48.9606 25.812H45.1526V29.998H43.3606V19.764H49.6886V21.416H45.1526V24.202H48.9606V25.812ZM56.9039 25.812H53.0959V29.998H51.3039V19.764H57.6319V21.416H53.0959V24.202H56.9039V25.812ZM64.8473 25.812H61.0393V29.998H59.2473V19.764H65.5753V21.416H61.0393V24.202H64.8473V25.812ZM72.7906 25.812H68.9826V29.998H67.1906V19.764H73.5186V21.416H68.9826V24.202H72.7906V25.812Z" fill="white"/>
<path d="M18.88 79.918H16.22L21.5 65.298H24.12L29.4 79.918H26.7L25.52 76.538H20.06L18.88 79.918ZM22.48 69.658L20.82 74.378H24.78L23.1 69.658C22.98 69.278 22.84 68.838 22.8 68.538C22.74 68.818 22.62 69.258 22.48 69.658ZM32.8839 79.918H30.2239L35.5039 65.298H38.1239L43.4039 79.918H40.7039L39.5239 76.538H34.0639L32.8839 79.918ZM36.4839 69.658L34.8239 74.378H38.7839L37.1039 69.658C36.9839 69.278 36.8439 68.838 36.8039 68.538C36.7439 68.818 36.6239 69.258 36.4839 69.658Z" fill="white"/>
</svg>
