<svg width="144" height="101" viewBox="0 0 144 101" fill="none" xmlns="http://www.w3.org/2000/svg">
<path d="M11.6401 0.708594H131.64C137.92 0.708594 143.01 5.79912 143.01 12.0786V88.9586C143.01 95.2381 137.92 100.329 131.64 100.329H11.6401C5.36064 100.329 0.270117 95.2381 0.270117 88.9586V12.0786C0.270117 5.79913 5.36064 0.708594 11.6401 0.708594Z" fill="#FFF7E5"/>
<path d="M11.6401 0.708594H131.64C137.92 0.708594 143.01 5.79912 143.01 12.0786V88.9586C143.01 95.2381 137.92 100.329 131.64 100.329H11.6401C5.36064 100.329 0.270117 95.2381 0.270117 88.9586V12.0786C0.270117 5.79913 5.36064 0.708594 11.6401 0.708594Z" stroke="#273540" stroke-width="0.3"/>
<path d="M17.0161 26.3166H18.3461L18.6961 24.5806H17.1561L17.4781 22.9846H19.0041L19.5221 20.3246H21.2161L20.6981 22.9846H22.4761L22.9941 20.3246H24.6881L24.1701 22.9846H25.6121L25.2901 24.5806H23.8621L23.5261 26.3166H25.1221L24.8001 27.9126H23.2181L22.7001 30.5586H21.0061L21.5241 27.9126H19.7321L19.2141 30.5586H17.5201L18.0381 27.9126H16.6941L17.0161 26.3166ZM20.0401 26.3166H21.8321L22.1681 24.5806H20.3901L20.0401 26.3166ZM33.9246 30.5446L26.8266 30.5586V29.2146L30.1726 26.3866C31.5586 25.2106 32.0206 24.5386 32.0206 23.5586C32.0206 22.3966 31.3906 21.7386 30.3126 21.7386C29.1926 21.7386 28.4926 22.5226 28.4786 23.8386H26.7006C26.7146 21.5986 28.1426 20.1426 30.3126 20.1426C32.4966 20.1426 33.8546 21.3886 33.8546 23.4606C33.8546 24.8886 33.0706 25.9666 31.5166 27.2966L29.6686 28.8786H33.9246V30.5446ZM34.4837 20.3246H41.8337V21.9766L38.1237 30.5586H36.2617L40.0417 21.9766H34.4837V20.3246ZM45.6406 25.4906H44.3946V24.3286L47.0266 21.9066H42.7706V20.3246H49.2666V21.7526L46.7746 24.0486C48.3426 24.3566 49.5606 25.5046 49.5606 27.3106C49.5606 29.4106 47.9226 30.7406 45.8506 30.7406C43.8486 30.7406 42.2946 29.5086 42.2946 27.2966H44.0586C44.0586 28.4726 44.7866 29.1446 45.8786 29.1446C46.9986 29.1446 47.7406 28.4166 47.7406 27.2826C47.7406 26.2466 47.0686 25.4906 45.6406 25.4906ZM54.0607 30.7266C51.9187 30.7266 50.5047 29.3546 50.5047 27.2826H52.2827C52.2827 28.4446 52.9687 29.1306 54.1027 29.1306C55.3067 29.1306 56.0767 28.3466 56.0767 27.1006C56.0767 25.9106 55.3627 25.0986 54.1307 25.0986C53.3467 25.0986 52.6327 25.4906 52.2687 26.0226L50.6867 25.6866L51.9467 20.3246H57.2807V21.9766H53.2347L52.6887 24.1046C53.1787 23.7826 53.7947 23.6006 54.4947 23.6006C56.5387 23.6006 57.8967 24.9866 57.8967 27.0026C57.8967 29.2146 56.3427 30.7266 54.0607 30.7266ZM66.8512 28.6126H65.6052V30.5586H63.9112V28.6126H58.7172V27.0446L63.3512 20.3246H65.6052V27.0446H66.8512V28.6126ZM60.6212 27.0446H63.9112V22.2566L60.6212 27.0446ZM67.978 25.4626C67.978 22.2846 69.686 20.1286 72.304 20.1286C74.922 20.1286 76.644 22.2846 76.644 25.4626C76.644 28.6266 75.02 30.7406 72.304 30.7406C69.588 30.7406 67.978 28.6266 67.978 25.4626ZM69.742 25.4626C69.742 27.8286 70.694 29.1586 72.304 29.1586C73.928 29.1586 74.88 27.8286 74.88 25.4626C74.88 23.0406 73.928 21.7106 72.304 21.7106C70.694 21.7106 69.742 23.0406 69.742 25.4626Z" fill="#273540"/>
<path d="M19.0001 80.4785H16.3401L21.6201 65.8585H24.2401L29.5201 80.4785H26.8201L25.6401 77.0985H20.1801L19.0001 80.4785ZM22.6001 70.2185L20.9401 74.9385H24.9001L23.2201 70.2185C23.1001 69.8385 22.9601 69.3985 22.9201 69.0985C22.8601 69.3785 22.7401 69.8185 22.6001 70.2185ZM33.004 80.4785H30.344L35.624 65.8585H38.244L43.524 80.4785H40.824L39.644 77.0985H34.184L33.004 80.4785ZM36.604 70.2185L34.944 74.9385H38.904L37.224 70.2185C37.104 69.8385 36.964 69.3985 36.924 69.0985C36.864 69.3785 36.744 69.8185 36.604 70.2185Z" fill="#273540"/>
</svg>
