<svg width="144" height="100" viewBox="0 0 144 100" fill="none" xmlns="http://www.w3.org/2000/svg">
<path d="M11.6001 0.148047H131.6C137.88 0.148047 142.97 5.23857 142.97 11.518V88.398C142.97 94.6775 137.88 99.768 131.6 99.768H11.6001C5.3206 99.768 0.230078 94.6775 0.230078 88.398V11.5181C0.230078 5.23858 5.3206 0.148047 11.6001 0.148047Z" fill="#B2007A"/>
<path d="M11.6001 0.148047H131.6C137.88 0.148047 142.97 5.23857 142.97 11.518V88.398C142.97 94.6775 137.88 99.768 131.6 99.768H11.6001C5.3206 99.768 0.230078 94.6775 0.230078 88.398V11.5181C0.230078 5.23858 5.3206 0.148047 11.6001 0.148047Z" stroke="#848C8B" stroke-width="0.3"/>
<path d="M17.2534 25.756H18.5834L18.9334 24.02H17.3934L17.7154 22.424H19.2414L19.7594 19.764H21.4534L20.9354 22.424H22.7134L23.2314 19.764H24.9254L24.4074 22.424H25.8494L25.5274 24.02H24.0994L23.7634 25.756H25.3594L25.0374 27.352H23.4554L22.9374 29.998H21.2434L21.7614 27.352H19.9694L19.4514 29.998H17.7574L18.2754 27.352H16.9314L17.2534 25.756ZM20.2774 25.756H22.0694L22.4054 24.02H20.6274L20.2774 25.756ZM33.1539 25.812H29.3459V29.998H27.5539V19.764H33.8819V21.416H29.3459V24.202H33.1539V25.812ZM41.0973 25.812H37.2893V29.998H35.4973V19.764H41.8253V21.416H37.2893V24.202H41.0973V25.812ZM49.0406 25.812H45.2326V29.998H43.4406V19.764H49.7686V21.416H45.2326V24.202H49.0406V25.812ZM56.984 25.812H53.176V29.998H51.384V19.764H57.712V21.416H53.176V24.202H56.984V25.812ZM64.9274 25.812H61.1194V29.998H59.3274V19.764H65.6554V21.416H61.1194V24.202H64.9274V25.812ZM72.8707 25.812H69.0627V29.998H67.2707V19.764H73.5987V21.416H69.0627V24.202H72.8707V25.812Z" fill="white"/>
<path d="M18.9601 79.918H16.3001L21.5801 65.298H24.2001L29.4801 79.918H26.7801L25.6001 76.538H20.1401L18.9601 79.918ZM22.5601 69.658L20.9001 74.378H24.8601L23.1801 69.658C23.0601 69.278 22.9201 68.838 22.8801 68.538C22.8201 68.818 22.7001 69.258 22.5601 69.658ZM32.964 79.918H30.304L35.584 65.298H38.204L43.484 79.918H40.784L39.604 76.538H34.144L32.964 79.918ZM36.564 69.658L34.904 74.378H38.864L37.184 69.658C37.064 69.278 36.924 68.838 36.884 68.538C36.824 68.818 36.704 69.258 36.564 69.658Z" fill="white"/>
</svg>
