<svg width="144" height="100" viewBox="0 0 144 100" fill="none" xmlns="http://www.w3.org/2000/svg">
<path d="M11.64 0.148047H131.64C137.919 0.148047 143.01 5.23857 143.01 11.518V88.398C143.01 94.6775 137.919 99.768 131.64 99.768H11.64C5.36052 99.768 0.269995 94.6775 0.269995 88.398V11.5181C0.269995 5.23858 5.36052 0.148047 11.64 0.148047Z" fill="#B2007A"/>
<path d="M11.64 0.148047H131.64C137.919 0.148047 143.01 5.23857 143.01 11.518V88.398C143.01 94.6775 137.919 99.768 131.64 99.768H11.64C5.36052 99.768 0.269995 94.6775 0.269995 88.398V11.5181C0.269995 5.23858 5.36052 0.148047 11.64 0.148047Z" stroke="#848C8B" stroke-width="0.3"/>
<path d="M17.8969 25.756H19.2269L19.5769 24.02H18.0369L18.3589 22.424H19.8849L20.4029 19.764H22.0969L21.5789 22.424H23.3569L23.8749 19.764H25.5689L25.0509 22.424H26.4929L26.1709 24.02H24.7429L24.4069 25.756H26.0029L25.6809 27.352H24.0989L23.5809 29.998H21.8869L22.4049 27.352H20.6129L20.0949 29.998H18.4009L18.9189 27.352H17.5749L17.8969 25.756ZM20.9209 25.756H22.7129L23.0489 24.02H21.2709L20.9209 25.756ZM33.7974 25.812H29.9894V29.998H28.1974V19.764H34.5254V21.416H29.9894V24.202H33.7974V25.812ZM41.7407 25.812H37.9327V29.998H36.1407V19.764H42.4687V21.416H37.9327V24.202H41.7407V25.812ZM49.6841 25.812H45.8761V29.998H44.0841V19.764H50.4121V21.416H45.8761V24.202H49.6841V25.812ZM50.9914 19.764H58.3414V21.416L54.6314 29.998H52.7694L56.5494 21.416H50.9914V19.764ZM65.9166 29.998H59.5606V19.764H65.9166V21.416H61.3526V24.048H65.4406V25.63H61.3526V28.346H65.9166V29.998ZM70.8555 30.166C68.7135 30.166 67.2995 28.794 67.2995 26.722H69.0775C69.0775 27.884 69.7635 28.57 70.8975 28.57C72.1015 28.57 72.8715 27.786 72.8715 26.54C72.8715 25.35 72.1575 24.538 70.9255 24.538C70.1415 24.538 69.4275 24.93 69.0635 25.462L67.4815 25.126L68.7415 19.764H74.0755V21.416H70.0295L69.4835 23.544C69.9735 23.222 70.5895 23.04 71.2895 23.04C73.3335 23.04 74.6915 24.426 74.6915 26.442C74.6915 28.654 73.1375 30.166 70.8555 30.166Z" fill="white"/>
<path d="M19 79.918H16.34L21.62 65.298H24.24L29.52 79.918H26.82L25.64 76.538H20.18L19 79.918ZM22.6 69.658L20.94 74.378H24.9L23.22 69.658C23.1 69.278 22.96 68.838 22.92 68.538C22.86 68.818 22.74 69.258 22.6 69.658ZM33.0039 79.918H30.3439L35.6239 65.298H38.2439L43.5239 79.918H40.8239L39.6439 76.538H34.1839L33.0039 79.918ZM36.6039 69.658L34.9439 74.378H38.9039L37.2239 69.658C37.1039 69.278 36.9639 68.838 36.9239 68.538C36.8639 68.818 36.7439 69.258 36.6039 69.658Z" fill="#FFF7E5"/>
</svg>
