<svg width="144" height="101" viewBox="0 0 144 101" fill="none" xmlns="http://www.w3.org/2000/svg">
<path d="M11.68 0.308203H131.68C137.96 0.308203 143.05 5.39873 143.05 11.6782V88.5582C143.05 94.8377 137.96 99.9282 131.68 99.9282H11.68C5.40056 99.9282 0.310034 94.8377 0.310034 88.5582V11.6782C0.310034 5.39874 5.40056 0.308203 11.68 0.308203Z" fill="white"/>
<path d="M11.68 0.308203H131.68C137.96 0.308203 143.05 5.39873 143.05 11.6782V88.5582C143.05 94.8377 137.96 99.9282 131.68 99.9282H11.68C5.40056 99.9282 0.310034 94.8377 0.310034 88.5582V11.6782C0.310034 5.39874 5.40056 0.308203 11.68 0.308203Z" stroke="#B2007A" stroke-width="0.3"/>
<path d="M18.0033 25.9162H19.3333L19.6833 24.1802H18.1433L18.4653 22.5842H19.9913L20.5093 19.9242H22.2033L21.6853 22.5842H23.4633L23.9813 19.9242H25.6753L25.1573 22.5842H26.5993L26.2773 24.1802H24.8493L24.5133 25.9162H26.1093L25.7873 27.5122H24.2053L23.6873 30.1582H21.9933L22.5113 27.5122H20.7193L20.2013 30.1582H18.5073L19.0253 27.5122H17.6813L18.0033 25.9162ZM21.0273 25.9162H22.8193L23.1553 24.1802H21.3773L21.0273 25.9162ZM28.3038 30.1582V19.9242H32.3778C34.3938 19.9242 35.6258 20.9742 35.6258 22.6822C35.6258 23.8162 35.1218 24.6282 34.1558 25.0342C35.2338 25.3842 35.7798 26.1962 35.7798 27.3862C35.7798 29.1362 34.5618 30.1582 32.4478 30.1582H28.3038ZM32.2238 21.5062H30.0958V24.2922H32.2658C33.2458 24.2922 33.7918 23.7742 33.7918 22.8642C33.7918 21.9822 33.2318 21.5062 32.2238 21.5062ZM32.3778 25.8042H30.0958V28.5762H32.3778C33.3858 28.5762 33.9458 28.0862 33.9458 27.1622C33.9458 26.2942 33.3718 25.8042 32.3778 25.8042ZM44.0309 30.1442L36.9329 30.1582V28.8142L40.2789 25.9862C41.6649 24.8102 42.1269 24.1382 42.1269 23.1582C42.1269 21.9962 41.4969 21.3382 40.4189 21.3382C39.2989 21.3382 38.5989 22.1222 38.5849 23.4382H36.8069C36.8209 21.1982 38.2489 19.7422 40.4189 19.7422C42.6029 19.7422 43.9609 20.9882 43.9609 23.0602C43.9609 24.4882 43.1769 25.5662 41.6229 26.8962L39.7749 28.4782H44.0309V30.1442ZM45.1351 25.0622C45.1351 21.8842 46.8431 19.7282 49.4611 19.7282C52.0791 19.7282 53.8011 21.8842 53.8011 25.0622C53.8011 28.2262 52.1771 30.3402 49.4611 30.3402C46.7451 30.3402 45.1351 28.2262 45.1351 25.0622ZM46.8991 25.0622C46.8991 27.4282 47.8511 28.7582 49.4611 28.7582C51.0851 28.7582 52.0371 27.4282 52.0371 25.0622C52.0371 22.6402 51.0851 21.3102 49.4611 21.3102C47.8511 21.3102 46.8991 22.6402 46.8991 25.0622ZM55.0062 25.0622C55.0062 21.8842 56.7142 19.7282 59.3322 19.7282C61.9502 19.7282 63.6722 21.8842 63.6722 25.0622C63.6722 28.2262 62.0482 30.3402 59.3322 30.3402C56.6162 30.3402 55.0062 28.2262 55.0062 25.0622ZM56.7702 25.0622C56.7702 27.4282 57.7222 28.7582 59.3322 28.7582C60.9562 28.7582 61.9082 27.4282 61.9082 25.0622C61.9082 22.6402 60.9562 21.3102 59.3322 21.3102C57.7222 21.3102 56.7702 22.6402 56.7702 25.0622ZM64.1955 19.9242H71.5455V21.5762L67.8355 30.1582H65.9735L69.7535 21.5762H64.1955V19.9242ZM73.6467 30.1582H71.7847L75.4807 19.9242H77.3147L81.0107 30.1582H79.1207L78.2947 27.7922H74.4727L73.6467 30.1582ZM76.1667 22.9762L75.0047 26.2802H77.7767L76.6007 22.9762C76.5167 22.7102 76.4187 22.4022 76.3907 22.1922C76.3487 22.3882 76.2647 22.6962 76.1667 22.9762Z" fill="#CC008C"/>
<path d="M19.04 80.0781H16.38L21.66 65.4581H24.28L29.56 80.0781H26.86L25.68 76.6981H20.22L19.04 80.0781ZM22.64 69.8181L20.98 74.5381H24.94L23.26 69.8181C23.14 69.4381 23 68.9981 22.96 68.6981C22.9 68.9781 22.78 69.4181 22.64 69.8181ZM33.0439 80.0781H30.3839L35.6639 65.4581H38.2839L43.5639 80.0781H40.8639L39.6839 76.6981H34.2239L33.0439 80.0781ZM36.6439 69.8181L34.9839 74.5381H38.9439L37.2639 69.8181C37.1439 69.4381 37.0039 68.9981 36.9639 68.6981C36.9039 68.9781 36.7839 69.4181 36.6439 69.8181Z" fill="#CC008C"/>
</svg>
