<svg width="144" height="101" viewBox="0 0 144 101" fill="none" xmlns="http://www.w3.org/2000/svg">
<path d="M11.56 0.308203H131.56C137.84 0.308203 142.93 5.39873 142.93 11.6782V88.5582C142.93 94.8377 137.84 99.9282 131.56 99.9282H11.56C5.28056 99.9282 0.190039 94.8377 0.190039 88.5582V11.6782C0.190039 5.39874 5.28056 0.308203 11.56 0.308203Z" fill="white"/>
<path d="M11.56 0.308203H131.56C137.84 0.308203 142.93 5.39873 142.93 11.6782V88.5582C142.93 94.8377 137.84 99.9282 131.56 99.9282H11.56C5.28056 99.9282 0.190039 94.8377 0.190039 88.5582V11.6782C0.190039 5.39874 5.28056 0.308203 11.56 0.308203Z" stroke="#848C8B" stroke-width="0.3"/>
<path d="M16.9575 25.9162H18.2875L18.6375 24.1802H17.0975L17.4195 22.5842H18.9455L19.4635 19.9242H21.1575L20.6395 22.5842H22.4175L22.9355 19.9242H24.6295L24.1115 22.5842H25.5535L25.2315 24.1802H23.8035L23.4675 25.9162H25.0635L24.7415 27.5122H23.1595L22.6415 30.1582H20.9475L21.4655 27.5122H19.6735L19.1555 30.1582H17.4615L17.9795 27.5122H16.6355L16.9575 25.9162ZM19.9815 25.9162H21.7735L22.1095 24.1802H20.3315L19.9815 25.9162ZM28.182 22.9342L30.394 19.9242H32.438L29.988 23.1862C30.24 23.1162 30.506 23.0742 30.758 23.0742C32.872 23.0742 34.3 24.5582 34.3 26.6302C34.3 28.8142 32.676 30.3402 30.492 30.3402C28.28 30.3402 26.628 28.7162 26.628 26.6162C26.628 25.3842 27.034 24.4882 28.182 22.9342ZM28.462 26.6302C28.462 27.8762 29.288 28.7442 30.492 28.7442C31.654 28.7442 32.494 27.8762 32.494 26.6302C32.494 25.3982 31.668 24.5442 30.492 24.5442C29.274 24.5442 28.462 25.3982 28.462 26.6302ZM43.3317 28.2122H42.0857V30.1582H40.3917V28.2122H35.1977V26.6442L39.8317 19.9242H42.0857V26.6442H43.3317V28.2122ZM37.1017 26.6442H40.3917V21.8562L37.1017 26.6442ZM43.4076 19.9242H50.7576V21.5762L47.0476 30.1582H45.1856L48.9656 21.5762H43.4076V19.9242ZM54.795 30.3262C52.653 30.3262 51.239 28.9542 51.239 26.8822H53.017C53.017 28.0442 53.703 28.7302 54.837 28.7302C56.041 28.7302 56.811 27.9462 56.811 26.7002C56.811 25.5102 56.097 24.6982 54.865 24.6982C54.081 24.6982 53.367 25.0902 53.003 25.6222L51.421 25.2862L52.681 19.9242H58.015V21.5762H53.969L53.423 23.7042C53.913 23.3822 54.529 23.2002 55.229 23.2002C57.273 23.2002 58.631 24.5862 58.631 26.6022C58.631 28.8142 57.077 30.3262 54.795 30.3262ZM59.6476 27.2602C59.6476 26.0422 60.3336 25.0622 61.3976 24.6562C60.5016 24.2502 60.0116 23.4802 60.0116 22.4862C60.0116 20.8622 61.4536 19.7422 63.5676 19.7422C65.6676 19.7422 67.0816 20.8482 67.0816 22.5142C67.0816 23.5082 66.5776 24.2782 65.6676 24.6562C66.7456 25.0342 67.4456 26.0282 67.4456 27.2602C67.4456 29.1082 65.9196 30.3262 63.5396 30.3262C61.1736 30.3262 59.6476 29.1222 59.6476 27.2602ZM61.6356 22.6402C61.6356 23.4942 62.3776 24.0402 63.5396 24.0402C64.6876 24.0402 65.4156 23.5082 65.4156 22.6542C65.4156 21.8002 64.6876 21.2682 63.5396 21.2682C62.3776 21.2682 61.6356 21.8002 61.6356 22.6402ZM61.3976 27.1342C61.3976 28.1282 62.2236 28.7442 63.5536 28.7442C64.8556 28.7442 65.6816 28.1282 65.6816 27.1342C65.6816 26.1402 64.8556 25.5242 63.5396 25.5242C62.2236 25.5242 61.3976 26.1402 61.3976 27.1342ZM75.5379 30.1442L68.4399 30.1582V28.8142L71.7859 25.9862C73.1719 24.8102 73.6339 24.1382 73.6339 23.1582C73.6339 21.9962 73.0039 21.3382 71.9259 21.3382C70.8059 21.3382 70.1059 22.1222 70.0919 23.4382H68.3139C68.3279 21.1982 69.7559 19.7422 71.9259 19.7422C74.1099 19.7422 75.4679 20.9882 75.4679 23.0602C75.4679 24.4882 74.6839 25.5662 73.1299 26.8962L71.2819 28.4782H75.5379V30.1442Z" fill="#647582"/>
<path d="M18.92 80.0781H16.26L21.54 65.4581H24.16L29.44 80.0781H26.74L25.56 76.6981H20.1L18.92 80.0781ZM22.52 69.8181L20.86 74.5381H24.82L23.14 69.8181C23.02 69.4381 22.88 68.9981 22.84 68.6981C22.78 68.9781 22.66 69.4181 22.52 69.8181ZM32.9239 80.0781H30.2639L35.5439 65.4581H38.1639L43.4439 80.0781H40.7439L39.5639 76.6981H34.1039L32.9239 80.0781ZM36.5239 69.8181L34.8639 74.5381H38.8239L37.1439 69.8181C37.0239 69.4381 36.8839 68.9981 36.8439 68.6981C36.7839 68.9781 36.6639 69.4181 36.5239 69.8181Z" fill="#647582"/>
</svg>
