<svg width="144" height="101" viewBox="0 0 144 101" fill="none" xmlns="http://www.w3.org/2000/svg">
<path d="M11.6001 0.708594H131.6C137.88 0.708594 142.97 5.79912 142.97 12.0786V88.9586C142.97 95.2381 137.88 100.329 131.6 100.329H11.6001C5.3206 100.329 0.230078 95.2381 0.230078 88.9586V12.0786C0.230078 5.79913 5.3206 0.708594 11.6001 0.708594Z" fill="#FFF7E5"/>
<path d="M11.6001 0.708594H131.6C137.88 0.708594 142.97 5.79912 142.97 12.0786V88.9586C142.97 95.2381 137.88 100.329 131.6 100.329H11.6001C5.3206 100.329 0.230078 95.2381 0.230078 88.9586V12.0786C0.230078 5.79913 5.3206 0.708594 11.6001 0.708594Z" stroke="#008072" stroke-width="0.3"/>
<path d="M16.9761 26.3166H18.3061L18.6561 24.5806H17.1161L17.4381 22.9846H18.9641L19.4821 20.3246H21.1761L20.6581 22.9846H22.4361L22.9541 20.3246H24.6481L24.1301 22.9846H25.5721L25.2501 24.5806H23.8221L23.4861 26.3166H25.0821L24.7601 27.9126H23.1781L22.6601 30.5586H20.9661L21.4841 27.9126H19.6921L19.1741 30.5586H17.4801L17.9981 27.9126H16.6541L16.9761 26.3166ZM20.0001 26.3166H21.7921L22.1281 24.5806H20.3501L20.0001 26.3166ZM33.8846 30.5446L26.7866 30.5586V29.2146L30.1326 26.3866C31.5186 25.2106 31.9806 24.5386 31.9806 23.5586C31.9806 22.3966 31.3506 21.7386 30.2726 21.7386C29.1526 21.7386 28.4526 22.5226 28.4386 23.8386H26.6606C26.6746 21.5986 28.1026 20.1426 30.2726 20.1426C32.4566 20.1426 33.8146 21.3886 33.8146 23.4606C33.8146 24.8886 33.0306 25.9666 31.4766 27.2966L29.6286 28.8786H33.8846V30.5446ZM34.4437 20.3246H41.7937V21.9766L38.0837 30.5586H36.2217L40.0017 21.9766H34.4437V20.3246ZM45.6006 25.4906H44.3546V24.3286L46.9866 21.9066H42.7306V20.3246H49.2266V21.7526L46.7346 24.0486C48.3026 24.3566 49.5206 25.5046 49.5206 27.3106C49.5206 29.4106 47.8826 30.7406 45.8106 30.7406C43.8086 30.7406 42.2546 29.5086 42.2546 27.2966H44.0186C44.0186 28.4726 44.7466 29.1446 45.8386 29.1446C46.9586 29.1446 47.7006 28.4166 47.7006 27.2826C47.7006 26.2466 47.0286 25.4906 45.6006 25.4906ZM54.0206 30.7266C51.8786 30.7266 50.4646 29.3546 50.4646 27.2826H52.2426C52.2426 28.4446 52.9286 29.1306 54.0626 29.1306C55.2666 29.1306 56.0366 28.3466 56.0366 27.1006C56.0366 25.9106 55.3226 25.0986 54.0906 25.0986C53.3066 25.0986 52.5926 25.4906 52.2286 26.0226L50.6466 25.6866L51.9066 20.3246H57.2406V21.9766H53.1946L52.6486 24.1046C53.1386 23.7826 53.7546 23.6006 54.4546 23.6006C56.4986 23.6006 57.8566 24.9866 57.8566 27.0026C57.8566 29.2146 56.3026 30.7266 54.0206 30.7266ZM66.8112 28.6126H65.5652V30.5586H63.8712V28.6126H58.6772V27.0446L63.3112 20.3246H65.5652V27.0446H66.8112V28.6126ZM60.5812 27.0446H63.8712V22.2566L60.5812 27.0446ZM67.9379 25.4626C67.9379 22.2846 69.6459 20.1286 72.2639 20.1286C74.8819 20.1286 76.6039 22.2846 76.6039 25.4626C76.6039 28.6266 74.9799 30.7406 72.2639 30.7406C69.5479 30.7406 67.9379 28.6266 67.9379 25.4626ZM69.7019 25.4626C69.7019 27.8286 70.6539 29.1586 72.2639 29.1586C73.8879 29.1586 74.8399 27.8286 74.8399 25.4626C74.8399 23.0406 73.8879 21.7106 72.2639 21.7106C70.6539 21.7106 69.7019 23.0406 69.7019 25.4626Z" fill="#008072"/>
<path d="M18.9601 80.4785H16.3001L21.5801 65.8585H24.2001L29.4801 80.4785H26.7801L25.6001 77.0985H20.1401L18.9601 80.4785ZM22.5601 70.2185L20.9001 74.9385H24.8601L23.1801 70.2185C23.0601 69.8385 22.9201 69.3985 22.8801 69.0985C22.8201 69.3785 22.7001 69.8185 22.5601 70.2185ZM32.964 80.4785H30.304L35.584 65.8585H38.204L43.484 80.4785H40.784L39.604 77.0985H34.144L32.964 80.4785ZM36.564 70.2185L34.904 74.9385H38.864L37.184 70.2185C37.064 69.8385 36.924 69.3985 36.884 69.0985C36.824 69.3785 36.704 69.8185 36.564 70.2185Z" fill="#008072"/>
</svg>
