<svg width="144" height="100" viewBox="0 0 144 100" fill="none" xmlns="http://www.w3.org/2000/svg">
<path d="M11.64 0.228125H131.64C137.919 0.228125 143.01 5.31865 143.01 11.5981V88.4781C143.01 94.7576 137.919 99.8481 131.64 99.8481H11.64C5.36052 99.8481 0.269995 94.7576 0.269995 88.4781V11.5981C0.269995 5.31866 5.36052 0.228125 11.64 0.228125Z" fill="#273540"/>
<path d="M11.64 0.228125H131.64C137.919 0.228125 143.01 5.31865 143.01 11.5981V88.4781C143.01 94.7576 137.919 99.8481 131.64 99.8481H11.64C5.36052 99.8481 0.269995 94.7576 0.269995 88.4781V11.5981C0.269995 5.31866 5.36052 0.228125 11.64 0.228125Z" stroke="#848C8B" stroke-width="0.3"/>
<path d="M17.8969 25.8361H19.2269L19.5769 24.1001H18.0369L18.3589 22.5041H19.8849L20.4029 19.8441H22.0969L21.5789 22.5041H23.3569L23.8749 19.8441H25.5689L25.0509 22.5041H26.4929L26.1709 24.1001H24.7429L24.4069 25.8361H26.0029L25.6809 27.4321H24.0989L23.5809 30.0781H21.8869L22.4049 27.4321H20.6129L20.0949 30.0781H18.4009L18.9189 27.4321H17.5749L17.8969 25.8361ZM20.9209 25.8361H22.7129L23.0489 24.1001H21.2709L20.9209 25.8361ZM33.7974 25.8921H29.9894V30.0781H28.1974V19.8441H34.5254V21.4961H29.9894V24.2821H33.7974V25.8921ZM41.7407 25.8921H37.9327V30.0781H36.1407V19.8441H42.4687V21.4961H37.9327V24.2821H41.7407V25.8921ZM49.6841 25.8921H45.8761V30.0781H44.0841V19.8441H50.4121V21.4961H45.8761V24.2821H49.6841V25.8921ZM50.9914 19.8441H58.3414V21.4961L54.6314 30.0781H52.7694L56.5494 21.4961H50.9914V19.8441ZM65.9166 30.0781H59.5606V19.8441H65.9166V21.4961H61.3526V24.1281H65.4406V25.7101H61.3526V28.4261H65.9166V30.0781ZM70.8555 30.2461C68.7135 30.2461 67.2995 28.8741 67.2995 26.8021H69.0775C69.0775 27.9641 69.7635 28.6501 70.8975 28.6501C72.1015 28.6501 72.8715 27.8661 72.8715 26.6201C72.8715 25.4301 72.1575 24.6181 70.9255 24.6181C70.1415 24.6181 69.4275 25.0101 69.0635 25.5421L67.4815 25.2061L68.7415 19.8441H74.0755V21.4961H70.0295L69.4835 23.6241C69.9735 23.3021 70.5895 23.1201 71.2895 23.1201C73.3335 23.1201 74.6915 24.5061 74.6915 26.5221C74.6915 28.7341 73.1375 30.2461 70.8555 30.2461Z" fill="white"/>
<path d="M19 79.998H16.34L21.62 65.378H24.24L29.52 79.998H26.82L25.64 76.618H20.18L19 79.998ZM22.6 69.738L20.94 74.458H24.9L23.22 69.738C23.1 69.358 22.96 68.918 22.92 68.618C22.86 68.898 22.74 69.338 22.6 69.738ZM33.0039 79.998H30.3439L35.6239 65.378H38.2439L43.5239 79.998H40.8239L39.6439 76.618H34.1839L33.0039 79.998ZM36.6039 69.738L34.9439 74.458H38.9039L37.2239 69.738C37.1039 69.358 36.9639 68.918 36.9239 68.618C36.8639 68.898 36.7439 69.338 36.6039 69.738ZM47.0078 79.998H44.3478L49.6278 65.378H52.2478L57.5278 79.998H54.8278L53.6478 76.618H48.1878L47.0078 79.998ZM50.6078 69.738L48.9478 74.458H52.9078L51.2278 69.738C51.1078 69.358 50.9678 68.918 50.9278 68.618C50.8678 68.898 50.7478 69.338 50.6078 69.738Z" fill="white"/>
</svg>
