<svg width="144" height="101" viewBox="0 0 144 101" fill="none" xmlns="http://www.w3.org/2000/svg">
<path d="M11.64 0.308203H131.64C137.919 0.308203 143.01 5.39873 143.01 11.6782V88.5582C143.01 94.8377 137.919 99.9282 131.64 99.9282H11.64C5.36052 99.9282 0.269995 94.8377 0.269995 88.5582V11.6782C0.269995 5.39874 5.36052 0.308203 11.64 0.308203Z" fill="white"/>
<path d="M11.64 0.308203H131.64C137.919 0.308203 143.01 5.39873 143.01 11.6782V88.5582C143.01 94.8377 137.919 99.9282 131.64 99.9282H11.64C5.36052 99.9282 0.269995 94.8377 0.269995 88.5582V11.6782C0.269995 5.39874 5.36052 0.308203 11.64 0.308203Z" stroke="#CC008C" stroke-width="0.3"/>
<path d="M17.3734 25.9162H18.7034L19.0534 24.1802H17.5134L17.8354 22.5842H19.3614L19.8794 19.9242H21.5734L21.0554 22.5842H22.8334L23.3514 19.9242H25.0454L24.5274 22.5842H25.9694L25.6474 24.1802H24.2194L23.8834 25.9162H25.4794L25.1574 27.5122H23.5754L23.0574 30.1582H21.3634L21.8814 27.5122H20.0894L19.5714 30.1582H17.8774L18.3954 27.5122H17.0514L17.3734 25.9162ZM20.3974 25.9162H22.1894L22.5254 24.1802H20.7474L20.3974 25.9162ZM31.9999 30.3262C29.0179 30.3262 27.0859 28.2542 27.0859 25.0482C27.0859 21.8702 29.0879 19.7562 32.0839 19.7562C34.5059 19.7562 36.3119 21.1702 36.6619 23.3682H34.7719C34.4219 22.1782 33.3999 21.4782 32.0419 21.4782C30.1519 21.4782 28.9619 22.8502 28.9619 25.0342C28.9619 27.2042 30.1659 28.6042 32.0419 28.6042C33.4279 28.6042 34.4919 27.8762 34.8279 26.7422H36.6899C36.2979 28.8982 34.4219 30.3262 31.9999 30.3262ZM42.623 30.3262C39.641 30.3262 37.709 28.2542 37.709 25.0482C37.709 21.8702 39.711 19.7562 42.707 19.7562C45.129 19.7562 46.935 21.1702 47.285 23.3682H45.395C45.045 22.1782 44.023 21.4782 42.665 21.4782C40.775 21.4782 39.585 22.8502 39.585 25.0342C39.585 27.2042 40.789 28.6042 42.665 28.6042C44.051 28.6042 45.115 27.8762 45.451 26.7422H47.313C46.921 28.8982 45.045 30.3262 42.623 30.3262ZM48.388 25.0622C48.388 21.8842 50.096 19.7282 52.714 19.7282C55.332 19.7282 57.054 21.8842 57.054 25.0622C57.054 28.2262 55.43 30.3402 52.714 30.3402C49.998 30.3402 48.388 28.2262 48.388 25.0622ZM50.152 25.0622C50.152 27.4282 51.104 28.7582 52.714 28.7582C54.338 28.7582 55.29 27.4282 55.29 25.0622C55.29 22.6402 54.338 21.3102 52.714 21.3102C51.104 21.3102 50.152 22.6402 50.152 25.0622ZM58.2591 25.0622C58.2591 21.8842 59.9671 19.7282 62.5851 19.7282C65.2031 19.7282 66.9251 21.8842 66.9251 25.0622C66.9251 28.2262 65.3011 30.3402 62.5851 30.3402C59.8691 30.3402 58.2591 28.2262 58.2591 25.0622ZM60.0231 25.0622C60.0231 27.4282 60.9751 28.7582 62.5851 28.7582C64.2091 28.7582 65.1611 27.4282 65.1611 25.0622C65.1611 22.6402 64.2091 21.3102 62.5851 21.3102C60.9751 21.3102 60.0231 22.6402 60.0231 25.0622ZM68.1162 27.2602C68.1162 26.0422 68.8022 25.0622 69.8662 24.6562C68.9702 24.2502 68.4802 23.4802 68.4802 22.4862C68.4802 20.8622 69.9222 19.7422 72.0362 19.7422C74.1362 19.7422 75.5502 20.8482 75.5502 22.5142C75.5502 23.5082 75.0462 24.2782 74.1362 24.6562C75.2142 25.0342 75.9142 26.0282 75.9142 27.2602C75.9142 29.1082 74.3882 30.3262 72.0082 30.3262C69.6422 30.3262 68.1162 29.1222 68.1162 27.2602ZM70.1042 22.6402C70.1042 23.4942 70.8462 24.0402 72.0082 24.0402C73.1562 24.0402 73.8842 23.5082 73.8842 22.6542C73.8842 21.8002 73.1562 21.2682 72.0082 21.2682C70.8462 21.2682 70.1042 21.8002 70.1042 22.6402ZM69.8662 27.1342C69.8662 28.1282 70.6922 28.7442 72.0222 28.7442C73.3242 28.7442 74.1502 28.1282 74.1502 27.1342C74.1502 26.1402 73.3242 25.5242 72.0082 25.5242C70.6922 25.5242 69.8662 26.1402 69.8662 27.1342ZM81.9569 30.3262C78.9749 30.3262 77.0429 28.2542 77.0429 25.0482C77.0429 21.8702 79.0449 19.7562 82.0409 19.7562C84.4629 19.7562 86.2689 21.1702 86.6189 23.3682H84.7289C84.3789 22.1782 83.3569 21.4782 81.9989 21.4782C80.1089 21.4782 78.9189 22.8502 78.9189 25.0342C78.9189 27.2042 80.1229 28.6042 81.9989 28.6042C83.3849 28.6042 84.4489 27.8762 84.7849 26.7422H86.6469C86.2549 28.8982 84.3789 30.3262 81.9569 30.3262Z" fill="#CC008C"/>
<path d="M19 80.0781H16.34L21.62 65.4581H24.24L29.52 80.0781H26.82L25.64 76.6981H20.18L19 80.0781ZM22.6 69.8181L20.94 74.5381H24.9L23.22 69.8181C23.1 69.4381 22.96 68.9981 22.92 68.6981C22.86 68.9781 22.74 69.4181 22.6 69.8181ZM33.0039 80.0781H30.3439L35.6239 65.4581H38.2439L43.5239 80.0781H40.8239L39.6439 76.6981H34.1839L33.0039 80.0781ZM36.6039 69.8181L34.9439 74.5381H38.9039L37.2239 69.8181C37.1039 69.4381 36.9639 68.9981 36.9239 68.6981C36.8639 68.9781 36.7439 69.4181 36.6039 69.8181Z" fill="#CC008C"/>
</svg>
