<svg width="144" height="100" viewBox="0 0 144 100" fill="none" xmlns="http://www.w3.org/2000/svg">
<path d="M11.52 0.228125H131.52C137.799 0.228125 142.89 5.31865 142.89 11.5981V88.4781C142.89 94.7576 137.799 99.8481 131.52 99.8481H11.52C5.24052 99.8481 0.15 94.7576 0.15 88.4781V11.5981C0.15 5.31866 5.24052 0.228125 11.52 0.228125Z" fill="#008072"/>
<path d="M11.52 0.228125H131.52C137.799 0.228125 142.89 5.31865 142.89 11.5981V88.4781C142.89 94.7576 137.799 99.8481 131.52 99.8481H11.52C5.24052 99.8481 0.15 94.7576 0.15 88.4781V11.5981C0.15 5.31866 5.24052 0.228125 11.52 0.228125Z" stroke="#848C8B" stroke-width="0.3"/>
<path d="M17.1733 25.8361H18.5033L18.8533 24.1001H17.3133L17.6353 22.5041H19.1613L19.6793 19.8441H21.3733L20.8553 22.5041H22.6333L23.1513 19.8441H24.8453L24.3273 22.5041H25.7693L25.4473 24.1001H24.0193L23.6833 25.8361H25.2793L24.9573 27.4321H23.3753L22.8573 30.0781H21.1633L21.6813 27.4321H19.8893L19.3713 30.0781H17.6773L18.1953 27.4321H16.8513L17.1733 25.8361ZM20.1973 25.8361H21.9893L22.3253 24.1001H20.5473L20.1973 25.8361ZM33.0738 25.8921H29.2658V30.0781H27.4738V19.8441H33.8018V21.4961H29.2658V24.2821H33.0738V25.8921ZM41.0172 25.8921H37.2092V30.0781H35.4172V19.8441H41.7452V21.4961H37.2092V24.2821H41.0172V25.8921ZM48.9606 25.8921H45.1526V30.0781H43.3606V19.8441H49.6886V21.4961H45.1526V24.2821H48.9606V25.8921ZM56.9039 25.8921H53.0959V30.0781H51.3039V19.8441H57.6319V21.4961H53.0959V24.2821H56.9039V25.8921ZM64.8473 25.8921H61.0393V30.0781H59.2473V19.8441H65.5753V21.4961H61.0393V24.2821H64.8473V25.8921ZM72.7906 25.8921H68.9826V30.0781H67.1906V19.8441H73.5186V21.4961H68.9826V24.2821H72.7906V25.8921Z" fill="white"/>
<path d="M18.88 79.998H16.22L21.5 65.378H24.12L29.4 79.998H26.7L25.52 76.618H20.06L18.88 79.998ZM22.48 69.738L20.82 74.458H24.78L23.1 69.738C22.98 69.358 22.84 68.918 22.8 68.618C22.74 68.898 22.62 69.338 22.48 69.738ZM32.8839 79.998H30.2239L35.5039 65.378H38.1239L43.4039 79.998H40.7039L39.5239 76.618H34.0639L32.8839 79.998ZM36.4839 69.738L34.8239 74.458H38.7839L37.1039 69.738C36.9839 69.358 36.8439 68.918 36.8039 68.618C36.7439 68.898 36.6239 69.338 36.4839 69.738Z" fill="white"/>
</svg>
