<svg width="144" height="101" viewBox="0 0 144 101" fill="none" xmlns="http://www.w3.org/2000/svg">
<path d="M11.6001 0.308203H131.6C137.88 0.308203 142.97 5.39873 142.97 11.6782V88.5582C142.97 94.8377 137.88 99.9282 131.6 99.9282H11.6001C5.3206 99.9282 0.230078 94.8377 0.230078 88.5582V11.6782C0.230078 5.39874 5.3206 0.308203 11.6001 0.308203Z" fill="white"/>
<path d="M11.6001 0.308203H131.6C137.88 0.308203 142.97 5.39873 142.97 11.6782V88.5582C142.97 94.8377 137.88 99.9282 131.6 99.9282H11.6001C5.3206 99.9282 0.230078 94.8377 0.230078 88.5582V11.6782C0.230078 5.39874 5.3206 0.308203 11.6001 0.308203Z" stroke="#848C8B" stroke-width="0.3"/>
<path d="M17.773 25.9162H19.103L19.453 24.1802H17.913L18.235 22.5842H19.761L20.279 19.9242H21.973L21.455 22.5842H23.233L23.751 19.9242H25.445L24.927 22.5842H26.369L26.047 24.1802H24.619L24.283 25.9162H25.879L25.557 27.5122H23.975L23.457 30.1582H21.763L22.281 27.5122H20.489L19.971 30.1582H18.277L18.795 27.5122H17.451L17.773 25.9162ZM20.797 25.9162H22.589L22.925 24.1802H21.147L20.797 25.9162ZM27.5415 25.0622C27.5415 21.8842 29.2495 19.7282 31.8675 19.7282C34.4855 19.7282 36.2075 21.8842 36.2075 25.0622C36.2075 28.2262 34.5835 30.3402 31.8675 30.3402C29.1515 30.3402 27.5415 28.2262 27.5415 25.0622ZM29.3055 25.0622C29.3055 27.4282 30.2575 28.7582 31.8675 28.7582C33.4915 28.7582 34.4435 27.4282 34.4435 25.0622C34.4435 22.6402 33.4915 21.3102 31.8675 21.3102C30.2575 21.3102 29.3055 22.6402 29.3055 25.0622ZM37.4125 25.0622C37.4125 21.8842 39.1205 19.7282 41.7385 19.7282C44.3565 19.7282 46.0785 21.8842 46.0785 25.0622C46.0785 28.2262 44.4545 30.3402 41.7385 30.3402C39.0225 30.3402 37.4125 28.2262 37.4125 25.0622ZM39.1765 25.0622C39.1765 27.4282 40.1285 28.7582 41.7385 28.7582C43.3625 28.7582 44.3145 27.4282 44.3145 25.0622C44.3145 22.6402 43.3625 21.3102 41.7385 21.3102C40.1285 21.3102 39.1765 22.6402 39.1765 25.0622ZM47.2696 27.2602C47.2696 26.0422 47.9556 25.0622 49.0196 24.6562C48.1236 24.2502 47.6336 23.4802 47.6336 22.4862C47.6336 20.8622 49.0756 19.7422 51.1896 19.7422C53.2896 19.7422 54.7036 20.8482 54.7036 22.5142C54.7036 23.5082 54.1996 24.2782 53.2896 24.6562C54.3676 25.0342 55.0676 26.0282 55.0676 27.2602C55.0676 29.1082 53.5416 30.3262 51.1616 30.3262C48.7956 30.3262 47.2696 29.1222 47.2696 27.2602ZM49.2576 22.6402C49.2576 23.4942 49.9996 24.0402 51.1616 24.0402C52.3096 24.0402 53.0376 23.5082 53.0376 22.6542C53.0376 21.8002 52.3096 21.2682 51.1616 21.2682C49.9996 21.2682 49.2576 21.8002 49.2576 22.6402ZM49.0196 27.1342C49.0196 28.1282 49.8456 28.7442 51.1756 28.7442C52.4776 28.7442 53.3036 28.1282 53.3036 27.1342C53.3036 26.1402 52.4776 25.5242 51.1616 25.5242C49.8456 25.5242 49.0196 26.1402 49.0196 27.1342ZM56.2524 25.0622C56.2524 21.8842 57.9604 19.7282 60.5784 19.7282C63.1964 19.7282 64.9184 21.8842 64.9184 25.0622C64.9184 28.2262 63.2944 30.3402 60.5784 30.3402C57.8624 30.3402 56.2524 28.2262 56.2524 25.0622ZM58.0164 25.0622C58.0164 27.4282 58.9684 28.7582 60.5784 28.7582C62.2024 28.7582 63.1544 27.4282 63.1544 25.0622C63.1544 22.6402 62.2024 21.3102 60.5784 21.3102C58.9684 21.3102 58.0164 22.6402 58.0164 25.0622ZM65.4418 19.9242H72.7918V21.5762L69.0818 30.1582H67.2198L70.9998 21.5762H65.4418V19.9242ZM80.5779 30.1442L73.4799 30.1582V28.8142L76.8259 25.9862C78.2119 24.8102 78.6739 24.1382 78.6739 23.1582C78.6739 21.9962 78.0439 21.3382 76.9659 21.3382C75.8459 21.3382 75.1459 22.1222 75.1319 23.4382H73.3539C73.3679 21.1982 74.7959 19.7422 76.9659 19.7422C79.1499 19.7422 80.5079 20.9882 80.5079 23.0602C80.5079 24.4882 79.7239 25.5662 78.1699 26.8962L76.3219 28.4782H80.5779V30.1442Z" fill="#008072"/>
<path d="M18.9601 80.0781H16.3001L21.5801 65.4581H24.2001L29.4801 80.0781H26.7801L25.6001 76.6981H20.1401L18.9601 80.0781ZM22.5601 69.8181L20.9001 74.5381H24.8601L23.1801 69.8181C23.0601 69.4381 22.9201 68.9981 22.8801 68.6981C22.8201 68.9781 22.7001 69.4181 22.5601 69.8181ZM32.964 80.0781H30.304L35.584 65.4581H38.204L43.484 80.0781H40.784L39.604 76.6981H34.144L32.964 80.0781ZM36.564 69.8181L34.904 74.5381H38.864L37.184 69.8181C37.064 69.4381 36.924 68.9981 36.884 68.6981C36.824 68.9781 36.704 69.4181 36.564 69.8181Z" fill="#008072"/>
</svg>
