<svg width="144" height="100" viewBox="0 0 144 100" fill="none" xmlns="http://www.w3.org/2000/svg">
<path d="M11.56 0.228125H131.56C137.84 0.228125 142.93 5.31865 142.93 11.5981V88.4781C142.93 94.7576 137.84 99.8481 131.56 99.8481H11.56C5.28056 99.8481 0.190039 94.7576 0.190039 88.4781V11.5981C0.190039 5.31866 5.28056 0.228125 11.56 0.228125Z" fill="#008072"/>
<path d="M11.56 0.228125H131.56C137.84 0.228125 142.93 5.31865 142.93 11.5981V88.4781C142.93 94.7576 137.84 99.8481 131.56 99.8481H11.56C5.28056 99.8481 0.190039 94.7576 0.190039 88.4781V11.5981C0.190039 5.31866 5.28056 0.228125 11.56 0.228125Z" stroke="#848C8B" stroke-width="0.3"/>
<path d="M17.8169 25.8361H19.1469L19.4969 24.1001H17.9569L18.2789 22.5041H19.8049L20.3229 19.8441H22.0169L21.4989 22.5041H23.2769L23.7949 19.8441H25.4889L24.9709 22.5041H26.4129L26.0909 24.1001H24.6629L24.3269 25.8361H25.9229L25.6009 27.4321H24.0189L23.5009 30.0781H21.8069L22.3249 27.4321H20.5329L20.0149 30.0781H18.3209L18.8389 27.4321H17.4949L17.8169 25.8361ZM20.8409 25.8361H22.6329L22.9689 24.1001H21.1909L20.8409 25.8361ZM33.7174 25.8921H29.9094V30.0781H28.1174V19.8441H34.4454V21.4961H29.9094V24.2821H33.7174V25.8921ZM41.6608 25.8921H37.8528V30.0781H36.0608V19.8441H42.3888V21.4961H37.8528V24.2821H41.6608V25.8921ZM49.6041 25.8921H45.7961V30.0781H44.0041V19.8441H50.3321V21.4961H45.7961V24.2821H49.6041V25.8921ZM50.9115 19.8441H58.2615V21.4961L54.5515 30.0781H52.6895L56.4695 21.4961H50.9115V19.8441ZM65.8367 30.0781H59.4807V19.8441H65.8367V21.4961H61.2727V24.1281H65.3607V25.7101H61.2727V28.4261H65.8367V30.0781ZM70.7755 30.2461C68.6335 30.2461 67.2195 28.8741 67.2195 26.8021H68.9975C68.9975 27.9641 69.6835 28.6501 70.8175 28.6501C72.0215 28.6501 72.7915 27.8661 72.7915 26.6201C72.7915 25.4301 72.0775 24.6181 70.8455 24.6181C70.0615 24.6181 69.3475 25.0101 68.9835 25.5421L67.4015 25.2061L68.6615 19.8441H73.9955V21.4961H69.9495L69.4035 23.6241C69.8935 23.3021 70.5095 23.1201 71.2095 23.1201C73.2535 23.1201 74.6115 24.5061 74.6115 26.5221C74.6115 28.7341 73.0575 30.2461 70.7755 30.2461Z" fill="white"/>
<path d="M18.92 79.998H16.26L21.54 65.378H24.16L29.44 79.998H26.74L25.56 76.618H20.1L18.92 79.998ZM22.52 69.738L20.86 74.458H24.82L23.14 69.738C23.02 69.358 22.88 68.918 22.84 68.618C22.78 68.898 22.66 69.338 22.52 69.738ZM32.9239 79.998H30.2639L35.5439 65.378H38.1639L43.4439 79.998H40.7439L39.5639 76.618H34.1039L32.9239 79.998ZM36.5239 69.738L34.8639 74.458H38.8239L37.1439 69.738C37.0239 69.358 36.8839 68.918 36.8439 68.618C36.7839 68.898 36.6639 69.338 36.5239 69.738Z" fill="#FFF7E5"/>
</svg>
