<svg width="144" height="101" viewBox="0 0 144 101" fill="none" xmlns="http://www.w3.org/2000/svg">
<path d="M11.56 1.06797H131.56C137.84 1.06797 142.93 6.15849 142.93 12.438V89.318C142.93 95.5974 137.84 100.688 131.56 100.688H11.56C5.28056 100.688 0.190039 95.5974 0.190039 89.318V12.438C0.190039 6.1585 5.28056 1.06797 11.56 1.06797Z" fill="#FFF7E5"/>
<path d="M11.56 1.06797H131.56C137.84 1.06797 142.93 6.15849 142.93 12.438V89.318C142.93 95.5974 137.84 100.688 131.56 100.688H11.56C5.28056 100.688 0.190039 95.5974 0.190039 89.318V12.438C0.190039 6.1585 5.28056 1.06797 11.56 1.06797Z" stroke="#848C8B" stroke-width="0.3"/>
<path d="M16.936 26.676H18.266L18.616 24.94H17.076L17.398 23.344H18.924L19.442 20.684H21.136L20.618 23.344H22.396L22.914 20.684H24.608L24.09 23.344H25.532L25.21 24.94H23.782L23.446 26.676H25.042L24.72 28.272H23.138L22.62 30.918H20.926L21.444 28.272H19.652L19.134 30.918H17.44L17.958 28.272H16.614L16.936 26.676ZM19.96 26.676H21.752L22.088 24.94H20.31L19.96 26.676ZM27.2365 30.918V20.684H31.3105C33.3265 20.684 34.5585 21.734 34.5585 23.442C34.5585 24.576 34.0545 25.388 33.0885 25.794C34.1665 26.144 34.7125 26.956 34.7125 28.146C34.7125 29.896 33.4945 30.918 31.3805 30.918H27.2365ZM31.1565 22.266H29.0285V25.052H31.1985C32.1785 25.052 32.7245 24.534 32.7245 23.624C32.7245 22.742 32.1645 22.266 31.1565 22.266ZM31.3105 26.564H29.0285V29.336H31.3105C32.3185 29.336 32.8785 28.846 32.8785 27.922C32.8785 27.054 32.3045 26.564 31.3105 26.564ZM42.9637 30.904L35.8657 30.918V29.574L39.2117 26.746C40.5977 25.57 41.0597 24.898 41.0597 23.918C41.0597 22.756 40.4297 22.098 39.3517 22.098C38.2317 22.098 37.5317 22.882 37.5177 24.198H35.7397C35.7537 21.958 37.1817 20.502 39.3517 20.502C41.5357 20.502 42.8937 21.748 42.8937 23.82C42.8937 25.248 42.1097 26.326 40.5557 27.656L38.7077 29.238H42.9637V30.904ZM44.0678 25.822C44.0678 22.644 45.7758 20.488 48.3938 20.488C51.0118 20.488 52.7338 22.644 52.7338 25.822C52.7338 28.986 51.1098 31.1 48.3938 31.1C45.6778 31.1 44.0678 28.986 44.0678 25.822ZM45.8318 25.822C45.8318 28.188 46.7838 29.518 48.3938 29.518C50.0178 29.518 50.9698 28.188 50.9698 25.822C50.9698 23.4 50.0178 22.07 48.3938 22.07C46.7838 22.07 45.8318 23.4 45.8318 25.822ZM53.9389 25.822C53.9389 22.644 55.6469 20.488 58.2649 20.488C60.8829 20.488 62.6049 22.644 62.6049 25.822C62.6049 28.986 60.9809 31.1 58.2649 31.1C55.5489 31.1 53.9389 28.986 53.9389 25.822ZM55.7029 25.822C55.7029 28.188 56.6549 29.518 58.2649 29.518C59.8889 29.518 60.8409 28.188 60.8409 25.822C60.8409 23.4 59.8889 22.07 58.2649 22.07C56.6549 22.07 55.7029 23.4 55.7029 25.822ZM63.1283 20.684H70.4783V22.336L66.7683 30.918H64.9063L68.6863 22.336H63.1283V20.684ZM72.5795 30.918H70.7175L74.4135 20.684H76.2475L79.9435 30.918H78.0535L77.2275 28.552H73.4055L72.5795 30.918ZM75.0995 23.736L73.9375 27.04H76.7095L75.5335 23.736C75.4495 23.47 75.3515 23.162 75.3235 22.952C75.2815 23.148 75.1975 23.456 75.0995 23.736Z" fill="#B2007A"/>
<path d="M18.92 80.8379H16.26L21.54 66.2179H24.16L29.44 80.8379H26.74L25.56 77.4579H20.1L18.92 80.8379ZM22.52 70.5779L20.86 75.2979H24.82L23.14 70.5779C23.02 70.1979 22.88 69.7579 22.84 69.4579C22.78 69.7379 22.66 70.1779 22.52 70.5779ZM32.9239 80.8379H30.2639L35.5439 66.2179H38.1639L43.4439 80.8379H40.7439L39.5639 77.4579H34.1039L32.9239 80.8379ZM36.5239 70.5779L34.8639 75.2979H38.8239L37.1439 70.5779C37.0239 70.1979 36.8839 69.7579 36.8439 69.4579C36.7839 69.7379 36.6639 70.1779 36.5239 70.5779Z" fill="#B2007A"/>
</svg>
