<svg width="144" height="100" viewBox="0 0 144 100" fill="none" xmlns="http://www.w3.org/2000/svg">
<path d="M11.6001 0.228125H131.6C137.88 0.228125 142.97 5.31865 142.97 11.5981V88.4781C142.97 94.7576 137.88 99.8481 131.6 99.8481H11.6001C5.3206 99.8481 0.230078 94.7576 0.230078 88.4781V11.5981C0.230078 5.31866 5.3206 0.228125 11.6001 0.228125Z" fill="#273540"/>
<path d="M11.6001 0.228125H131.6C137.88 0.228125 142.97 5.31865 142.97 11.5981V88.4781C142.97 94.7576 137.88 99.8481 131.6 99.8481H11.6001C5.3206 99.8481 0.230078 94.7576 0.230078 88.4781V11.5981C0.230078 5.31866 5.3206 0.228125 11.6001 0.228125Z" stroke="#848C8B" stroke-width="0.3"/>
<path d="M17.2534 25.8361H18.5834L18.9334 24.1001H17.3934L17.7154 22.5041H19.2414L19.7594 19.8441H21.4534L20.9354 22.5041H22.7134L23.2314 19.8441H24.9254L24.4074 22.5041H25.8494L25.5274 24.1001H24.0994L23.7634 25.8361H25.3594L25.0374 27.4321H23.4554L22.9374 30.0781H21.2434L21.7614 27.4321H19.9694L19.4514 30.0781H17.7574L18.2754 27.4321H16.9314L17.2534 25.8361ZM20.2774 25.8361H22.0694L22.4054 24.1001H20.6274L20.2774 25.8361ZM33.1539 25.8921H29.3459V30.0781H27.5539V19.8441H33.8819V21.4961H29.3459V24.2821H33.1539V25.8921ZM41.0973 25.8921H37.2893V30.0781H35.4973V19.8441H41.8253V21.4961H37.2893V24.2821H41.0973V25.8921ZM49.0406 25.8921H45.2326V30.0781H43.4406V19.8441H49.7686V21.4961H45.2326V24.2821H49.0406V25.8921ZM56.984 25.8921H53.176V30.0781H51.384V19.8441H57.712V21.4961H53.176V24.2821H56.984V25.8921ZM64.9274 25.8921H61.1194V30.0781H59.3274V19.8441H65.6554V21.4961H61.1194V24.2821H64.9274V25.8921ZM72.8707 25.8921H69.0627V30.0781H67.2707V19.8441H73.5987V21.4961H69.0627V24.2821H72.8707V25.8921Z" fill="white"/>
<path d="M18.9601 79.998H16.3001L21.5801 65.378H24.2001L29.4801 79.998H26.7801L25.6001 76.618H20.1401L18.9601 79.998ZM22.5601 69.738L20.9001 74.458H24.8601L23.1801 69.738C23.0601 69.358 22.9201 68.918 22.8801 68.618C22.8201 68.898 22.7001 69.338 22.5601 69.738ZM32.964 79.998H30.304L35.584 65.378H38.204L43.484 79.998H40.784L39.604 76.618H34.144L32.964 79.998ZM36.564 69.738L34.904 74.458H38.864L37.184 69.738C37.064 69.358 36.924 68.918 36.884 68.618C36.824 68.898 36.704 69.338 36.564 69.738ZM46.9679 79.998H44.3079L49.5879 65.378H52.2079L57.4879 79.998H54.7879L53.6079 76.618H48.1479L46.9679 79.998ZM50.5679 69.738L48.9079 74.458H52.8679L51.1879 69.738C51.0679 69.358 50.9279 68.918 50.8879 68.618C50.8279 68.898 50.7079 69.338 50.5679 69.738Z" fill="white"/>
</svg>
