<svg width="144" height="100" viewBox="0 0 144 100" fill="none" xmlns="http://www.w3.org/2000/svg">
<path d="M11.56 0.148047H131.56C137.84 0.148047 142.93 5.23857 142.93 11.518V88.398C142.93 94.6775 137.84 99.768 131.56 99.768H11.56C5.28056 99.768 0.190039 94.6775 0.190039 88.398V11.5181C0.190039 5.23858 5.28056 0.148047 11.56 0.148047Z" fill="#CC008C"/>
<path d="M11.56 0.148047H131.56C137.84 0.148047 142.93 5.23857 142.93 11.518V88.398C142.93 94.6775 137.84 99.768 131.56 99.768H11.56C5.28056 99.768 0.190039 94.6775 0.190039 88.398V11.5181C0.190039 5.23858 5.28056 0.148047 11.56 0.148047Z" stroke="#848C8B" stroke-width="0.3"/>
<path d="M17.8169 25.756H19.1469L19.4969 24.02H17.9569L18.2789 22.424H19.8049L20.3229 19.764H22.0169L21.4989 22.424H23.2769L23.7949 19.764H25.4889L24.9709 22.424H26.4129L26.0909 24.02H24.6629L24.3269 25.756H25.9229L25.6009 27.352H24.0189L23.5009 29.998H21.8069L22.3249 27.352H20.5329L20.0149 29.998H18.3209L18.8389 27.352H17.4949L17.8169 25.756ZM20.8409 25.756H22.6329L22.9689 24.02H21.1909L20.8409 25.756ZM33.7174 25.812H29.9094V29.998H28.1174V19.764H34.4454V21.416H29.9094V24.202H33.7174V25.812ZM41.6608 25.812H37.8528V29.998H36.0608V19.764H42.3888V21.416H37.8528V24.202H41.6608V25.812ZM49.6041 25.812H45.7961V29.998H44.0041V19.764H50.3321V21.416H45.7961V24.202H49.6041V25.812ZM50.9115 19.764H58.2615V21.416L54.5515 29.998H52.6895L56.4695 21.416H50.9115V19.764ZM65.8367 29.998H59.4807V19.764H65.8367V21.416H61.2727V24.048H65.3607V25.63H61.2727V28.346H65.8367V29.998ZM70.7755 30.166C68.6335 30.166 67.2195 28.794 67.2195 26.722H68.9975C68.9975 27.884 69.6835 28.57 70.8175 28.57C72.0215 28.57 72.7915 27.786 72.7915 26.54C72.7915 25.35 72.0775 24.538 70.8455 24.538C70.0615 24.538 69.3475 24.93 68.9835 25.462L67.4015 25.126L68.6615 19.764H73.9955V21.416H69.9495L69.4035 23.544C69.8935 23.222 70.5095 23.04 71.2095 23.04C73.2535 23.04 74.6115 24.426 74.6115 26.442C74.6115 28.654 73.0575 30.166 70.7755 30.166Z" fill="#FFF7E5"/>
<path d="M18.92 79.918H16.26L21.54 65.298H24.16L29.44 79.918H26.74L25.56 76.538H20.1L18.92 79.918ZM22.52 69.658L20.86 74.378H24.82L23.14 69.658C23.02 69.278 22.88 68.838 22.84 68.538C22.78 68.818 22.66 69.258 22.52 69.658ZM32.9239 79.918H30.2639L35.5439 65.298H38.1639L43.4439 79.918H40.7439L39.5639 76.538H34.1039L32.9239 79.918ZM36.5239 69.658L34.8639 74.378H38.8239L37.1439 69.658C37.0239 69.278 36.8839 68.838 36.8439 68.538C36.7839 68.818 36.6639 69.258 36.5239 69.658Z" fill="#FFF7E5"/>
</svg>
