<svg width="144" height="101" viewBox="0 0 144 101" fill="none" xmlns="http://www.w3.org/2000/svg">
<path d="M11.52 0.308203H131.52C137.799 0.308203 142.89 5.39873 142.89 11.6782V88.5582C142.89 94.8377 137.799 99.9282 131.52 99.9282H11.52C5.24052 99.9282 0.15 94.8377 0.15 88.5582V11.6782C0.15 5.39874 5.24052 0.308203 11.52 0.308203Z" fill="white"/>
<path d="M11.52 0.308203H131.52C137.799 0.308203 142.89 5.39873 142.89 11.6782V88.5582C142.89 94.8377 137.799 99.9282 131.52 99.9282H11.52C5.24052 99.9282 0.15 94.8377 0.15 88.5582V11.6782C0.15 5.39874 5.24052 0.308203 11.52 0.308203Z" stroke="#848C8B" stroke-width="0.3"/>
<path d="M17.769 25.9162H19.099L19.449 24.1802H17.909L18.231 22.5842H19.757L20.275 19.9242H21.969L21.451 22.5842H23.229L23.747 19.9242H25.441L24.923 22.5842H26.365L26.043 24.1802H24.615L24.279 25.9162H25.875L25.553 27.5122H23.971L23.453 30.1582H21.759L22.277 27.5122H20.485L19.967 30.1582H18.273L18.791 27.5122H17.447L17.769 25.9162ZM20.793 25.9162H22.585L22.921 24.1802H21.143L20.793 25.9162ZM34.6775 30.1442L27.5795 30.1582V28.8142L30.9255 25.9862C32.3115 24.8102 32.7735 24.1382 32.7735 23.1582C32.7735 21.9962 32.1435 21.3382 31.0655 21.3382C29.9455 21.3382 29.2455 22.1222 29.2315 23.4382H27.4535C27.4675 21.1982 28.8955 19.7422 31.0655 19.7422C33.2495 19.7422 34.6075 20.9882 34.6075 23.0602C34.6075 24.4882 33.8235 25.5662 32.2695 26.8962L30.4215 28.4782H34.6775V30.1442ZM35.2367 19.9242H42.5867V21.5762L38.8767 30.1582H37.0147L40.7947 21.5762H35.2367V19.9242ZM46.3936 25.0902H45.1476V23.9282L47.7796 21.5062H43.5236V19.9242H50.0196V21.3522L47.5276 23.6482C49.0956 23.9562 50.3136 25.1042 50.3136 26.9102C50.3136 29.0102 48.6756 30.3402 46.6036 30.3402C44.6016 30.3402 43.0476 29.1082 43.0476 26.8962H44.8116C44.8116 28.0722 45.5396 28.7442 46.6316 28.7442C47.7516 28.7442 48.4936 28.0162 48.4936 26.8822C48.4936 25.8462 47.8216 25.0902 46.3936 25.0902ZM54.8136 30.3262C52.6716 30.3262 51.2576 28.9542 51.2576 26.8822H53.0356C53.0356 28.0442 53.7216 28.7302 54.8556 28.7302C56.0596 28.7302 56.8296 27.9462 56.8296 26.7002C56.8296 25.5102 56.1156 24.6982 54.8836 24.6982C54.0996 24.6982 53.3856 25.0902 53.0216 25.6222L51.4396 25.2862L52.6996 19.9242H58.0336V21.5762H53.9876L53.4416 23.7042C53.9316 23.3822 54.5476 23.2002 55.2476 23.2002C57.2916 23.2002 58.6496 24.5862 58.6496 26.6022C58.6496 28.8142 57.0956 30.3262 54.8136 30.3262ZM67.6041 28.2122H66.3581V30.1582H64.6641V28.2122H59.4701V26.6442L64.1041 19.9242H66.3581V26.6442H67.6041V28.2122ZM61.3741 26.6442H64.6641V21.8562L61.3741 26.6442ZM68.7309 25.0622C68.7309 21.8842 70.4389 19.7282 73.0569 19.7282C75.6749 19.7282 77.3969 21.8842 77.3969 25.0622C77.3969 28.2262 75.7729 30.3402 73.0569 30.3402C70.3409 30.3402 68.7309 28.2262 68.7309 25.0622ZM70.4949 25.0622C70.4949 27.4282 71.4469 28.7582 73.0569 28.7582C74.6809 28.7582 75.6329 27.4282 75.6329 25.0622C75.6329 22.6402 74.6809 21.3102 73.0569 21.3102C71.4469 21.3102 70.4949 22.6402 70.4949 25.0622Z" fill="#273540"/>
<path d="M18.88 80.0781H16.22L21.5 65.4581H24.12L29.4 80.0781H26.7L25.52 76.6981H20.06L18.88 80.0781ZM22.48 69.8181L20.82 74.5381H24.78L23.1 69.8181C22.98 69.4381 22.84 68.9981 22.8 68.6981C22.74 68.9781 22.62 69.4181 22.48 69.8181ZM32.8839 80.0781H30.2239L35.5039 65.4581H38.1239L43.4039 80.0781H40.7039L39.5239 76.6981H34.0639L32.8839 80.0781ZM36.4839 69.8181L34.8239 74.5381H38.7839L37.1039 69.8181C36.9839 69.4381 36.8439 68.9981 36.8039 68.6981C36.7439 68.9781 36.6239 69.4181 36.4839 69.8181ZM46.8878 80.0781H44.2278L49.5078 65.4581H52.1278L57.4078 80.0781H54.7078L53.5278 76.6981H48.0678L46.8878 80.0781ZM50.4878 69.8181L48.8278 74.5381H52.7878L51.1078 69.8181C50.9878 69.4381 50.8478 68.9981 50.8078 68.6981C50.7478 68.9781 50.6278 69.4181 50.4878 69.8181Z" fill="#273540"/>
</svg>
