<svg width="120" height="65" viewBox="0 0 120 65" fill="none" xmlns="http://www.w3.org/2000/svg">
<g clip-path="url(#clip0_143_6775)">
<path d="M72.5002 43.9886C72.9922 43.9284 73.3559 43.903 73.7131 43.8377C80.6178 42.5889 87.1267 40.2373 93.2561 36.8256C97.6955 34.3554 101.891 31.5235 105.95 28.4701C109.317 25.9375 112.777 23.5289 116.189 21.0554C116.658 20.7145 117.105 20.3373 117.535 19.9455C117.789 19.7137 117.972 19.3869 118.388 19.6338C118.771 19.8605 119.046 20.1857 118.948 20.6373C118.872 20.9934 118.72 21.3685 118.493 21.6479C118.02 22.2304 117.519 22.8069 116.951 23.2942C115.469 24.566 113.967 25.8133 112.437 27.0241C109.911 29.0217 107.398 31.0392 104.806 32.9487C97.2929 38.4838 89.1812 42.8187 80.0669 45.1123C76.7316 45.9516 73.3652 46.4942 69.9143 46.4579C69.5203 46.4539 69.067 46.5137 68.7392 46.7083C65.317 48.7467 61.5375 49.6588 57.665 50.2945C54.0957 50.8805 50.5076 50.8701 46.9094 50.6751C42.4528 50.4337 38.0475 49.8192 33.6783 48.924C24.7627 47.0969 16.0276 44.6983 7.76897 40.7811C7.50498 40.6561 7.22151 40.5704 6.76664 40.397C7.05554 42.1929 7.49296 43.8105 7.39976 45.4939C6.7041 45.6841 6.21795 45.4101 5.8405 45.0175C5.39446 44.5523 4.99076 44.0308 4.64781 43.4846C3.37635 41.4584 2.69997 39.1909 2.05581 36.9123C1.92552 36.4507 1.80948 35.9853 1.66816 35.527C1.52358 35.0576 1.73087 34.7831 2.15851 34.6855C2.55565 34.5949 2.96951 34.5397 3.37745 34.5357C7.07296 34.4994 10.7695 34.4747 14.4662 34.4553C14.9093 34.4533 15.3572 34.4772 15.796 34.535C16.0256 34.5652 16.2941 34.6409 16.4544 34.7914C16.714 35.0357 17.0374 35.3383 17.085 35.6538C17.156 36.1195 16.6509 36.1888 16.3063 36.3127C13.4203 37.3453 10.4365 37.5964 7.3984 37.4284C6.96099 37.4043 6.52207 37.4123 6.00995 37.4031C6.19024 37.954 6.64258 38.0235 6.9769 38.1641C10.0061 39.4384 13.0341 40.7197 16.0909 41.9267C19.4112 43.2378 22.8751 44.0857 26.335 44.9328C30.8297 46.033 35.3486 47.032 39.9471 47.5814C46.4047 48.3523 52.8585 48.5367 59.2548 47.0392C60.4531 46.7584 61.631 46.3862 62.8121 46.0376C63.1613 45.9344 63.491 45.7651 64.0404 45.5397C63.6024 45.3066 63.3362 45.1937 63.1003 45.034C62.5363 44.6512 61.9229 44.3119 61.4436 43.8397C59.9023 42.3234 60.0518 40.0506 61.7515 38.712C62.9234 37.7895 64.3188 37.4391 65.7659 37.2869C68.0834 37.0423 70.1882 37.6162 72.0208 39.0671C72.4165 39.3804 72.7757 39.776 73.0461 40.2008C73.6485 41.1459 73.6785 42.1327 73.0628 43.1045C72.9036 43.3551 72.7437 43.6036 72.4993 43.9874L72.5002 43.9886ZM63.9615 42.2971C63.7579 43.4066 63.9967 43.7568 65.0671 43.9682C65.4365 44.0408 65.807 44.1304 66.1805 44.1495C66.4382 44.1627 66.7636 44.1472 66.9508 44.0039C67.7897 43.364 68.6449 42.7269 69.3809 41.9779C69.7336 41.6195 69.9365 41.0331 70.0265 40.5186C70.1486 39.8228 69.8165 39.4863 69.121 39.4635C67.5617 39.4121 66.1416 39.8312 64.9162 40.8204C64.4277 41.2143 64.0389 41.6885 63.9603 42.298L63.9615 42.2971Z" fill="#E517C3" fill-opacity="0.3"/>
</g>
<defs>
<clipPath id="clip0_143_6775">
<rect width="113" height="45.0355" fill="white" transform="translate(111.272 64.0347) rotate(-169.966)"/>
</clipPath>
</defs>
</svg>
