<svg width="58" height="38" viewBox="0 0 58 38" fill="none" xmlns="http://www.w3.org/2000/svg">
<g clip-path="url(#clip0_59_5397)">
<path d="M22.7722 17.7393C21.3021 15.0935 19.6945 12.6983 17.4594 10.8004C15.8703 9.45118 14.2165 8.17811 12.5834 6.88227C12.2504 6.61826 11.8931 6.3756 11.521 6.17137C8.40482 4.45852 5.25808 2.80972 1.87082 1.67826C1.24816 1.47047 0.599167 1.31321 0.094635 0.852793C0.553624 0.109872 0.895909 -0.103611 1.53778 0.0835425C3.62707 0.692681 5.75621 1.18013 7.72524 2.1586C9.20965 2.89654 10.7375 3.54908 12.2105 4.30837C13.1328 4.78373 14.0372 5.32313 14.8648 5.94579C16.2646 6.99968 17.6159 8.12118 18.953 9.25477C20.6659 10.7072 22.0855 12.4172 23.2447 14.3421C23.7087 15.112 24.1827 15.8763 24.6858 16.6996C24.9626 16.6541 25.2415 16.6441 25.4956 16.5609C26.3573 16.2784 27.2369 16.1154 28.1421 16.0699C29.704 15.9916 31.2653 15.8969 32.8273 15.8123C34.5131 15.7205 36.1278 16.0528 37.6976 16.6406C41.526 18.0745 44.6457 20.4826 47.1869 23.6492C48.0757 24.7565 48.8613 25.9477 49.6754 27.1141C50.8745 28.8312 51.833 30.6778 52.6143 32.6219C52.7801 33.0354 52.8179 33.5484 53.3516 33.8566C53.5651 33.3029 53.7643 32.7763 53.9721 32.2526C54.4966 30.9319 54.9897 29.5976 55.564 28.2989C56.0151 27.2784 56.1809 27.1995 57.5188 26.7156C57.5422 26.8977 57.6262 27.0828 57.575 27.218C56.4193 30.2793 55.1292 33.283 53.6668 36.2106C53.3409 36.8631 52.8022 37.3299 52.181 37.7035C51.7362 37.9711 51.2943 38.0067 50.8481 37.7107C50.6901 37.6061 50.5265 37.5093 50.3735 37.3983C48.7197 36.1985 47.1691 34.8777 45.7551 33.4019C45.4641 33.098 45.215 32.7536 44.9169 32.3914C45.1631 31.7765 45.5972 31.4933 46.2284 31.3823C47.7199 32.5323 49.047 33.8964 50.6254 34.8977C50.9926 34.7183 50.8495 34.4629 50.7606 34.2835C50.1507 33.0539 49.6142 31.773 48.872 30.6266C47.7142 28.8383 46.4852 27.0856 45.1567 25.4211C42.7208 22.3683 39.71 20.0307 36.0587 18.5669C34.3203 17.8702 32.5242 17.5009 30.6448 17.5927C29.2244 17.6625 27.804 17.7279 26.3844 17.8055C26.1083 17.8204 25.835 17.8838 25.487 17.9357C25.5319 18.2076 25.539 18.4402 25.6116 18.6495C25.7973 19.186 26.0271 19.7083 26.2129 20.2449C26.6954 21.6354 26.5246 22.949 25.7283 24.1879C25.1604 25.0717 24.5164 25.8844 23.6667 26.5184C22.711 27.2322 21.6322 27.5218 20.4545 27.4065C19.2348 27.287 18.4556 26.6024 18.161 25.4076C17.8764 24.2541 18.0407 23.1475 18.5901 22.0986C19.3288 20.6889 20.3513 19.5205 21.6194 18.5655C21.9567 18.3114 22.3054 18.0731 22.7694 17.7414L22.7722 17.7393ZM23.1957 18.606C22.6064 18.9341 22.1332 19.1568 21.7048 19.445C20.5449 20.2242 19.8497 21.3287 19.6205 22.6992C19.3323 24.4242 20.3172 25.5756 22.0436 25.5756C22.3268 25.5756 22.6136 25.5585 22.8925 25.5115C24.3513 25.2667 25.1362 24.2413 24.8907 22.7697C24.648 21.3159 24.0496 19.9859 23.1957 18.606Z" fill="#6A7372"/>
</g>
<defs>
<clipPath id="clip0_59_5397">
<rect width="57.6405" height="38" fill="white"/>
</clipPath>
</defs>
</svg>
