<svg width="120" height="65" viewBox="0 0 120 65" fill="none" xmlns="http://www.w3.org/2000/svg">
<g clip-path="url(#clip0_143_6773)">
<path d="M46.6181 20.0461C46.1261 20.1063 45.7624 20.1317 45.4052 20.1969C38.5005 21.4458 31.9916 23.7973 25.8622 27.209C21.4228 29.6793 17.2274 32.5112 13.1682 35.5645C9.80164 38.0972 6.34111 40.5057 2.92962 42.9793C2.45999 43.3201 2.01316 43.6974 1.5836 44.0892C1.32958 44.3209 1.14646 44.6477 0.730703 44.4008C0.346866 44.1742 0.0723708 43.8489 0.170019 43.3974C0.246599 43.0413 0.398593 42.6662 0.625534 42.3868C1.09825 41.8043 1.59913 41.2277 2.16776 40.7405C3.64894 39.4687 5.15083 38.2214 6.68178 37.0106C9.20712 35.013 11.7203 32.9955 14.3126 31.086C21.8254 25.5508 29.9371 21.216 39.0514 18.9224C42.3867 18.083 45.7531 17.5405 49.2039 17.5768C49.5979 17.5807 50.0512 17.521 50.3791 17.3263C53.8013 15.288 57.5808 14.3758 61.4533 13.7401C65.0226 13.1542 68.6107 13.1646 72.2089 13.3596C76.6655 13.601 81.0708 14.2155 85.4399 15.1107C94.3556 16.9378 103.091 19.3364 111.349 23.2536C111.613 23.3786 111.897 23.4643 112.352 23.6377C112.063 21.8417 111.625 20.2242 111.719 18.5408C112.414 18.3506 112.9 18.6246 113.278 19.0171C113.724 19.4824 114.128 20.0039 114.47 20.5501C115.742 22.5763 116.418 24.8438 117.062 27.1224C117.193 27.584 117.309 28.0493 117.45 28.5077C117.595 28.977 117.387 29.2515 116.96 29.3492C116.563 29.4397 116.149 29.4949 115.741 29.499C112.045 29.5353 108.349 29.56 104.652 29.5794C104.209 29.5814 103.761 29.5575 103.322 29.4997C103.093 29.4695 102.824 29.3938 102.664 29.2432C102.404 28.9989 102.081 28.6963 102.033 28.3809C101.962 27.9152 102.467 27.8458 102.812 27.722C105.698 26.6893 108.682 26.4383 111.72 26.6062C112.157 26.6304 112.596 26.6224 113.108 26.6316C112.928 26.0807 112.476 26.0111 112.141 25.8705C109.112 24.5963 106.084 23.315 103.027 22.1079C99.707 20.7968 96.2432 19.949 92.7833 19.1019C88.2886 18.0017 83.7697 17.0027 79.1712 16.4532C72.7136 15.6824 66.2598 15.498 59.8634 16.9955C58.6652 17.2763 57.4873 17.6484 56.3062 17.9971C55.957 18.1002 55.6273 18.2695 55.0779 18.495C55.5159 18.7281 55.782 18.8409 56.018 19.0007C56.582 19.3834 57.1954 19.7227 57.6747 20.1949C59.2159 21.7113 59.0665 23.9841 57.3667 25.3227C56.1949 26.2452 54.7994 26.5955 53.3524 26.7478C51.0349 26.9924 48.9301 26.4185 47.0974 24.9675C46.7018 24.6542 46.3426 24.2586 46.0722 23.8338C45.4698 22.8888 45.4398 21.9019 46.0555 20.9302C46.2147 20.6795 46.3746 20.4311 46.6189 20.0473L46.6181 20.0461ZM55.1568 21.7375C55.3604 20.6281 55.1216 20.2778 54.0511 20.0665C53.6818 19.9938 53.3113 19.9043 52.9378 19.8852C52.6801 19.8719 52.3547 19.8875 52.1675 20.0308C51.3286 20.6707 50.4734 21.3078 49.7374 22.0567C49.3847 22.4151 49.1818 23.0015 49.0918 23.5161C48.9697 24.2118 49.3017 24.5483 49.9973 24.5712C51.5566 24.6225 52.9767 24.2035 54.2021 23.2143C54.6905 22.8204 55.0793 22.3462 55.1579 21.7367L55.1568 21.7375Z" fill="#E517C3" fill-opacity="0.3"/>
</g>
<defs>
<clipPath id="clip0_143_6773">
<rect width="113" height="45.0355" fill="white" transform="translate(7.84656) rotate(10.0339)"/>
</clipPath>
</defs>
</svg>
