<svg width="30" height="31" viewBox="0 0 30 31" fill="none" xmlns="http://www.w3.org/2000/svg">
<g clip-path="url(#clip0_151_663)">
<path d="M7.99908 25.6655C8.02337 25.8858 8.18429 26.0893 8.0305 26.3358C7.97622 26.4225 8.02836 26.5878 8.05734 26.7109C8.20471 27.3321 8.36287 27.9505 8.50729 28.5725C8.51497 28.6029 8.42974 28.6745 8.37556 28.6954C8.32138 28.7164 8.20507 28.7145 8.19643 28.6926C8.09572 28.4217 7.87715 28.2213 7.75784 27.9717C7.59293 27.6283 7.66063 27.1772 7.27535 26.9322L6.65724 24.4828C7.00566 24.1476 6.44451 23.706 6.78654 23.3703C6.74741 23.207 6.68252 23.0449 6.67774 22.8813C6.67299 22.7301 6.75632 22.5766 6.75746 22.424C6.75958 22.1636 6.49646 21.9024 6.6586 21.6601C6.81756 21.4218 6.53489 21.1989 6.70425 21.0017C6.90004 20.7728 6.53304 20.4721 6.81057 20.2612C6.75799 20.0074 6.76236 19.7642 6.85627 19.512C6.93091 19.3116 6.91714 19.0793 6.97974 18.8725C7.05135 18.6312 7.06257 18.3779 7.14596 18.142C7.22082 17.93 7.33545 17.731 7.39853 17.5179C7.46892 17.28 7.45235 17.0035 7.56648 16.7942C7.6806 16.5849 7.68968 16.3645 7.76946 16.1597C7.85462 15.9431 7.97953 15.7311 8.13004 15.5543C8.31457 15.3387 8.21603 15.0516 8.37625 14.8265C8.52106 14.623 8.75077 14.4253 8.64581 14.1168C8.76262 14.0133 8.8927 13.921 8.99354 13.8037C9.08091 13.7034 9.13534 13.5759 9.20403 13.4595C9.27297 13.344 9.40006 13.2274 9.39932 13.1128C9.39711 12.8932 9.32918 12.686 9.6587 12.9044C9.6673 12.9096 9.72968 12.826 9.77156 12.7893C9.94078 12.6413 9.82052 12.4087 9.92984 12.2465C10.0074 12.132 10.0397 11.8922 10.2657 12.1012C10.2765 12.111 10.3863 12.0499 10.3835 12.0308C10.3344 11.679 10.4664 11.4537 10.8245 11.3926C10.9844 11.3648 11.016 11.2295 11.0963 11.1299C11.2375 10.9534 11.2646 10.6972 11.5071 10.587C11.7044 10.4965 11.7966 10.25 12.0623 10.2278C12.1501 10.2202 12.2314 10.0463 12.3014 9.93895C12.3745 9.82764 12.4282 9.70974 12.5854 9.69197C12.7172 9.67647 12.8235 9.62667 12.9106 9.50036C12.996 9.37552 13.183 9.31058 13.2443 9.18138C13.3489 8.95884 13.5828 8.87686 13.7001 8.697C13.8364 8.48838 14.0403 8.51516 14.219 8.45023C14.4676 8.36036 14.6119 8.13823 14.7936 7.97344C14.9337 7.84627 15.1035 7.75854 15.2256 7.7914C15.4743 7.85906 15.6411 7.94531 15.5629 7.56124C15.5438 7.46902 15.6225 7.45019 15.6936 7.51678C15.8033 7.62057 15.9305 7.57489 16.0637 7.57362C16.3408 7.57153 16.3257 7.18511 16.6194 7.20802C16.8653 7.22735 17.0325 7.0589 17.1779 6.86989C17.2297 6.80255 17.3332 6.77435 17.4281 6.72016C17.1996 6.58375 16.9969 6.46274 16.7942 6.34173C16.5602 6.5145 16.3756 6.11348 16.1426 6.286C15.6777 6.0851 15.1624 6.07323 14.6907 5.90743C14.504 5.84184 14.3669 5.95575 14.2123 5.93842C14.0596 5.9206 13.9365 5.7555 13.7485 5.84155C13.7289 5.85067 13.6246 5.71423 13.5915 5.63284C13.5745 5.59019 13.6314 5.46836 13.6523 5.46831C13.9276 5.47605 13.9236 5.09622 14.1956 5.08703C14.2702 5.0849 14.2668 4.96787 14.1853 4.95505C13.9786 4.92165 13.9983 4.70593 13.8817 4.59552C13.5638 4.29492 13.5896 4.22787 14.0078 4.11923C14.1703 4.07716 14.3331 4.01104 14.4982 4.0038C14.616 3.99912 14.7377 4.1051 14.8582 4.10704C15.1458 4.1096 15.3933 3.89582 15.7246 4.01777C15.9626 4.10484 16.2166 4.1482 16.4375 4.29174C16.4813 4.32035 16.5651 4.28041 16.6233 4.29599C16.9952 4.39724 17.3806 4.46067 17.6972 4.71049C17.765 4.76432 17.9016 4.81334 17.9614 4.78155C18.23 4.63864 18.4555 4.87493 18.718 4.83999C18.8693 4.81954 18.7703 4.98121 18.7245 5.03971C18.6614 5.12033 18.6581 5.16499 18.758 5.18047C18.8198 5.18991 18.885 5.16719 18.9484 5.16999C19.1874 5.17854 19.3141 5.47417 19.5702 5.42625C19.8015 5.38353 20.0273 5.31089 20.2568 5.25714C20.4538 5.21058 21.2027 5.36276 21.2386 5.51334C21.2934 5.74264 21.5518 5.75777 21.5934 5.95594C21.6329 6.14527 21.7553 6.12586 21.8938 6.09611C21.988 6.07651 22.1265 6.02591 22.174 6.06924C22.3117 6.19309 22.3876 6.37424 22.5555 6.48527C22.6181 6.52684 22.6459 6.67842 22.6302 6.769C22.5437 7.27391 22.3904 7.75394 21.9932 8.11085C21.9788 8.12389 21.8834 8.04778 21.8223 8.01209C21.7853 8.05585 21.741 8.09521 21.7116 8.14435C21.5026 8.49029 21.2663 8.82329 21.0978 9.18926C20.9408 9.53042 20.6237 9.72104 20.4303 10.0171C20.21 10.3555 20.0002 10.7027 19.8104 11.0584C19.6843 11.2947 19.3698 11.3261 19.287 11.6224C19.2296 11.8289 19.1061 12.0468 18.846 12.1156C18.7989 12.1275 18.7755 12.2252 18.7411 12.2829C18.6377 12.4561 18.5067 12.6196 18.437 12.8062C18.3582 13.015 18.1178 13.0422 18.0355 13.2039C17.9221 13.4286 17.6499 13.5985 17.7505 13.9185C17.7598 13.9475 17.62 14.0547 17.5381 14.0733C17.4383 14.0954 17.3525 14.0325 17.3434 13.9096C17.3345 13.7835 17.2263 13.6647 17.3276 13.5286C17.3775 13.4617 17.4595 13.3774 17.3094 13.312C17.2181 13.2724 17.1219 13.1558 17.0507 13.1717C16.856 13.2146 16.711 13.2105 16.6962 12.9784C16.6848 12.8008 16.8445 12.7928 16.9706 12.7631C17.0687 12.7383 17.1668 12.7136 17.2649 12.6888C17.3806 12.6596 17.431 12.5822 17.3979 12.4716C17.3264 12.2382 17.269 12.0357 17.6035 11.9387C17.695 11.9125 17.7427 11.7502 17.8792 11.6876C18.044 11.6126 17.9822 11.2067 17.813 11.1148C17.6739 11.0393 17.6654 10.9476 17.7772 10.8285C17.8421 10.759 17.8475 10.6314 18.0846 10.6654C18.1484 10.6702 18.1107 10.6327 18.0658 10.6117C18.0444 10.6015 18.0091 10.6229 17.9797 10.6303C17.9871 10.6598 17.9853 10.702 18.0032 10.7152C18.043 10.7448 18.0924 10.7626 18.1415 10.7752C18.1493 10.7774 18.1711 10.7271 18.0833 10.6647C17.8915 10.3719 18.1741 10.4289 18.2492 10.313C18.3761 10.1171 18.4804 9.90613 18.6152 9.71665C18.6636 9.64809 18.7712 9.61988 18.8528 9.57529C18.9354 9.53045 19.0458 9.50885 19.0967 9.44176C19.2161 9.28225 19.3227 9.10927 19.4055 8.92874C19.4921 8.73888 19.7638 8.7611 19.8112 8.53943C19.8299 8.44811 19.8618 8.35971 19.8762 8.22669C19.8725 8.21197 19.8709 8.25516 19.8893 8.26616C19.9077 8.27716 19.9568 8.26479 19.972 8.24635C20.0253 8.18489 20.0916 8.10868 19.9564 8.06874C19.9384 8.06387 19.8957 8.14248 19.876 8.22571C19.4634 8.17019 19.4631 8.16921 19.2334 8.22615C18.9065 8.3076 18.5835 8.40474 18.2534 8.46927C17.8953 8.53876 17.7144 8.92144 17.3088 8.9351C16.9798 8.94614 16.6225 9.02692 16.3404 9.18679C16.1277 9.30724 15.95 9.50025 15.6964 9.56633C15.6238 9.91957 15.1138 9.73839 15.0459 10.0978C14.7168 10.0879 14.5888 10.4364 14.3085 10.5123C14.2237 10.78 13.938 10.851 13.7706 11.0477C13.5969 11.2522 13.3536 11.4336 13.1309 11.5848C12.9268 11.7229 12.8281 12.0264 12.5148 12.0126C12.3511 12.0048 12.2913 12.1608 12.2526 12.2759C12.1421 12.6074 11.8353 12.7642 11.6332 13.0134C11.5576 13.1066 11.3847 13.145 11.3468 13.2432C11.2122 13.5986 10.8108 13.7113 10.6685 14.0655C10.4843 14.522 10.1055 14.8774 9.98733 15.3809C9.8799 15.84 9.54698 16.1953 9.32656 16.6036C9.24837 16.7485 9.36628 16.9181 9.23067 17.067C9.13032 17.1779 9.05603 17.3177 9.05204 17.5086C9.04777 17.686 8.8489 17.8531 8.82036 18.0376C8.79593 18.1972 8.73149 18.3512 8.72126 18.4925C8.70912 18.6636 8.60151 18.8201 8.61822 18.9442C8.64343 19.1351 8.48378 19.2839 8.52108 19.3986C8.59519 19.622 8.3744 19.7518 8.42345 19.9627C8.45614 20.1005 8.37357 20.2654 8.34201 20.4173C8.30826 20.5771 8.11608 20.7706 8.43964 20.8497C8.27399 21.0574 8.30419 21.2887 8.41187 21.4921C8.5294 21.7139 8.29095 21.8481 8.326 22.0532C8.35061 22.1962 8.24522 22.3574 8.25095 22.5083C8.25696 22.6727 8.32798 22.8342 8.36613 22.9978C8.42557 23.2499 8.42167 23.2592 8.15021 23.3329C8.05261 23.3596 7.95526 23.3873 7.85692 23.4069C7.67567 23.4412 7.6715 23.557 7.70887 23.701C7.74056 23.8265 7.79505 23.9474 7.70063 24.0776C7.57783 24.2484 7.63922 24.3801 7.81487 24.4766C7.93255 24.5419 8.06713 24.5955 8.15371 24.6905C8.20118 24.7422 8.16662 24.8699 8.1683 24.9634C8.11625 24.9515 8.06445 24.9364 8.01216 24.9276C7.96332 24.9201 7.88574 24.898 7.8664 24.9206C7.63122 25.2001 7.64271 25.4027 7.90295 25.6897C7.91328 25.7017 7.96524 25.6761 7.99761 25.6679L7.99908 25.6655ZM8.98715 16.3501C8.99458 16.3796 8.99296 16.4228 9.01138 16.4338C9.02981 16.4448 9.07886 16.4324 9.09403 16.4139C9.14738 16.3525 9.21371 16.2763 9.07842 16.2363C9.0605 16.2315 9.01773 16.3101 8.93996 16.6469C8.97055 16.6068 9.00702 16.5694 9.02802 16.5245C9.03828 16.5031 9.02468 16.4534 9.00723 16.4421C8.9888 16.4311 8.93878 16.4437 8.92483 16.4629C8.89523 16.5027 8.87743 16.5521 8.86478 16.6012C8.86259 16.609 8.91195 16.631 8.9874 16.3511L8.98715 16.3501ZM8.66817 17.5669C8.53156 17.5961 8.48243 17.6784 8.52149 17.8126C8.46641 17.8713 8.37746 17.924 8.36608 17.9906C8.35129 18.0725 8.40205 18.1662 8.42432 18.2544C8.13366 18.4092 8.07235 18.6459 8.18048 18.942C8.06419 18.9484 8.01187 19.0346 8.02311 19.1247C8.0421 19.2785 8.09445 19.428 8.11286 19.9847C8.13172 19.9685 8.16653 19.9535 8.16674 19.9377C8.16728 19.8489 8.1553 19.7601 8.15707 19.672C8.15906 19.5724 8.12367 19.548 8.04209 19.6051C8.01808 19.6216 7.99778 19.6528 7.99122 19.6805C7.95843 19.8317 8.02207 19.9847 8.13282 19.5801C8.24911 19.5737 8.30143 19.4874 8.29019 19.3974C8.2712 19.2436 8.21885 19.0941 8.18048 18.942C8.47114 18.7873 8.53245 18.5506 8.42432 18.2544C8.4794 18.1957 8.56835 18.143 8.57974 18.0765C8.59453 17.9945 8.54377 17.9009 8.52149 17.8126C8.6581 17.7833 8.70723 17.701 8.66817 17.5669C8.72325 17.5081 8.8122 17.4554 8.82358 17.3889C8.83837 17.3069 8.78762 17.2133 8.74331 17.0377C8.75073 17.0671 8.74911 17.1103 8.76754 17.1213C8.78597 17.1323 8.83501 17.1199 8.85018 17.1015C8.90354 17.0401 8.96986 16.9638 8.83458 16.9239C8.81666 16.919 8.77389 16.9976 8.76534 17.125C8.71026 17.1838 8.62131 17.2365 8.60992 17.303C8.59514 17.385 8.64589 17.4786 8.66817 17.5669ZM7.89114 22.3518C7.9085 22.3255 7.94523 22.2933 7.94004 22.2727C7.89003 22.0745 8.0445 21.9135 8.04166 21.7368C8.0383 21.5499 7.91692 21.3624 8.08338 21.1869C8.08485 21.1844 8.00511 21.0793 7.98476 21.0855C7.89919 21.1144 7.74723 21.1903 7.75292 21.2087C7.83697 21.4921 7.71464 21.7599 7.71377 22.0335C7.71323 22.1223 7.76962 22.2134 7.80907 22.2995C7.82041 22.3237 7.86264 22.3339 7.89089 22.3508L7.89114 22.3518ZM7.77213 20.6853C7.82897 20.7617 7.86344 20.8114 7.90279 20.8558C7.9087 20.8626 7.95259 20.8505 7.96531 20.8348C8.04484 20.7364 7.99335 20.5282 7.87899 20.5216C7.84512 20.5197 7.80318 20.6347 7.77213 20.6853ZM7.90525 22.7426C7.83887 22.6822 7.7929 22.6406 7.74815 22.5997C7.7284 22.6579 7.67801 22.7269 7.6943 22.7708C7.72417 22.852 7.79425 22.9188 7.84716 22.9921C7.86783 22.9044 7.88751 22.817 7.90525 22.7426Z" fill="#BBBFBF"/>
<path d="M8.03227 24.1431C7.89528 23.8897 8.08015 23.7168 8.19802 23.5347C8.22345 23.4949 8.32327 23.477 8.38047 23.4886C8.49265 23.5115 8.50114 23.5782 8.43929 23.6804C8.32732 23.8652 8.42457 24.1223 8.24091 24.2876C8.21887 24.3078 8.20568 24.3382 8.18832 24.3645C8.14431 24.3224 8.09515 24.2848 8.05726 24.238C8.03905 24.2154 8.0397 24.1767 8.03178 24.1453L8.03227 24.1431Z" fill="#BBBFBF"/>
<path d="M7.97133 25.5598C7.90412 25.3472 7.94684 25.2478 8.12368 25.2167C8.2316 25.1978 8.30333 25.2382 8.33399 25.3431C8.377 25.4846 8.35051 25.5987 8.18443 25.6146C8.11917 25.6206 8.00783 25.7582 7.97133 25.5598Z" fill="#BBBFBF"/>
<path d="M16.9293 11.9178C16.9011 11.901 16.8507 11.8792 16.8529 11.8714C16.8658 11.8233 16.8834 11.7729 16.913 11.7331C16.9269 11.7139 16.9772 11.7023 16.9954 11.7123C17.0138 11.7233 17.0264 11.7733 17.0162 11.7947C16.9952 11.8397 16.9587 11.877 16.9281 11.9171L16.9293 11.9178Z" fill="#BBBFBF"/>
<path d="M16.9757 11.6214C17.0073 11.5811 17.049 11.5027 17.067 11.5076C17.202 11.5465 17.1357 11.6228 17.0826 11.6852C17.0664 11.7039 17.0262 11.7015 16.9967 11.7089C16.9893 11.6795 16.9821 11.6511 16.9747 11.6216L16.9757 11.6214Z" fill="#BBBFBF"/>
</g>
<defs>
<clipPath id="clip0_151_663">
<rect width="26" height="23.572" fill="white" transform="translate(22.8555) rotate(75.8369)"/>
</clipPath>
</defs>
</svg>
