<svg width="27" height="35" viewBox="0 0 27 35" fill="none" xmlns="http://www.w3.org/2000/svg">
<path d="M6.03149 17.3928C6.26557 17.3847 6.31887 17.621 6.47414 17.7195C6.3965 17.9849 6.71634 18.0811 6.72677 18.3082C6.73836 18.5782 7.01646 18.6454 7.12307 18.8378C7.24938 19.0661 7.53676 18.9653 7.69088 19.1565C7.85659 19.3627 8.05011 19.6397 8.27144 19.6837C8.58779 19.7463 8.69904 19.9827 8.89256 20.1449C9.09882 20.3176 9.27148 20.5273 9.47079 20.7092C9.54843 20.7799 9.65041 20.8437 9.75123 20.8634C9.99921 20.9132 10.2727 20.7811 10.4952 21.0314C10.6701 21.2261 11.0236 20.9665 11.2113 21.2724C11.2588 21.3501 11.4906 21.3165 11.6378 21.3327C11.749 21.3443 11.8846 21.3153 11.9669 21.3698C12.1534 21.4903 12.2948 21.6907 12.4906 21.7846C12.6436 21.8588 12.8661 21.7406 13.0098 21.9306C13.048 21.9816 13.1407 22.0338 13.1963 22.0233C13.5046 21.9665 13.6946 22.1311 13.8812 22.3374C13.9484 22.4127 14.0793 22.5019 14.1581 22.4834C14.4954 22.4034 14.6761 22.7615 14.9786 22.7487C15.0933 22.9793 15.3992 22.8947 15.5336 23.0767C15.719 23.3293 16.0574 23.05 16.2509 23.3131C16.3784 23.4857 16.689 23.4104 16.8014 23.6445C17.1745 23.4915 17.397 23.9237 17.74 23.8878C17.9068 24.2865 18.4132 23.955 18.6172 24.2911C18.6438 24.3351 18.7505 24.3421 18.8211 24.3444C19.0517 24.3502 19.287 24.3201 19.5129 24.3548C19.7204 24.3873 19.8641 24.5669 20.1086 24.6005C20.4608 24.6492 20.7795 24.9053 21.1712 24.8102C21.3867 25.1868 21.907 24.8913 22.1481 25.261C22.2245 25.378 22.4818 25.2448 22.4876 25.0976C22.4934 24.9435 22.4934 24.7894 22.4876 24.6353C22.4853 24.5634 22.4841 24.4464 22.4459 24.4278C22.0889 24.2575 22.3972 23.838 22.1283 23.6248C21.9615 23.4915 22.0299 23.1868 21.7969 23.0732C21.9244 22.765 21.4308 22.6722 21.5524 22.3652C21.4006 22.1971 21.1596 22.0477 21.1202 21.8553C21.0657 21.5911 20.856 21.4984 20.7389 21.3153C20.6439 21.1647 20.5999 20.9758 20.4852 20.8471C20.3403 20.6861 20.5199 20.6698 20.5628 20.598C20.601 20.5343 20.6683 20.4868 20.7505 20.4045C20.9313 20.5853 21.0912 20.7996 21.2998 20.9398C21.5455 21.1044 21.5061 21.4092 21.6996 21.5899C21.8943 21.7719 22.184 21.9503 22.2303 22.1716C22.2952 22.4834 22.5559 22.5795 22.6765 22.802C22.7935 23.0199 22.8294 23.2853 22.9627 23.4892C23.0832 23.6735 23.1319 23.9017 23.264 24.0547C23.439 24.2552 23.3926 24.5704 23.6475 24.7094C23.7159 25.144 23.9697 25.5113 24.1713 25.8752C24.366 26.2251 24.753 26.4696 25.0636 26.7663C24.8747 26.9088 24.7716 27.0004 24.9801 27.2055C25.1331 27.3561 25.0705 27.4407 24.6406 27.589C24.5491 27.589 24.6256 27.5763 24.6951 27.5925C24.8075 27.618 24.8457 27.5879 24.804 27.4801C24.7924 27.4488 24.7588 27.4059 24.7322 27.4036C24.5584 27.3897 24.3822 27.3816 24.2072 27.3804C24.1817 27.3804 24.1296 27.4465 24.1331 27.4523C24.169 27.5021 24.2061 27.567 24.2571 27.5844C24.3231 27.6064 24.4019 27.5902 24.6406 27.5902C24.7519 27.881 24.512 28.0537 24.3057 28.1823C23.9314 28.4176 23.4969 28.5532 23.403 29.0746C23.3926 29.1349 23.2223 29.1592 23.1365 29.2148C22.8039 29.4292 22.4377 29.5741 22.0855 29.7479C21.9545 29.8116 21.8584 29.9147 21.6892 29.9159C21.4736 29.9171 21.2442 29.8336 21.0518 30.0573C20.8826 30.2531 20.6126 30.0897 20.3983 30.1465C20.2975 30.1731 20.2175 30.2705 20.1178 30.3053C19.5095 30.5208 18.9822 30.9067 18.3762 31.1292C18.1618 31.208 18.083 31.1964 17.9613 31.0712C17.7423 30.8453 17.9891 30.4408 17.6392 30.2774C17.7353 30.1685 17.8176 30.041 17.9312 29.9541C18.1062 29.8197 17.9764 29.7525 17.9312 29.6169C17.8524 29.3805 17.8837 29.1059 17.8767 28.8463C17.8767 28.8197 17.93 28.7664 17.9544 28.7687C18.1687 28.7872 18.3078 28.6702 18.4318 28.5195C18.5558 28.3689 18.6995 28.2866 18.9069 28.26C19.0274 28.2449 19.1004 28.0653 19.28 28.0433C19.4481 28.0236 19.6265 27.808 19.7598 27.8417C20.0819 27.9228 20.2221 27.6296 20.4701 27.5624C20.7053 27.4986 20.9128 27.3179 21.1932 27.3526C21.2222 27.3561 21.2697 27.2646 21.294 27.2101C21.2998 27.1974 21.2419 27.1325 21.2175 27.1348C20.8745 27.1638 20.652 26.7431 20.2719 26.8926C20.0518 26.9795 19.9544 26.706 19.7887 26.6782C19.6242 26.6504 19.5269 26.531 19.4017 26.4916C19.1584 26.4163 18.8721 26.4696 18.6346 26.3839C18.404 26.2993 18.3333 25.9262 17.9972 25.9702C17.7817 25.6735 17.463 25.7547 17.1675 25.735C17.0227 25.7257 16.8674 25.7998 16.7341 25.6643C16.5244 25.4522 16.3471 25.2286 15.9705 25.2529C15.748 25.2668 15.5475 24.9597 15.2578 25.042C14.9566 24.8462 14.6251 24.7129 14.3007 24.5634C14.1014 24.4719 13.9461 24.3085 13.6946 24.3432C13.4629 24.3745 13.3736 24.1544 13.2554 24.0222C13.0955 23.8461 13.0329 23.9666 12.9182 24.0605C12.7838 24.1706 12.5405 24.1312 12.5451 24.0014C12.559 23.5286 12.2369 23.648 11.9981 23.6572C11.7247 23.6677 11.5508 23.6144 11.581 23.2934C11.581 23.2818 11.4778 23.2435 11.4245 23.2493C11.3365 23.2574 11.3133 23.4996 11.1835 23.3455C11.0062 23.1358 10.6806 23.2053 10.5253 22.9608C10.501 22.9225 10.3353 22.9724 10.3144 22.9365C10.122 22.6004 9.9714 22.9214 9.79758 22.948C9.60406 22.977 9.16835 22.5969 9.0235 22.3582C8.91573 22.1798 8.83693 22.3559 8.7871 22.4173C8.71294 22.5077 8.62834 22.5204 8.62603 22.4104C8.61791 22.0337 8.39312 22.0187 8.1011 22.0245C7.73376 22.0314 7.49388 21.8518 7.42551 21.5772C7.27023 20.9468 7.16016 20.8356 6.5205 20.6374C6.41968 20.6061 6.30959 20.5598 6.23774 20.4879C6.08131 20.3292 5.83913 20.1565 5.82522 19.9746C5.79857 19.6095 5.46715 19.7799 5.342 19.6107C5.20526 19.4276 5.00363 19.292 4.86225 19.1124C4.70581 18.9143 4.5714 18.6953 4.46015 18.4704C4.43698 18.4229 4.55517 18.3071 4.62817 18.1912C4.51577 18.0788 4.40105 17.9316 4.2562 17.825C3.81818 17.5005 3.61887 17.0903 3.71505 16.541C3.76025 16.2826 3.60844 16.2189 3.37552 16.2235C3.33728 16.2235 3.27239 16.0451 3.25964 15.9431C3.2411 15.7959 3.27007 15.6488 3.13217 15.5294C2.92127 15.3486 3.26543 15.2907 3.23067 15.2107C3.1623 15.0508 2.99776 14.9512 3.00471 14.7287C3.00819 14.6163 2.73586 14.5433 2.79612 14.3637C2.89809 14.0554 2.55392 13.9141 2.55856 13.6487C2.5632 13.3787 2.56204 13.1087 2.55856 12.8387C2.55508 12.6162 2.60029 12.3949 2.38011 12.2106C2.299 12.1422 2.33144 11.9267 2.32912 11.7784C2.32448 11.2778 2.32796 10.776 2.3268 10.2743C2.3268 10.0483 2.30594 9.83392 2.51684 9.65083C2.5968 9.5813 2.61766 9.29856 2.54697 9.22555C2.23873 8.90225 2.36968 8.51637 2.32101 8.15482C2.26655 7.7504 2.45774 7.33903 2.1947 6.93345C1.95598 6.56611 2.14835 6.11418 2.08926 5.70628C2.07998 5.64487 1.99655 5.58924 1.93861 5.53942C1.79376 5.41426 1.87487 5.25087 1.86676 5.10718C1.85517 4.88006 2.16226 4.78388 2.10664 4.50693C2.07303 4.34006 2.01856 4.12452 2.18543 3.9762C2.55045 4.10598 2.5041 4.53937 2.76599 4.74332C2.69994 4.8256 2.58174 4.90323 2.5771 4.98899C2.55277 5.37139 2.56204 5.75727 2.55856 6.14083C2.76946 6.26946 2.74976 6.52903 2.87723 6.70169C2.98847 6.85349 3.12753 6.98444 3.25384 7.12465C3.14144 7.5198 3.59569 7.79791 3.48097 8.18379C3.40681 8.43293 3.65826 8.55229 3.6629 8.76087C3.3871 8.93701 3.60033 9.04478 3.71505 9.17225C3.73475 9.19311 3.71736 9.24641 3.71736 9.28581C3.65131 9.31246 3.53079 9.33564 3.52963 9.36693C3.5053 9.74469 3.4601 10.1271 3.49834 10.5014C3.52847 10.7992 3.67913 10.5976 3.76951 10.506C3.83209 10.4423 3.8993 10.4423 3.92827 10.5454C3.9584 10.6509 3.93406 10.7714 3.95144 10.8826C4.00242 11.2083 3.84715 11.5455 4.08238 11.8665C4.29444 12.1573 4.14727 12.5258 4.18204 12.8584C4.49375 13.067 4.39874 13.3891 4.41728 13.6823C4.42191 13.7495 4.44625 13.848 4.49376 13.8758C4.71393 14.0044 4.59805 14.2988 4.80895 14.4459C5.00711 14.585 4.75681 14.8932 4.97467 15.0624C5.05926 15.1285 5.14848 15.2189 4.99784 15.3C4.93874 15.3324 4.84719 15.3023 4.77302 15.3139C4.74173 15.3185 4.68844 15.3672 4.69307 15.3834C4.70698 15.439 4.73479 15.5294 4.77072 15.5352C4.88196 15.5549 5.00015 15.5503 5.11488 15.5398C5.25973 15.5271 5.3478 15.6105 5.33505 15.7276C5.3026 16.0219 5.39762 16.2479 5.63402 16.4113C5.86114 16.5689 5.77771 16.9084 6.02917 17.0637C6.08016 17.095 6.03612 17.2815 6.03612 17.4507C6.07204 17.3962 6.03612 17.358 5.92835 17.3986C5.89707 17.4101 5.8623 17.4391 5.85187 17.4681C5.82869 17.5307 5.80088 17.6013 5.809 17.6639C5.81711 17.7253 5.8681 17.7821 5.89938 17.8401C5.94458 17.7995 6.01179 17.7682 6.02917 17.7184C6.05235 17.6547 6.03496 17.577 6.03496 17.3962L6.03149 17.3928ZM19.893 28.6563C19.9463 28.5763 20.1016 28.4952 20.3044 28.4952C20.3311 28.4952 20.3589 28.4454 20.3855 28.4176C20.338 28.3735 20.2951 28.3005 20.2407 28.2901C19.8444 28.2136 19.5697 28.5068 19.2476 28.6493C19.2047 28.6679 19.2418 28.866 19.2418 28.9807C19.3067 28.9541 19.375 28.9309 19.4376 28.8996C19.5628 28.8359 19.6856 28.7675 19.0309 28.9807C18.9127 28.9807 18.7875 28.9483 18.6971 28.9912C18.6253 29.0248 18.5697 29.1441 18.5523 29.2334C18.5245 29.3828 18.6172 29.4651 18.7087 29.3898C18.82 29.2983 18.9081 29.1916 19.0772 29.2044C19.1294 29.209 19.2279 29.1372 19.236 29.0885C19.2719 28.8672 19.0877 29.0341 19.8942 28.6551L19.893 28.6563ZM21.0889 28.1777C21.0344 28.1476 20.9545 28.0711 20.8664 28.0607C20.6926 28.0398 20.601 28.158 20.6347 28.3399C20.6567 28.4558 20.7169 28.5335 20.8618 28.5219C21.0368 28.508 21.1214 28.4153 21.0889 28.1789V28.1777ZM4.64209 14.7878C4.60385 14.7287 4.56445 14.6707 4.52621 14.6116C4.48797 14.6707 4.41264 14.7333 4.41844 14.7866C4.42887 14.8851 4.48797 14.979 4.52621 15.0752C4.55286 15.0485 4.59225 15.0265 4.60268 14.9952C4.6247 14.9292 4.6305 14.8573 4.64209 14.7878ZM21.3624 28.2032C21.3937 28.2345 21.4192 28.26 21.4447 28.2855C21.4702 28.2345 21.5049 28.1847 21.5177 28.1302C21.5223 28.1116 21.4713 28.0792 21.4447 28.0537C21.4169 28.1035 21.389 28.1545 21.3624 28.2032ZM24.0276 28.0201C24.0589 27.9888 24.0844 27.9633 24.1099 27.9378C24.0589 27.9123 24.0091 27.8776 23.9546 27.8648C23.9361 27.8602 23.9036 27.9112 23.8781 27.9378C23.928 27.9656 23.9789 27.9935 24.0276 28.0201ZM21.8259 27.9714C21.8572 28.0027 21.8827 28.0282 21.9082 28.0537C21.9337 28.0027 21.9684 27.9529 21.9812 27.8984C21.9858 27.8799 21.9348 27.8474 21.9082 27.8219C21.8804 27.8718 21.8526 27.9228 21.8259 27.9714ZM3.9132 12.6753C3.88655 12.6266 3.85874 12.5768 3.83093 12.5258C3.80544 12.5513 3.75445 12.5826 3.75793 12.6023C3.76952 12.6568 3.80428 12.7066 3.83093 12.7576C3.85643 12.7321 3.88192 12.7066 3.9132 12.6753ZM3.51689 11.053C3.54818 11.0843 3.57368 11.1098 3.59917 11.1353C3.62467 11.0843 3.65942 11.0344 3.67216 10.98C3.6768 10.9614 3.62583 10.929 3.59917 10.9035C3.57136 10.9533 3.54354 11.0043 3.51689 11.053Z" fill="#BBBFBF"/>
<path d="M3.92713 9.41559C3.90048 9.44224 3.86223 9.49207 3.85412 9.48743C3.80429 9.45962 3.7533 9.42602 3.71738 9.38198C3.7 9.36112 3.70116 9.30202 3.71738 9.28464C3.73476 9.26726 3.79387 9.26726 3.81473 9.28464C3.85876 9.32057 3.89005 9.37155 3.92597 9.41675L3.92713 9.41559Z" fill="#BBBFBF"/>
</svg>
