<svg width="136" height="5" viewBox="0 0 136 5" fill="none" xmlns="http://www.w3.org/2000/svg">
<path d="M135.863 1.1776C135.697 1.28578 135.598 1.4176 135.425 1.45306C133.131 1.9176 130.879 2.47033 128.512 2.80124C123.478 3.50487 118.505 3.19942 113.999 1.89487C111 1.02669 108.047 0.800328 104.86 1.23396C102.082 1.61215 99.3603 2.10396 96.612 2.54124C93.023 3.11306 89.4818 3.7976 85.8274 4.22306C80.5075 4.84124 75.3024 4.52396 70.4223 3.17942C68.1651 2.5576 65.7966 2.05124 63.2002 2.16669C60.8123 2.27306 58.4172 2.47215 56.0858 2.75942C53.8056 3.03942 51.5801 3.45215 49.3671 3.85851C43.4837 4.9376 37.6375 4.99306 31.786 3.79669C30.5867 3.55124 29.3291 3.37942 28.1122 3.15396C25.5317 2.67669 22.923 2.63851 20.3143 3.04942C18.1241 3.39397 15.9764 3.81215 13.7863 4.15942C12.0483 4.43487 10.2997 4.7176 8.51407 4.88124C5.39667 5.1676 1.98607 4.27487 0.452981 2.85396C0.0891364 2.5176 -0.345357 2.1676 0.438851 1.6676C0.769136 1.82396 1.16831 1.93578 1.34846 2.10942C2.96633 3.6576 5.63688 4.36124 8.95563 3.99669C10.6141 3.81487 12.2179 3.49487 13.8428 3.23396C16.3085 2.8376 18.7512 2.39851 21.2433 2.05215C23.5059 1.7376 25.7931 1.84306 28.0274 2.19851C30.1045 2.52851 32.1904 2.84942 34.2534 3.20306C38.3528 3.90578 42.4593 3.90669 46.5693 3.26215C49.0986 2.86487 51.5784 2.37396 54.1341 2.03033C56.7411 1.68033 59.394 1.38487 62.061 1.20215C65.1801 0.98851 68.1351 1.40306 70.8868 2.1776C74.4988 3.19306 78.388 3.67033 82.4469 3.43396C85.287 3.26942 88.1041 2.89124 90.8612 2.48396C93.5123 2.09306 96.0663 1.53396 98.675 1.06487C101.911 0.484874 105.187 0.0203285 108.651 0.000328485C110.466 -0.00967152 112.144 0.20851 113.707 0.673965C119.174 2.30124 124.889 2.56851 130.852 1.5176C131.854 1.34124 132.852 1.1576 133.869 1.0076C134.522 0.911238 135.227 0.812147 135.863 1.17669V1.1776Z" fill="#BBBFBF"/>
</svg>
