<svg width="144" height="101" viewBox="0 0 144 101" fill="none" xmlns="http://www.w3.org/2000/svg">
<path d="M0.330078 12.28C0.330078 6.05577 5.37583 1.01001 11.6001 1.01001H131.6C137.824 1.01001 142.87 6.05576 142.87 12.28V89.16C142.87 95.3842 137.824 100.43 131.6 100.43H11.6001C5.37583 100.43 0.330078 95.3843 0.330078 89.16V12.28Z" fill="white"/>
<path d="M0.330078 12.28C0.330078 6.05577 5.37583 1.01001 11.6001 1.01001H131.6C137.824 1.01001 142.87 6.05576 142.87 12.28V89.16C142.87 95.3842 137.824 100.43 131.6 100.43H11.6001C5.37583 100.43 0.330078 95.3843 0.330078 89.16V12.28Z" stroke="#848C8B" stroke-width="0.5"/>
<rect x="11.6001" y="16.1201" width="120" height="48" rx="5.76" fill="#0F9948"/>
<path d="M14.5838 78.1498H13.5585V77.1937L15.7243 75.2007H12.2222V73.8989H17.5675V75.074L15.5169 76.9633C16.8071 77.2167 17.8094 78.1613 17.8094 79.6474C17.8094 81.3754 16.4615 82.4698 14.7566 82.4698C13.1092 82.4698 11.8305 81.4561 11.8305 79.6359H13.282C13.282 80.6036 13.8811 81.1565 14.7796 81.1565C15.7012 81.1565 16.3118 80.5575 16.3118 79.6244C16.3118 78.7719 15.7588 78.1498 14.5838 78.1498ZM18.6542 78.1268C18.6542 75.5117 20.0596 73.7377 22.2139 73.7377C24.3681 73.7377 25.7851 75.5117 25.7851 78.1268C25.7851 80.7303 24.4488 82.4698 22.2139 82.4698C19.979 82.4698 18.6542 80.7303 18.6542 78.1268ZM20.1057 78.1268C20.1057 80.0737 20.8891 81.1681 22.2139 81.1681C23.5502 81.1681 24.3336 80.0737 24.3336 78.1268C24.3336 76.1338 23.5502 75.0394 22.2139 75.0394C20.8891 75.0394 20.1057 76.1338 20.1057 78.1268ZM26.7767 78.1268C26.7767 75.5117 28.1821 73.7377 30.3364 73.7377C32.4906 73.7377 33.9076 75.5117 33.9076 78.1268C33.9076 80.7303 32.5713 82.4698 30.3364 82.4698C28.1015 82.4698 26.7767 80.7303 26.7767 78.1268ZM28.2282 78.1268C28.2282 80.0737 29.0116 81.1681 30.3364 81.1681C31.6727 81.1681 32.4561 80.0737 32.4561 78.1268C32.4561 76.1338 31.6727 75.0394 30.3364 75.0394C29.0116 75.0394 28.2282 76.1338 28.2282 78.1268Z" fill="#0A0D0D"/>
<path d="M80.9699 78.8295H82.0643L82.3523 77.401H81.0851L81.35 76.0877H82.6057L83.032 73.8989H84.4259L83.9996 76.0877H85.4627L85.8889 73.8989H87.2828L86.8566 76.0877H88.0432L87.7782 77.401H86.6032L86.3267 78.8295H87.64L87.375 80.1428H86.0732L85.647 82.3201H84.2531L84.6793 80.1428H83.2048L82.7785 82.3201H81.3846L81.8108 80.1428H80.7049L80.9699 78.8295ZM83.4582 78.8295H84.9328L85.2092 77.401H83.7462L83.4582 78.8295ZM89.4457 82.3201V73.8989H92.798C94.4569 73.8989 95.4707 74.7629 95.4707 76.1684C95.4707 77.1015 95.056 77.7697 94.2611 78.1037C95.1481 78.3917 95.5974 79.0599 95.5974 80.0391C95.5974 81.4791 94.5952 82.3201 92.8556 82.3201H89.4457ZM92.6713 75.2007H90.9203V77.4932H92.7059C93.5123 77.4932 93.9616 77.0669 93.9616 76.3181C93.9616 75.5924 93.5008 75.2007 92.6713 75.2007ZM92.798 78.7373H90.9203V81.0183H92.798C93.6275 81.0183 94.0883 80.6151 94.0883 79.8548C94.0883 79.1405 93.616 78.7373 92.798 78.7373ZM96.9495 82.3201V73.8989H100.302C101.961 73.8989 102.974 74.7629 102.974 76.1684C102.974 77.1015 102.56 77.7697 101.765 78.1037C102.652 78.3917 103.101 79.0599 103.101 80.0391C103.101 81.4791 102.099 82.3201 100.359 82.3201H96.9495ZM100.175 75.2007H98.424V77.4932H100.21C101.016 77.4932 101.465 77.0669 101.465 76.3181C101.465 75.5924 101.005 75.2007 100.175 75.2007ZM100.302 78.7373H98.424V81.0183H100.302C101.131 81.0183 101.592 80.6151 101.592 79.8548C101.592 79.1405 101.12 78.7373 100.302 78.7373ZM104.453 82.3201V73.8989H107.806C109.464 73.8989 110.478 74.7629 110.478 76.1684C110.478 77.1015 110.063 77.7697 109.269 78.1037C110.156 78.3917 110.605 79.0599 110.605 80.0391C110.605 81.4791 109.603 82.3201 107.863 82.3201H104.453ZM107.679 75.2007H105.928V77.4932H107.713C108.52 77.4932 108.969 77.0669 108.969 76.3181C108.969 75.5924 108.508 75.2007 107.679 75.2007ZM107.806 78.7373H105.928V81.0183H107.806C108.635 81.0183 109.096 80.6151 109.096 79.8548C109.096 79.1405 108.623 78.7373 107.806 78.7373ZM116.565 78.8756H113.432V82.3201H111.957V73.8989H117.164V75.2583H113.432V77.5508H116.565V78.8756ZM118.493 82.3201V73.8989H121.846C123.504 73.8989 124.518 74.7629 124.518 76.1684C124.518 77.1015 124.103 77.7697 123.309 78.1037C124.196 78.3917 124.645 79.0599 124.645 80.0391C124.645 81.4791 123.643 82.3201 121.903 82.3201H118.493ZM121.719 75.2007H119.968V77.4932H121.753C122.56 77.4932 123.009 77.0669 123.009 76.3181C123.009 75.5924 122.548 75.2007 121.719 75.2007ZM121.846 78.7373H119.968V81.0183H121.846C122.675 81.0183 123.136 80.6151 123.136 79.8548C123.136 79.1405 122.663 78.7373 121.846 78.7373ZM130.605 78.8756H127.472V82.3201H125.997V73.8989H131.204V75.2583H127.472V77.5508H130.605V78.8756Z" fill="#A1A6A6"/>
</svg>
