<svg width="144" height="101" viewBox="0 0 144 101" fill="none" xmlns="http://www.w3.org/2000/svg">
<path d="M0.25 12.28C0.25 6.05577 5.29575 1.01001 11.52 1.01001H131.52C137.744 1.01001 142.79 6.05576 142.79 12.28V89.16C142.79 95.3842 137.744 100.43 131.52 100.43H11.52C5.29575 100.43 0.25 95.3843 0.25 89.16V12.28Z" fill="white"/>
<path d="M0.25 12.28C0.25 6.05577 5.29575 1.01001 11.52 1.01001H131.52C137.744 1.01001 142.79 6.05576 142.79 12.28V89.16C142.79 95.3842 137.744 100.43 131.52 100.43H11.52C5.29575 100.43 0.25 95.3843 0.25 89.16V12.28Z" stroke="#848C8B" stroke-width="0.5"/>
<rect x="11.52" y="16.1201" width="120" height="48" rx="5.76" fill="#E3FCEE"/>
<path d="M13.7549 75.2237H11.9117V73.8989H15.1719V82.3201H13.7549V75.2237ZM16.6054 78.1268C16.6054 75.5117 18.0108 73.7377 20.1651 73.7377C22.3193 73.7377 23.7363 75.5117 23.7363 78.1268C23.7363 80.7303 22.3999 82.4698 20.1651 82.4698C17.9302 82.4698 16.6054 80.7303 16.6054 78.1268ZM18.0569 78.1268C18.0569 80.0737 18.8403 81.1681 20.1651 81.1681C21.5014 81.1681 22.2847 80.0737 22.2847 78.1268C22.2847 76.1338 21.5014 75.0394 20.1651 75.0394C18.8403 75.0394 18.0569 76.1338 18.0569 78.1268ZM24.7279 78.1268C24.7279 75.5117 26.1333 73.7377 28.2876 73.7377C30.4418 73.7377 31.8588 75.5117 31.8588 78.1268C31.8588 80.7303 30.5224 82.4698 28.2876 82.4698C26.0527 82.4698 24.7279 80.7303 24.7279 78.1268ZM26.1794 78.1268C26.1794 80.0737 26.9628 81.1681 28.2876 81.1681C29.6239 81.1681 30.4072 80.0737 30.4072 78.1268C30.4072 76.1338 29.6239 75.0394 28.2876 75.0394C26.9628 75.0394 26.1794 76.1338 26.1794 78.1268Z" fill="#0A0D0D"/>
<path d="M81.2573 78.8295H82.3517L82.6397 77.401H81.3725L81.6375 76.0877H82.8931L83.3194 73.8989H84.7133L84.2871 76.0877H85.7501L86.1763 73.8989H87.5703L87.144 76.0877H88.3306L88.0656 77.401H86.8906L86.6141 78.8295H87.9274L87.6624 80.1428H86.3607L85.9344 82.3201H84.5405L84.9667 80.1428H83.4922L83.0659 82.3201H81.672L82.0983 80.1428H80.9923L81.2573 78.8295ZM83.7456 78.8295H85.2202L85.4967 77.401H84.0336L83.7456 78.8295ZM94.9632 82.3201H89.7331V73.8989H94.9632V75.2583H91.2077V77.4241H94.5715V78.7258H91.2077V80.9607H94.9632V82.3201ZM99.5917 82.3201H96.5619V73.8989H99.511C101.999 73.8989 103.716 75.6154 103.716 78.1268C103.716 80.6036 102.034 82.3201 99.5917 82.3201ZM99.3728 75.2583H98.0365V80.9607H99.4534C101.135 80.9607 102.161 79.8778 102.161 78.1268C102.161 76.3412 101.112 75.2583 99.3728 75.2583ZM109.697 78.8756H106.564V82.3201H105.089V73.8989H110.296V75.2583H106.564V77.5508H109.697V78.8756ZM117.063 82.3085L111.222 82.3201V81.2141L113.976 78.8871C115.116 77.9194 115.496 77.3665 115.496 76.5601C115.496 75.6039 114.978 75.0625 114.091 75.0625C113.169 75.0625 112.593 75.7076 112.582 76.7905H111.119C111.13 74.9473 112.305 73.7492 114.091 73.7492C115.888 73.7492 117.005 74.7745 117.005 76.4794C117.005 77.6545 116.36 78.5415 115.082 79.6359L113.561 80.9377H117.063V82.3085ZM123.017 78.8756H119.884V82.3201H118.409V73.8989H123.616V75.2583H119.884V77.5508H123.017V78.8756ZM130.383 82.3085L124.542 82.3201V81.2141L127.296 78.8871C128.436 77.9194 128.816 77.3665 128.816 76.5601C128.816 75.6039 128.298 75.0625 127.411 75.0625C126.489 75.0625 125.913 75.7076 125.902 76.7905H124.439C124.45 74.9473 125.625 73.7492 127.411 73.7492C129.208 73.7492 130.325 74.7745 130.325 76.4794C130.325 77.6545 129.68 78.5415 128.402 79.6359L126.881 80.9377H130.383V82.3085Z" fill="#A1A6A6"/>
</svg>
