<svg width="144" height="101" viewBox="0 0 144 101" fill="none" xmlns="http://www.w3.org/2000/svg">
<path d="M0.290039 12.28C0.290039 6.05577 5.33579 1.01001 11.56 1.01001H131.56C137.784 1.01001 142.83 6.05576 142.83 12.28V89.16C142.83 95.3842 137.784 100.43 131.56 100.43H11.56C5.33579 100.43 0.290039 95.3843 0.290039 89.16V12.28Z" fill="white"/>
<path d="M0.290039 12.28C0.290039 6.05577 5.33579 1.01001 11.56 1.01001H131.56C137.784 1.01001 142.83 6.05576 142.83 12.28V89.16C142.83 95.3842 137.784 100.43 131.56 100.43H11.56C5.33579 100.43 0.290039 95.3843 0.290039 89.16V12.28Z" stroke="#848C8B" stroke-width="0.5"/>
<rect x="11.5601" y="16.1201" width="120" height="48" rx="5.76" fill="#2EE57A"/>
<path d="M17.9306 82.3085L12.09 82.3201V81.2141L14.8433 78.8871C15.9837 77.9194 16.3639 77.3665 16.3639 76.5601C16.3639 75.6039 15.8455 75.0625 14.9585 75.0625C14.0369 75.0625 13.4609 75.7076 13.4493 76.7905H11.9863C11.9978 74.9473 13.1729 73.7492 14.9585 73.7492C16.7556 73.7492 17.873 74.7745 17.873 76.4794C17.873 77.6545 17.2279 78.5415 15.9492 79.6359L14.4285 80.9377H17.9306V82.3085ZM18.8392 78.1268C18.8392 75.5117 20.2446 73.7377 22.3988 73.7377C24.5531 73.7377 25.97 75.5117 25.97 78.1268C25.97 80.7303 24.6337 82.4698 22.3988 82.4698C20.164 82.4698 18.8392 80.7303 18.8392 78.1268ZM20.2907 78.1268C20.2907 80.0737 21.074 81.1681 22.3988 81.1681C23.7352 81.1681 24.5185 80.0737 24.5185 78.1268C24.5185 76.1338 23.7352 75.0394 22.3988 75.0394C21.074 75.0394 20.2907 76.1338 20.2907 78.1268ZM26.9617 78.1268C26.9617 75.5117 28.3671 73.7377 30.5213 73.7377C32.6756 73.7377 34.0925 75.5117 34.0925 78.1268C34.0925 80.7303 32.7562 82.4698 30.5213 82.4698C28.2865 82.4698 26.9617 80.7303 26.9617 78.1268ZM28.4132 78.1268C28.4132 80.0737 29.1965 81.1681 30.5213 81.1681C31.8577 81.1681 32.641 80.0737 32.641 78.1268C32.641 76.1338 31.8577 75.0394 30.5213 75.0394C29.1965 75.0394 28.4132 76.1338 28.4132 78.1268Z" fill="#0A0D0D"/>
<path d="M76.6998 78.8295H77.7942L78.0822 77.401H76.815L77.08 76.0877H78.3357L78.7619 73.8989H80.1558L79.7296 76.0877H81.1926L81.6189 73.8989H83.0128L82.5866 76.0877H83.7731L83.5082 77.401H82.3331L82.0566 78.8295H83.3699L83.105 80.1428H81.8032L81.377 82.3201H79.983L80.4093 80.1428H78.9347L78.5085 82.3201H77.1146L77.5408 80.1428H76.4349L76.6998 78.8295ZM79.1882 78.8295H80.6627L80.9392 77.401H79.4762L79.1882 78.8295ZM88.2054 82.3201H85.1757V73.8989H88.1248C90.6131 73.8989 92.3296 75.6154 92.3296 78.1268C92.3296 80.6036 90.6477 82.3201 88.2054 82.3201ZM87.9866 75.2583H86.6502V80.9607H88.0672C89.7491 80.9607 90.7744 79.8778 90.7744 78.1268C90.7744 76.3412 89.7261 75.2583 87.9866 75.2583ZM99.7857 80.7188H98.7605V82.3201H97.3665V80.7188H93.0926V79.4285L96.9057 73.8989H98.7605V79.4285H99.7857V80.7188ZM94.6593 79.4285H97.3665V75.4887L94.6593 79.4285ZM104.18 82.3201H101.151V73.8989H104.1C106.588 73.8989 108.305 75.6154 108.305 78.1268C108.305 80.6036 106.623 82.3201 104.18 82.3201ZM103.962 75.2583H102.625V80.9607H104.042C105.724 80.9607 106.749 79.8778 106.749 78.1268C106.749 76.3412 105.701 75.2583 103.962 75.2583ZM114.194 79.8433L112.374 82.3201H110.692L112.708 79.6359C112.501 79.6935 112.282 79.7281 112.074 79.7281C110.335 79.7281 109.16 78.5069 109.16 76.802C109.16 75.0049 110.496 73.7492 112.293 73.7492C114.113 73.7492 115.473 75.0855 115.473 76.8135C115.473 77.8273 115.139 78.5645 114.194 79.8433ZM113.964 76.802C113.964 75.7767 113.284 75.0625 112.293 75.0625C111.326 75.0625 110.646 75.7767 110.646 76.802C110.646 77.8157 111.326 78.5185 112.293 78.5185C113.295 78.5185 113.964 77.8157 113.964 76.802ZM119.852 82.3201H116.822V73.8989H119.771C122.259 73.8989 123.976 75.6154 123.976 78.1268C123.976 80.6036 122.294 82.3201 119.852 82.3201ZM119.633 75.2583H118.296V80.9607H119.713C121.395 80.9607 122.421 79.8778 122.421 78.1268C122.421 76.3412 121.372 75.2583 119.633 75.2583ZM129.865 79.8433L128.045 82.3201H126.363L128.379 79.6359C128.172 79.6935 127.953 79.7281 127.746 79.7281C126.006 79.7281 124.831 78.5069 124.831 76.802C124.831 75.0049 126.167 73.7492 127.964 73.7492C129.785 73.7492 131.144 75.0855 131.144 76.8135C131.144 77.8273 130.81 78.5645 129.865 79.8433ZM129.635 76.802C129.635 75.7767 128.955 75.0625 127.964 75.0625C126.997 75.0625 126.317 75.7767 126.317 76.802C126.317 77.8157 126.997 78.5185 127.964 78.5185C128.967 78.5185 129.635 77.8157 129.635 76.802Z" fill="#A1A6A6"/>
</svg>
