<svg width="144" height="100" viewBox="0 0 144 100" fill="none" xmlns="http://www.w3.org/2000/svg">
<path d="M0.450073 11.52C0.450073 5.29576 5.49582 0.25 11.7201 0.25H131.72C137.944 0.25 142.99 5.29575 142.99 11.52V88.4C142.99 94.6242 137.944 99.67 131.72 99.67H11.7201C5.49582 99.67 0.450073 94.6243 0.450073 88.4V11.52Z" fill="white"/>
<path d="M0.450073 11.52C0.450073 5.29576 5.49582 0.25 11.7201 0.25H131.72C137.944 0.25 142.99 5.29575 142.99 11.52V88.4C142.99 94.6242 137.944 99.67 131.72 99.67H11.7201C5.49582 99.67 0.450073 94.6243 0.450073 88.4V11.52Z" stroke="#848C8B" stroke-width="0.5"/>
<rect x="11.72" y="15.3601" width="120" height="48" rx="5.76" fill="#6A7372"/>
<path d="M13.4134 75.6157L15.2336 73.1389H16.9155L14.8995 75.8231C15.1069 75.7655 15.3257 75.7309 15.5331 75.7309C17.2726 75.7309 18.4477 76.9521 18.4477 78.657C18.4477 80.4541 17.1113 81.7098 15.3142 81.7098C13.4941 81.7098 12.1347 80.3735 12.1347 78.6455C12.1347 77.6317 12.4688 76.8945 13.4134 75.6157ZM13.6438 78.657C13.6438 79.6823 14.3235 80.3965 15.3142 80.3965C16.2704 80.3965 16.9616 79.6823 16.9616 78.657C16.9616 77.6433 16.2819 76.9405 15.3142 76.9405C14.312 76.9405 13.6438 77.6433 13.6438 78.657ZM19.3591 77.3668C19.3591 74.7517 20.7645 72.9777 22.9188 72.9777C25.073 72.9777 26.49 74.7517 26.49 77.3668C26.49 79.9703 25.1536 81.7098 22.9188 81.7098C20.6839 81.7098 19.3591 79.9703 19.3591 77.3668ZM20.8106 77.3668C20.8106 79.3137 21.594 80.4081 22.9188 80.4081C24.2551 80.4081 25.0384 79.3137 25.0384 77.3668C25.0384 75.3738 24.2551 74.2794 22.9188 74.2794C21.594 74.2794 20.8106 75.3738 20.8106 77.3668ZM27.4816 77.3668C27.4816 74.7517 28.887 72.9777 31.0413 72.9777C33.1955 72.9777 34.6125 74.7517 34.6125 77.3668C34.6125 79.9703 33.2761 81.7098 31.0413 81.7098C28.8064 81.7098 27.4816 79.9703 27.4816 77.3668ZM28.9331 77.3668C28.9331 79.3137 29.7165 80.4081 31.0413 80.4081C32.3776 80.4081 33.1609 79.3137 33.1609 77.3668C33.1609 75.3738 32.3776 74.2794 31.0413 74.2794C29.7165 74.2794 28.9331 75.3738 28.9331 77.3668Z" fill="#0A0D0D"/>
<path d="M83.261 78.0695H84.3554L84.6434 76.641H83.3762L83.6412 75.3277H84.8968L85.3231 73.1389H86.717L86.2908 75.3277H87.7538L88.18 73.1389H89.574L89.1477 75.3277H90.3343L90.0693 76.641H88.8943L88.6178 78.0695H89.9311L89.6661 79.3828H88.3644L87.9381 81.5601H86.5442L86.9704 79.3828H85.4959L85.0696 81.5601H83.6757L84.102 79.3828H82.996L83.261 78.0695ZM85.7493 78.0695H87.2239L87.5004 76.641H86.0373L85.7493 78.0695ZM92.4972 75.6157L94.3173 73.1389H95.9992L93.9832 75.8231C94.1906 75.7655 94.4095 75.7309 94.6168 75.7309C96.3564 75.7309 97.5314 76.9521 97.5314 78.657C97.5314 80.4541 96.1951 81.7098 94.398 81.7098C92.5778 81.7098 91.2184 80.3735 91.2184 78.6455C91.2184 77.6317 91.5525 76.8945 92.4972 75.6157ZM92.7276 78.657C92.7276 79.6823 93.4072 80.3965 94.398 80.3965C95.3541 80.3965 96.0453 79.6823 96.0453 78.657C96.0453 77.6433 95.3656 76.9405 94.398 76.9405C93.3957 76.9405 92.7276 77.6433 92.7276 78.657ZM99.6064 81.5601H98.0742L101.115 73.1389H102.625L105.666 81.5601H104.111L103.431 79.6132H100.286L99.6064 81.5601ZM101.68 75.6503L100.724 78.369H103.005L102.037 75.6503C101.968 75.4314 101.887 75.178 101.864 75.0052C101.83 75.1665 101.761 75.4199 101.68 75.6503ZM105.869 73.1389H111.917V74.4983L108.865 81.5601H107.332L110.443 74.4983H105.869V73.1389ZM115.05 77.3898H114.025V76.4337L116.19 74.4407H112.688V73.1389H118.034V74.314L115.983 76.2033C117.273 76.4567 118.276 77.4013 118.276 78.8874C118.276 80.6154 116.928 81.7098 115.223 81.7098C113.575 81.7098 112.297 80.6961 112.297 78.8759H113.748C113.748 79.8436 114.347 80.3965 115.246 80.3965C116.167 80.3965 116.778 79.7975 116.778 78.8644C116.778 78.0119 116.225 77.3898 115.05 77.3898ZM118.852 73.1389H124.9V74.4983L121.847 81.5601H120.315L123.425 74.4983H118.852V73.1389ZM131.307 81.5485L125.466 81.5601V80.4541L128.219 78.1271C129.36 77.1594 129.74 76.6065 129.74 75.8001C129.74 74.8439 129.222 74.3025 128.335 74.3025C127.413 74.3025 126.837 74.9476 126.826 76.0305H125.362C125.374 74.1873 126.549 72.9892 128.335 72.9892C130.132 72.9892 131.249 74.0145 131.249 75.7194C131.249 76.8945 130.604 77.7815 129.325 78.8759L127.805 80.1777H131.307V81.5485Z" fill="#A1A6A6"/>
</svg>
