<svg width="144" height="101" viewBox="0 0 144 101" fill="none" xmlns="http://www.w3.org/2000/svg">
<path d="M0.290039 12.4399C0.290039 6.21569 5.33579 1.16992 11.56 1.16992H131.56C137.784 1.16992 142.83 6.21567 142.83 12.4399V89.3199C142.83 95.5442 137.784 100.59 131.56 100.59H11.56C5.33579 100.59 0.290039 95.5442 0.290039 89.3199V12.4399Z" fill="white"/>
<path d="M0.290039 12.4399C0.290039 6.21569 5.33579 1.16992 11.56 1.16992H131.56C137.784 1.16992 142.83 6.21567 142.83 12.4399V89.3199C142.83 95.5442 137.784 100.59 131.56 100.59H11.56C5.33579 100.59 0.290039 95.5442 0.290039 89.3199V12.4399Z" stroke="#848C8B" stroke-width="0.5"/>
<rect x="11.5601" y="16.28" width="120" height="48" rx="5.76" fill="#37403F"/>
<path d="M12.0439 80.0953C12.0439 79.0931 12.6084 78.2867 13.4839 77.9526C12.7466 77.6185 12.3434 76.9849 12.3434 76.167C12.3434 74.8307 13.53 73.9091 15.2695 73.9091C16.9975 73.9091 18.161 74.8192 18.161 76.1901C18.161 77.008 17.7463 77.6416 16.9975 77.9526C17.8845 78.2637 18.4605 79.0816 18.4605 80.0953C18.4605 81.616 17.2049 82.6182 15.2465 82.6182C13.2996 82.6182 12.0439 81.6275 12.0439 80.0953ZM13.6797 76.2937C13.6797 76.9965 14.2903 77.4457 15.2465 77.4457C16.1911 77.4457 16.7901 77.008 16.7901 76.3053C16.7901 75.6025 16.1911 75.1648 15.2465 75.1648C14.2903 75.1648 13.6797 75.6025 13.6797 76.2937ZM13.4839 79.9917C13.4839 80.8096 14.1636 81.3165 15.258 81.3165C16.3293 81.3165 17.009 80.8096 17.009 79.9917C17.009 79.1737 16.3293 78.6669 15.2465 78.6669C14.1636 78.6669 13.4839 79.1737 13.4839 79.9917ZM19.4354 78.2867C19.4354 75.6717 20.8409 73.8976 22.9951 73.8976C25.1493 73.8976 26.5663 75.6717 26.5663 78.2867C26.5663 80.8902 25.23 82.6297 22.9951 82.6297C20.7602 82.6297 19.4354 80.8902 19.4354 78.2867ZM20.8869 78.2867C20.8869 80.2336 21.6703 81.328 22.9951 81.328C24.3314 81.328 25.1148 80.2336 25.1148 78.2867C25.1148 76.2937 24.3314 75.1993 22.9951 75.1993C21.6703 75.1993 20.8869 76.2937 20.8869 78.2867ZM27.5579 78.2867C27.5579 75.6717 28.9634 73.8976 31.1176 73.8976C33.2718 73.8976 34.6888 75.6717 34.6888 78.2867C34.6888 80.8902 33.3525 82.6297 31.1176 82.6297C28.8827 82.6297 27.5579 80.8902 27.5579 78.2867ZM29.0094 78.2867C29.0094 80.2336 29.7928 81.328 31.1176 81.328C32.4539 81.328 33.2373 80.2336 33.2373 78.2867C33.2373 76.2937 32.4539 75.1993 31.1176 75.1993C29.7928 75.1993 29.0094 76.2937 29.0094 78.2867Z" fill="#0A0D0D"/>
<path d="M82.8986 78.9894H83.993L84.281 77.5609H83.0138L83.2787 76.2477H84.5344L84.9607 74.0589H86.3546L85.9283 76.2477H87.3914L87.8176 74.0589H89.2115L88.7853 76.2477H89.9719L89.7069 77.5609H88.5319L88.2554 78.9894H89.5687L89.3037 80.3027H88.0019L87.5757 82.48H86.1818L86.608 80.3027H85.1335L84.7072 82.48H83.3133L83.7395 80.3027H82.6336L82.8986 78.9894ZM85.3869 78.9894H86.8615L87.1379 77.5609H85.6749L85.3869 78.9894ZM93.425 78.3097H92.3997V77.3536L94.5655 75.3606H91.0634V74.0589H96.4087V75.2339L94.3581 77.1232C95.6483 77.3766 96.6506 78.3213 96.6506 79.8073C96.6506 81.5353 95.3027 82.6297 93.5978 82.6297C91.9504 82.6297 90.6717 81.616 90.6717 79.7958H92.1232C92.1232 80.7635 92.7223 81.3165 93.6208 81.3165C94.5424 81.3165 95.153 80.7174 95.153 79.7843C95.153 78.9318 94.6 78.3097 93.425 78.3097ZM97.2269 74.0589H103.275V75.4182L100.222 82.48H98.69L101.8 75.4182H97.2269V74.0589ZM109.944 80.8787H108.919V82.48H107.525V80.8787H103.251V79.5885L107.064 74.0589H108.919V79.5885H109.944V80.8787ZM104.818 79.5885H107.525V75.6486L104.818 79.5885ZM110.872 78.2867C110.872 75.6717 112.277 73.8976 114.431 73.8976C116.586 73.8976 118.003 75.6717 118.003 78.2867C118.003 80.8902 116.666 82.6297 114.431 82.6297C112.196 82.6297 110.872 80.8902 110.872 78.2867ZM112.323 78.2867C112.323 80.2336 113.107 81.328 114.431 81.328C115.768 81.328 116.551 80.2336 116.551 78.2867C116.551 76.2937 115.768 75.1993 114.431 75.1993C113.107 75.1993 112.323 76.2937 112.323 78.2867ZM121.449 78.3097H120.423V77.3536L122.589 75.3606H119.087V74.0589H124.432V75.2339L122.382 77.1232C123.672 77.3766 124.674 78.3213 124.674 79.8073C124.674 81.5353 123.327 82.6297 121.622 82.6297C119.974 82.6297 118.695 81.616 118.695 79.7958H120.147C120.147 80.7635 120.746 81.3165 121.645 81.3165C122.566 81.3165 123.177 80.7174 123.177 79.7843C123.177 78.9318 122.624 78.3097 121.449 78.3097ZM130.565 79.0355H127.431V82.48H125.957V74.0589H131.164V75.4182H127.431V77.7107H130.565V79.0355Z" fill="#A1A6A6"/>
</svg>
