<svg width="144" height="100" viewBox="0 0 144 100" fill="none" xmlns="http://www.w3.org/2000/svg">
<path d="M0.410156 11.52C0.410156 5.29576 5.45591 0.25 11.6802 0.25H131.68C137.904 0.25 142.95 5.29575 142.95 11.52V88.4C142.95 94.6242 137.904 99.67 131.68 99.67H11.6802C5.45591 99.67 0.410156 94.6243 0.410156 88.4V11.52Z" fill="white"/>
<path d="M0.410156 11.52C0.410156 5.29576 5.45591 0.25 11.6802 0.25H131.68C137.904 0.25 142.95 5.29575 142.95 11.52V88.4C142.95 94.6242 137.904 99.67 131.68 99.67H11.6802C5.45591 99.67 0.410156 94.6243 0.410156 88.4V11.52Z" stroke="#848C8B" stroke-width="0.5"/>
<rect x="11.6802" y="15.3601" width="120" height="48" rx="5.76" fill="#A1A6A6"/>
<path d="M15.0786 81.6983C13.316 81.6983 12.1525 80.5693 12.1525 78.8644H13.6155C13.6155 79.8205 14.18 80.385 15.1131 80.385C16.1039 80.385 16.7375 79.7399 16.7375 78.7146C16.7375 77.7354 16.1499 77.0673 15.1362 77.0673C14.4911 77.0673 13.9035 77.3898 13.604 77.8276L12.3023 77.5511L13.3391 73.1389H17.7282V74.4983H14.3989L13.9496 76.2493C14.3528 75.9844 14.8597 75.8346 15.4357 75.8346C17.1176 75.8346 18.2351 76.9751 18.2351 78.634C18.2351 80.4541 16.9563 81.6983 15.0786 81.6983ZM19.083 77.3668C19.083 74.7517 20.4885 72.9777 22.6427 72.9777C24.797 72.9777 26.2139 74.7517 26.2139 77.3668C26.2139 79.9703 24.8776 81.7098 22.6427 81.7098C20.4078 81.7098 19.083 79.9703 19.083 77.3668ZM20.5346 77.3668C20.5346 79.3137 21.3179 80.4081 22.6427 80.4081C23.979 80.4081 24.7624 79.3137 24.7624 77.3668C24.7624 75.3738 23.979 74.2794 22.6427 74.2794C21.3179 74.2794 20.5346 75.3738 20.5346 77.3668ZM27.2055 77.3668C27.2055 74.7517 28.611 72.9777 30.7652 72.9777C32.9195 72.9777 34.3364 74.7517 34.3364 77.3668C34.3364 79.9703 33.0001 81.7098 30.7652 81.7098C28.5303 81.7098 27.2055 79.9703 27.2055 77.3668ZM28.6571 77.3668C28.6571 79.3137 29.4404 80.4081 30.7652 80.4081C32.1015 80.4081 32.8849 79.3137 32.8849 77.3668C32.8849 75.3738 32.1015 74.2794 30.7652 74.2794C29.4404 74.2794 28.6571 75.3738 28.6571 77.3668Z" fill="#0A0D0D"/>
<path d="M78.3387 78.0695H79.4331L79.7211 76.641H78.4539L78.7189 75.3277H79.9745L80.4008 73.1389H81.7947L81.3685 75.3277H82.8315L83.2577 73.1389H84.6517L84.2254 75.3277H85.412L85.147 76.641H83.972L83.6955 78.0695H85.0088L84.7438 79.3828H83.4421L83.0158 81.5601H81.6219L82.0481 79.3828H80.5736L80.1473 81.5601H78.7534L79.1797 79.3828H78.0737L78.3387 78.0695ZM80.827 78.0695H82.3016L82.5781 76.641H81.115L80.827 78.0695ZM86.3653 79.1754C86.3653 78.1732 86.9297 77.3668 87.8053 77.0327C87.068 76.6986 86.6648 76.065 86.6648 75.2471C86.6648 73.9108 87.8513 72.9892 89.5909 72.9892C91.3189 72.9892 92.4824 73.8993 92.4824 75.2701C92.4824 76.0881 92.0677 76.7217 91.3189 77.0327C92.2059 77.3437 92.7819 78.1617 92.7819 79.1754C92.7819 80.6961 91.5262 81.6983 89.5678 81.6983C87.6209 81.6983 86.3653 80.7076 86.3653 79.1754ZM88.0011 75.3738C88.0011 76.0765 88.6117 76.5258 89.5678 76.5258C90.5125 76.5258 91.1115 76.0881 91.1115 75.3853C91.1115 74.6826 90.5125 74.2449 89.5678 74.2449C88.6117 74.2449 88.0011 74.6826 88.0011 75.3738ZM87.8053 79.0717C87.8053 79.8897 88.4849 80.3965 89.5793 80.3965C90.6507 80.3965 91.3304 79.8897 91.3304 79.0717C91.3304 78.2538 90.6507 77.7469 89.5678 77.7469C88.4849 77.7469 87.8053 78.2538 87.8053 79.0717ZM100.243 79.9588H99.2181V81.5601H97.8242V79.9588H93.5502V78.6685L97.3634 73.1389H99.2181V78.6685H100.243V79.9588ZM95.117 78.6685H97.8242V74.7287L95.117 78.6685ZM101.159 79.1754C101.159 78.1732 101.723 77.3668 102.599 77.0327C101.862 76.6986 101.459 76.065 101.459 75.2471C101.459 73.9108 102.645 72.9892 104.385 72.9892C106.113 72.9892 107.276 73.8993 107.276 75.2701C107.276 76.0881 106.861 76.7217 106.113 77.0327C107 77.3437 107.576 78.1617 107.576 79.1754C107.576 80.6961 106.32 81.6983 104.362 81.6983C102.415 81.6983 101.159 80.7076 101.159 79.1754ZM102.795 75.3738C102.795 76.0765 103.405 76.5258 104.362 76.5258C105.306 76.5258 105.905 76.0881 105.905 75.3853C105.905 74.6826 105.306 74.2449 104.362 74.2449C103.405 74.2449 102.795 74.6826 102.795 75.3738ZM102.599 79.0717C102.599 79.8897 103.279 80.3965 104.373 80.3965C105.444 80.3965 106.124 79.8897 106.124 79.0717C106.124 78.2538 105.444 77.7469 104.362 77.7469C103.279 77.7469 102.599 78.2538 102.599 79.0717ZM112.548 81.6983C110.094 81.6983 108.504 79.9933 108.504 77.3553C108.504 74.7402 110.152 73.0007 112.617 73.0007C114.61 73.0007 116.096 74.1642 116.384 75.9729H114.829C114.541 74.9937 113.7 74.4177 112.583 74.4177C111.027 74.4177 110.048 75.5466 110.048 77.3437C110.048 79.1293 111.039 80.2813 112.583 80.2813C113.723 80.2813 114.599 79.6823 114.875 78.7492H116.407C116.085 80.5233 114.541 81.6983 112.548 81.6983ZM117.28 79.1754C117.28 78.1732 117.845 77.3668 118.72 77.0327C117.983 76.6986 117.58 76.065 117.58 75.2471C117.58 73.9108 118.766 72.9892 120.506 72.9892C122.234 72.9892 123.397 73.8993 123.397 75.2701C123.397 76.0881 122.983 76.7217 122.234 77.0327C123.121 77.3437 123.697 78.1617 123.697 79.1754C123.697 80.6961 122.441 81.6983 120.483 81.6983C118.536 81.6983 117.28 80.7076 117.28 79.1754ZM118.916 75.3738C118.916 76.0765 119.527 76.5258 120.483 76.5258C121.427 76.5258 122.027 76.0881 122.027 75.3853C122.027 74.6826 121.427 74.2449 120.483 74.2449C119.527 74.2449 118.916 74.6826 118.916 75.3738ZM118.72 79.0717C118.72 79.8897 119.4 80.3965 120.494 80.3965C121.566 80.3965 122.245 79.8897 122.245 79.0717C122.245 78.2538 121.566 77.7469 120.483 77.7469C119.4 77.7469 118.72 78.2538 118.72 79.0717ZM125.11 81.5601V73.1389H128.462C130.121 73.1389 131.135 74.0029 131.135 75.4084C131.135 76.3415 130.72 77.0097 129.925 77.3437C130.812 77.6317 131.261 78.2999 131.261 79.2791C131.261 80.7191 130.259 81.5601 128.519 81.5601H125.11ZM128.335 74.4407H126.584V76.7332H128.37C129.176 76.7332 129.625 76.3069 129.625 75.5581C129.625 74.8324 129.165 74.4407 128.335 74.4407ZM128.462 77.9773H126.584V80.2583H128.462C129.291 80.2583 129.752 79.8551 129.752 79.0948C129.752 78.3805 129.28 77.9773 128.462 77.9773Z" fill="#A1A6A6"/>
</svg>
