<svg width="144" height="101" viewBox="0 0 144 101" fill="none" xmlns="http://www.w3.org/2000/svg">
<path d="M0.370117 12.4399C0.370117 6.21569 5.41587 1.16992 11.6401 1.16992H131.64C137.864 1.16992 142.91 6.21567 142.91 12.4399V89.3199C142.91 95.5442 137.864 100.59 131.64 100.59H11.6401C5.41587 100.59 0.370117 95.5442 0.370117 89.3199V12.4399Z" fill="white"/>
<path d="M0.370117 12.4399C0.370117 6.21569 5.41587 1.16992 11.6401 1.16992H131.64C137.864 1.16992 142.91 6.21567 142.91 12.4399V89.3199C142.91 95.5442 137.864 100.59 131.64 100.59H11.6401C5.41587 100.59 0.370117 95.5442 0.370117 89.3199V12.4399Z" stroke="#848C8B" stroke-width="0.5"/>
<rect x="11.6401" y="16.28" width="120" height="48" rx="5.76" fill="#0A0D0D"/>
<path d="M13.875 75.3837H12.0318V74.0589H15.292V82.48H13.875V75.3837ZM16.7255 78.2867C16.7255 75.6717 18.1309 73.8976 20.2852 73.8976C22.4394 73.8976 23.8564 75.6717 23.8564 78.2867C23.8564 80.8902 22.5201 82.6297 20.2852 82.6297C18.0503 82.6297 16.7255 80.8902 16.7255 78.2867ZM18.177 78.2867C18.177 80.2336 18.9604 81.328 20.2852 81.328C21.6215 81.328 22.4049 80.2336 22.4049 78.2867C22.4049 76.2937 21.6215 75.1993 20.2852 75.1993C18.9604 75.1993 18.177 76.2937 18.177 78.2867ZM24.848 78.2867C24.848 75.6717 26.2534 73.8976 28.4077 73.8976C30.5619 73.8976 31.9789 75.6717 31.9789 78.2867C31.9789 80.8902 30.6426 82.6297 28.4077 82.6297C26.1728 82.6297 24.848 80.8902 24.848 78.2867ZM26.2995 78.2867C26.2995 80.2336 27.0829 81.328 28.4077 81.328C29.744 81.328 30.5274 80.2336 30.5274 78.2867C30.5274 76.2937 29.744 75.1993 28.4077 75.1993C27.0829 75.1993 26.2995 76.2937 26.2995 78.2867ZM32.9705 78.2867C32.9705 75.6717 34.3759 73.8976 36.5302 73.8976C38.6844 73.8976 40.1014 75.6717 40.1014 78.2867C40.1014 80.8902 38.7651 82.6297 36.5302 82.6297C34.2953 82.6297 32.9705 80.8902 32.9705 78.2867ZM34.422 78.2867C34.422 80.2336 35.2054 81.328 36.5302 81.328C37.8665 81.328 38.6499 80.2336 38.6499 78.2867C38.6499 76.2937 37.8665 75.1993 36.5302 75.1993C35.2054 75.1993 34.422 76.2937 34.422 78.2867Z" fill="#0A0D0D"/>
<path d="M74.8337 78.9894H75.9281L76.2161 77.5609H74.9489L75.2138 76.2477H76.4695L76.8957 74.0589H78.2897L77.8634 76.2477H79.3265L79.7527 74.0589H81.1466L80.7204 76.2477H81.9069L81.642 77.5609H80.4669L80.1905 78.9894H81.5037L81.2388 80.3027H79.937L79.5108 82.48H78.1169L78.5431 80.3027H77.0685L76.6423 82.48H75.2484L75.6746 80.3027H74.5687L74.8337 78.9894ZM77.322 78.9894H78.7965L79.073 77.5609H77.61L77.322 78.9894ZM82.8717 78.2867C82.8717 75.6717 84.2772 73.8976 86.4314 73.8976C88.5857 73.8976 90.0026 75.6717 90.0026 78.2867C90.0026 80.8902 88.6663 82.6297 86.4314 82.6297C84.1965 82.6297 82.8717 80.8902 82.8717 78.2867ZM84.3233 78.2867C84.3233 80.2336 85.1066 81.328 86.4314 81.328C87.7677 81.328 88.5511 80.2336 88.5511 78.2867C88.5511 76.2937 87.7677 75.1993 86.4314 75.1993C85.1066 75.1993 84.3233 76.2937 84.3233 78.2867ZM92.1578 82.48H90.6256L93.6669 74.0589H95.176L98.2173 82.48H96.6621L95.9824 80.5331H92.8374L92.1578 82.48ZM94.2314 76.5702L93.2752 79.2889H95.5562L94.5885 76.5702C94.5194 76.3513 94.4387 76.0979 94.4157 75.9251C94.3811 76.0864 94.312 76.3398 94.2314 76.5702ZM98.8355 78.2867C98.8355 75.6717 100.241 73.8976 102.395 73.8976C104.549 73.8976 105.966 75.6717 105.966 78.2867C105.966 80.8902 104.63 82.6297 102.395 82.6297C100.16 82.6297 98.8355 80.8902 98.8355 78.2867ZM100.287 78.2867C100.287 80.2336 101.07 81.328 102.395 81.328C103.731 81.328 104.515 80.2336 104.515 78.2867C104.515 76.2937 103.731 75.1993 102.395 75.1993C101.07 75.1993 100.287 76.2937 100.287 78.2867ZM110.426 82.48H107.396V74.0589H110.345C112.833 74.0589 114.55 75.7753 114.55 78.2867C114.55 80.7635 112.868 82.48 110.426 82.48ZM110.207 75.4182H108.87V81.1206H110.287C111.969 81.1206 112.994 80.0377 112.994 78.2867C112.994 76.5011 111.946 75.4182 110.207 75.4182ZM115.485 78.2867C115.485 75.6717 116.891 73.8976 119.045 73.8976C121.199 73.8976 122.616 75.6717 122.616 78.2867C122.616 80.8902 121.28 82.6297 119.045 82.6297C116.81 82.6297 115.485 80.8902 115.485 78.2867ZM116.937 78.2867C116.937 80.2336 117.72 81.328 119.045 81.328C120.381 81.328 121.165 80.2336 121.165 78.2867C121.165 76.2937 120.381 75.1993 119.045 75.1993C117.72 75.1993 116.937 76.2937 116.937 78.2867ZM127.076 82.48H124.046V74.0589H126.995C129.483 74.0589 131.2 75.7753 131.2 78.2867C131.2 80.7635 129.518 82.48 127.076 82.48ZM126.857 75.4182H125.52V81.1206H126.937C128.619 81.1206 129.644 80.0377 129.644 78.2867C129.644 76.5011 128.596 75.4182 126.857 75.4182Z" fill="#A1A6A6"/>
</svg>
