<svg width="144" height="101" viewBox="0 0 144 101" fill="none" xmlns="http://www.w3.org/2000/svg">
<path d="M0.290039 12.3601C0.290039 6.13585 5.33579 1.09009 11.56 1.09009H131.56C137.784 1.09009 142.83 6.13584 142.83 12.3601V89.2401C142.83 95.4643 137.784 100.51 131.56 100.51H11.56C5.33579 100.51 0.290039 95.4643 0.290039 89.2401V12.3601Z" fill="white"/>
<path d="M0.290039 12.3601C0.290039 6.13585 5.33579 1.09009 11.56 1.09009H131.56C137.784 1.09009 142.83 6.13584 142.83 12.3601V89.2401C142.83 95.4643 137.784 100.51 131.56 100.51H11.56C5.33579 100.51 0.290039 95.4643 0.290039 89.2401V12.3601Z" stroke="#848C8B" stroke-width="0.5"/>
<rect x="11.5601" y="16.2002" width="120" height="48" rx="5.76" fill="#F28218"/>
<path d="M17.9306 82.3886L12.09 82.4001V81.2942L14.8433 78.9672C15.9837 77.9995 16.3639 77.4465 16.3639 76.6401C16.3639 75.684 15.8455 75.1425 14.9585 75.1425C14.0369 75.1425 13.4609 75.7877 13.4493 76.8705H11.9863C11.9978 75.0273 13.1729 73.8293 14.9585 73.8293C16.7556 73.8293 17.873 74.8545 17.873 76.5595C17.873 77.7345 17.2279 78.6216 15.9492 79.716L14.4285 81.0177H17.9306V82.3886ZM18.8392 78.2069C18.8392 75.5918 20.2446 73.8177 22.3988 73.8177C24.5531 73.8177 25.97 75.5918 25.97 78.2069C25.97 80.8104 24.6337 82.5499 22.3988 82.5499C20.164 82.5499 18.8392 80.8104 18.8392 78.2069ZM20.2907 78.2069C20.2907 80.1537 21.074 81.2481 22.3988 81.2481C23.7352 81.2481 24.5185 80.1537 24.5185 78.2069C24.5185 76.2139 23.7352 75.1195 22.3988 75.1195C21.074 75.1195 20.2907 76.2139 20.2907 78.2069ZM26.9617 78.2069C26.9617 75.5918 28.3671 73.8177 30.5213 73.8177C32.6756 73.8177 34.0925 75.5918 34.0925 78.2069C34.0925 80.8104 32.7562 82.5499 30.5213 82.5499C28.2865 82.5499 26.9617 80.8104 26.9617 78.2069ZM28.4132 78.2069C28.4132 80.1537 29.1965 81.2481 30.5213 81.2481C31.8577 81.2481 32.641 80.1537 32.641 78.2069C32.641 76.2139 31.8577 75.1195 30.5213 75.1195C29.1965 75.1195 28.4132 76.2139 28.4132 78.2069Z" fill="#0A0D0D"/>
<path d="M76.6998 78.9096H77.7942L78.0822 77.4811H76.815L77.08 76.1678H78.3357L78.7619 73.979H80.1558L79.7296 76.1678H81.1926L81.6189 73.979H83.0128L82.5866 76.1678H83.7731L83.5082 77.4811H82.3331L82.0566 78.9096H83.3699L83.105 80.2229H81.8032L81.377 82.4001H79.983L80.4093 80.2229H78.9347L78.5085 82.4001H77.1146L77.5408 80.2229H76.4349L76.6998 78.9096ZM79.1882 78.9096H80.6627L80.9392 77.4811H79.4762L79.1882 78.9096ZM88.2054 82.4001H85.1757V73.979H88.1248C90.6131 73.979 92.3296 75.6955 92.3296 78.2069C92.3296 80.6837 90.6477 82.4001 88.2054 82.4001ZM87.9866 75.3384H86.6502V81.0408H88.0672C89.7491 81.0408 90.7744 79.9579 90.7744 78.2069C90.7744 76.4213 89.7261 75.3384 87.9866 75.3384ZM99.7857 80.7989H98.7605V82.4001H97.3665V80.7989H93.0926V79.5086L96.9057 73.979H98.7605V79.5086H99.7857V80.7989ZM94.6593 79.5086H97.3665V75.5688L94.6593 79.5086ZM104.18 82.4001H101.151V73.979H104.1C106.588 73.979 108.305 75.6955 108.305 78.2069C108.305 80.6837 106.623 82.4001 104.18 82.4001ZM103.962 75.3384H102.625V81.0408H104.042C105.724 81.0408 106.749 79.9579 106.749 78.2069C106.749 76.4213 105.701 75.3384 103.962 75.3384ZM114.194 79.9233L112.374 82.4001H110.692L112.708 79.716C112.501 79.7736 112.282 79.8081 112.074 79.8081C110.335 79.8081 109.16 78.587 109.16 76.8821C109.16 75.0849 110.496 73.8293 112.293 73.8293C114.113 73.8293 115.473 75.1656 115.473 76.8936C115.473 77.9073 115.139 78.6446 114.194 79.9233ZM113.964 76.8821C113.964 75.8568 113.284 75.1425 112.293 75.1425C111.326 75.1425 110.646 75.8568 110.646 76.8821C110.646 77.8958 111.326 78.5985 112.293 78.5985C113.295 78.5985 113.964 77.8958 113.964 76.8821ZM119.852 82.4001H116.822V73.979H119.771C122.259 73.979 123.976 75.6955 123.976 78.2069C123.976 80.6837 122.294 82.4001 119.852 82.4001ZM119.633 75.3384H118.296V81.0408H119.713C121.395 81.0408 122.421 79.9579 122.421 78.2069C122.421 76.4213 121.372 75.3384 119.633 75.3384ZM129.865 79.9233L128.045 82.4001H126.363L128.379 79.716C128.172 79.7736 127.953 79.8081 127.746 79.8081C126.006 79.8081 124.831 78.587 124.831 76.8821C124.831 75.0849 126.167 73.8293 127.964 73.8293C129.785 73.8293 131.144 75.1656 131.144 76.8936C131.144 77.9073 130.81 78.6446 129.865 79.9233ZM129.635 76.8821C129.635 75.8568 128.955 75.1425 127.964 75.1425C126.997 75.1425 126.317 75.8568 126.317 76.8821C126.317 77.8958 126.997 78.5985 127.964 78.5985C128.967 78.5985 129.635 77.8958 129.635 76.8821Z" fill="#A1A6A6"/>
</svg>
