<svg width="144" height="100" viewBox="0 0 144 100" fill="none" xmlns="http://www.w3.org/2000/svg">
<path d="M0.25 11.52C0.25 5.29576 5.29575 0.25 11.52 0.25H131.52C137.744 0.25 142.79 5.29575 142.79 11.52V88.4C142.79 94.6242 137.744 99.67 131.52 99.67H11.52C5.29575 99.67 0.25 94.6243 0.25 88.4V11.52Z" fill="white"/>
<path d="M0.25 11.52C0.25 5.29576 5.29575 0.25 11.52 0.25H131.52C137.744 0.25 142.79 5.29575 142.79 11.52V88.4C142.79 94.6242 137.744 99.67 131.52 99.67H11.52C5.29575 99.67 0.25 94.6243 0.25 88.4V11.52Z" stroke="#848C8B" stroke-width="0.5"/>
<rect x="11.52" y="15.3601" width="120" height="48" rx="5.76" fill="#EDF2F2"/>
<path d="M13.7549 74.4637H11.9117V73.1389H15.1719V81.5601H13.7549V74.4637ZM16.6054 77.3668C16.6054 74.7517 18.0108 72.9777 20.1651 72.9777C22.3193 72.9777 23.7363 74.7517 23.7363 77.3668C23.7363 79.9703 22.3999 81.7098 20.1651 81.7098C17.9302 81.7098 16.6054 79.9703 16.6054 77.3668ZM18.0569 77.3668C18.0569 79.3137 18.8403 80.4081 20.1651 80.4081C21.5014 80.4081 22.2847 79.3137 22.2847 77.3668C22.2847 75.3738 21.5014 74.2794 20.1651 74.2794C18.8403 74.2794 18.0569 75.3738 18.0569 77.3668ZM24.7279 77.3668C24.7279 74.7517 26.1333 72.9777 28.2876 72.9777C30.4418 72.9777 31.8588 74.7517 31.8588 77.3668C31.8588 79.9703 30.5224 81.7098 28.2876 81.7098C26.0527 81.7098 24.7279 79.9703 24.7279 77.3668ZM26.1794 77.3668C26.1794 79.3137 26.9628 80.4081 28.2876 80.4081C29.6239 80.4081 30.4072 79.3137 30.4072 77.3668C30.4072 75.3738 29.6239 74.2794 28.2876 74.2794C26.9628 74.2794 26.1794 75.3738 26.1794 77.3668Z" fill="#0A0D0D"/>
<path d="M81.2573 78.0695H82.3517L82.6397 76.641H81.3725L81.6375 75.3277H82.8931L83.3194 73.1389H84.7133L84.2871 75.3277H85.7501L86.1763 73.1389H87.5703L87.144 75.3277H88.3306L88.0656 76.641H86.8906L86.6141 78.0695H87.9274L87.6624 79.3828H86.3607L85.9344 81.5601H84.5405L84.9667 79.3828H83.4922L83.0659 81.5601H81.672L82.0983 79.3828H80.9923L81.2573 78.0695ZM83.7456 78.0695H85.2202L85.4967 76.641H84.0336L83.7456 78.0695ZM94.9632 81.5601H89.7331V73.1389H94.9632V74.4983H91.2077V76.6641H94.5715V77.9658H91.2077V80.2007H94.9632V81.5601ZM99.5917 81.5601H96.5619V73.1389H99.511C101.999 73.1389 103.716 74.8554 103.716 77.3668C103.716 79.8436 102.034 81.5601 99.5917 81.5601ZM99.3728 74.4983H98.0365V80.2007H99.4534C101.135 80.2007 102.161 79.1178 102.161 77.3668C102.161 75.5812 101.112 74.4983 99.3728 74.4983ZM109.697 78.1156H106.564V81.5601H105.089V73.1389H110.296V74.4983H106.564V76.7908H109.697V78.1156ZM117.063 81.5485L111.222 81.5601V80.4541L113.976 78.1271C115.116 77.1594 115.496 76.6065 115.496 75.8001C115.496 74.8439 114.978 74.3025 114.091 74.3025C113.169 74.3025 112.593 74.9476 112.582 76.0305H111.119C111.13 74.1873 112.305 72.9892 114.091 72.9892C115.888 72.9892 117.005 74.0145 117.005 75.7194C117.005 76.8945 116.36 77.7815 115.082 78.8759L113.561 80.1777H117.063V81.5485ZM123.017 78.1156H119.884V81.5601H118.409V73.1389H123.616V74.4983H119.884V76.7908H123.017V78.1156ZM130.383 81.5485L124.542 81.5601V80.4541L127.296 78.1271C128.436 77.1594 128.816 76.6065 128.816 75.8001C128.816 74.8439 128.298 74.3025 127.411 74.3025C126.489 74.3025 125.913 74.9476 125.902 76.0305H124.439C124.45 74.1873 125.625 72.9892 127.411 72.9892C129.208 72.9892 130.325 74.0145 130.325 75.7194C130.325 76.8945 129.68 77.7815 128.402 78.8759L126.881 80.1777H130.383V81.5485Z" fill="#A1A6A6"/>
</svg>
