<svg width="144" height="101" viewBox="0 0 144 101" fill="none" xmlns="http://www.w3.org/2000/svg">
<path d="M0.25 12.4399C0.25 6.21569 5.29575 1.16992 11.52 1.16992H131.52C137.744 1.16992 142.79 6.21567 142.79 12.4399V89.3199C142.79 95.5442 137.744 100.59 131.52 100.59H11.52C5.29575 100.59 0.25 95.5442 0.25 89.3199V12.4399Z" fill="white"/>
<path d="M0.25 12.4399C0.25 6.21569 5.29575 1.16992 11.52 1.16992H131.52C137.744 1.16992 142.79 6.21567 142.79 12.4399V89.3199C142.79 95.5442 137.744 100.59 131.52 100.59H11.52C5.29575 100.59 0.25 95.5442 0.25 89.3199V12.4399Z" stroke="#848C8B" stroke-width="0.5"/>
<rect x="11.52" y="16.28" width="120" height="48" rx="5.76" fill="#4F5958"/>
<path d="M11.6007 74.0589H17.6487V75.4182L14.5959 82.48H13.0637L16.1741 75.4182H11.6007V74.0589ZM18.0679 78.2867C18.0679 75.6717 19.4733 73.8976 21.6276 73.8976C23.7818 73.8976 25.1988 75.6717 25.1988 78.2867C25.1988 80.8902 23.8624 82.6297 21.6276 82.6297C19.3927 82.6297 18.0679 80.8902 18.0679 78.2867ZM19.5194 78.2867C19.5194 80.2336 20.3028 81.328 21.6276 81.328C22.9639 81.328 23.7472 80.2336 23.7472 78.2867C23.7472 76.2937 22.9639 75.1993 21.6276 75.1993C20.3028 75.1993 19.5194 76.2937 19.5194 78.2867ZM26.1904 78.2867C26.1904 75.6717 27.5958 73.8976 29.7501 73.8976C31.9043 73.8976 33.3213 75.6717 33.3213 78.2867C33.3213 80.8902 31.9849 82.6297 29.7501 82.6297C27.5152 82.6297 26.1904 80.8902 26.1904 78.2867ZM27.6419 78.2867C27.6419 80.2336 28.4253 81.328 29.7501 81.328C31.0864 81.328 31.8697 80.2336 31.8697 78.2867C31.8697 76.2937 31.0864 75.1993 29.7501 75.1993C28.4253 75.1993 27.6419 76.2937 27.6419 78.2867Z" fill="#0A0D0D"/>
<path d="M81.7673 78.9894H82.8617L83.1497 77.5609H81.8825L82.1475 76.2477H83.4031L83.8294 74.0589H85.2233L84.7971 76.2477H86.2601L86.6863 74.0589H88.0803L87.654 76.2477H88.8406L88.5756 77.5609H87.4006L87.1241 78.9894H88.4374L88.1724 80.3027H86.8707L86.4444 82.48H85.0505L85.4767 80.3027H84.0022L83.5759 82.48H82.182L82.6083 80.3027H81.5023L81.7673 78.9894ZM84.2556 78.9894H85.7302L86.0067 77.5609H84.5436L84.2556 78.9894ZM96.3257 80.8787H95.3004V82.48H93.9065V80.8787H89.6326V79.5885L93.4457 74.0589H95.3004V79.5885H96.3257V80.8787ZM91.1993 79.5885H93.9065V75.6486L91.1993 79.5885ZM102.299 79.0355H99.1652V82.48H97.6906V74.0589H102.898V75.4182H99.1652V77.7107H102.299V79.0355ZM106.692 82.6182C104.93 82.6182 103.766 81.4893 103.766 79.7843H105.229C105.229 80.7405 105.794 81.3049 106.727 81.3049C107.717 81.3049 108.351 80.6598 108.351 79.6345C108.351 78.6553 107.764 77.9872 106.75 77.9872C106.105 77.9872 105.517 78.3097 105.218 78.7475L103.916 78.471L104.953 74.0589H109.342V75.4182H106.012L105.563 77.1693C105.966 76.9043 106.473 76.7545 107.049 76.7545C108.731 76.7545 109.849 77.895 109.849 79.5539C109.849 81.3741 108.57 82.6182 106.692 82.6182ZM115.616 80.0032L113.796 82.48H112.114L114.13 79.7958C113.923 79.8534 113.704 79.888 113.497 79.888C111.757 79.888 110.582 78.6669 110.582 76.9619C110.582 75.1648 111.919 73.9091 113.716 73.9091C115.536 73.9091 116.895 75.2454 116.895 76.9734C116.895 77.9872 116.561 78.7245 115.616 80.0032ZM115.386 76.9619C115.386 75.9366 114.706 75.2224 113.716 75.2224C112.748 75.2224 112.068 75.9366 112.068 76.9619C112.068 77.9757 112.748 78.6784 113.716 78.6784C114.718 78.6784 115.386 77.9757 115.386 76.9619ZM120.631 82.6182C118.868 82.6182 117.705 81.4893 117.705 79.7843H119.168C119.168 80.7405 119.732 81.3049 120.665 81.3049C121.656 81.3049 122.29 80.6598 122.29 79.6345C122.29 78.6553 121.702 77.9872 120.689 77.9872C120.043 77.9872 119.456 78.3097 119.156 78.7475L117.855 78.471L118.891 74.0589H123.281V75.4182H119.951L119.502 77.1693C119.905 76.9043 120.412 76.7545 120.988 76.7545C122.67 76.7545 123.787 77.895 123.787 79.5539C123.787 81.3741 122.509 82.6182 120.631 82.6182ZM124.624 80.0953C124.624 79.0931 125.188 78.2867 126.064 77.9526C125.327 77.6185 124.923 76.9849 124.923 76.167C124.923 74.8307 126.11 73.9091 127.849 73.9091C129.577 73.9091 130.741 74.8192 130.741 76.1901C130.741 77.008 130.326 77.6416 129.577 77.9526C130.464 78.2637 131.04 79.0816 131.04 80.0953C131.04 81.616 129.785 82.6182 127.826 82.6182C125.88 82.6182 124.624 81.6275 124.624 80.0953ZM126.26 76.2937C126.26 76.9965 126.87 77.4457 127.826 77.4457C128.771 77.4457 129.37 77.008 129.37 76.3053C129.37 75.6025 128.771 75.1648 127.826 75.1648C126.87 75.1648 126.26 75.6025 126.26 76.2937ZM126.064 79.9917C126.064 80.8096 126.744 81.3165 127.838 81.3165C128.909 81.3165 129.589 80.8096 129.589 79.9917C129.589 79.1737 128.909 78.6669 127.826 78.6669C126.744 78.6669 126.064 79.1737 126.064 79.9917Z" fill="#A1A6A6"/>
</svg>
