<svg width="144" height="101" viewBox="0 0 144 101" fill="none" xmlns="http://www.w3.org/2000/svg">
<path d="M0.330078 12.4399C0.330078 6.21569 5.37583 1.16992 11.6001 1.16992H131.6C137.824 1.16992 142.87 6.21567 142.87 12.4399V89.3199C142.87 95.5442 137.824 100.59 131.6 100.59H11.6001C5.37583 100.59 0.330078 95.5442 0.330078 89.3199V12.4399Z" fill="white"/>
<path d="M0.330078 12.4399C0.330078 6.21569 5.37583 1.16992 11.6001 1.16992H131.6C137.824 1.16992 142.87 6.21567 142.87 12.4399V89.3199C142.87 95.5442 137.824 100.59 131.6 100.59H11.6001C5.37583 100.59 0.330078 95.5442 0.330078 89.3199V12.4399Z" stroke="#848C8B" stroke-width="0.5"/>
<rect x="11.6001" y="16.28" width="120" height="48" rx="5.76" fill="#202626"/>
<path d="M17.0491 80.0032L15.2289 82.48H13.547L15.563 79.7958C15.3556 79.8534 15.1367 79.888 14.9294 79.888C13.1899 79.888 12.0148 78.6669 12.0148 76.9619C12.0148 75.1648 13.3511 73.9091 15.1483 73.9091C16.9684 73.9091 18.3278 75.2454 18.3278 76.9734C18.3278 77.9872 17.9937 78.7245 17.0491 80.0032ZM16.8187 76.9619C16.8187 75.9366 16.139 75.2224 15.1483 75.2224C14.1806 75.2224 13.5009 75.9366 13.5009 76.9619C13.5009 77.9757 14.1806 78.6784 15.1483 78.6784C16.1505 78.6784 16.8187 77.9757 16.8187 76.9619ZM19.2392 78.2867C19.2392 75.6717 20.6446 73.8976 22.7989 73.8976C24.9531 73.8976 26.3701 75.6717 26.3701 78.2867C26.3701 80.8902 25.0338 82.6297 22.7989 82.6297C20.564 82.6297 19.2392 80.8902 19.2392 78.2867ZM20.6907 78.2867C20.6907 80.2336 21.4741 81.328 22.7989 81.328C24.1352 81.328 24.9186 80.2336 24.9186 78.2867C24.9186 76.2937 24.1352 75.1993 22.7989 75.1993C21.4741 75.1993 20.6907 76.2937 20.6907 78.2867ZM27.3617 78.2867C27.3617 75.6717 28.7671 73.8976 30.9214 73.8976C33.0756 73.8976 34.4926 75.6717 34.4926 78.2867C34.4926 80.8902 33.1563 82.6297 30.9214 82.6297C28.6865 82.6297 27.3617 80.8902 27.3617 78.2867ZM28.8132 78.2867C28.8132 80.2336 29.5966 81.328 30.9214 81.328C32.2577 81.328 33.0411 80.2336 33.0411 78.2867C33.0411 76.2937 32.2577 75.1993 30.9214 75.1993C29.5966 75.1993 28.8132 76.2937 28.8132 78.2867Z" fill="#0A0D0D"/>
<path d="M81.4874 78.9894H82.5818L82.8698 77.5609H81.6026L81.8675 76.2477H83.1232L83.5495 74.0589H84.9434L84.5171 76.2477H85.9802L86.4064 74.0589H87.8003L87.3741 76.2477H88.5607L88.2957 77.5609H87.1207L86.8442 78.9894H88.1575L87.8925 80.3027H86.5907L86.1645 82.48H84.7706L85.1968 80.3027H83.7223L83.296 82.48H81.9021L82.3283 80.3027H81.2224L81.4874 78.9894ZM83.9757 78.9894H85.4503L85.7267 77.5609H84.2637L83.9757 78.9894ZM95.4007 82.4685L89.56 82.48V81.3741L92.3133 79.047C93.4538 78.0793 93.8339 77.5264 93.8339 76.72C93.8339 75.7638 93.3155 75.2224 92.4285 75.2224C91.5069 75.2224 90.9309 75.8675 90.9194 76.9504H89.4563C89.4679 75.1072 90.6429 73.9091 92.4285 73.9091C94.2256 73.9091 95.3431 74.9344 95.3431 76.6393C95.3431 77.8144 94.6979 78.7014 93.4192 79.7958L91.8986 81.0976H95.4007V82.4685ZM96.3092 78.2867C96.3092 75.6717 97.7146 73.8976 99.8689 73.8976C102.023 73.8976 103.44 75.6717 103.44 78.2867C103.44 80.8902 102.104 82.6297 99.8689 82.6297C97.634 82.6297 96.3092 80.8902 96.3092 78.2867ZM97.7607 78.2867C97.7607 80.2336 98.5441 81.328 99.8689 81.328C101.205 81.328 101.989 80.2336 101.989 78.2867C101.989 76.2937 101.205 75.1993 99.8689 75.1993C98.5441 75.1993 97.7607 76.2937 97.7607 78.2867ZM110.307 82.4685L104.466 82.48V81.3741L107.22 79.047C108.36 78.0793 108.74 77.5264 108.74 76.72C108.74 75.7638 108.222 75.2224 107.335 75.2224C106.413 75.2224 105.837 75.8675 105.826 76.9504H104.363C104.374 75.1072 105.549 73.9091 107.335 73.9091C109.132 73.9091 110.249 74.9344 110.249 76.6393C110.249 77.8144 109.604 78.7014 108.325 79.7958L106.805 81.0976H110.307V82.4685ZM112.414 76.5357L114.234 74.0589H115.916L113.9 76.743C114.107 76.6854 114.326 76.6509 114.533 76.6509C116.273 76.6509 117.448 77.872 117.448 79.5769C117.448 81.3741 116.111 82.6297 114.314 82.6297C112.494 82.6297 111.135 81.2934 111.135 79.5654C111.135 78.5517 111.469 77.8144 112.414 76.5357ZM112.644 79.5769C112.644 80.6022 113.324 81.3165 114.314 81.3165C115.27 81.3165 115.962 80.6022 115.962 79.5769C115.962 78.5632 115.282 77.8605 114.314 77.8605C113.312 77.8605 112.644 78.5632 112.644 79.5769ZM124.043 82.4685L118.203 82.48V81.3741L120.956 79.047C122.096 78.0793 122.476 77.5264 122.476 76.72C122.476 75.7638 121.958 75.2224 121.071 75.2224C120.149 75.2224 119.573 75.8675 119.562 76.9504H118.099C118.11 75.1072 119.285 73.9091 121.071 73.9091C122.868 73.9091 123.986 74.9344 123.986 76.6393C123.986 77.8144 123.34 78.7014 122.062 79.7958L120.541 81.0976H124.043V82.4685ZM126.15 76.5357L127.97 74.0589H129.652L127.636 76.743C127.843 76.6854 128.062 76.6509 128.269 76.6509C130.009 76.6509 131.184 77.872 131.184 79.5769C131.184 81.3741 129.848 82.6297 128.051 82.6297C126.23 82.6297 124.871 81.2934 124.871 79.5654C124.871 78.5517 125.205 77.8144 126.15 76.5357ZM126.38 79.5769C126.38 80.6022 127.06 81.3165 128.051 81.3165C129.007 81.3165 129.698 80.6022 129.698 79.5769C129.698 78.5632 129.018 77.8605 128.051 77.8605C127.048 77.8605 126.38 78.5632 126.38 79.5769Z" fill="#A1A6A6"/>
</svg>
