<svg width="144" height="101" viewBox="0 0 144 101" fill="none" xmlns="http://www.w3.org/2000/svg">
<path d="M0.330078 12.3601C0.330078 6.13585 5.37583 1.09009 11.6001 1.09009H131.6C137.824 1.09009 142.87 6.13584 142.87 12.3601V89.2401C142.87 95.4643 137.824 100.51 131.6 100.51H11.6001C5.37583 100.51 0.330078 95.4643 0.330078 89.2401V12.3601Z" fill="white"/>
<path d="M0.330078 12.3601C0.330078 6.13585 5.37583 1.09009 11.6001 1.09009H131.6C137.824 1.09009 142.87 6.13584 142.87 12.3601V89.2401C142.87 95.4643 137.824 100.51 131.6 100.51H11.6001C5.37583 100.51 0.330078 95.4643 0.330078 89.2401V12.3601Z" stroke="#848C8B" stroke-width="0.5"/>
<rect x="11.6001" y="16.2002" width="120" height="48" rx="5.76" fill="#99520F"/>
<path d="M14.5838 78.2299H13.5585V77.2737L15.7243 75.2808H12.2222V73.979H17.5675V75.1541L15.5169 77.0433C16.8071 77.2968 17.8094 78.2414 17.8094 79.7275C17.8094 81.4555 16.4615 82.5499 14.7566 82.5499C13.1092 82.5499 11.8305 81.5361 11.8305 79.716H13.282C13.282 80.6837 13.8811 81.2366 14.7796 81.2366C15.7012 81.2366 16.3118 80.6376 16.3118 79.7045C16.3118 78.852 15.7588 78.2299 14.5838 78.2299ZM18.6542 78.2069C18.6542 75.5918 20.0596 73.8177 22.2139 73.8177C24.3681 73.8177 25.7851 75.5918 25.7851 78.2069C25.7851 80.8104 24.4488 82.5499 22.2139 82.5499C19.979 82.5499 18.6542 80.8104 18.6542 78.2069ZM20.1057 78.2069C20.1057 80.1537 20.8891 81.2481 22.2139 81.2481C23.5502 81.2481 24.3336 80.1537 24.3336 78.2069C24.3336 76.2139 23.5502 75.1195 22.2139 75.1195C20.8891 75.1195 20.1057 76.2139 20.1057 78.2069ZM26.7767 78.2069C26.7767 75.5918 28.1821 73.8177 30.3364 73.8177C32.4906 73.8177 33.9076 75.5918 33.9076 78.2069C33.9076 80.8104 32.5713 82.5499 30.3364 82.5499C28.1015 82.5499 26.7767 80.8104 26.7767 78.2069ZM28.2282 78.2069C28.2282 80.1537 29.0116 81.2481 30.3364 81.2481C31.6727 81.2481 32.4561 80.1537 32.4561 78.2069C32.4561 76.2139 31.6727 75.1195 30.3364 75.1195C29.0116 75.1195 28.2282 76.2139 28.2282 78.2069Z" fill="#0A0D0D"/>
<path d="M80.9699 78.9096H82.0643L82.3523 77.4811H81.0851L81.35 76.1678H82.6057L83.032 73.979H84.4259L83.9996 76.1678H85.4627L85.8889 73.979H87.2828L86.8566 76.1678H88.0432L87.7782 77.4811H86.6032L86.3267 78.9096H87.64L87.375 80.2229H86.0732L85.647 82.4001H84.2531L84.6793 80.2229H83.2048L82.7785 82.4001H81.3846L81.8108 80.2229H80.7049L80.9699 78.9096ZM83.4582 78.9096H84.9328L85.2092 77.4811H83.7462L83.4582 78.9096ZM89.4457 82.4001V73.979H92.798C94.4569 73.979 95.4707 74.843 95.4707 76.2485C95.4707 77.1816 95.056 77.8497 94.2611 78.1838C95.1481 78.4718 95.5974 79.14 95.5974 80.1192C95.5974 81.5592 94.5952 82.4001 92.8556 82.4001H89.4457ZM92.6713 75.2808H90.9203V77.5733H92.7059C93.5123 77.5733 93.9616 77.147 93.9616 76.3982C93.9616 75.6725 93.5008 75.2808 92.6713 75.2808ZM92.798 78.8174H90.9203V81.0984H92.798C93.6275 81.0984 94.0883 80.6952 94.0883 79.9349C94.0883 79.2206 93.616 78.8174 92.798 78.8174ZM96.9495 82.4001V73.979H100.302C101.961 73.979 102.974 74.843 102.974 76.2485C102.974 77.1816 102.56 77.8497 101.765 78.1838C102.652 78.4718 103.101 79.14 103.101 80.1192C103.101 81.5592 102.099 82.4001 100.359 82.4001H96.9495ZM100.175 75.2808H98.424V77.5733H100.21C101.016 77.5733 101.465 77.147 101.465 76.3982C101.465 75.6725 101.005 75.2808 100.175 75.2808ZM100.302 78.8174H98.424V81.0984H100.302C101.131 81.0984 101.592 80.6952 101.592 79.9349C101.592 79.2206 101.12 78.8174 100.302 78.8174ZM104.453 82.4001V73.979H107.806C109.464 73.979 110.478 74.843 110.478 76.2485C110.478 77.1816 110.063 77.8497 109.269 78.1838C110.156 78.4718 110.605 79.14 110.605 80.1192C110.605 81.5592 109.603 82.4001 107.863 82.4001H104.453ZM107.679 75.2808H105.928V77.5733H107.713C108.52 77.5733 108.969 77.147 108.969 76.3982C108.969 75.6725 108.508 75.2808 107.679 75.2808ZM107.806 78.8174H105.928V81.0984H107.806C108.635 81.0984 109.096 80.6952 109.096 79.9349C109.096 79.2206 108.623 78.8174 107.806 78.8174ZM116.565 78.9557H113.432V82.4001H111.957V73.979H117.164V75.3384H113.432V77.6309H116.565V78.9557ZM118.493 82.4001V73.979H121.846C123.504 73.979 124.518 74.843 124.518 76.2485C124.518 77.1816 124.103 77.8497 123.309 78.1838C124.196 78.4718 124.645 79.14 124.645 80.1192C124.645 81.5592 123.643 82.4001 121.903 82.4001H118.493ZM121.719 75.2808H119.968V77.5733H121.753C122.56 77.5733 123.009 77.147 123.009 76.3982C123.009 75.6725 122.548 75.2808 121.719 75.2808ZM121.846 78.8174H119.968V81.0984H121.846C122.675 81.0984 123.136 80.6952 123.136 79.9349C123.136 79.2206 122.663 78.8174 121.846 78.8174ZM130.605 78.9557H127.472V82.4001H125.997V73.979H131.204V75.3384H127.472V77.6309H130.605V78.9557Z" fill="#A1A6A6"/>
</svg>
