<svg width="144" height="100" viewBox="0 0 144 100" fill="none" xmlns="http://www.w3.org/2000/svg">
<path d="M0.370117 11.52C0.370117 5.29576 5.41587 0.25 11.6401 0.25H131.64C137.864 0.25 142.91 5.29575 142.91 11.52V88.4C142.91 94.6242 137.864 99.67 131.64 99.67H11.6401C5.41587 99.67 0.370117 94.6243 0.370117 88.4V11.52Z" fill="white"/>
<path d="M0.370117 11.52C0.370117 5.29576 5.41587 0.25 11.6401 0.25H131.64C137.864 0.25 142.91 5.29575 142.91 11.52V88.4C142.91 94.6242 137.864 99.67 131.64 99.67H11.6401C5.41587 99.67 0.370117 94.6243 0.370117 88.4V11.52Z" stroke="#848C8B" stroke-width="0.5"/>
<rect x="11.6401" y="15.3601" width="120" height="48" rx="5.76" fill="#A1A6A6"/>
<path d="M18.6558 79.9588H17.6305V81.5601H16.2366V79.9588H11.9627V78.6685L15.7758 73.1389H17.6305V78.6685H18.6558V79.9588ZM13.5294 78.6685H16.2366V74.7287L13.5294 78.6685ZM19.583 77.3668C19.583 74.7517 20.9884 72.9777 23.1427 72.9777C25.2969 72.9777 26.7139 74.7517 26.7139 77.3668C26.7139 79.9703 25.3776 81.7098 23.1427 81.7098C20.9078 81.7098 19.583 79.9703 19.583 77.3668ZM21.0345 77.3668C21.0345 79.3137 21.8179 80.4081 23.1427 80.4081C24.479 80.4081 25.2624 79.3137 25.2624 77.3668C25.2624 75.3738 24.479 74.2794 23.1427 74.2794C21.8179 74.2794 21.0345 75.3738 21.0345 77.3668ZM27.7055 77.3668C27.7055 74.7517 29.1109 72.9777 31.2652 72.9777C33.4194 72.9777 34.8364 74.7517 34.8364 77.3668C34.8364 79.9703 33.5001 81.7098 31.2652 81.7098C29.0303 81.7098 27.7055 79.9703 27.7055 77.3668ZM29.157 77.3668C29.157 79.3137 29.9404 80.4081 31.2652 80.4081C32.6015 80.4081 33.3849 79.3137 33.3849 77.3668C33.3849 75.3738 32.6015 74.2794 31.2652 74.2794C29.9404 74.2794 29.157 75.3738 29.157 77.3668Z" fill="#0A0D0D"/>
<path d="M81.6962 78.0695H82.7906L83.0786 76.641H81.8114L82.0763 75.3277H83.332L83.7582 73.1389H85.1522L84.7259 75.3277H86.189L86.6152 73.1389H88.0091L87.5829 75.3277H88.7694L88.5045 76.641H87.3294L87.053 78.0695H88.3662L88.1013 79.3828H86.7995L86.3733 81.5601H84.9794L85.4056 79.3828H83.931L83.5048 81.5601H82.1109L82.5371 79.3828H81.4312L81.6962 78.0695ZM84.1845 78.0695H85.659L85.9355 76.641H84.4725L84.1845 78.0695ZM90.8978 81.5601H89.3656L92.4069 73.1389H93.916L96.9573 81.5601H95.4021L94.7224 79.6132H91.5774L90.8978 81.5601ZM92.9714 75.6503L92.0152 78.369H94.2962L93.3285 75.6503C93.2594 75.4314 93.1787 75.178 93.1557 75.0052C93.1211 75.1665 93.052 75.4199 92.9714 75.6503ZM99.315 74.4637H97.4718V73.1389H100.732V81.5601H99.315V74.4637ZM103.329 81.5601H101.797L104.838 73.1389H106.347L109.389 81.5601H107.833L107.154 79.6132H104.009L103.329 81.5601ZM105.403 75.6503L104.446 78.369H106.727L105.76 75.6503C105.691 75.4314 105.61 75.178 105.587 75.0052C105.552 75.1665 105.483 75.4199 105.403 75.6503ZM111.205 75.6157L113.025 73.1389H114.707L112.691 75.8231C112.898 75.7655 113.117 75.7309 113.325 75.7309C115.064 75.7309 116.239 76.9521 116.239 78.657C116.239 80.4541 114.903 81.7098 113.106 81.7098C111.285 81.7098 109.926 80.3735 109.926 78.6455C109.926 77.6317 110.26 76.8945 111.205 75.6157ZM111.435 78.657C111.435 79.6823 112.115 80.3965 113.106 80.3965C114.062 80.3965 114.753 79.6823 114.753 78.657C114.753 77.6433 114.073 76.9405 113.106 76.9405C112.103 76.9405 111.435 77.6433 111.435 78.657ZM118.314 81.5601H116.782L119.823 73.1389H121.332L124.374 81.5601H122.818L122.139 79.6132H118.994L118.314 81.5601ZM120.388 75.6503L119.431 78.369H121.712L120.745 75.6503C120.676 75.4314 120.595 75.178 120.572 75.0052C120.537 75.1665 120.468 75.4199 120.388 75.6503ZM126.19 75.6157L128.01 73.1389H129.692L127.676 75.8231C127.883 75.7655 128.102 75.7309 128.31 75.7309C130.049 75.7309 131.224 76.9521 131.224 78.657C131.224 80.4541 129.888 81.7098 128.091 81.7098C126.27 81.7098 124.911 80.3735 124.911 78.6455C124.911 77.6317 125.245 76.8945 126.19 75.6157ZM126.42 78.657C126.42 79.6823 127.1 80.3965 128.091 80.3965C129.047 80.3965 129.738 79.6823 129.738 78.657C129.738 77.6433 129.058 76.9405 128.091 76.9405C127.088 76.9405 126.42 77.6433 126.42 78.657Z" fill="#A1A6A6"/>
</svg>
