<svg width="144" height="100" viewBox="0 0 144 100" fill="none" xmlns="http://www.w3.org/2000/svg">
<path d="M0.330078 11.52C0.330078 5.29576 5.37583 0.25 11.6001 0.25H131.6C137.824 0.25 142.87 5.29575 142.87 11.52V88.4C142.87 94.6242 137.824 99.67 131.6 99.67H11.6001C5.37583 99.67 0.330078 94.6243 0.330078 88.4V11.52Z" fill="white"/>
<path d="M0.330078 11.52C0.330078 5.29576 5.37583 0.25 11.6001 0.25H131.6C137.824 0.25 142.87 5.29575 142.87 11.52V88.4C142.87 94.6242 137.824 99.67 131.6 99.67H11.6001C5.37583 99.67 0.330078 94.6243 0.330078 88.4V11.52Z" stroke="#848C8B" stroke-width="0.5"/>
<rect x="11.6001" y="15.3601" width="120" height="48" rx="5.76" fill="#BBBFBF"/>
<path d="M14.5838 77.3898H13.5585V76.4337L15.7243 74.4407H12.2222V73.1389H17.5675V74.314L15.5169 76.2033C16.8071 76.4567 17.8094 77.4013 17.8094 78.8874C17.8094 80.6154 16.4615 81.7098 14.7566 81.7098C13.1092 81.7098 11.8305 80.6961 11.8305 78.8759H13.282C13.282 79.8436 13.8811 80.3965 14.7796 80.3965C15.7012 80.3965 16.3118 79.7975 16.3118 78.8644C16.3118 78.0119 15.7588 77.3898 14.5838 77.3898ZM18.6542 77.3668C18.6542 74.7517 20.0596 72.9777 22.2139 72.9777C24.3681 72.9777 25.7851 74.7517 25.7851 77.3668C25.7851 79.9703 24.4488 81.7098 22.2139 81.7098C19.979 81.7098 18.6542 79.9703 18.6542 77.3668ZM20.1057 77.3668C20.1057 79.3137 20.8891 80.4081 22.2139 80.4081C23.5502 80.4081 24.3336 79.3137 24.3336 77.3668C24.3336 75.3738 23.5502 74.2794 22.2139 74.2794C20.8891 74.2794 20.1057 75.3738 20.1057 77.3668ZM26.7767 77.3668C26.7767 74.7517 28.1821 72.9777 30.3364 72.9777C32.4906 72.9777 33.9076 74.7517 33.9076 77.3668C33.9076 79.9703 32.5713 81.7098 30.3364 81.7098C28.1015 81.7098 26.7767 79.9703 26.7767 77.3668ZM28.2282 77.3668C28.2282 79.3137 29.0116 80.4081 30.3364 80.4081C31.6727 80.4081 32.4561 79.3137 32.4561 77.3668C32.4561 75.3738 31.6727 74.2794 30.3364 74.2794C29.0116 74.2794 28.2282 75.3738 28.2282 77.3668Z" fill="#0A0D0D"/>
<path d="M80.9699 78.0695H82.0643L82.3523 76.641H81.0851L81.35 75.3277H82.6057L83.032 73.1389H84.4259L83.9996 75.3277H85.4627L85.8889 73.1389H87.2828L86.8566 75.3277H88.0432L87.7782 76.641H86.6032L86.3267 78.0695H87.64L87.375 79.3828H86.0732L85.647 81.5601H84.2531L84.6793 79.3828H83.2048L82.7785 81.5601H81.3846L81.8108 79.3828H80.7049L80.9699 78.0695ZM83.4582 78.0695H84.9328L85.2092 76.641H83.7462L83.4582 78.0695ZM89.4457 81.5601V73.1389H92.798C94.4569 73.1389 95.4707 74.0029 95.4707 75.4084C95.4707 76.3415 95.056 77.0097 94.2611 77.3437C95.1481 77.6317 95.5974 78.2999 95.5974 79.2791C95.5974 80.7191 94.5952 81.5601 92.8556 81.5601H89.4457ZM92.6713 74.4407H90.9203V76.7332H92.7059C93.5123 76.7332 93.9616 76.3069 93.9616 75.5581C93.9616 74.8324 93.5008 74.4407 92.6713 74.4407ZM92.798 77.9773H90.9203V80.2583H92.798C93.6275 80.2583 94.0883 79.8551 94.0883 79.0948C94.0883 78.3805 93.616 77.9773 92.798 77.9773ZM96.9495 81.5601V73.1389H100.302C101.961 73.1389 102.974 74.0029 102.974 75.4084C102.974 76.3415 102.56 77.0097 101.765 77.3437C102.652 77.6317 103.101 78.2999 103.101 79.2791C103.101 80.7191 102.099 81.5601 100.359 81.5601H96.9495ZM100.175 74.4407H98.424V76.7332H100.21C101.016 76.7332 101.465 76.3069 101.465 75.5581C101.465 74.8324 101.005 74.4407 100.175 74.4407ZM100.302 77.9773H98.424V80.2583H100.302C101.131 80.2583 101.592 79.8551 101.592 79.0948C101.592 78.3805 101.12 77.9773 100.302 77.9773ZM104.453 81.5601V73.1389H107.806C109.464 73.1389 110.478 74.0029 110.478 75.4084C110.478 76.3415 110.063 77.0097 109.269 77.3437C110.156 77.6317 110.605 78.2999 110.605 79.2791C110.605 80.7191 109.603 81.5601 107.863 81.5601H104.453ZM107.679 74.4407H105.928V76.7332H107.713C108.52 76.7332 108.969 76.3069 108.969 75.5581C108.969 74.8324 108.508 74.4407 107.679 74.4407ZM107.806 77.9773H105.928V80.2583H107.806C108.635 80.2583 109.096 79.8551 109.096 79.0948C109.096 78.3805 108.623 77.9773 107.806 77.9773ZM116.565 78.1156H113.432V81.5601H111.957V73.1389H117.164V74.4983H113.432V76.7908H116.565V78.1156ZM118.493 81.5601V73.1389H121.846C123.504 73.1389 124.518 74.0029 124.518 75.4084C124.518 76.3415 124.103 77.0097 123.309 77.3437C124.196 77.6317 124.645 78.2999 124.645 79.2791C124.645 80.7191 123.643 81.5601 121.903 81.5601H118.493ZM121.719 74.4407H119.968V76.7332H121.753C122.56 76.7332 123.009 76.3069 123.009 75.5581C123.009 74.8324 122.548 74.4407 121.719 74.4407ZM121.846 77.9773H119.968V80.2583H121.846C122.675 80.2583 123.136 79.8551 123.136 79.0948C123.136 78.3805 122.663 77.9773 121.846 77.9773ZM130.605 78.1156H127.472V81.5601H125.997V73.1389H131.204V74.4983H127.472V76.7908H130.605V78.1156Z" fill="#A1A6A6"/>
</svg>
