<svg width="144" height="100" viewBox="0 0 144 100" fill="none" xmlns="http://www.w3.org/2000/svg">
<path d="M0.290039 11.52C0.290039 5.29576 5.33579 0.25 11.56 0.25H131.56C137.784 0.25 142.83 5.29575 142.83 11.52V88.4C142.83 94.6242 137.784 99.67 131.56 99.67H11.56C5.33579 99.67 0.290039 94.6243 0.290039 88.4V11.52Z" fill="white"/>
<path d="M0.290039 11.52C0.290039 5.29576 5.33579 0.25 11.56 0.25H131.56C137.784 0.25 142.83 5.29575 142.83 11.52V88.4C142.83 94.6242 137.784 99.67 131.56 99.67H11.56C5.33579 99.67 0.290039 94.6243 0.290039 88.4V11.52Z" stroke="#848C8B" stroke-width="0.5"/>
<rect x="11.5601" y="15.3601" width="120" height="48" rx="5.76" fill="#D4D9D9"/>
<path d="M17.9306 81.5485L12.09 81.5601V80.4541L14.8433 78.1271C15.9837 77.1594 16.3639 76.6065 16.3639 75.8001C16.3639 74.8439 15.8455 74.3025 14.9585 74.3025C14.0369 74.3025 13.4609 74.9476 13.4493 76.0305H11.9863C11.9978 74.1873 13.1729 72.9892 14.9585 72.9892C16.7556 72.9892 17.873 74.0145 17.873 75.7194C17.873 76.8945 17.2279 77.7815 15.9492 78.8759L14.4285 80.1777H17.9306V81.5485ZM18.8392 77.3668C18.8392 74.7517 20.2446 72.9777 22.3988 72.9777C24.5531 72.9777 25.97 74.7517 25.97 77.3668C25.97 79.9703 24.6337 81.7098 22.3988 81.7098C20.164 81.7098 18.8392 79.9703 18.8392 77.3668ZM20.2907 77.3668C20.2907 79.3137 21.074 80.4081 22.3988 80.4081C23.7352 80.4081 24.5185 79.3137 24.5185 77.3668C24.5185 75.3738 23.7352 74.2794 22.3988 74.2794C21.074 74.2794 20.2907 75.3738 20.2907 77.3668ZM26.9617 77.3668C26.9617 74.7517 28.3671 72.9777 30.5213 72.9777C32.6756 72.9777 34.0925 74.7517 34.0925 77.3668C34.0925 79.9703 32.7562 81.7098 30.5213 81.7098C28.2865 81.7098 26.9617 79.9703 26.9617 77.3668ZM28.4132 77.3668C28.4132 79.3137 29.1965 80.4081 30.5213 80.4081C31.8577 80.4081 32.641 79.3137 32.641 77.3668C32.641 75.3738 31.8577 74.2794 30.5213 74.2794C29.1965 74.2794 28.4132 75.3738 28.4132 77.3668Z" fill="#0A0D0D"/>
<path d="M76.6998 78.0695H77.7942L78.0822 76.641H76.815L77.08 75.3277H78.3357L78.7619 73.1389H80.1558L79.7296 75.3277H81.1926L81.6189 73.1389H83.0128L82.5866 75.3277H83.7731L83.5082 76.641H82.3331L82.0566 78.0695H83.3699L83.105 79.3828H81.8032L81.377 81.5601H79.983L80.4093 79.3828H78.9347L78.5085 81.5601H77.1146L77.5408 79.3828H76.4349L76.6998 78.0695ZM79.1882 78.0695H80.6627L80.9392 76.641H79.4762L79.1882 78.0695ZM88.2054 81.5601H85.1757V73.1389H88.1248C90.6131 73.1389 92.3296 74.8554 92.3296 77.3668C92.3296 79.8436 90.6477 81.5601 88.2054 81.5601ZM87.9866 74.4983H86.6502V80.2007H88.0672C89.7491 80.2007 90.7744 79.1178 90.7744 77.3668C90.7744 75.5812 89.7261 74.4983 87.9866 74.4983ZM99.7857 79.9588H98.7605V81.5601H97.3665V79.9588H93.0926V78.6685L96.9057 73.1389H98.7605V78.6685H99.7857V79.9588ZM94.6593 78.6685H97.3665V74.7287L94.6593 78.6685ZM104.18 81.5601H101.151V73.1389H104.1C106.588 73.1389 108.305 74.8554 108.305 77.3668C108.305 79.8436 106.623 81.5601 104.18 81.5601ZM103.962 74.4983H102.625V80.2007H104.042C105.724 80.2007 106.749 79.1178 106.749 77.3668C106.749 75.5812 105.701 74.4983 103.962 74.4983ZM114.194 79.0833L112.374 81.5601H110.692L112.708 78.8759C112.501 78.9335 112.282 78.9681 112.074 78.9681C110.335 78.9681 109.16 77.7469 109.16 76.042C109.16 74.2449 110.496 72.9892 112.293 72.9892C114.113 72.9892 115.473 74.3255 115.473 76.0535C115.473 77.0673 115.139 77.8045 114.194 79.0833ZM113.964 76.042C113.964 75.0167 113.284 74.3025 112.293 74.3025C111.326 74.3025 110.646 75.0167 110.646 76.042C110.646 77.0557 111.326 77.7585 112.293 77.7585C113.295 77.7585 113.964 77.0557 113.964 76.042ZM119.852 81.5601H116.822V73.1389H119.771C122.259 73.1389 123.976 74.8554 123.976 77.3668C123.976 79.8436 122.294 81.5601 119.852 81.5601ZM119.633 74.4983H118.296V80.2007H119.713C121.395 80.2007 122.421 79.1178 122.421 77.3668C122.421 75.5812 121.372 74.4983 119.633 74.4983ZM129.865 79.0833L128.045 81.5601H126.363L128.379 78.8759C128.172 78.9335 127.953 78.9681 127.746 78.9681C126.006 78.9681 124.831 77.7469 124.831 76.042C124.831 74.2449 126.167 72.9892 127.964 72.9892C129.785 72.9892 131.144 74.3255 131.144 76.0535C131.144 77.0673 130.81 77.8045 129.865 79.0833ZM129.635 76.042C129.635 75.0167 128.955 74.3025 127.964 74.3025C126.997 74.3025 126.317 75.0167 126.317 76.042C126.317 77.0557 126.997 77.7585 127.964 77.7585C128.967 77.7585 129.635 77.0557 129.635 76.042Z" fill="#A1A6A6"/>
</svg>
