<svg width="20" height="21" viewBox="0 0 20 21" fill="none" xmlns="http://www.w3.org/2000/svg">
<path fill-rule="evenodd" clip-rule="evenodd" d="M3.33341 10.5199C3.33341 6.83796 6.31818 3.85319 10.0001 3.85319C13.682 3.85319 16.6667 6.83796 16.6667 10.5199C16.6667 14.2018 13.682 17.1865 10.0001 17.1865C6.31818 17.1865 3.33341 14.2018 3.33341 10.5199ZM10.0001 2.18652C5.39771 2.18652 1.66675 5.91748 1.66675 10.5199C1.66675 15.1222 5.39771 18.8532 10.0001 18.8532C14.6024 18.8532 18.3334 15.1222 18.3334 10.5199C18.3334 5.91748 14.6024 2.18652 10.0001 2.18652ZM6.69162 13.2219C6.56185 12.7029 6.97177 12.1867 7.50008 12.1864H12.5001C13.0277 12.1867 13.4382 12.7009 13.3085 13.2199C12.8771 14.6766 11.4878 15.5199 10.0001 15.5199C8.5695 15.5199 7.05746 14.6854 6.69162 13.2219ZM7.05524 8.40949C6.98931 8.03555 6.19606 7.21556 5.55537 7.32854C4.78623 7.46416 4.44276 8.12391 4.57019 8.84661C4.68608 9.50386 5.18727 10.0441 5.72846 10.4616C6.27733 10.885 6.91815 11.2204 7.39556 11.4552C7.52223 11.5175 7.67942 11.4898 7.77716 11.3879C8.14546 11.004 8.63291 10.4697 9.00391 9.88411C9.36966 9.30669 9.65583 8.62755 9.53991 7.97031C9.4125 7.24761 8.86091 6.74567 8.09181 6.8813C7.45169 6.99416 6.99228 8.05241 7.05524 8.40949ZM11.9052 6.88076C12.5458 6.99372 13.0108 8.03556 12.9449 8.4095C13.0078 8.05243 13.8015 7.21512 14.4416 7.328C15.2107 7.46361 15.5573 8.12391 15.4299 8.84662C15.314 9.50386 14.8128 10.0442 14.2717 10.4616C13.7227 10.885 13.082 11.2204 12.6046 11.4552C12.4779 11.5175 12.3207 11.4898 12.223 11.3879C11.8547 11.004 11.3672 10.4697 10.9962 9.88411C10.6305 9.30669 10.3443 8.62756 10.4602 7.97032C10.5876 7.24761 11.136 6.74513 11.9052 6.88076Z" fill="white"/>
</svg>
