<svg width="363" height="16" viewBox="0 0 363 16" fill="none" xmlns="http://www.w3.org/2000/svg">
<path d="M1.666 11.734C1.554 11.734 1.40467 11.622 1.218 11.398C1.04067 11.174 0.952 10.9687 0.952 10.782C0.952 10.5953 1.22733 9.29333 1.778 6.876C2.338 4.44933 2.62267 2.94667 2.632 2.368C2.632 2.20933 2.65067 2.102 2.688 2.046C2.73467 1.98067 2.82333 1.948 2.954 1.948C3.094 1.948 3.27133 2.09267 3.486 2.382C3.71 2.67133 3.822 2.984 3.822 3.32C3.822 3.64667 3.486 5.17733 2.814 7.912C2.74867 8.164 2.66 8.528 2.548 9.004C2.436 9.47067 2.34733 9.83 2.282 10.082C2.21667 10.334 2.14667 10.6093 2.072 10.908C1.91333 11.4587 1.778 11.734 1.666 11.734ZM14.1111 4.846C14.5311 4.846 14.9185 5.06067 15.2731 5.49C15.6278 5.91 15.8051 6.29267 15.8051 6.638C15.8051 6.974 15.6885 7.31933 15.4551 7.674C15.5671 7.814 15.6231 7.93533 15.6231 8.038C15.6231 8.29933 15.5625 8.74733 15.4411 9.382C15.3291 10.0167 15.2591 10.432 15.2311 10.628C15.2125 10.824 15.1938 10.9827 15.1751 11.104C15.1565 11.216 15.1331 11.328 15.1051 11.44C15.0678 11.6733 14.9838 11.79 14.8531 11.79C14.6851 11.79 14.5451 11.6453 14.4331 11.356C14.3305 11.0573 14.2698 10.6747 14.2511 10.208C13.4205 11.2627 12.6505 11.79 11.9411 11.79C11.5118 11.79 11.0871 11.608 10.6671 11.244C10.2565 10.8707 10.0511 10.488 10.0511 10.096C10.0511 9.536 10.2565 8.84533 10.6671 8.024C11.0778 7.19333 11.6098 6.456 12.2631 5.812C12.9165 5.168 13.5325 4.846 14.1111 4.846ZM14.7551 7.31C14.7551 6.442 14.5825 6.008 14.2371 6.008C13.8731 6.008 13.4485 6.26933 12.9631 6.792C12.4778 7.30533 12.0671 7.88867 11.7311 8.542C11.3951 9.19533 11.2271 9.71333 11.2271 10.096C11.2271 10.2547 11.2925 10.3853 11.4231 10.488C11.5538 10.5813 11.7078 10.628 11.8851 10.628C12.3238 10.628 12.8185 10.334 13.3691 9.746C13.9198 9.14867 14.3025 8.42533 14.5171 7.576C14.5451 7.436 14.6245 7.352 14.7551 7.324V7.31ZM19.7076 2.102C19.7076 3.85667 19.3436 6.134 18.6156 8.934C18.149 10.838 17.8223 11.79 17.6356 11.79C17.505 11.79 17.351 11.6873 17.1736 11.482C17.0056 11.2767 16.9216 11.118 16.9216 11.006C16.9216 10.894 17.057 10.3153 17.3276 9.27C17.5983 8.22467 17.869 6.94133 18.1396 5.42C18.4103 3.88933 18.5456 2.51267 18.5456 1.29C18.5456 1.15933 18.5643 1.066 18.6016 1.01C18.639 0.954 18.7183 0.926 18.8396 0.926C18.961 0.926 19.1336 1.06133 19.3576 1.332C19.591 1.59333 19.7076 1.85 19.7076 2.102ZM24.3853 4.846C24.7026 4.846 25.0013 5.02333 25.2813 5.378C25.5613 5.72333 25.7013 6.02667 25.7013 6.288C25.7013 6.44667 25.6266 6.526 25.4773 6.526C25.3746 6.526 25.2159 6.44667 25.0013 6.288C24.7866 6.12 24.5673 6.036 24.3433 6.036C24.1193 6.036 23.7646 6.16667 23.2793 6.428C22.8033 6.68933 22.5653 6.96467 22.5653 7.254C22.5653 7.46867 22.9946 7.83733 23.8533 8.36C24.1799 8.56533 24.4739 8.83133 24.7353 9.158C25.0059 9.47533 25.1413 9.82067 25.1413 10.194C25.1413 10.558 24.8846 10.9173 24.3713 11.272C23.8673 11.6173 23.2746 11.79 22.5933 11.79C21.9213 11.79 21.3239 11.6267 20.8013 11.3C20.2879 10.9733 20.0313 10.6653 20.0313 10.376C20.0313 10.2547 20.0593 10.1613 20.1153 10.096C20.1806 10.0213 20.2599 9.984 20.3533 9.984C20.4466 9.984 20.5773 10.0447 20.7453 10.166C21.2493 10.53 21.7719 10.712 22.3133 10.712C22.8639 10.712 23.2606 10.6513 23.5033 10.53C23.7459 10.3993 23.8673 10.2313 23.8673 10.026C23.8673 9.81133 23.7319 9.58733 23.4613 9.354C23.1906 9.11133 22.8919 8.89667 22.5653 8.71C22.2479 8.52333 21.9539 8.29467 21.6833 8.024C21.4126 7.75333 21.2773 7.478 21.2773 7.198C21.2773 6.70333 21.6646 6.19 22.4393 5.658C23.2233 5.11667 23.8719 4.846 24.3853 4.846ZM30.5702 7.226C30.5702 6.90867 30.5189 6.61 30.4162 6.33C30.3135 6.04067 30.1642 5.83067 29.9682 5.7C29.3242 5.87733 28.7689 6.37667 28.3022 7.198C27.8449 8.01 27.6162 8.77533 27.6162 9.494C27.6162 10.2127 27.7935 10.6607 28.1482 10.838C28.8202 10.7073 29.3895 10.25 29.8562 9.466C30.3322 8.67267 30.5702 7.926 30.5702 7.226ZM26.8882 7.352C27.2149 6.624 27.6395 6.02667 28.1622 5.56C28.6942 5.084 29.2355 4.846 29.7862 4.846C30.3462 4.846 30.8129 5.084 31.1862 5.56C31.5595 6.02667 31.7462 6.60067 31.7462 7.282C31.7462 7.954 31.5829 8.64467 31.2562 9.354C30.9295 10.054 30.4769 10.6373 29.8982 11.104C29.3289 11.5613 28.7222 11.79 28.0782 11.79C27.6022 11.79 27.2055 11.5707 26.8882 11.132C26.5709 10.6933 26.4122 10.138 26.4122 9.466C26.4122 8.78467 26.5709 8.08 26.8882 7.352ZM42.3091 4.846C42.6264 4.846 42.9251 5.02333 43.2051 5.378C43.4851 5.72333 43.6251 6.02667 43.6251 6.288C43.6251 6.44667 43.5504 6.526 43.4011 6.526C43.2984 6.526 43.1398 6.44667 42.9251 6.288C42.7104 6.12 42.4911 6.036 42.2671 6.036C42.0431 6.036 41.6884 6.16667 41.2031 6.428C40.7271 6.68933 40.4891 6.96467 40.4891 7.254C40.4891 7.46867 40.9184 7.83733 41.7771 8.36C42.1038 8.56533 42.3978 8.83133 42.6591 9.158C42.9298 9.47533 43.0651 9.82067 43.0651 10.194C43.0651 10.558 42.8084 10.9173 42.2951 11.272C41.7911 11.6173 41.1984 11.79 40.5171 11.79C39.8451 11.79 39.2478 11.6267 38.7251 11.3C38.2118 10.9733 37.9551 10.6653 37.9551 10.376C37.9551 10.2547 37.9831 10.1613 38.0391 10.096C38.1044 10.0213 38.1838 9.984 38.2771 9.984C38.3704 9.984 38.5011 10.0447 38.6691 10.166C39.1731 10.53 39.6958 10.712 40.2371 10.712C40.7878 10.712 41.1844 10.6513 41.4271 10.53C41.6698 10.3993 41.7911 10.2313 41.7911 10.026C41.7911 9.81133 41.6558 9.58733 41.3851 9.354C41.1144 9.11133 40.8158 8.89667 40.4891 8.71C40.1718 8.52333 39.8778 8.29467 39.6071 8.024C39.3364 7.75333 39.2011 7.478 39.2011 7.198C39.2011 6.70333 39.5884 6.19 40.3631 5.658C41.1471 5.11667 41.7958 4.846 42.3091 4.846ZM45.834 10.39C45.834 10.5673 45.9367 10.656 46.142 10.656C46.4967 10.656 46.926 10.558 47.43 10.362C47.9434 10.1567 48.228 10.054 48.284 10.054C48.452 10.054 48.536 10.1427 48.536 10.32C48.536 10.5907 48.256 10.9033 47.696 11.258C47.1454 11.6127 46.6414 11.79 46.184 11.79C45.736 11.79 45.3627 11.6687 45.064 11.426C44.7654 11.174 44.616 10.9173 44.616 10.656C44.616 10.3947 44.672 10.0633 44.784 9.662C44.896 9.25133 45.0547 8.71467 45.26 8.052C45.4747 7.38 45.6427 6.82467 45.764 6.386C45.3254 6.48867 45.0314 6.54 44.882 6.54C44.7327 6.54 44.5834 6.46533 44.434 6.316C44.294 6.15733 44.224 6.008 44.224 5.868C44.224 5.644 44.8307 5.42933 46.044 5.224C46.212 4.44933 46.296 3.76333 46.296 3.166C46.296 2.886 46.3894 2.746 46.576 2.746C46.7347 2.746 46.9307 2.84867 47.164 3.054C47.3974 3.25 47.514 3.474 47.514 3.726C47.514 3.978 47.4347 4.42133 47.276 5.056C47.808 5.00933 48.2327 4.986 48.55 4.986C49.11 4.986 49.39 5.10733 49.39 5.35C49.39 5.49 49.236 5.60667 48.928 5.7C48.6294 5.79333 47.9947 5.938 47.024 6.134C46.828 6.87133 46.5807 7.716 46.282 8.668C45.9834 9.61067 45.834 10.1847 45.834 10.39ZM54.6361 5.238C54.6734 5.08867 54.7108 4.986 54.7481 4.93C54.7854 4.874 54.8648 4.846 54.9861 4.846C55.1168 4.846 55.2708 4.96733 55.4481 5.21C55.6348 5.45267 55.7281 5.686 55.7281 5.91C55.7281 6.03133 55.5228 6.75 55.1121 8.066C54.7014 9.382 54.3841 10.4273 54.1601 11.202C54.0481 11.594 53.8894 11.79 53.6841 11.79C53.5628 11.79 53.4601 11.7387 53.3761 11.636C53.2921 11.5333 53.2501 11.3467 53.2501 11.076C53.2501 10.8053 53.3574 10.3153 53.5721 9.606C53.1801 10.2407 52.7554 10.7633 52.2981 11.174C51.8408 11.5847 51.4208 11.79 51.0381 11.79C50.6648 11.79 50.3101 11.6127 49.9741 11.258C49.6381 10.9033 49.4701 10.5393 49.4701 10.166C49.4701 9.27933 49.7268 8.17333 50.2401 6.848C50.7628 5.51333 51.1968 4.846 51.5421 4.846C51.7101 4.846 51.8548 4.92533 51.9761 5.084C52.1068 5.23333 52.1721 5.406 52.1721 5.602C52.1721 5.686 52.0461 5.98933 51.7941 6.512C51.5421 7.02533 51.2901 7.632 51.0381 8.332C50.7861 9.02267 50.6601 9.62933 50.6601 10.152C50.6601 10.3013 50.7068 10.4273 50.8001 10.53C50.8934 10.6233 51.0054 10.67 51.1361 10.67C51.4908 10.67 51.9108 10.3573 52.3961 9.732C52.8908 9.10667 53.3388 8.37867 53.7401 7.548C54.1414 6.71733 54.4401 5.94733 54.6361 5.238ZM62.4123 0.926C62.5617 0.926 62.7437 1.066 62.9583 1.346C63.1823 1.61667 63.2943 1.87333 63.2943 2.116C63.2943 2.35867 63.1777 3.04933 62.9443 4.188C62.711 5.31733 62.4403 6.48867 62.1323 7.702C61.4603 10.4273 61.017 11.79 60.8023 11.79C60.6717 11.79 60.527 11.7107 60.3683 11.552C60.219 11.384 60.1443 11.2393 60.1443 11.118C60.1443 10.9967 60.177 10.754 60.2423 10.39C59.3277 11.3233 58.5297 11.79 57.8483 11.79C57.4377 11.79 57.0643 11.6033 56.7283 11.23C56.4017 10.8567 56.2383 10.4693 56.2383 10.068C56.2383 9.48933 56.3923 8.80333 56.7003 8.01C57.0177 7.20733 57.4703 6.47933 58.0583 5.826C58.6463 5.17267 59.2717 4.846 59.9343 4.846C60.597 4.846 61.059 5.24267 61.3203 6.036C61.7963 4.05733 62.0577 2.494 62.1043 1.346C62.1043 1.066 62.207 0.926 62.4123 0.926ZM60.8723 7.8C60.8723 7.296 60.7837 6.87133 60.6063 6.526C60.4383 6.18067 60.233 6.008 59.9903 6.008C59.589 6.008 59.1783 6.25533 58.7583 6.75C58.3383 7.24467 58.0023 7.814 57.7503 8.458C57.5077 9.09267 57.3863 9.64333 57.3863 10.11C57.3863 10.278 57.447 10.4133 57.5683 10.516C57.6897 10.6187 57.8343 10.67 58.0023 10.67C58.3663 10.67 58.8563 10.4087 59.4723 9.886C60.0977 9.36333 60.5503 8.74733 60.8303 8.038L60.8723 7.87V7.8ZM68.8807 4.846C69.03 4.846 69.1887 4.958 69.3567 5.182C69.534 5.39667 69.6227 5.63933 69.6227 5.91C69.6227 6.09667 69.4313 6.73133 69.0487 7.814C68.666 8.89667 68.4047 9.634 68.2647 10.026C68.134 10.4087 67.952 10.922 67.7187 11.566C67.4947 12.2007 67.2753 12.8213 67.0607 13.428C66.594 14.7627 65.894 15.43 64.9607 15.43C64.4287 15.43 63.92 15.2667 63.4347 14.94C62.9493 14.6227 62.7067 14.2913 62.7067 13.946C62.7067 13.8153 62.7673 13.6707 62.8887 13.512C63.0007 13.3533 63.0987 13.274 63.1827 13.274C63.2667 13.274 63.402 13.3767 63.5887 13.582C64.13 14.198 64.592 14.506 64.9747 14.506C65.264 14.506 65.5253 14.2493 65.7587 13.736C65.992 13.232 66.2113 12.658 66.4167 12.014C66.6313 11.3793 66.748 11.0293 66.7667 10.964C66.7947 10.8987 66.8227 10.8147 66.8507 10.712C66.888 10.6093 66.9207 10.516 66.9487 10.432C66.286 11.3373 65.6327 11.79 64.9887 11.79C64.5967 11.79 64.2327 11.608 63.8967 11.244C63.57 10.88 63.4067 10.4507 63.4067 9.956C63.4067 9.46133 63.528 8.794 63.7707 7.954C64.0133 7.114 64.298 6.386 64.6247 5.77C64.9513 5.154 65.2173 4.846 65.4227 4.846C65.5907 4.846 65.7447 4.92533 65.8847 5.084C66.034 5.23333 66.1087 5.38733 66.1087 5.546C66.1087 5.70467 65.9873 6.036 65.7447 6.54C64.9887 8.08933 64.6107 9.29333 64.6107 10.152C64.6107 10.3013 64.6573 10.4273 64.7507 10.53C64.844 10.6233 64.956 10.67 65.0867 10.67C65.4227 10.67 65.824 10.3713 66.2907 9.774C66.7573 9.17667 67.1867 8.46733 67.5787 7.646C67.9053 6.95533 68.246 6.07333 68.6007 5C68.638 4.89733 68.7313 4.846 68.8807 4.846ZM77.3803 2.858C77.3803 2.67133 77.455 2.494 77.6043 2.326C77.7536 2.158 77.903 2.074 78.0523 2.074C78.211 2.074 78.3976 2.26533 78.6123 2.648C78.827 3.02133 78.9343 3.334 78.9343 3.586C78.9343 3.67933 78.8923 3.76333 78.8083 3.838C78.7243 3.91267 78.6356 3.95 78.5423 3.95C78.3183 3.95 78.0663 3.81467 77.7863 3.544C77.5156 3.27333 77.3803 3.04467 77.3803 2.858ZM77.3103 4.846C77.4876 4.846 77.6556 4.95333 77.8143 5.168C77.973 5.38267 78.0523 5.59267 78.0523 5.798C78.0523 6.00333 77.917 6.61933 77.6463 7.646C77.3756 8.66333 77.035 9.80667 76.6243 11.076C76.4656 11.5427 76.265 11.776 76.0223 11.776C75.8916 11.776 75.7796 11.7247 75.6863 11.622C75.593 11.51 75.5463 11.3887 75.5463 11.258C75.5463 11.118 75.579 10.9033 75.6443 10.614C75.719 10.3153 75.8216 9.92333 75.9523 9.438C76.0923 8.94333 76.1996 8.542 76.2743 8.234C76.3583 7.926 76.4423 7.58067 76.5263 7.198C76.6103 6.806 76.6756 6.49333 76.7223 6.26C76.7783 6.01733 76.839 5.77467 76.9043 5.532C77.035 5.07467 77.1703 4.846 77.3103 4.846ZM80.2962 9.354C81.1922 7.83267 81.9202 6.70333 82.4802 5.966C83.0496 5.21933 83.5116 4.846 83.8662 4.846C84.2302 4.846 84.5709 5.03733 84.8882 5.42C85.2149 5.80267 85.3782 6.20867 85.3782 6.638C85.3782 7.31 85.2242 8.13133 84.9162 9.102C84.3562 10.894 83.8522 11.79 83.4042 11.79C83.1989 11.79 83.0962 11.65 83.0962 11.37C83.0962 11.174 83.1942 10.7773 83.3902 10.18C83.5956 9.57333 83.7822 8.98067 83.9502 8.402C84.1276 7.814 84.2162 7.37533 84.2162 7.086C84.2162 6.78733 84.1696 6.568 84.0762 6.428C83.9922 6.288 83.9036 6.218 83.8102 6.218C83.7262 6.218 83.6376 6.246 83.5442 6.302C83.4509 6.358 83.3436 6.45133 83.2222 6.582C83.1102 6.71267 83.0029 6.84333 82.9002 6.974C82.7976 7.09533 82.6669 7.27267 82.5082 7.506C82.3589 7.73933 82.2329 7.94 82.1302 8.108C82.0276 8.26667 81.8782 8.5 81.6822 8.808C81.4862 9.116 81.3369 9.34933 81.2342 9.508C81.1316 9.66667 80.9962 9.88133 80.8282 10.152C80.6602 10.4227 80.5249 10.6327 80.4222 10.782C80.3289 10.9313 80.2216 11.0947 80.1002 11.272C79.8669 11.6173 79.6802 11.79 79.5402 11.79C79.4096 11.79 79.2556 11.6873 79.0782 11.482C78.9009 11.2673 78.8122 11.0807 78.8122 10.922C78.8122 10.8753 78.8449 10.7493 78.9102 10.544C79.0876 10.0027 79.2836 9.33533 79.4982 8.542C79.7129 7.73933 79.8296 6.82933 79.8482 5.812C79.8762 5.13067 79.9742 4.79 80.1422 4.79C80.3476 4.79 80.5529 4.89733 80.7582 5.112C80.9636 5.32667 81.0662 5.56467 81.0662 5.826C81.0662 6.078 80.9869 6.57267 80.8282 7.31C80.6789 8.038 80.5016 8.71933 80.2962 9.354ZM87.9571 10.39C87.9571 10.5673 88.0597 10.656 88.2651 10.656C88.6197 10.656 89.0491 10.558 89.5531 10.362C90.0664 10.1567 90.3511 10.054 90.4071 10.054C90.5751 10.054 90.6591 10.1427 90.6591 10.32C90.6591 10.5907 90.3791 10.9033 89.8191 11.258C89.2684 11.6127 88.7644 11.79 88.3071 11.79C87.8591 11.79 87.4857 11.6687 87.1871 11.426C86.8884 11.174 86.7391 10.9173 86.7391 10.656C86.7391 10.3947 86.7951 10.0633 86.9071 9.662C87.0191 9.25133 87.1777 8.71467 87.3831 8.052C87.5977 7.38 87.7657 6.82467 87.8871 6.386C87.4484 6.48867 87.1544 6.54 87.0051 6.54C86.8557 6.54 86.7064 6.46533 86.5571 6.316C86.4171 6.15733 86.3471 6.008 86.3471 5.868C86.3471 5.644 86.9537 5.42933 88.1671 5.224C88.3351 4.44933 88.4191 3.76333 88.4191 3.166C88.4191 2.886 88.5124 2.746 88.6991 2.746C88.8577 2.746 89.0537 2.84867 89.2871 3.054C89.5204 3.25 89.6371 3.474 89.6371 3.726C89.6371 3.978 89.5577 4.42133 89.3991 5.056C89.9311 5.00933 90.3557 4.986 90.6731 4.986C91.2331 4.986 91.5131 5.10733 91.5131 5.35C91.5131 5.49 91.3591 5.60667 91.0511 5.7C90.7524 5.79333 90.1177 5.938 89.1471 6.134C88.9511 6.87133 88.7037 7.716 88.4051 8.668C88.1064 9.61067 87.9571 10.1847 87.9571 10.39ZM97.3891 7.17C97.3891 7.66467 97.1185 8.07067 96.5771 8.388C96.0451 8.696 95.4385 8.85 94.7571 8.85C94.0851 8.85 93.4738 8.77533 92.9231 8.626C92.7925 9.03667 92.7271 9.40533 92.7271 9.732C92.7271 10.0493 92.8251 10.2967 93.0211 10.474C93.2265 10.6513 93.5578 10.74 94.0151 10.74C94.4818 10.74 94.9578 10.6607 95.4431 10.502C95.9378 10.334 96.2085 10.25 96.2551 10.25C96.4978 10.25 96.6191 10.3433 96.6191 10.53C96.6191 10.782 96.3345 11.0573 95.7651 11.356C95.1958 11.6453 94.6405 11.79 94.0991 11.79C93.3711 11.79 92.7785 11.5753 92.3211 11.146C91.8638 10.7073 91.6351 10.1567 91.6351 9.494C91.6351 8.83133 91.8125 8.14067 92.1671 7.422C92.5218 6.694 92.9791 6.08267 93.5391 5.588C94.0991 5.09333 94.6545 4.846 95.2051 4.846C95.7558 4.846 96.2551 5.10733 96.7031 5.63C97.1605 6.15267 97.3891 6.666 97.3891 7.17ZM95.2751 5.952C94.9298 5.952 94.5705 6.134 94.1971 6.498C93.8238 6.85267 93.5065 7.296 93.2451 7.828C93.6185 7.912 94.0431 7.954 94.5191 7.954C94.9951 7.954 95.4105 7.87933 95.7651 7.73C96.1198 7.57133 96.2971 7.366 96.2971 7.114C96.2971 6.862 96.1805 6.60533 95.9471 6.344C95.7231 6.08267 95.4991 5.952 95.2751 5.952ZM98.9459 6.554L98.9039 5.504C98.9039 5.06533 99.0065 4.846 99.2119 4.846C99.3892 4.846 99.5572 4.96267 99.7159 5.196C99.8839 5.42 99.9679 5.69067 99.9679 6.008C99.9679 6.316 99.9585 6.54933 99.9399 6.708C100.752 5.476 101.522 4.86 102.25 4.86C102.707 4.86 102.936 4.972 102.936 5.196C102.936 5.308 102.885 5.41067 102.782 5.504C102.679 5.59733 102.516 5.70467 102.292 5.826C101.797 6.04067 101.377 6.372 101.032 6.82C100.696 7.25867 100.421 7.758 100.206 8.318C99.9912 8.878 99.8185 9.34933 99.6879 9.732C99.5665 10.1147 99.4732 10.4133 99.4079 10.628C99.3425 10.8427 99.2679 11.0527 99.1839 11.258C99.0345 11.6313 98.8619 11.818 98.6659 11.818C98.5072 11.818 98.3765 11.7293 98.2739 11.552C98.1805 11.3653 98.1339 11.188 98.1339 11.02C98.1339 10.8427 98.2132 10.4973 98.3719 9.984C98.7545 8.808 98.9459 7.66467 98.9459 6.554ZM106.465 4.846C106.885 4.846 107.272 5.06067 107.627 5.49C107.981 5.91 108.159 6.29267 108.159 6.638C108.159 6.974 108.042 7.31933 107.809 7.674C107.921 7.814 107.977 7.93533 107.977 8.038C107.977 8.29933 107.916 8.74733 107.795 9.382C107.683 10.0167 107.613 10.432 107.585 10.628C107.566 10.824 107.547 10.9827 107.529 11.104C107.51 11.216 107.487 11.328 107.459 11.44C107.421 11.6733 107.337 11.79 107.207 11.79C107.039 11.79 106.899 11.6453 106.787 11.356C106.684 11.0573 106.623 10.6747 106.605 10.208C105.774 11.2627 105.004 11.79 104.295 11.79C103.865 11.79 103.441 11.608 103.021 11.244C102.61 10.8707 102.405 10.488 102.405 10.096C102.405 9.536 102.61 8.84533 103.021 8.024C103.431 7.19333 103.963 6.456 104.617 5.812C105.27 5.168 105.886 4.846 106.465 4.846ZM107.109 7.31C107.109 6.442 106.936 6.008 106.591 6.008C106.227 6.008 105.802 6.26933 105.317 6.792C104.831 7.30533 104.421 7.88867 104.085 8.542C103.749 9.19533 103.581 9.71333 103.581 10.096C103.581 10.2547 103.646 10.3853 103.777 10.488C103.907 10.5813 104.061 10.628 104.239 10.628C104.677 10.628 105.172 10.334 105.723 9.746C106.273 9.14867 106.656 8.42533 106.871 7.576C106.899 7.436 106.978 7.352 107.109 7.324V7.31ZM111.557 11.79C111.016 11.79 110.507 11.58 110.031 11.16C109.555 10.7307 109.317 10.2267 109.317 9.648C109.317 9.06 109.513 8.38333 109.905 7.618C110.297 6.85267 110.801 6.19933 111.417 5.658C112.042 5.11667 112.649 4.846 113.237 4.846C113.62 4.846 113.956 5.01867 114.245 5.364C114.534 5.70933 114.679 6.01267 114.679 6.274C114.679 6.34867 114.656 6.414 114.609 6.47C114.562 6.51667 114.492 6.54 114.399 6.54C114.315 6.54 114.161 6.456 113.937 6.288C113.713 6.12 113.512 6.036 113.335 6.036C112.831 6.036 112.243 6.47933 111.571 7.366C110.899 8.25267 110.563 9.02733 110.563 9.69C110.563 9.97933 110.652 10.208 110.829 10.376C111.016 10.544 111.31 10.628 111.711 10.628C112.122 10.628 112.495 10.5813 112.831 10.488C113.176 10.3853 113.442 10.2873 113.629 10.194C113.816 10.0913 113.96 10.04 114.063 10.04C114.24 10.04 114.329 10.1287 114.329 10.306C114.329 10.5767 114.002 10.894 113.349 11.258C112.705 11.6127 112.108 11.79 111.557 11.79ZM117.106 10.39C117.106 10.5673 117.208 10.656 117.414 10.656C117.768 10.656 118.198 10.558 118.702 10.362C119.215 10.1567 119.5 10.054 119.556 10.054C119.724 10.054 119.808 10.1427 119.808 10.32C119.808 10.5907 119.528 10.9033 118.968 11.258C118.417 11.6127 117.913 11.79 117.456 11.79C117.008 11.79 116.634 11.6687 116.336 11.426C116.037 11.174 115.888 10.9173 115.888 10.656C115.888 10.3947 115.944 10.0633 116.056 9.662C116.168 9.25133 116.326 8.71467 116.532 8.052C116.746 7.38 116.914 6.82467 117.036 6.386C116.597 6.48867 116.303 6.54 116.154 6.54C116.004 6.54 115.855 6.46533 115.706 6.316C115.566 6.15733 115.496 6.008 115.496 5.868C115.496 5.644 116.102 5.42933 117.316 5.224C117.484 4.44933 117.568 3.76333 117.568 3.166C117.568 2.886 117.661 2.746 117.848 2.746C118.006 2.746 118.202 2.84867 118.436 3.054C118.669 3.25 118.786 3.474 118.786 3.726C118.786 3.978 118.706 4.42133 118.548 5.056C119.08 5.00933 119.504 4.986 119.822 4.986C120.382 4.986 120.662 5.10733 120.662 5.35C120.662 5.49 120.508 5.60667 120.2 5.7C119.901 5.79333 119.266 5.938 118.296 6.134C118.1 6.87133 117.852 7.716 117.554 8.668C117.255 9.61067 117.106 10.1847 117.106 10.39ZM122.744 2.858C122.744 2.67133 122.818 2.494 122.968 2.326C123.117 2.158 123.266 2.074 123.416 2.074C123.574 2.074 123.761 2.26533 123.976 2.648C124.19 3.02133 124.298 3.334 124.298 3.586C124.298 3.67933 124.256 3.76333 124.172 3.838C124.088 3.91267 123.999 3.95 123.906 3.95C123.682 3.95 123.43 3.81467 123.15 3.544C122.879 3.27333 122.744 3.04467 122.744 2.858ZM122.674 4.846C122.851 4.846 123.019 4.95333 123.178 5.168C123.336 5.38267 123.416 5.59267 123.416 5.798C123.416 6.00333 123.28 6.61933 123.01 7.646C122.739 8.66333 122.398 9.80667 121.988 11.076C121.829 11.5427 121.628 11.776 121.386 11.776C121.255 11.776 121.143 11.7247 121.05 11.622C120.956 11.51 120.91 11.3887 120.91 11.258C120.91 11.118 120.942 10.9033 121.008 10.614C121.082 10.3153 121.185 9.92333 121.316 9.438C121.456 8.94333 121.563 8.542 121.638 8.234C121.722 7.926 121.806 7.58067 121.89 7.198C121.974 6.806 122.039 6.49333 122.086 6.26C122.142 6.01733 122.202 5.77467 122.268 5.532C122.398 5.07467 122.534 4.846 122.674 4.846ZM128.516 7.226C128.516 6.90867 128.464 6.61 128.362 6.33C128.259 6.04067 128.11 5.83067 127.914 5.7C127.27 5.87733 126.714 6.37667 126.248 7.198C125.79 8.01 125.562 8.77533 125.562 9.494C125.562 10.2127 125.739 10.6607 126.094 10.838C126.766 10.7073 127.335 10.25 127.802 9.466C128.278 8.67267 128.516 7.926 128.516 7.226ZM124.834 7.352C125.16 6.624 125.585 6.02667 126.108 5.56C126.64 5.084 127.181 4.846 127.732 4.846C128.292 4.846 128.758 5.084 129.132 5.56C129.505 6.02667 129.692 6.60067 129.692 7.282C129.692 7.954 129.528 8.64467 129.202 9.354C128.875 10.054 128.422 10.6373 127.844 11.104C127.274 11.5613 126.668 11.79 126.024 11.79C125.548 11.79 125.151 11.5707 124.834 11.132C124.516 10.6933 124.358 10.138 124.358 9.466C124.358 8.78467 124.516 8.08 124.834 7.352ZM132.003 9.354C132.899 7.83267 133.627 6.70333 134.187 5.966C134.757 5.21933 135.219 4.846 135.573 4.846C135.937 4.846 136.278 5.03733 136.595 5.42C136.922 5.80267 137.085 6.20867 137.085 6.638C137.085 7.31 136.931 8.13133 136.623 9.102C136.063 10.894 135.559 11.79 135.111 11.79C134.906 11.79 134.803 11.65 134.803 11.37C134.803 11.174 134.901 10.7773 135.097 10.18C135.303 9.57333 135.489 8.98067 135.657 8.402C135.835 7.814 135.923 7.37533 135.923 7.086C135.923 6.78733 135.877 6.568 135.783 6.428C135.699 6.288 135.611 6.218 135.517 6.218C135.433 6.218 135.345 6.246 135.251 6.302C135.158 6.358 135.051 6.45133 134.929 6.582C134.817 6.71267 134.71 6.84333 134.607 6.974C134.505 7.09533 134.374 7.27267 134.215 7.506C134.066 7.73933 133.94 7.94 133.837 8.108C133.735 8.26667 133.585 8.5 133.389 8.808C133.193 9.116 133.044 9.34933 132.941 9.508C132.839 9.66667 132.703 9.88133 132.535 10.152C132.367 10.4227 132.232 10.6327 132.129 10.782C132.036 10.9313 131.929 11.0947 131.807 11.272C131.574 11.6173 131.387 11.79 131.247 11.79C131.117 11.79 130.963 11.6873 130.785 11.482C130.608 11.2673 130.519 11.0807 130.519 10.922C130.519 10.8753 130.552 10.7493 130.617 10.544C130.795 10.0027 130.991 9.33533 131.205 8.542C131.42 7.73933 131.537 6.82933 131.555 5.812C131.583 5.13067 131.681 4.79 131.849 4.79C132.055 4.79 132.26 4.89733 132.465 5.112C132.671 5.32667 132.773 5.56467 132.773 5.826C132.773 6.078 132.694 6.57267 132.535 7.31C132.386 8.038 132.209 8.71933 132.003 9.354ZM149.707 0.926C149.857 0.926 150.039 1.066 150.253 1.346C150.477 1.61667 150.589 1.87333 150.589 2.116C150.589 2.35867 150.473 3.04933 150.239 4.188C150.006 5.31733 149.735 6.48867 149.427 7.702C148.755 10.4273 148.312 11.79 148.097 11.79C147.967 11.79 147.822 11.7107 147.663 11.552C147.514 11.384 147.439 11.2393 147.439 11.118C147.439 10.9967 147.472 10.754 147.537 10.39C146.623 11.3233 145.825 11.79 145.143 11.79C144.733 11.79 144.359 11.6033 144.023 11.23C143.697 10.8567 143.533 10.4693 143.533 10.068C143.533 9.48933 143.687 8.80333 143.995 8.01C144.313 7.20733 144.765 6.47933 145.353 5.826C145.941 5.17267 146.567 4.846 147.229 4.846C147.892 4.846 148.354 5.24267 148.615 6.036C149.091 4.05733 149.353 2.494 149.399 1.346C149.399 1.066 149.502 0.926 149.707 0.926ZM148.167 7.8C148.167 7.296 148.079 6.87133 147.901 6.526C147.733 6.18067 147.528 6.008 147.285 6.008C146.884 6.008 146.473 6.25533 146.053 6.75C145.633 7.24467 145.297 7.814 145.045 8.458C144.803 9.09267 144.681 9.64333 144.681 10.11C144.681 10.278 144.742 10.4133 144.863 10.516C144.985 10.6187 145.129 10.67 145.297 10.67C145.661 10.67 146.151 10.4087 146.767 9.886C147.393 9.36333 147.845 8.74733 148.125 8.038L148.167 7.87V7.8ZM156.288 7.17C156.288 7.66467 156.017 8.07067 155.476 8.388C154.944 8.696 154.337 8.85 153.656 8.85C152.984 8.85 152.372 8.77533 151.822 8.626C151.691 9.03667 151.626 9.40533 151.626 9.732C151.626 10.0493 151.724 10.2967 151.92 10.474C152.125 10.6513 152.456 10.74 152.914 10.74C153.38 10.74 153.856 10.6607 154.342 10.502C154.836 10.334 155.107 10.25 155.154 10.25C155.396 10.25 155.518 10.3433 155.518 10.53C155.518 10.782 155.233 11.0573 154.664 11.356C154.094 11.6453 153.539 11.79 152.998 11.79C152.27 11.79 151.677 11.5753 151.22 11.146C150.762 10.7073 150.534 10.1567 150.534 9.494C150.534 8.83133 150.711 8.14067 151.066 7.422C151.42 6.694 151.878 6.08267 152.438 5.588C152.998 5.09333 153.553 4.846 154.104 4.846C154.654 4.846 155.154 5.10733 155.602 5.63C156.059 6.15267 156.288 6.666 156.288 7.17ZM154.174 5.952C153.828 5.952 153.469 6.134 153.096 6.498C152.722 6.85267 152.405 7.296 152.144 7.828C152.517 7.912 152.942 7.954 153.418 7.954C153.894 7.954 154.309 7.87933 154.664 7.73C155.018 7.57133 155.196 7.366 155.196 7.114C155.196 6.862 155.079 6.60533 154.846 6.344C154.622 6.08267 154.398 5.952 154.174 5.952ZM161.008 4.846C161.326 4.846 161.624 5.02333 161.904 5.378C162.184 5.72333 162.324 6.02667 162.324 6.288C162.324 6.44667 162.25 6.526 162.1 6.526C161.998 6.526 161.839 6.44667 161.624 6.288C161.41 6.12 161.19 6.036 160.966 6.036C160.742 6.036 160.388 6.16667 159.902 6.428C159.426 6.68933 159.188 6.96467 159.188 7.254C159.188 7.46867 159.618 7.83733 160.476 8.36C160.803 8.56533 161.097 8.83133 161.358 9.158C161.629 9.47533 161.764 9.82067 161.764 10.194C161.764 10.558 161.508 10.9173 160.994 11.272C160.49 11.6173 159.898 11.79 159.216 11.79C158.544 11.79 157.947 11.6267 157.424 11.3C156.911 10.9733 156.654 10.6653 156.654 10.376C156.654 10.2547 156.682 10.1613 156.738 10.096C156.804 10.0213 156.883 9.984 156.976 9.984C157.07 9.984 157.2 10.0447 157.368 10.166C157.872 10.53 158.395 10.712 158.936 10.712C159.487 10.712 159.884 10.6513 160.126 10.53C160.369 10.3993 160.49 10.2313 160.49 10.026C160.49 9.81133 160.355 9.58733 160.084 9.354C159.814 9.11133 159.515 8.89667 159.188 8.71C158.871 8.52333 158.577 8.29467 158.306 8.024C158.036 7.75333 157.9 7.478 157.9 7.198C157.9 6.70333 158.288 6.19 159.062 5.658C159.846 5.11667 160.495 4.846 161.008 4.846ZM164.757 2.858C164.757 2.67133 164.832 2.494 164.981 2.326C165.131 2.158 165.28 2.074 165.429 2.074C165.588 2.074 165.775 2.26533 165.989 2.648C166.204 3.02133 166.311 3.334 166.311 3.586C166.311 3.67933 166.269 3.76333 166.185 3.838C166.101 3.91267 166.013 3.95 165.919 3.95C165.695 3.95 165.443 3.81467 165.163 3.544C164.893 3.27333 164.757 3.04467 164.757 2.858ZM164.687 4.846C164.865 4.846 165.033 4.95333 165.191 5.168C165.35 5.38267 165.429 5.59267 165.429 5.798C165.429 6.00333 165.294 6.61933 165.023 7.646C164.753 8.66333 164.412 9.80667 164.001 11.076C163.843 11.5427 163.642 11.776 163.399 11.776C163.269 11.776 163.157 11.7247 163.063 11.622C162.97 11.51 162.923 11.3887 162.923 11.258C162.923 11.118 162.956 10.9033 163.021 10.614C163.096 10.3153 163.199 9.92333 163.329 9.438C163.469 8.94333 163.577 8.542 163.651 8.234C163.735 7.926 163.819 7.58067 163.903 7.198C163.987 6.806 164.053 6.49333 164.099 6.26C164.155 6.01733 164.216 5.77467 164.281 5.532C164.412 5.07467 164.547 4.846 164.687 4.846ZM171.845 8.01C171.845 8.38333 171.682 8.808 171.355 9.284C171.103 9.85333 170.833 10.6747 170.543 11.748C170.254 12.812 170.011 13.5727 169.815 14.03C169.423 14.982 168.821 15.458 168.009 15.458C167.347 15.458 166.787 15.276 166.329 14.912C165.881 14.5573 165.657 14.2027 165.657 13.848C165.657 13.6987 165.704 13.5493 165.797 13.4C165.881 13.2507 165.97 13.176 166.063 13.176C166.166 13.176 166.278 13.246 166.399 13.386C166.521 13.526 166.633 13.6753 166.735 13.834C166.847 14.002 167.011 14.156 167.225 14.296C167.449 14.436 167.664 14.506 167.869 14.506C168.075 14.506 168.229 14.4733 168.331 14.408C168.434 14.352 168.532 14.254 168.625 14.114C168.719 13.9833 168.798 13.848 168.863 13.708C168.929 13.5773 168.999 13.386 169.073 13.134C169.157 12.8913 169.223 12.6813 169.269 12.504C169.316 12.3267 169.381 12.0793 169.465 11.762C169.549 11.4353 169.619 11.174 169.675 10.978C168.947 11.5193 168.355 11.79 167.897 11.79C167.44 11.79 167.043 11.608 166.707 11.244C166.371 10.8707 166.203 10.4413 166.203 9.956C166.203 9.46133 166.385 8.808 166.749 7.996C167.123 7.184 167.622 6.456 168.247 5.812C168.873 5.168 169.484 4.846 170.081 4.846C170.464 4.846 170.786 4.99067 171.047 5.28C171.477 5.756 171.691 6.43267 171.691 7.31C171.691 7.422 171.687 7.50133 171.677 7.548C171.789 7.70667 171.845 7.86067 171.845 8.01ZM167.337 10.096C167.337 10.2547 167.389 10.3853 167.491 10.488C167.594 10.5813 167.725 10.628 167.883 10.628C168.35 10.628 168.901 10.3527 169.535 9.802C170.17 9.242 170.618 8.59333 170.879 7.856C170.842 7.73467 170.809 7.548 170.781 7.296C170.753 7.044 170.725 6.84333 170.697 6.694C170.669 6.54467 170.609 6.39533 170.515 6.246C170.422 6.08733 170.301 6.008 170.151 6.008C169.787 6.008 169.377 6.26933 168.919 6.792C168.462 7.31467 168.084 7.898 167.785 8.542C167.487 9.186 167.337 9.704 167.337 10.096ZM174.318 9.354C175.214 7.83267 175.942 6.70333 176.502 5.966C177.071 5.21933 177.533 4.846 177.888 4.846C178.252 4.846 178.592 5.03733 178.91 5.42C179.236 5.80267 179.4 6.20867 179.4 6.638C179.4 7.31 179.246 8.13133 178.938 9.102C178.378 10.894 177.874 11.79 177.426 11.79C177.22 11.79 177.118 11.65 177.118 11.37C177.118 11.174 177.216 10.7773 177.412 10.18C177.617 9.57333 177.804 8.98067 177.972 8.402C178.149 7.814 178.238 7.37533 178.238 7.086C178.238 6.78733 178.191 6.568 178.098 6.428C178.014 6.288 177.925 6.218 177.832 6.218C177.748 6.218 177.659 6.246 177.566 6.302C177.472 6.358 177.365 6.45133 177.244 6.582C177.132 6.71267 177.024 6.84333 176.922 6.974C176.819 7.09533 176.688 7.27267 176.53 7.506C176.38 7.73933 176.254 7.94 176.152 8.108C176.049 8.26667 175.9 8.5 175.704 8.808C175.508 9.116 175.358 9.34933 175.256 9.508C175.153 9.66667 175.018 9.88133 174.85 10.152C174.682 10.4227 174.546 10.6327 174.444 10.782C174.35 10.9313 174.243 11.0947 174.122 11.272C173.888 11.6173 173.702 11.79 173.562 11.79C173.431 11.79 173.277 11.6873 173.1 11.482C172.922 11.2673 172.834 11.0807 172.834 10.922C172.834 10.8753 172.866 10.7493 172.932 10.544C173.109 10.0027 173.305 9.33533 173.52 8.542C173.734 7.73933 173.851 6.82933 173.87 5.812C173.898 5.13067 173.996 4.79 174.164 4.79C174.369 4.79 174.574 4.89733 174.78 5.112C174.985 5.32667 175.088 5.56467 175.088 5.826C175.088 6.078 175.008 6.57267 174.85 7.31C174.7 8.038 174.523 8.71933 174.318 9.354ZM189.754 4.846C190.174 4.846 190.561 5.06067 190.916 5.49C191.27 5.91 191.448 6.29267 191.448 6.638C191.448 6.974 191.331 7.31933 191.098 7.674C191.21 7.814 191.266 7.93533 191.266 8.038C191.266 8.29933 191.205 8.74733 191.084 9.382C190.972 10.0167 190.902 10.432 190.874 10.628C190.855 10.824 190.836 10.9827 190.818 11.104C190.799 11.216 190.776 11.328 190.748 11.44C190.71 11.6733 190.626 11.79 190.496 11.79C190.328 11.79 190.188 11.6453 190.076 11.356C189.973 11.0573 189.912 10.6747 189.894 10.208C189.063 11.2627 188.293 11.79 187.584 11.79C187.154 11.79 186.73 11.608 186.31 11.244C185.899 10.8707 185.694 10.488 185.694 10.096C185.694 9.536 185.899 8.84533 186.31 8.024C186.72 7.19333 187.252 6.456 187.906 5.812C188.559 5.168 189.175 4.846 189.754 4.846ZM190.398 7.31C190.398 6.442 190.225 6.008 189.88 6.008C189.516 6.008 189.091 6.26933 188.606 6.792C188.12 7.30533 187.71 7.88867 187.374 8.542C187.038 9.19533 186.87 9.71333 186.87 10.096C186.87 10.2547 186.935 10.3853 187.066 10.488C187.196 10.5813 187.35 10.628 187.528 10.628C187.966 10.628 188.461 10.334 189.012 9.746C189.562 9.14867 189.945 8.42533 190.16 7.576C190.188 7.436 190.267 7.352 190.398 7.324V7.31ZM194.16 10.39C194.16 10.5673 194.263 10.656 194.468 10.656C194.823 10.656 195.252 10.558 195.756 10.362C196.27 10.1567 196.554 10.054 196.61 10.054C196.778 10.054 196.862 10.1427 196.862 10.32C196.862 10.5907 196.582 10.9033 196.022 11.258C195.472 11.6127 194.968 11.79 194.51 11.79C194.062 11.79 193.689 11.6687 193.39 11.426C193.092 11.174 192.942 10.9173 192.942 10.656C192.942 10.3947 192.998 10.0633 193.11 9.662C193.222 9.25133 193.381 8.71467 193.586 8.052C193.801 7.38 193.969 6.82467 194.09 6.386C193.652 6.48867 193.358 6.54 193.208 6.54C193.059 6.54 192.91 6.46533 192.76 6.316C192.62 6.15733 192.55 6.008 192.55 5.868C192.55 5.644 193.157 5.42933 194.37 5.224C194.538 4.44933 194.622 3.76333 194.622 3.166C194.622 2.886 194.716 2.746 194.902 2.746C195.061 2.746 195.257 2.84867 195.49 3.054C195.724 3.25 195.84 3.474 195.84 3.726C195.84 3.978 195.761 4.42133 195.602 5.056C196.134 5.00933 196.559 4.986 196.876 4.986C197.436 4.986 197.716 5.10733 197.716 5.35C197.716 5.49 197.562 5.60667 197.254 5.7C196.956 5.79333 196.321 5.938 195.35 6.134C195.154 6.87133 194.907 7.716 194.608 8.668C194.31 9.61067 194.16 10.1847 194.16 10.39ZM205.193 10.39C205.193 10.5673 205.296 10.656 205.501 10.656C205.856 10.656 206.285 10.558 206.789 10.362C207.303 10.1567 207.587 10.054 207.643 10.054C207.811 10.054 207.895 10.1427 207.895 10.32C207.895 10.5907 207.615 10.9033 207.055 11.258C206.505 11.6127 206.001 11.79 205.543 11.79C205.095 11.79 204.722 11.6687 204.423 11.426C204.125 11.174 203.975 10.9173 203.975 10.656C203.975 10.3947 204.031 10.0633 204.143 9.662C204.255 9.25133 204.414 8.71467 204.619 8.052C204.834 7.38 205.002 6.82467 205.123 6.386C204.685 6.48867 204.391 6.54 204.241 6.54C204.092 6.54 203.943 6.46533 203.793 6.316C203.653 6.15733 203.583 6.008 203.583 5.868C203.583 5.644 204.19 5.42933 205.403 5.224C205.571 4.44933 205.655 3.76333 205.655 3.166C205.655 2.886 205.749 2.746 205.935 2.746C206.094 2.746 206.29 2.84867 206.523 3.054C206.757 3.25 206.873 3.474 206.873 3.726C206.873 3.978 206.794 4.42133 206.635 5.056C207.167 5.00933 207.592 4.986 207.909 4.986C208.469 4.986 208.749 5.10733 208.749 5.35C208.749 5.49 208.595 5.60667 208.287 5.7C207.989 5.79333 207.354 5.938 206.383 6.134C206.187 6.87133 205.94 7.716 205.641 8.668C205.343 9.61067 205.193 10.1847 205.193 10.39ZM210.691 1.472C210.691 1.108 210.803 0.926 211.027 0.926C211.205 0.926 211.391 1.066 211.587 1.346C211.793 1.626 211.895 1.89667 211.895 2.158C211.895 2.76467 211.741 3.80067 211.433 5.266C211.135 6.722 210.743 8.178 210.257 9.634C211.191 7.94467 211.97 6.72667 212.595 5.98C213.23 5.224 213.771 4.846 214.219 4.846C214.462 4.846 214.742 5.056 215.059 5.476C215.386 5.896 215.549 6.316 215.549 6.736C215.549 7.156 215.433 7.786 215.199 8.626C214.621 10.7353 214.075 11.79 213.561 11.79C213.356 11.79 213.253 11.65 213.253 11.37C213.253 11.09 213.365 10.6187 213.589 9.956C214.084 8.50933 214.331 7.534 214.331 7.03C214.331 6.862 214.289 6.722 214.205 6.61C214.121 6.498 214.019 6.442 213.897 6.442C213.776 6.442 213.627 6.50733 213.449 6.638C213.272 6.76867 213.057 6.99733 212.805 7.324C212.488 7.744 212.157 8.21533 211.811 8.738C211.475 9.26067 211.27 9.578 211.195 9.69C211.13 9.79267 211.009 9.984 210.831 10.264C210.663 10.544 210.537 10.754 210.453 10.894C210.369 11.0247 210.267 11.1693 210.145 11.328C209.931 11.636 209.767 11.79 209.655 11.79C209.543 11.79 209.394 11.6873 209.207 11.482C209.021 11.2673 208.927 11.09 208.927 10.95C208.927 10.8007 208.979 10.5253 209.081 10.124C209.548 8.332 209.842 7.10467 209.963 6.442C210.449 4.01533 210.691 2.35867 210.691 1.472ZM222.131 7.17C222.131 7.66467 221.861 8.07067 221.319 8.388C220.787 8.696 220.181 8.85 219.499 8.85C218.827 8.85 218.216 8.77533 217.665 8.626C217.535 9.03667 217.469 9.40533 217.469 9.732C217.469 10.0493 217.567 10.2967 217.763 10.474C217.969 10.6513 218.3 10.74 218.757 10.74C219.224 10.74 219.7 10.6607 220.185 10.502C220.68 10.334 220.951 10.25 220.997 10.25C221.24 10.25 221.361 10.3433 221.361 10.53C221.361 10.782 221.077 11.0573 220.507 11.356C219.938 11.6453 219.383 11.79 218.841 11.79C218.113 11.79 217.521 11.5753 217.063 11.146C216.606 10.7073 216.377 10.1567 216.377 9.494C216.377 8.83133 216.555 8.14067 216.909 7.422C217.264 6.694 217.721 6.08267 218.281 5.588C218.841 5.09333 219.397 4.846 219.947 4.846C220.498 4.846 220.997 5.10733 221.445 5.63C221.903 6.15267 222.131 6.666 222.131 7.17ZM220.017 5.952C219.672 5.952 219.313 6.134 218.939 6.498C218.566 6.85267 218.249 7.296 217.987 7.828C218.361 7.912 218.785 7.954 219.261 7.954C219.737 7.954 220.153 7.87933 220.507 7.73C220.862 7.57133 221.039 7.366 221.039 7.114C221.039 6.862 220.923 6.60533 220.689 6.344C220.465 6.08267 220.241 5.952 220.017 5.952ZM229.699 11.734C229.587 11.734 229.438 11.622 229.251 11.398C229.074 11.174 228.985 10.9687 228.985 10.782C228.985 10.5953 229.261 9.29333 229.811 6.876C230.371 4.44933 230.656 2.94667 230.665 2.368C230.665 2.20933 230.684 2.102 230.721 2.046C230.768 1.98067 230.857 1.948 230.987 1.948C231.127 1.948 231.305 2.09267 231.519 2.382C231.743 2.67133 231.855 2.984 231.855 3.32C231.855 3.64667 231.519 5.17733 230.847 7.912C230.782 8.164 230.693 8.528 230.581 9.004C230.469 9.47067 230.381 9.83 230.315 10.082C230.25 10.334 230.18 10.6093 230.105 10.908C229.947 11.4587 229.811 11.734 229.699 11.734ZM234.481 1.906C235.359 1.906 236.292 2.13467 237.281 2.592C238.28 3.04933 239.139 3.684 239.857 4.496C240.576 5.29867 240.935 6.134 240.935 7.002C240.935 7.57133 240.539 8.24333 239.745 9.018C238.961 9.78333 238.051 10.4413 237.015 10.992C235.979 11.5333 235.121 11.804 234.439 11.804C234.262 11.804 234.057 11.6547 233.823 11.356C233.599 11.048 233.487 10.74 233.487 10.432C233.487 10.1147 233.758 8.98533 234.299 7.044C234.841 5.10267 235.135 3.824 235.181 3.208C234.883 3.08667 234.645 2.928 234.467 2.732C234.29 2.536 234.201 2.34933 234.201 2.172C234.201 1.99467 234.295 1.906 234.481 1.906ZM239.647 6.848C239.647 6.26933 239.302 5.644 238.611 4.972C237.921 4.29067 237.118 3.80067 236.203 3.502C236.25 3.67 236.273 3.87067 236.273 4.104C236.273 4.328 236.189 4.75267 236.021 5.378C235.863 6.00333 235.569 7.04867 235.139 8.514C234.962 9.13 234.817 9.80667 234.705 10.544C235.349 10.46 236.068 10.18 236.861 9.704C237.664 9.21867 238.327 8.70067 238.849 8.15C239.381 7.59933 239.647 7.16533 239.647 6.848ZM244.303 7.338C243.799 8.934 243.547 9.9 243.547 10.236C243.547 10.348 243.579 10.4413 243.645 10.516C243.719 10.5813 243.813 10.614 243.925 10.614C244.998 10.614 246.183 10.4413 247.481 10.096C247.901 9.984 248.143 9.928 248.209 9.928C248.349 9.928 248.419 10.026 248.419 10.222C248.419 10.558 247.901 10.9033 246.865 11.258C245.838 11.6127 244.844 11.79 243.883 11.79C243.453 11.79 243.075 11.664 242.749 11.412C242.431 11.16 242.273 10.8427 242.273 10.46C242.273 10.0773 242.408 9.424 242.679 8.5C242.959 7.576 243.239 6.59133 243.519 5.546C243.799 4.50067 243.939 3.61867 243.939 2.9C243.939 2.79733 243.957 2.69 243.995 2.578C244.153 2.23267 245.171 2.06 247.047 2.06C248.923 2.06 249.861 2.19533 249.861 2.466C249.861 2.65267 249.66 2.77867 249.259 2.844C248.923 2.90933 248.475 2.97 247.915 3.026C247.364 3.07267 246.977 3.11 246.753 3.138C246.529 3.15667 245.987 3.24067 245.129 3.39V3.432C245.129 4.06667 244.956 5.02333 244.611 6.302C244.667 6.31133 244.853 6.316 245.171 6.316C245.497 6.316 245.931 6.29267 246.473 6.246C247.014 6.19933 247.42 6.176 247.691 6.176C247.971 6.176 248.111 6.24133 248.111 6.372C248.111 6.69867 247.728 6.94133 246.963 7.1C246.197 7.25867 245.311 7.338 244.303 7.338ZM257.476 6.918C257.476 7.09533 257.065 7.30067 256.244 7.534C256.319 8.50467 256.356 9.33067 256.356 10.012C256.356 11.188 256.207 11.776 255.908 11.776C255.749 11.776 255.623 11.678 255.53 11.482C255.437 11.286 255.362 10.9453 255.306 10.46C255.241 9.564 255.171 8.68667 255.096 7.828C254.676 7.94 254.293 8.04267 253.948 8.136C253.603 8.22 253.08 8.36 252.38 8.556C251.559 10.7027 251.073 11.776 250.924 11.776C250.775 11.776 250.611 11.6873 250.434 11.51C250.266 11.3233 250.182 11.1273 250.182 10.922C250.182 10.8287 250.448 10.166 250.98 8.934H250.882C250.695 8.934 250.527 8.87333 250.378 8.752C250.238 8.63067 250.168 8.48133 250.168 8.304C250.168 8.11733 250.63 7.87467 251.554 7.576C251.703 7.24 251.825 6.93667 251.918 6.666C252.133 6.134 252.431 5.406 252.814 4.482C253.197 3.558 253.439 2.97 253.542 2.718C253.645 2.45667 253.822 2.23733 254.074 2.06C254.335 1.87333 254.587 1.78 254.83 1.78C255.119 1.78 255.376 2.242 255.6 3.166C255.833 4.09 256.02 5.23333 256.16 6.596C256.421 6.568 256.65 6.554 256.846 6.554C257.266 6.554 257.476 6.67533 257.476 6.918ZM252.898 7.212C253.561 7.03467 254.261 6.88533 254.998 6.764C254.83 5.168 254.667 3.96867 254.508 3.166C254.088 4.12733 253.551 5.476 252.898 7.212ZM270.269 9.004C270.269 9.76933 269.923 10.4133 269.233 10.936C268.542 11.4493 267.749 11.706 266.853 11.706C265.966 11.706 265.233 11.4773 264.655 11.02C264.076 10.5533 263.787 10.1147 263.787 9.704C263.787 9.424 263.871 9.284 264.039 9.284C264.188 9.284 264.482 9.508 264.921 9.956C265.089 10.1147 265.313 10.264 265.593 10.404C265.882 10.544 266.185 10.614 266.503 10.614C267.156 10.614 267.735 10.446 268.239 10.11C268.752 9.774 269.009 9.41 269.009 9.018C269.009 8.766 268.841 8.444 268.505 8.052C268.169 7.66 267.795 7.29133 267.385 6.946C266.983 6.59133 266.615 6.21333 266.279 5.812C265.943 5.41067 265.775 5.09333 265.775 4.86C265.775 4.62667 265.821 4.37933 265.915 4.118C266.008 3.85667 266.111 3.66533 266.223 3.544C266.587 3.14267 267.151 2.774 267.917 2.438C268.691 2.102 269.34 1.934 269.863 1.934C270.133 1.934 270.362 2.02267 270.549 2.2C270.735 2.37733 270.829 2.564 270.829 2.76C270.829 2.85333 270.731 2.928 270.535 2.984C270.339 3.04 270.04 3.11467 269.639 3.208C269.247 3.292 268.897 3.39467 268.589 3.516C267.515 3.92667 266.979 4.32333 266.979 4.706C266.979 4.91133 267.525 5.48533 268.617 6.428C269.037 6.792 269.415 7.21667 269.751 7.702C270.096 8.178 270.269 8.612 270.269 9.004ZM273.842 11.79C273.301 11.79 272.792 11.58 272.316 11.16C271.84 10.7307 271.602 10.2267 271.602 9.648C271.602 9.06 271.798 8.38333 272.19 7.618C272.582 6.85267 273.086 6.19933 273.702 5.658C274.328 5.11667 274.934 4.846 275.522 4.846C275.905 4.846 276.241 5.01867 276.53 5.364C276.82 5.70933 276.964 6.01267 276.964 6.274C276.964 6.34867 276.941 6.414 276.894 6.47C276.848 6.51667 276.778 6.54 276.684 6.54C276.6 6.54 276.446 6.456 276.222 6.288C275.998 6.12 275.798 6.036 275.62 6.036C275.116 6.036 274.528 6.47933 273.856 7.366C273.184 8.25267 272.848 9.02733 272.848 9.69C272.848 9.97933 272.937 10.208 273.114 10.376C273.301 10.544 273.595 10.628 273.996 10.628C274.407 10.628 274.78 10.5813 275.116 10.488C275.462 10.3853 275.728 10.2873 275.914 10.194C276.101 10.0913 276.246 10.04 276.348 10.04C276.526 10.04 276.614 10.1287 276.614 10.306C276.614 10.5767 276.288 10.894 275.634 11.258C274.99 11.6127 274.393 11.79 273.842 11.79ZM279.475 1.472C279.475 1.108 279.587 0.926 279.811 0.926C279.988 0.926 280.175 1.066 280.371 1.346C280.576 1.626 280.679 1.89667 280.679 2.158C280.679 2.76467 280.525 3.80067 280.217 5.266C279.918 6.722 279.526 8.178 279.041 9.634C279.974 7.94467 280.753 6.72667 281.379 5.98C282.013 5.224 282.555 4.846 283.003 4.846C283.245 4.846 283.525 5.056 283.843 5.476C284.169 5.896 284.333 6.316 284.333 6.736C284.333 7.156 284.216 7.786 283.983 8.626C283.404 10.7353 282.858 11.79 282.345 11.79C282.139 11.79 282.037 11.65 282.037 11.37C282.037 11.09 282.149 10.6187 282.373 9.956C282.867 8.50933 283.115 7.534 283.115 7.03C283.115 6.862 283.073 6.722 282.989 6.61C282.905 6.498 282.802 6.442 282.681 6.442C282.559 6.442 282.41 6.50733 282.233 6.638C282.055 6.76867 281.841 6.99733 281.589 7.324C281.271 7.744 280.94 8.21533 280.595 8.738C280.259 9.26067 280.053 9.578 279.979 9.69C279.913 9.79267 279.792 9.984 279.615 10.264C279.447 10.544 279.321 10.754 279.237 10.894C279.153 11.0247 279.05 11.1693 278.929 11.328C278.714 11.636 278.551 11.79 278.439 11.79C278.327 11.79 278.177 11.6873 277.991 11.482C277.804 11.2673 277.711 11.09 277.711 10.95C277.711 10.8007 277.762 10.5253 277.865 10.124C278.331 8.332 278.625 7.10467 278.747 6.442C279.232 4.01533 279.475 2.35867 279.475 1.472ZM289.557 7.226C289.557 6.90867 289.505 6.61 289.403 6.33C289.3 6.04067 289.151 5.83067 288.955 5.7C288.311 5.87733 287.755 6.37667 287.289 7.198C286.831 8.01 286.603 8.77533 286.603 9.494C286.603 10.2127 286.78 10.6607 287.135 10.838C287.807 10.7073 288.376 10.25 288.843 9.466C289.319 8.67267 289.557 7.926 289.557 7.226ZM285.875 7.352C286.201 6.624 286.626 6.02667 287.149 5.56C287.681 5.084 288.222 4.846 288.773 4.846C289.333 4.846 289.799 5.084 290.173 5.56C290.546 6.02667 290.733 6.60067 290.733 7.282C290.733 7.954 290.569 8.64467 290.243 9.354C289.916 10.054 289.463 10.6373 288.885 11.104C288.315 11.5613 287.709 11.79 287.065 11.79C286.589 11.79 286.192 11.5707 285.875 11.132C285.557 10.6933 285.399 10.138 285.399 9.466C285.399 8.78467 285.557 8.08 285.875 7.352ZM295.9 7.226C295.9 6.90867 295.849 6.61 295.746 6.33C295.644 6.04067 295.494 5.83067 295.298 5.7C294.654 5.87733 294.099 6.37667 293.632 7.198C293.175 8.01 292.946 8.77533 292.946 9.494C292.946 10.2127 293.124 10.6607 293.478 10.838C294.15 10.7073 294.72 10.25 295.186 9.466C295.662 8.67267 295.9 7.926 295.9 7.226ZM292.218 7.352C292.545 6.624 292.97 6.02667 293.492 5.56C294.024 5.084 294.566 4.846 295.116 4.846C295.676 4.846 296.143 5.084 296.516 5.56C296.89 6.02667 297.076 6.60067 297.076 7.282C297.076 7.954 296.913 8.64467 296.586 9.354C296.26 10.054 295.807 10.6373 295.228 11.104C294.659 11.5613 294.052 11.79 293.408 11.79C292.932 11.79 292.536 11.5707 292.218 11.132C291.901 10.6933 291.742 10.138 291.742 9.466C291.742 8.78467 291.901 8.08 292.218 7.352ZM300.774 2.102C300.774 3.85667 300.41 6.134 299.682 8.934C299.215 10.838 298.889 11.79 298.702 11.79C298.571 11.79 298.417 11.6873 298.24 11.482C298.072 11.2767 297.988 11.118 297.988 11.006C297.988 10.894 298.123 10.3153 298.394 9.27C298.665 8.22467 298.935 6.94133 299.206 5.42C299.477 3.88933 299.612 2.51267 299.612 1.29C299.612 1.15933 299.631 1.066 299.668 1.01C299.705 0.954 299.785 0.926 299.906 0.926C300.027 0.926 300.2 1.06133 300.424 1.332C300.657 1.59333 300.774 1.85 300.774 2.102ZM311.295 7.226C311.295 6.90867 311.243 6.61 311.141 6.33C311.038 6.04067 310.889 5.83067 310.693 5.7C310.049 5.87733 309.493 6.37667 309.027 7.198C308.569 8.01 308.341 8.77533 308.341 9.494C308.341 10.2127 308.518 10.6607 308.873 10.838C309.545 10.7073 310.114 10.25 310.581 9.466C311.057 8.67267 311.295 7.926 311.295 7.226ZM307.613 7.352C307.939 6.624 308.364 6.02667 308.887 5.56C309.419 5.084 309.96 4.846 310.511 4.846C311.071 4.846 311.537 5.084 311.911 5.56C312.284 6.02667 312.471 6.60067 312.471 7.282C312.471 7.954 312.307 8.64467 311.981 9.354C311.654 10.054 311.201 10.6373 310.623 11.104C310.053 11.5613 309.447 11.79 308.803 11.79C308.327 11.79 307.93 11.5707 307.613 11.132C307.295 10.6933 307.137 10.138 307.137 9.466C307.137 8.78467 307.295 8.08 307.613 7.352ZM314.419 11.818C314.297 11.818 314.167 11.7293 314.027 11.552C313.887 11.3747 313.817 11.23 313.817 11.118C313.817 11.006 313.863 10.7867 313.957 10.46C314.423 8.78 314.741 7.58067 314.909 6.862C314.507 6.95533 314.232 7.002 314.083 7.002C313.933 7.002 313.784 6.93667 313.635 6.806C313.485 6.67533 313.411 6.53067 313.411 6.372C313.411 6.21333 313.621 6.07333 314.041 5.952C314.582 5.82133 314.955 5.73733 315.161 5.7C315.254 5.252 315.324 4.90667 315.371 4.664C315.595 3.376 315.898 2.44733 316.281 1.878C316.663 1.30867 317.181 1.024 317.835 1.024C318.301 1.024 318.684 1.21067 318.983 1.584C319.281 1.948 319.431 2.382 319.431 2.886C319.431 3.38067 319.3 3.628 319.039 3.628C318.815 3.628 318.633 3.376 318.493 2.872C318.446 2.68533 318.367 2.51267 318.255 2.354C318.143 2.19533 318.007 2.116 317.849 2.116C317.69 2.116 317.545 2.19067 317.415 2.34C317.284 2.48 317.167 2.68533 317.065 2.956C316.794 3.712 316.607 4.40267 316.505 5.028L316.393 5.518C316.738 5.47133 317.079 5.448 317.415 5.448C317.76 5.448 318.007 5.48533 318.157 5.56C318.315 5.63467 318.395 5.728 318.395 5.84C318.395 6.01733 318.241 6.15267 317.933 6.246C317.625 6.33933 317.023 6.46067 316.127 6.61C315.464 9.298 315.011 10.8987 314.769 11.412C314.638 11.6827 314.521 11.818 314.419 11.818ZM325.973 1.906C326.851 1.906 327.784 2.13467 328.773 2.592C329.772 3.04933 330.631 3.684 331.349 4.496C332.068 5.29867 332.427 6.134 332.427 7.002C332.427 7.57133 332.031 8.24333 331.237 9.018C330.453 9.78333 329.543 10.4413 328.507 10.992C327.471 11.5333 326.613 11.804 325.931 11.804C325.754 11.804 325.549 11.6547 325.315 11.356C325.091 11.048 324.979 10.74 324.979 10.432C324.979 10.1147 325.25 8.98533 325.791 7.044C326.333 5.10267 326.627 3.824 326.673 3.208C326.375 3.08667 326.137 2.928 325.959 2.732C325.782 2.536 325.693 2.34933 325.693 2.172C325.693 1.99467 325.787 1.906 325.973 1.906ZM331.139 6.848C331.139 6.26933 330.794 5.644 330.103 4.972C329.413 4.29067 328.61 3.80067 327.695 3.502C327.742 3.67 327.765 3.87067 327.765 4.104C327.765 4.328 327.681 4.75267 327.513 5.378C327.355 6.00333 327.061 7.04867 326.631 8.514C326.454 9.13 326.309 9.80667 326.197 10.544C326.841 10.46 327.56 10.18 328.353 9.704C329.156 9.21867 329.819 8.70067 330.341 8.15C330.873 7.59933 331.139 7.16533 331.139 6.848ZM338.903 7.17C338.903 7.66467 338.632 8.07067 338.091 8.388C337.559 8.696 336.952 8.85 336.271 8.85C335.599 8.85 334.987 8.77533 334.437 8.626C334.306 9.03667 334.241 9.40533 334.241 9.732C334.241 10.0493 334.339 10.2967 334.535 10.474C334.74 10.6513 335.071 10.74 335.529 10.74C335.995 10.74 336.471 10.6607 336.957 10.502C337.451 10.334 337.722 10.25 337.769 10.25C338.011 10.25 338.133 10.3433 338.133 10.53C338.133 10.782 337.848 11.0573 337.279 11.356C336.709 11.6453 336.154 11.79 335.613 11.79C334.885 11.79 334.292 11.5753 333.835 11.146C333.377 10.7073 333.149 10.1567 333.149 9.494C333.149 8.83133 333.326 8.14067 333.681 7.422C334.035 6.694 334.493 6.08267 335.053 5.588C335.613 5.09333 336.168 4.846 336.719 4.846C337.269 4.846 337.769 5.10733 338.217 5.63C338.674 6.15267 338.903 6.666 338.903 7.17ZM336.789 5.952C336.443 5.952 336.084 6.134 335.711 6.498C335.337 6.85267 335.02 7.296 334.759 7.828C335.132 7.912 335.557 7.954 336.033 7.954C336.509 7.954 336.924 7.87933 337.279 7.73C337.633 7.57133 337.811 7.366 337.811 7.114C337.811 6.862 337.694 6.60533 337.461 6.344C337.237 6.08267 337.013 5.952 336.789 5.952ZM343.624 4.846C343.941 4.846 344.24 5.02333 344.52 5.378C344.8 5.72333 344.94 6.02667 344.94 6.288C344.94 6.44667 344.865 6.526 344.716 6.526C344.613 6.526 344.454 6.44667 344.24 6.288C344.025 6.12 343.806 6.036 343.582 6.036C343.358 6.036 343.003 6.16667 342.518 6.428C342.042 6.68933 341.804 6.96467 341.804 7.254C341.804 7.46867 342.233 7.83733 343.092 8.36C343.418 8.56533 343.712 8.83133 343.974 9.158C344.244 9.47533 344.38 9.82067 344.38 10.194C344.38 10.558 344.123 10.9173 343.61 11.272C343.106 11.6173 342.513 11.79 341.832 11.79C341.16 11.79 340.562 11.6267 340.04 11.3C339.526 10.9733 339.27 10.6653 339.27 10.376C339.27 10.2547 339.298 10.1613 339.354 10.096C339.419 10.0213 339.498 9.984 339.592 9.984C339.685 9.984 339.816 10.0447 339.984 10.166C340.488 10.53 341.01 10.712 341.552 10.712C342.102 10.712 342.499 10.6513 342.742 10.53C342.984 10.3993 343.106 10.2313 343.106 10.026C343.106 9.81133 342.97 9.58733 342.7 9.354C342.429 9.11133 342.13 8.89667 341.804 8.71C341.486 8.52333 341.192 8.29467 340.922 8.024C340.651 7.75333 340.516 7.478 340.516 7.198C340.516 6.70333 340.903 6.19 341.678 5.658C342.462 5.11667 343.11 4.846 343.624 4.846ZM347.372 2.858C347.372 2.67133 347.447 2.494 347.596 2.326C347.746 2.158 347.895 2.074 348.044 2.074C348.203 2.074 348.39 2.26533 348.604 2.648C348.819 3.02133 348.926 3.334 348.926 3.586C348.926 3.67933 348.884 3.76333 348.8 3.838C348.716 3.91267 348.628 3.95 348.534 3.95C348.31 3.95 348.058 3.81467 347.778 3.544C347.508 3.27333 347.372 3.04467 347.372 2.858ZM347.302 4.846C347.48 4.846 347.648 4.95333 347.806 5.168C347.965 5.38267 348.044 5.59267 348.044 5.798C348.044 6.00333 347.909 6.61933 347.638 7.646C347.368 8.66333 347.027 9.80667 346.616 11.076C346.458 11.5427 346.257 11.776 346.014 11.776C345.884 11.776 345.772 11.7247 345.678 11.622C345.585 11.51 345.538 11.3887 345.538 11.258C345.538 11.118 345.571 10.9033 345.636 10.614C345.711 10.3153 345.814 9.92333 345.944 9.438C346.084 8.94333 346.192 8.542 346.266 8.234C346.35 7.926 346.434 7.58067 346.518 7.198C346.602 6.806 346.668 6.49333 346.714 6.26C346.77 6.01733 346.831 5.77467 346.896 5.532C347.027 5.07467 347.162 4.846 347.302 4.846ZM354.46 8.01C354.46 8.38333 354.297 8.808 353.97 9.284C353.718 9.85333 353.448 10.6747 353.158 11.748C352.869 12.812 352.626 13.5727 352.43 14.03C352.038 14.982 351.436 15.458 350.624 15.458C349.962 15.458 349.402 15.276 348.944 14.912C348.496 14.5573 348.272 14.2027 348.272 13.848C348.272 13.6987 348.319 13.5493 348.412 13.4C348.496 13.2507 348.585 13.176 348.678 13.176C348.781 13.176 348.893 13.246 349.014 13.386C349.136 13.526 349.248 13.6753 349.35 13.834C349.462 14.002 349.626 14.156 349.84 14.296C350.064 14.436 350.279 14.506 350.484 14.506C350.69 14.506 350.844 14.4733 350.946 14.408C351.049 14.352 351.147 14.254 351.24 14.114C351.334 13.9833 351.413 13.848 351.478 13.708C351.544 13.5773 351.614 13.386 351.688 13.134C351.772 12.8913 351.838 12.6813 351.884 12.504C351.931 12.3267 351.996 12.0793 352.08 11.762C352.164 11.4353 352.234 11.174 352.29 10.978C351.562 11.5193 350.97 11.79 350.512 11.79C350.055 11.79 349.658 11.608 349.322 11.244C348.986 10.8707 348.818 10.4413 348.818 9.956C348.818 9.46133 349 8.808 349.364 7.996C349.738 7.184 350.237 6.456 350.862 5.812C351.488 5.168 352.099 4.846 352.696 4.846C353.079 4.846 353.401 4.99067 353.662 5.28C354.092 5.756 354.306 6.43267 354.306 7.31C354.306 7.422 354.302 7.50133 354.292 7.548C354.404 7.70667 354.46 7.86067 354.46 8.01ZM349.952 10.096C349.952 10.2547 350.004 10.3853 350.106 10.488C350.209 10.5813 350.34 10.628 350.498 10.628C350.965 10.628 351.516 10.3527 352.15 9.802C352.785 9.242 353.233 8.59333 353.494 7.856C353.457 7.73467 353.424 7.548 353.396 7.296C353.368 7.044 353.34 6.84333 353.312 6.694C353.284 6.54467 353.224 6.39533 353.13 6.246C353.037 6.08733 352.916 6.008 352.766 6.008C352.402 6.008 351.992 6.26933 351.534 6.792C351.077 7.31467 350.699 7.898 350.4 8.542C350.102 9.186 349.952 9.704 349.952 10.096ZM356.933 9.354C357.829 7.83267 358.557 6.70333 359.117 5.966C359.686 5.21933 360.148 4.846 360.503 4.846C360.867 4.846 361.208 5.03733 361.525 5.42C361.852 5.80267 362.015 6.20867 362.015 6.638C362.015 7.31 361.861 8.13133 361.553 9.102C360.993 10.894 360.489 11.79 360.041 11.79C359.836 11.79 359.733 11.65 359.733 11.37C359.733 11.174 359.831 10.7773 360.027 10.18C360.232 9.57333 360.419 8.98067 360.587 8.402C360.764 7.814 360.853 7.37533 360.853 7.086C360.853 6.78733 360.806 6.568 360.713 6.428C360.629 6.288 360.54 6.218 360.447 6.218C360.363 6.218 360.274 6.246 360.181 6.302C360.088 6.358 359.98 6.45133 359.859 6.582C359.747 6.71267 359.64 6.84333 359.537 6.974C359.434 7.09533 359.304 7.27267 359.145 7.506C358.996 7.73933 358.87 7.94 358.767 8.108C358.664 8.26667 358.515 8.5 358.319 8.808C358.123 9.116 357.974 9.34933 357.871 9.508C357.768 9.66667 357.633 9.88133 357.465 10.152C357.297 10.4227 357.162 10.6327 357.059 10.782C356.966 10.9313 356.858 11.0947 356.737 11.272C356.504 11.6173 356.317 11.79 356.177 11.79C356.046 11.79 355.892 11.6873 355.715 11.482C355.538 11.2673 355.449 11.0807 355.449 10.922C355.449 10.8753 355.482 10.7493 355.547 10.544C355.724 10.0027 355.92 9.33533 356.135 8.542C356.35 7.73933 356.466 6.82933 356.485 5.812C356.513 5.13067 356.611 4.79 356.779 4.79C356.984 4.79 357.19 4.89733 357.395 5.112C357.6 5.32667 357.703 5.56467 357.703 5.826C357.703 6.078 357.624 6.57267 357.465 7.31C357.316 8.038 357.138 8.71933 356.933 9.354Z" fill="#BBBFBF"/>
</svg>
