<svg width="108" height="51" viewBox="0 0 108 51" fill="none" xmlns="http://www.w3.org/2000/svg">
<path d="M24.3746 3.04141C24.7612 1.99667 26.2388 1.99667 26.6254 3.04141L32.1958 18.0952C32.3174 18.4237 32.5763 18.6826 32.9048 18.8042L47.9586 24.3746C49.0033 24.7612 49.0033 26.2388 47.9586 26.6254L32.9048 32.1958C32.5763 32.3174 32.3174 32.5763 32.1958 32.9048L26.6254 47.9586C26.2388 49.0033 24.7612 49.0033 24.3746 47.9586L18.8042 32.9048C18.6826 32.5763 18.4237 32.3174 18.0952 32.1958L3.04141 26.6254C1.99667 26.2388 1.99667 24.7612 3.04141 24.3746L18.0952 18.8042C18.4237 18.6826 18.6826 18.4237 18.8042 18.0952L24.3746 3.04141Z" fill="#FFD91A"/>
<path d="M27.036 26.4508C25.6007 26.679 24.422 26.793 23.5 26.793C22.5875 26.793 21.8271 26.7265 21.2188 26.5934C20.6104 26.4603 20.0401 26.256 19.5078 25.9803C18.3007 25.353 17.602 24.4833 17.4119 23.3711C17.3359 22.7913 17.4927 22.4349 17.8824 22.3018C17.9965 22.2638 18.1296 22.2448 18.2817 22.2448C18.4432 22.2448 18.6096 22.2828 18.7807 22.3588C19.3985 22.8056 20.4726 23.143 22.0029 23.3711C22.3546 23.4187 22.635 23.4424 22.8442 23.4424C23.0533 23.4424 23.3289 23.4329 23.6711 23.4139C24.0133 23.3949 24.3745 23.3569 24.7547 23.2999C25.6767 23.1668 26.4181 22.9482 26.9789 22.644C27.5492 22.3303 28.0673 21.9881 28.533 21.6174C28.9988 21.2467 29.436 20.8808 29.8447 20.5196L31.0281 19.4645C31.8266 18.7516 32.5537 18.2859 33.2096 18.0672C33.8654 17.8486 34.3787 17.7393 34.7494 17.7393C35.1201 17.7393 35.4671 17.7963 35.7902 17.9104C36.1229 18.015 36.4556 18.1623 36.7883 18.3524C37.6248 18.8277 38.043 19.3219 38.043 19.8352C38.043 20.5196 37.6628 21.28 36.9024 22.1165C36.1134 22.9719 35.1582 23.6611 34.0365 24.1838C30.5766 28.3281 28.5948 30.7282 28.091 31.384L30.1156 32.1254C32.6345 33.076 34.5261 33.5512 35.7902 33.5512C36.4556 33.5512 37.2541 33.2803 38.1856 32.7385C38.4802 32.5674 38.7464 32.3536 38.984 32.0969C39.4498 31.5931 39.9013 31.3413 40.3385 31.3413C40.7757 31.3413 41.0942 31.4696 41.2938 31.7262C41.5029 31.9829 41.5694 32.2918 41.4934 32.653C41.4268 33.0142 41.2843 33.4039 41.0656 33.8221C40.847 34.2308 40.5666 34.6633 40.2244 35.1196C39.8917 35.5663 39.502 36.0178 39.0553 36.4741C38.618 36.9208 38.1475 37.3248 37.6438 37.686C36.4936 38.4844 35.4005 38.8836 34.3645 38.8836C33.6801 38.8836 32.6013 38.6603 31.1279 38.2135L25.8668 36.6594C25.1824 36.4598 24.5361 36.2887 23.9277 36.1461C22.7111 37.1917 21.3946 37.8286 19.9783 38.0567C19.4651 38.1327 18.9233 38.1708 18.3529 38.1708C17.7826 38.1708 17.3359 38.0947 17.0127 37.9426C16.6895 37.8 16.4424 37.6099 16.2713 37.3723C15.9957 36.9731 15.8578 36.3553 15.8578 35.5188C15.8578 35.034 16.238 34.3734 16.9984 33.537C18.3197 32.1017 19.7835 31.1084 21.3899 30.5571C21.9602 30.3575 22.4544 30.2577 22.8727 30.2577C23.3004 30.2577 23.7567 30.2909 24.2414 30.3575C25.9048 28.3329 26.8363 27.0306 27.036 26.4508ZM33.2381 24.5118C33.2001 24.5593 33.1906 24.5783 33.2096 24.5688C33.2286 24.5593 33.2714 24.5308 33.3379 24.4833L33.2381 24.5118ZM67.6279 27.0924C67.9321 27.0924 68.0842 27.3491 68.0842 27.8624C68.0842 28.7463 67.4664 29.8917 66.2307 31.2985L65.418 32.1254C62.9561 34.5873 60.6369 36.2269 58.4602 37.0444C57.1104 37.5482 56.1409 37.5244 55.5516 36.9731C55.0668 36.5073 54.6819 35.7564 54.3967 34.7204L54.0545 33.4799L51.0176 35.3477L49.2639 36.3458C47.1727 37.4864 45.6044 38.0567 44.5588 38.0567C43.2186 38.0567 42.1017 37.5387 41.2082 36.5026C40.3527 35.5236 39.925 34.3877 39.925 33.095C39.925 31.8213 40.4335 30.6854 41.4506 29.6874C42.9049 28.2616 45.2004 26.9546 48.3371 25.7665C51.3027 24.6543 53.6981 24.0983 55.5231 24.0983C56.1409 24.0983 56.4498 24.4025 56.4498 25.0108C56.4498 25.429 56.369 25.7427 56.2074 25.9518C56.0458 26.1609 55.7132 26.3748 55.2094 26.5934L53.4129 27.3633C50.7514 28.4754 48.8029 29.6303 47.5672 30.828C47.2155 31.1607 47.0397 31.4838 47.0397 31.7975C47.0397 32.1112 47.2916 32.268 47.7953 32.268C48.2896 32.268 49.4397 31.7357 51.2457 30.6711L52.4291 29.9725C54.2636 28.8699 55.7987 28.3186 57.0344 28.3186C58.08 28.3186 58.7738 28.7796 59.116 29.7016C59.2016 29.9487 59.2824 30.2006 59.3584 30.4573C59.4345 30.7044 59.5105 30.9278 59.5865 31.1274C59.7576 31.5931 59.9097 31.826 60.0428 31.826C60.1854 31.826 60.385 31.7595 60.6416 31.6264C60.8983 31.4838 61.1787 31.308 61.4828 31.0989C61.7965 30.8803 62.1197 30.6426 62.4524 30.386L64.1776 29.003C65.7079 27.7293 66.858 27.0924 67.6279 27.0924ZM77.5086 38.4844C75.56 38.4844 73.64 37.2392 71.7485 34.7489L70.0945 35.975C68.3361 37.2297 67.1669 37.8571 66.5871 37.8571C65.9313 37.8571 65.3229 37.6099 64.7621 37.1157C64.6005 36.9731 64.4817 36.821 64.4057 36.6594C64.054 36.3077 63.8781 35.3905 63.8781 33.9077C63.8781 32.4153 64.0445 31.0181 64.3772 29.7159C64.7098 28.4137 65.1423 27.2065 65.6746 26.0944C66.5111 24.3454 67.8085 22.4254 69.567 20.3342C70.5556 18.9084 71.7675 17.7393 73.2028 16.8268C74.4194 16.0569 75.4365 15.6719 76.2539 15.6719C76.7007 15.6719 77.0761 15.7717 77.3803 15.9713C77.694 16.1709 77.8508 16.4418 77.8508 16.784C77.8508 17.1262 77.7177 17.5017 77.4516 17.9104C74.3244 22.4729 72.5184 25.1344 72.0336 25.8948C71.5488 26.6552 71.2067 27.2398 71.007 27.6485C70.8074 28.0572 70.6601 28.3709 70.5651 28.5895C70.47 28.7986 70.3797 29.0172 70.2942 29.2454C70.0945 29.7777 69.9947 30.1626 69.9947 30.4002C69.9947 30.6379 70.1753 30.7567 70.5365 30.7567C70.8692 30.7567 71.7389 29.8965 73.1457 28.176L75.0563 25.8092C75.7597 24.9252 76.4868 24.3169 77.2377 23.9842C77.9981 23.6515 78.6587 23.4852 79.2195 23.4852C80.8069 23.4852 81.6006 23.8702 81.6006 24.6401C81.6006 25.334 81.0731 26.3083 80.018 27.5629C79.9039 27.696 79.7328 27.8766 79.5047 28.1047L77.5942 29.8727L76.3252 30.9991C77.2187 32.0446 78.0979 32.7813 78.9629 33.209C79.1625 33.3041 79.3289 33.3516 79.4619 33.3516C79.6045 33.3516 79.8564 33.2661 80.2176 33.095C80.5788 32.9144 80.9828 32.6862 81.4295 32.4106C81.8858 32.1254 82.3658 31.807 82.8695 31.4553L86.7762 28.6038C87.1184 28.3376 87.4606 28.2045 87.8028 28.2045C88.5156 28.2045 88.8721 28.4992 88.8721 29.0885C88.8721 29.8584 88.4966 30.7567 87.7457 31.7833C87.5176 32.0874 87.299 32.3441 87.0899 32.5532L86.1774 33.3801C83.63 35.7469 81.3202 37.3248 79.2481 38.1137C78.6207 38.3609 78.0409 38.4844 77.5086 38.4844ZM106.238 27.3206C106.694 27.3206 106.922 27.5772 106.922 28.0905C106.922 28.4327 106.804 28.8652 106.566 29.3879C106.338 29.9012 106.005 30.386 105.568 30.8422C105.131 31.289 104.627 31.7547 104.057 32.2395C103.496 32.7243 102.835 33.2328 102.075 33.7651C101.324 34.2974 100.492 34.8249 99.5797 35.3477C98.6672 35.8705 97.6977 36.341 96.6711 36.7592C94.3994 37.6907 92.1989 38.1565 90.0697 38.1565C88.4444 38.1565 87.0233 37.7335 85.8067 36.8875C84.533 36.0036 83.8961 34.9295 83.8961 33.6653C83.8961 31.6787 84.9654 29.7919 87.1041 28.0049C88.9481 26.4651 91.1201 25.2722 93.6199 24.4262C95.1408 23.9129 96.4287 23.6563 97.4838 23.6563C98.3393 23.6563 99.0617 23.8654 99.651 24.2836C100.278 24.7399 100.592 25.353 100.592 26.1229C100.592 27.3301 99.6367 28.6655 97.7262 30.1293C97.422 30.367 97.1464 30.5666 96.8992 30.7282L96.386 31.0704C95.4354 31.7357 93.9906 32.4819 92.0516 33.3088C92.6504 33.6225 93.2065 33.7793 93.7197 33.7793C94.2425 33.7793 94.7083 33.7176 95.117 33.594C95.5352 33.4704 96.0057 33.2946 96.5285 33.0665C97.0513 32.8383 97.6074 32.5674 98.1967 32.2538C98.7955 31.9306 99.3991 31.5789 100.007 31.1987C101.367 30.3527 102.545 29.4877 103.543 28.6038C104.066 28.119 104.732 27.734 105.539 27.4489C105.806 27.3633 106.038 27.3206 106.238 27.3206ZM90.5117 31.327L91.2959 30.9278C91.5526 30.7947 91.7807 30.6711 91.9803 30.5571C93.9003 29.4545 94.9934 28.7749 95.2596 28.5182C95.5257 28.2616 95.6588 28.0857 95.6588 27.9907C95.6588 27.8861 95.6303 27.7673 95.5733 27.6342C95.5162 27.5012 95.4402 27.3823 95.3451 27.2778C95.117 27.0116 94.8746 26.8786 94.618 26.8786C94.3613 26.8786 94.0762 26.9261 93.7625 27.0211C93.4583 27.1162 93.1494 27.2493 92.8358 27.4204C92.5221 27.5819 92.2179 27.7816 91.9233 28.0192C91.6381 28.2473 91.3862 28.4944 91.1676 28.7606C90.6638 29.3594 90.4119 29.8775 90.4119 30.3147C90.4119 30.7519 90.4452 31.0894 90.5117 31.327Z" fill="#202626"/>
</svg>
