<svg width="108" height="52" viewBox="0 0 108 52" fill="none" xmlns="http://www.w3.org/2000/svg">
<g clip-path="url(#clip0_200_450)">
<path d="M24.7745 3.56143C25.1611 2.51669 26.6387 2.51669 27.0253 3.56143L32.5957 18.6152C32.7173 18.9437 32.9762 19.2027 33.3047 19.3242L48.3585 24.8946C49.4032 25.2812 49.4032 26.7589 48.3585 27.1454L33.3047 32.7158C32.9762 32.8374 32.7173 33.0964 32.5957 33.4248L27.0253 48.4786C26.6387 49.5234 25.1611 49.5234 24.7745 48.4786L19.2041 33.4248C19.0825 33.0964 18.8236 32.8374 18.4951 32.7158L3.44131 27.1454C2.39657 26.7589 2.39657 25.2812 3.44131 24.8946L18.4951 19.3242C18.8236 19.2027 19.0825 18.9437 19.2041 18.6152L24.7745 3.56143Z" fill="#F28218"/>
<path d="M27.4358 26.9706C26.0005 27.1987 24.8219 27.3128 23.8999 27.3128C22.9874 27.3128 22.2269 27.2463 21.6186 27.1132C21.0103 26.9801 20.44 26.7757 19.9077 26.5001C18.7005 25.8728 18.0019 25.003 17.8118 23.8909C17.7357 23.3111 17.8926 22.9547 18.2823 22.8216C18.3963 22.7836 18.5294 22.7645 18.6815 22.7645C18.8431 22.7645 19.0094 22.8026 19.1805 22.8786C19.7984 23.3254 20.8724 23.6628 22.4028 23.8909C22.7545 23.9384 23.0349 23.9622 23.244 23.9622C23.4531 23.9622 23.7288 23.9527 24.0709 23.9337C24.4131 23.9147 24.7743 23.8767 25.1545 23.8196C26.0765 23.6866 26.818 23.4679 27.3788 23.1638C27.9491 22.8501 28.4671 22.5079 28.9329 22.1372C29.3986 21.7665 29.8359 21.4006 30.2446 21.0394L31.428 19.9843C32.2264 19.2714 32.9536 18.8056 33.6094 18.587C34.2653 18.3684 34.7786 18.2591 35.1493 18.2591C35.52 18.2591 35.8669 18.3161 36.1901 18.4302C36.5228 18.5347 36.8555 18.6821 37.1881 18.8722C38.0246 19.3474 38.4428 19.8417 38.4428 20.355C38.4428 21.0394 38.0626 21.7998 37.3022 22.6362C36.5133 23.4917 35.558 24.1808 34.4364 24.7036C30.9765 28.8479 28.9946 31.2479 28.4909 31.9038L30.5155 32.6452C33.0344 33.5957 34.9259 34.071 36.1901 34.071C36.8555 34.071 37.6539 33.8001 38.5854 33.2583C38.8801 33.0872 39.1462 32.8733 39.3838 32.6167C39.8496 32.1129 40.3011 31.861 40.7383 31.861C41.1756 31.861 41.494 31.9894 41.6936 32.246C41.9027 32.5026 41.9693 32.8116 41.8932 33.1728C41.8267 33.534 41.6841 33.9237 41.4655 34.3419C41.2469 34.7506 40.9665 35.1831 40.6243 35.6394C40.2916 36.0861 39.9019 36.5376 39.4551 36.9938C39.0179 37.4406 38.5474 37.8446 38.0436 38.2058C36.8935 39.0042 35.8004 39.4034 34.7643 39.4034C34.0799 39.4034 33.0011 39.18 31.5278 38.7333L26.2667 37.1792C25.5823 36.9796 24.9359 36.8085 24.3276 36.6659C23.1109 37.7115 21.7945 38.3483 20.3782 38.5765C19.8649 38.6525 19.3231 38.6905 18.7528 38.6905C18.1825 38.6905 17.7357 38.6145 17.4125 38.4624C17.0894 38.3198 16.8422 38.1297 16.6711 37.8921C16.3955 37.4929 16.2577 36.875 16.2577 36.0386C16.2577 35.5538 16.6379 34.8932 17.3983 34.0567C18.7195 32.6215 20.1833 31.6282 21.7897 31.0769C22.36 30.8772 22.8543 30.7774 23.2725 30.7774C23.7002 30.7774 24.1565 30.8107 24.6413 30.8772C26.3047 28.8526 27.2362 27.5504 27.4358 26.9706ZM33.6379 25.0315C33.5999 25.0791 33.5904 25.0981 33.6094 25.0886C33.6284 25.0791 33.6712 25.0506 33.7377 25.003L33.6379 25.0315ZM68.0278 27.6122C68.332 27.6122 68.484 27.8688 68.484 28.3821C68.484 29.2661 67.8662 30.4115 66.6305 31.8183L65.8178 32.6452C63.356 35.1071 61.0367 36.7467 58.86 37.5642C57.5103 38.0679 56.5407 38.0442 55.9514 37.4929C55.4667 37.0271 55.0817 36.2762 54.7965 35.2401L54.4543 33.9997L51.4174 35.8675L49.6637 36.8655C47.5726 38.0062 46.0042 38.5765 44.9586 38.5765C43.6184 38.5765 42.5015 38.0584 41.6081 37.0224C40.7526 36.0433 40.3249 34.9075 40.3249 33.6147C40.3249 32.341 40.8334 31.2052 41.8504 30.2071C43.3047 28.7813 45.6002 27.4744 48.737 26.2862C51.7026 25.1741 54.0979 24.6181 55.9229 24.6181C56.5407 24.6181 56.8497 24.9222 56.8497 25.5306C56.8497 25.9488 56.7689 26.2625 56.6073 26.4716C56.4457 26.6807 56.113 26.8946 55.6092 27.1132L53.8127 27.8831C51.1513 28.9952 49.2027 30.1501 47.967 31.3478C47.6154 31.6804 47.4395 32.0036 47.4395 32.3173C47.4395 32.631 47.6914 32.7878 48.1952 32.7878C48.6894 32.7878 49.8396 32.2555 51.6456 31.1909L52.829 30.4923C54.6635 29.3897 56.1986 28.8384 57.4342 28.8384C58.4798 28.8384 59.1737 29.2994 59.5159 30.2214C59.6014 30.4685 59.6822 30.7204 59.7583 30.9771C59.8343 31.2242 59.9103 31.4476 59.9864 31.6472C60.1575 32.1129 60.3096 32.3458 60.4426 32.3458C60.5852 32.3458 60.7848 32.2793 61.0415 32.1462C61.2981 32.0036 61.5785 31.8278 61.8827 31.6187C62.1963 31.4 62.5195 31.1624 62.8522 30.9058L64.5774 29.5228C66.1077 28.2491 67.2579 27.6122 68.0278 27.6122ZM77.9085 39.0042C75.9599 39.0042 74.0398 37.759 72.1483 35.2687L70.4944 36.4948C68.7359 37.7495 67.5668 38.3769 66.987 38.3769C66.3311 38.3769 65.7228 38.1297 65.162 37.6354C65.0004 37.4929 64.8816 37.3408 64.8055 37.1792C64.4538 36.8275 64.278 35.9103 64.278 34.4274C64.278 32.9351 64.4443 31.5379 64.777 30.2356C65.1097 28.9334 65.5422 27.7263 66.0745 26.6142C66.9109 24.8652 68.2084 22.9451 69.9668 20.854C70.9554 19.4282 72.1673 18.2591 73.6026 17.3466C74.8193 16.5767 75.8363 16.1917 76.6538 16.1917C77.1005 16.1917 77.476 16.2915 77.7801 16.4911C78.0938 16.6907 78.2506 16.9616 78.2506 17.3038C78.2506 17.646 78.1176 18.0214 77.8514 18.4302C74.7242 22.9927 72.9182 25.6541 72.4335 26.4145C71.9487 27.175 71.6065 27.7595 71.4069 28.1683C71.2073 28.577 71.0599 28.8907 70.9649 29.1093C70.8698 29.3184 70.7795 29.537 70.694 29.7651C70.4944 30.2974 70.3946 30.6824 70.3946 30.92C70.3946 31.1576 70.5752 31.2765 70.9364 31.2765C71.2691 31.2765 72.1388 30.4162 73.5456 28.6958L75.4561 26.329C76.1595 25.445 76.8866 24.8367 77.6376 24.504C78.398 24.1713 79.0586 24.005 79.6194 24.005C81.2068 24.005 82.0004 24.3899 82.0004 25.1599C82.0004 25.8537 81.4729 26.828 80.4178 28.0827C80.3038 28.2158 80.1327 28.3964 79.9045 28.6245L77.994 30.3925L76.7251 31.5188C77.6185 32.5644 78.4978 33.3011 79.3627 33.7288C79.5624 33.8239 79.7287 33.8714 79.8618 33.8714C80.0044 33.8714 80.2562 33.7858 80.6174 33.6147C80.9786 33.4341 81.3826 33.206 81.8294 32.9304C82.2856 32.6452 82.7656 32.3268 83.2694 31.9751L87.176 29.1235C87.5182 28.8574 87.8604 28.7243 88.2026 28.7243C88.9155 28.7243 89.2719 29.019 89.2719 29.6083C89.2719 30.3782 88.8965 31.2765 88.1456 32.303C87.9174 32.6072 87.6988 32.8638 87.4897 33.0729L86.5772 33.8999C84.0298 36.2667 81.72 37.8446 79.6479 38.6335C79.0206 38.8806 78.4407 39.0042 77.9085 39.0042ZM106.638 27.8403C107.094 27.8403 107.322 28.097 107.322 28.6103C107.322 28.9524 107.204 29.3849 106.966 29.9077C106.738 30.421 106.405 30.9058 105.968 31.362C105.531 31.8088 105.027 32.2745 104.456 32.7593C103.896 33.244 103.235 33.7526 102.475 34.2849C101.724 34.8172 100.892 35.3447 99.9795 35.8675C99.067 36.3903 98.0975 36.8608 97.071 37.279C94.7992 38.2105 92.5988 38.6763 90.4696 38.6763C88.8442 38.6763 87.4232 38.2533 86.2065 37.4073C84.9328 36.5233 84.296 35.4493 84.296 34.1851C84.296 32.1985 85.3653 30.3117 87.504 28.5247C89.348 26.9849 91.5199 25.792 94.0198 24.946C95.5406 24.4327 96.8286 24.1761 97.8836 24.1761C98.7391 24.1761 99.4615 24.3852 100.051 24.8034C100.678 25.2597 100.992 25.8728 100.992 26.6427C100.992 27.8498 100.037 29.1853 98.126 30.6491C97.8219 30.8868 97.5462 31.0864 97.2991 31.2479L96.7858 31.5901C95.8353 32.2555 94.3905 33.0017 92.4514 33.8286C93.0502 34.1423 93.6063 34.2991 94.1196 34.2991C94.6424 34.2991 95.1081 34.2373 95.5168 34.1138C95.9351 33.9902 96.4056 33.8144 96.9284 33.5862C97.4512 33.3581 98.0072 33.0872 98.5965 32.7735C99.1954 32.4504 99.7989 32.0987 100.407 31.7185C101.767 30.8725 102.945 30.0075 103.943 29.1235C104.466 28.6388 105.131 28.2538 105.939 27.9687C106.205 27.8831 106.438 27.8403 106.638 27.8403ZM90.9116 31.8468L91.6958 31.4476C91.9524 31.3145 92.1805 31.1909 92.3801 31.0769C94.3002 29.9743 95.3933 29.2946 95.6594 29.038C95.9256 28.7813 96.0586 28.6055 96.0586 28.5104C96.0586 28.4059 96.0301 28.2871 95.9731 28.154C95.9161 28.0209 95.84 27.9021 95.745 27.7976C95.5168 27.5314 95.2745 27.3983 95.0178 27.3983C94.7612 27.3983 94.476 27.4459 94.1624 27.5409C93.8582 27.636 93.5493 27.769 93.2356 27.9401C92.9219 28.1017 92.6178 28.3013 92.3231 28.539C92.0379 28.7671 91.7861 29.0142 91.5674 29.2804C91.0637 29.8792 90.8118 30.3972 90.8118 30.8345C90.8118 31.2717 90.845 31.6091 90.9116 31.8468Z" fill="white"/>
</g>
<defs>
<clipPath id="clip0_200_450">
<rect width="107.4" height="51" fill="white" transform="translate(0.399902 0.52002)"/>
</clipPath>
</defs>
</svg>
