<svg width="160" height="101" viewBox="0 0 160 101" fill="none" xmlns="http://www.w3.org/2000/svg">
<path d="M11.52 0.388281H148.48C154.759 0.388281 159.85 5.4788 159.85 11.7583V88.6383C159.85 94.9177 154.759 100.008 148.48 100.008H11.52C5.24053 100.008 0.15 94.9178 0.15 88.6383V11.7583C0.15 5.47882 5.24052 0.388281 11.52 0.388281Z" fill="white"/>
<path d="M11.52 0.388281H148.48C154.759 0.388281 159.85 5.4788 159.85 11.7583V88.6383C159.85 94.9177 154.759 100.008 148.48 100.008H11.52C5.24053 100.008 0.15 94.9178 0.15 88.6383V11.7583C0.15 5.47882 5.24052 0.388281 11.52 0.388281Z" stroke="#848C8B" stroke-width="0.3"/>
<rect x="11.52" y="15.5981" width="136.96" height="48" rx="5.76" fill="#CFD9DE"/>
<path d="M13.9047 81.7983H12.4531V73.3772H13.9162L17.8675 79.3446V73.3772H19.3191V81.7983H17.8675L13.9047 75.831V81.7983ZM23.5217 81.9481C21.8283 81.9481 20.6417 80.7155 20.6417 78.9529C20.6417 77.1673 21.8052 75.9347 23.4756 75.9347C25.1806 75.9347 26.2635 77.0751 26.2635 78.8492V79.2755L21.978 79.287C22.0817 80.2892 22.6116 80.7961 23.5447 80.7961C24.3166 80.7961 24.8235 80.4966 24.9847 79.9551H26.2865C26.0446 81.1993 25.0078 81.9481 23.5217 81.9481ZM23.4871 77.0867C22.6577 77.0867 22.1508 77.5359 22.0126 78.3884H24.8695C24.8695 77.6051 24.3281 77.0867 23.4871 77.0867ZM31.2475 76.1075H32.6529V81.7983H31.3512L31.2475 81.038C30.9019 81.5795 30.1646 81.9481 29.4043 81.9481C28.091 81.9481 27.3192 81.0611 27.3192 79.6671V76.1075H28.7246V79.1718C28.7246 80.2547 29.1508 80.6924 29.9342 80.6924C30.8212 80.6924 31.2475 80.174 31.2475 79.0911V76.1075ZM36.0399 81.7983H34.6345V77.2825H33.5401V76.1075H34.6345V74.3334H36.0399V76.1075H37.1458V77.2825H36.0399V81.7983ZM41.5907 76.0844V77.3862H41.0723C40.0586 77.3862 39.425 77.9276 39.425 79.0335V81.7983H38.0195V76.119H39.3443L39.425 76.9484C39.6669 76.3839 40.2083 76.0038 40.9687 76.0038C41.1645 76.0038 41.3603 76.0268 41.5907 76.0844ZM44.0105 81.9481C42.8009 81.9481 42.0636 81.2454 42.0636 80.174C42.0636 79.1257 42.8239 78.4691 44.1718 78.3654L45.8767 78.2387V78.1119C45.8767 77.3401 45.4159 77.0291 44.7017 77.0291C43.8722 77.0291 43.4114 77.3747 43.4114 77.9737H42.2134C42.2134 76.7411 43.2271 75.9347 44.7708 75.9347C46.303 75.9347 47.2476 76.7641 47.2476 78.3423V81.7983H46.015L45.9113 80.9574C45.6694 81.5449 44.8975 81.9481 44.0105 81.9481ZM44.4713 80.8883C45.3353 80.8883 45.8882 80.3699 45.8882 79.4943V79.1948L44.7017 79.287C43.8262 79.3676 43.4921 79.6556 43.4921 80.1164C43.4921 80.6348 43.8377 80.8883 44.4713 80.8883ZM50.0452 81.7983H48.6513V73.2275H50.0452V81.7983ZM56.8825 77.6281H55.8572V76.6719L58.0229 74.679H54.5209V73.3772H59.8661V74.5523L57.8156 76.4415C59.1058 76.695 60.1081 77.6396 60.1081 79.1257C60.1081 80.8537 58.7602 81.9481 57.0553 81.9481C55.4079 81.9481 54.1292 80.9343 54.1292 79.1142H55.5807C55.5807 80.0819 56.1797 80.6348 57.0783 80.6348C57.9999 80.6348 58.6105 80.0358 58.6105 79.1027C58.6105 78.2502 58.0575 77.6281 56.8825 77.6281Z" fill="#0A0D0D"/>
<path d="M94.6323 78.3078H95.7267L96.0147 76.8793H94.7475L95.0124 75.566H96.2681L96.6943 73.3772H98.0883L97.662 75.566H99.1251L99.5513 73.3772H100.945L100.519 75.566H101.706L101.441 76.8793H100.266L99.9891 78.3078H101.302L101.037 79.6211H99.7356L99.3094 81.7983H97.9155L98.3417 79.6211H96.8671L96.4409 81.7983H95.047L95.4732 79.6211H94.3673L94.6323 78.3078ZM97.1206 78.3078H98.5951L98.8716 76.8793H97.4086L97.1206 78.3078ZM106.668 81.9366C104.214 81.9366 102.624 80.2316 102.624 77.5935C102.624 74.9785 104.272 73.239 106.737 73.239C108.73 73.239 110.216 74.4025 110.504 76.2111H108.949C108.661 75.2319 107.82 74.6559 106.702 74.6559C105.147 74.6559 104.168 75.7849 104.168 77.582C104.168 79.3676 105.159 80.5196 106.702 80.5196C107.843 80.5196 108.718 79.9206 108.995 78.9875H110.527C110.204 80.7615 108.661 81.9366 106.668 81.9366ZM116.457 78.3539H113.324V81.7983H111.849V73.3772H117.056V74.7366H113.324V77.0291H116.457V78.3539ZM121.415 81.7983H118.386V73.3772H121.335C123.823 73.3772 125.54 75.0937 125.54 77.6051C125.54 80.0819 123.858 81.7983 121.415 81.7983ZM121.196 74.7366H119.86V80.439H121.277C122.959 80.439 123.984 79.3561 123.984 77.6051C123.984 75.8195 122.936 74.7366 121.196 74.7366ZM131.429 79.3215L129.609 81.7983H127.927L129.943 79.1142C129.735 79.1718 129.517 79.2063 129.309 79.2063C127.57 79.2063 126.395 77.9852 126.395 76.2803C126.395 74.4831 127.731 73.2275 129.528 73.2275C131.348 73.2275 132.708 74.5638 132.708 76.2918C132.708 77.3055 132.374 78.0428 131.429 79.3215ZM131.199 76.2803C131.199 75.255 130.519 74.5407 129.528 74.5407C128.56 74.5407 127.881 75.255 127.881 76.2803C127.881 77.294 128.56 77.9967 129.528 77.9967C130.53 77.9967 131.199 77.294 131.199 76.2803ZM137.087 81.7983H134.057V73.3772H137.006C139.494 73.3772 141.211 75.0937 141.211 77.6051C141.211 80.0819 139.529 81.7983 137.087 81.7983ZM136.868 74.7366H135.531V80.439H136.948C138.63 80.439 139.656 79.3561 139.656 77.6051C139.656 75.8195 138.607 74.7366 136.868 74.7366ZM147.814 81.7983H142.584V73.3772H147.814V74.7366H144.059V76.9023H147.423V78.2041H144.059V80.439H147.814V81.7983Z" fill="#A1A6A6"/>
</svg>
