<svg width="160" height="101" viewBox="0 0 160 101" fill="none" xmlns="http://www.w3.org/2000/svg">
<path d="M11.52 0.388281H148.48C154.759 0.388281 159.85 5.4788 159.85 11.7583V88.6383C159.85 94.9177 154.759 100.008 148.48 100.008H11.52C5.24053 100.008 0.15 94.9178 0.15 88.6383V11.7583C0.15 5.47882 5.24052 0.388281 11.52 0.388281Z" fill="white"/>
<path d="M11.52 0.388281H148.48C154.759 0.388281 159.85 5.4788 159.85 11.7583V88.6383C159.85 94.9177 154.759 100.008 148.48 100.008H11.52C5.24053 100.008 0.15 94.9178 0.15 88.6383V11.7583C0.15 5.47882 5.24052 0.388281 11.52 0.388281Z" stroke="#848C8B" stroke-width="0.3"/>
<rect x="11.52" y="15.5981" width="136.96" height="48" rx="5.76" fill="#273540"/>
<path d="M13.9047 81.7983H12.4531V73.3772H13.9162L17.8675 79.3446V73.3772H19.3191V81.7983H17.8675L13.9047 75.831V81.7983ZM23.5217 81.9481C21.8283 81.9481 20.6417 80.7155 20.6417 78.9529C20.6417 77.1673 21.8052 75.9347 23.4756 75.9347C25.1806 75.9347 26.2635 77.0751 26.2635 78.8492V79.2755L21.978 79.287C22.0817 80.2892 22.6116 80.7961 23.5447 80.7961C24.3166 80.7961 24.8235 80.4966 24.9847 79.9551H26.2865C26.0446 81.1993 25.0078 81.9481 23.5217 81.9481ZM23.4871 77.0867C22.6577 77.0867 22.1508 77.5359 22.0126 78.3884H24.8695C24.8695 77.6051 24.3281 77.0867 23.4871 77.0867ZM31.2475 76.1075H32.6529V81.7983H31.3512L31.2475 81.038C30.9019 81.5795 30.1646 81.9481 29.4043 81.9481C28.091 81.9481 27.3192 81.0611 27.3192 79.6671V76.1075H28.7246V79.1718C28.7246 80.2547 29.1508 80.6924 29.9342 80.6924C30.8212 80.6924 31.2475 80.174 31.2475 79.0911V76.1075ZM36.0399 81.7983H34.6345V77.2825H33.5401V76.1075H34.6345V74.3334H36.0399V76.1075H37.1458V77.2825H36.0399V81.7983ZM41.5907 76.0844V77.3862H41.0723C40.0586 77.3862 39.425 77.9276 39.425 79.0335V81.7983H38.0195V76.119H39.3443L39.425 76.9484C39.6669 76.3839 40.2083 76.0038 40.9687 76.0038C41.1645 76.0038 41.3603 76.0268 41.5907 76.0844ZM44.0105 81.9481C42.8009 81.9481 42.0636 81.2454 42.0636 80.174C42.0636 79.1257 42.8239 78.4691 44.1718 78.3654L45.8767 78.2387V78.1119C45.8767 77.3401 45.4159 77.0291 44.7017 77.0291C43.8722 77.0291 43.4114 77.3747 43.4114 77.9737H42.2134C42.2134 76.7411 43.2271 75.9347 44.7708 75.9347C46.303 75.9347 47.2476 76.7641 47.2476 78.3423V81.7983H46.015L45.9113 80.9574C45.6694 81.5449 44.8975 81.9481 44.0105 81.9481ZM44.4713 80.8883C45.3353 80.8883 45.8882 80.3699 45.8882 79.4943V79.1948L44.7017 79.287C43.8262 79.3676 43.4921 79.6556 43.4921 80.1164C43.4921 80.6348 43.8377 80.8883 44.4713 80.8883ZM50.0452 81.7983H48.6513V73.2275H50.0452V81.7983ZM57.2972 81.9366C55.5346 81.9366 54.3711 80.8076 54.3711 79.1027H55.8341C55.8341 80.0588 56.3986 80.6233 57.3317 80.6233C58.3225 80.6233 58.9561 79.9782 58.9561 78.9529C58.9561 77.9737 58.3685 77.3055 57.3548 77.3055C56.7097 77.3055 56.1221 77.6281 55.8226 78.0659L54.5209 77.7894L55.5577 73.3772H59.9468V74.7366H56.6175L56.1682 76.4876C56.5714 76.2227 57.0783 76.0729 57.6543 76.0729C59.3362 76.0729 60.4537 77.2134 60.4537 78.8723C60.4537 80.6924 59.1749 81.9366 57.2972 81.9366Z" fill="#0A0D0D"/>
<path d="M98.9185 78.3078H100.013L100.301 76.8793H99.0337L99.2987 75.566H100.554L100.981 73.3772H102.375L101.948 75.566H103.411L103.838 73.3772H105.231L104.805 75.566H105.992L105.727 76.8793H104.552L104.275 78.3078H105.589L105.324 79.6211H104.022L103.596 81.7983H102.202L102.628 79.6211H101.153L100.727 81.7983H99.3332L99.7595 79.6211H98.6535L98.9185 78.3078ZM101.407 78.3078H102.881L103.158 76.8793H101.695L101.407 78.3078ZM112.832 81.7868L106.991 81.7983V80.6924L109.744 78.3654C110.885 77.3977 111.265 76.8447 111.265 76.0383C111.265 75.0822 110.747 74.5407 109.86 74.5407C108.938 74.5407 108.362 75.1859 108.351 76.2687H106.887C106.899 74.4255 108.074 73.2275 109.86 73.2275C111.657 73.2275 112.774 74.2527 112.774 75.9577C112.774 77.1327 112.129 78.0198 110.85 79.1142L109.33 80.4159H112.832V81.7868ZM113.292 73.3772H119.34V74.7366L116.287 81.7983H114.755L117.865 74.7366H113.292V73.3772ZM122.472 77.6281H121.447V76.6719L123.613 74.679H120.111V73.3772H125.456V74.5523L123.406 76.4415C124.696 76.695 125.698 77.6396 125.698 79.1257C125.698 80.8537 124.35 81.9481 122.645 81.9481C120.998 81.9481 119.719 80.9343 119.719 79.1142H121.171C121.171 80.0819 121.77 80.6348 122.668 80.6348C123.59 80.6348 124.2 80.0358 124.2 79.1027C124.2 78.2502 123.647 77.6281 122.472 77.6281ZM129.401 81.9366C127.638 81.9366 126.475 80.8076 126.475 79.1027H127.938C127.938 80.0588 128.502 80.6233 129.435 80.6233C130.426 80.6233 131.06 79.9782 131.06 78.9529C131.06 77.9737 130.472 77.3055 129.458 77.3055C128.813 77.3055 128.226 77.6281 127.926 78.0659L126.625 77.7894L127.661 73.3772H132.05V74.7366H128.721L128.272 76.4876C128.675 76.2227 129.182 76.0729 129.758 76.0729C131.44 76.0729 132.557 77.2134 132.557 78.8723C132.557 80.6924 131.279 81.9366 129.401 81.9366ZM139.926 80.1971H138.9V81.7983H137.506V80.1971H133.233V78.9068L137.046 73.3772H138.9V78.9068H139.926V80.1971ZM134.799 78.9068H137.506V74.967L134.799 78.9068ZM140.853 77.6051C140.853 74.99 142.258 73.2159 144.413 73.2159C146.567 73.2159 147.984 74.99 147.984 77.6051C147.984 80.2086 146.647 81.9481 144.413 81.9481C142.178 81.9481 140.853 80.2086 140.853 77.6051ZM142.304 77.6051C142.304 79.5519 143.088 80.6463 144.413 80.6463C145.749 80.6463 146.532 79.5519 146.532 77.6051C146.532 75.6121 145.749 74.5177 144.413 74.5177C143.088 74.5177 142.304 75.6121 142.304 77.6051Z" fill="#A1A6A6"/>
</svg>
