<svg width="160" height="101" viewBox="0 0 160 101" fill="none" xmlns="http://www.w3.org/2000/svg">
<path d="M11.52 0.388281H148.48C154.759 0.388281 159.85 5.4788 159.85 11.7583V88.6383C159.85 94.9177 154.759 100.008 148.48 100.008H11.52C5.24053 100.008 0.15 94.9178 0.15 88.6383V11.7583C0.15 5.47882 5.24052 0.388281 11.52 0.388281Z" fill="white"/>
<path d="M11.52 0.388281H148.48C154.759 0.388281 159.85 5.4788 159.85 11.7583V88.6383C159.85 94.9177 154.759 100.008 148.48 100.008H11.52C5.24053 100.008 0.15 94.9178 0.15 88.6383V11.7583C0.15 5.47882 5.24052 0.388281 11.52 0.388281Z" stroke="#848C8B" stroke-width="0.3"/>
<rect x="11.52" y="15.5981" width="136.96" height="48" rx="5.76" fill="#F0F7FA"/>
<path d="M13.9047 81.7983H12.4531V73.3772H13.9162L17.8675 79.3446V73.3772H19.3191V81.7983H17.8675L13.9047 75.831V81.7983ZM23.5217 81.9481C21.8283 81.9481 20.6417 80.7155 20.6417 78.9529C20.6417 77.1673 21.8052 75.9347 23.4756 75.9347C25.1806 75.9347 26.2635 77.0751 26.2635 78.8492V79.2755L21.978 79.287C22.0817 80.2892 22.6116 80.7961 23.5447 80.7961C24.3166 80.7961 24.8235 80.4966 24.9847 79.9551H26.2865C26.0446 81.1993 25.0078 81.9481 23.5217 81.9481ZM23.4871 77.0867C22.6577 77.0867 22.1508 77.5359 22.0126 78.3884H24.8695C24.8695 77.6051 24.3281 77.0867 23.4871 77.0867ZM31.2475 76.1075H32.6529V81.7983H31.3512L31.2475 81.038C30.9019 81.5795 30.1646 81.9481 29.4043 81.9481C28.091 81.9481 27.3192 81.0611 27.3192 79.6671V76.1075H28.7246V79.1718C28.7246 80.2547 29.1508 80.6924 29.9342 80.6924C30.8212 80.6924 31.2475 80.174 31.2475 79.0911V76.1075ZM36.0399 81.7983H34.6345V77.2825H33.5401V76.1075H34.6345V74.3334H36.0399V76.1075H37.1458V77.2825H36.0399V81.7983ZM41.5907 76.0844V77.3862H41.0723C40.0586 77.3862 39.425 77.9276 39.425 79.0335V81.7983H38.0195V76.119H39.3443L39.425 76.9484C39.6669 76.3839 40.2083 76.0038 40.9687 76.0038C41.1645 76.0038 41.3603 76.0268 41.5907 76.0844ZM44.0105 81.9481C42.8009 81.9481 42.0636 81.2454 42.0636 80.174C42.0636 79.1257 42.8239 78.4691 44.1718 78.3654L45.8767 78.2387V78.1119C45.8767 77.3401 45.4159 77.0291 44.7017 77.0291C43.8722 77.0291 43.4114 77.3747 43.4114 77.9737H42.2134C42.2134 76.7411 43.2271 75.9347 44.7708 75.9347C46.303 75.9347 47.2476 76.7641 47.2476 78.3423V81.7983H46.015L45.9113 80.9574C45.6694 81.5449 44.8975 81.9481 44.0105 81.9481ZM44.4713 80.8883C45.3353 80.8883 45.8882 80.3699 45.8882 79.4943V79.1948L44.7017 79.287C43.8262 79.3676 43.4921 79.6556 43.4921 80.1164C43.4921 80.6348 43.8377 80.8883 44.4713 80.8883ZM50.0452 81.7983H48.6513V73.2275H50.0452V81.7983ZM60.2693 81.7868L54.4287 81.7983V80.6924L57.182 78.3654C58.3225 77.3977 58.7026 76.8447 58.7026 76.0383C58.7026 75.0822 58.1842 74.5407 57.2972 74.5407C56.3756 74.5407 55.7996 75.1859 55.7881 76.2687H54.325C54.3365 74.4255 55.5116 73.2275 57.2972 73.2275C59.0943 73.2275 60.2117 74.2527 60.2117 75.9577C60.2117 77.1327 59.5666 78.0198 58.2879 79.1142L56.7673 80.4159H60.2693V81.7868Z" fill="#0A0D0D"/>
<path d="M99.6835 78.3078H100.778L101.066 76.8793H99.7987L100.064 75.566H101.319L101.746 73.3772H103.14L102.713 75.566H104.176L104.603 73.3772H105.996L105.57 75.566H106.757L106.492 76.8793H105.317L105.04 78.3078H106.354L106.089 79.6211H104.787L104.361 81.7983H102.967L103.393 79.6211H101.918L101.492 81.7983H100.098L100.524 79.6211H99.4185L99.6835 78.3078ZM102.172 78.3078H103.646L103.923 76.8793H102.46L102.172 78.3078ZM112.767 78.3539H109.634V81.7983H108.159V73.3772H113.366V74.7366H109.634V77.0291H112.767V78.3539ZM114.258 77.6051C114.258 74.99 115.663 73.2159 117.818 73.2159C119.972 73.2159 121.389 74.99 121.389 77.6051C121.389 80.2086 120.052 81.9481 117.818 81.9481C115.583 81.9481 114.258 80.2086 114.258 77.6051ZM115.709 77.6051C115.709 79.5519 116.493 80.6463 117.818 80.6463C119.154 80.6463 119.937 79.5519 119.937 77.6051C119.937 75.6121 119.154 74.5177 117.818 74.5177C116.493 74.5177 115.709 75.6121 115.709 77.6051ZM127.426 78.3539H124.293V81.7983H122.818V73.3772H128.025V74.7366H124.293V77.0291H127.426V78.3539ZM128.502 73.3772H134.55V74.7366L131.497 81.7983H129.965L133.075 74.7366H128.502V73.3772ZM140.161 78.3539H137.028V81.7983H135.553V73.3772H140.76V74.7366H137.028V77.0291H140.161V78.3539ZM142.298 81.7983H140.765L143.807 73.3772H145.316L148.357 81.7983H146.802L146.122 79.8515H142.977L142.298 81.7983ZM144.371 75.8886L143.415 78.6073H145.696L144.728 75.8886C144.659 75.6697 144.579 75.4163 144.556 75.2435C144.521 75.4047 144.452 75.6582 144.371 75.8886Z" fill="#A1A6A6"/>
</svg>
