<svg width="160" height="101" viewBox="0 0 160 101" fill="none" xmlns="http://www.w3.org/2000/svg">
<path d="M11.52 0.388281H148.48C154.759 0.388281 159.85 5.4788 159.85 11.7583V88.6383C159.85 94.9177 154.759 100.008 148.48 100.008H11.52C5.24053 100.008 0.15 94.9178 0.15 88.6383V11.7583C0.15 5.47882 5.24052 0.388281 11.52 0.388281Z" fill="white"/>
<path d="M11.52 0.388281H148.48C154.759 0.388281 159.85 5.4788 159.85 11.7583V88.6383C159.85 94.9177 154.759 100.008 148.48 100.008H11.52C5.24053 100.008 0.15 94.9178 0.15 88.6383V11.7583C0.15 5.47882 5.24052 0.388281 11.52 0.388281Z" stroke="#848C8B" stroke-width="0.3"/>
<rect x="11.52" y="15.5981" width="136.96" height="48" rx="5.76" fill="#667987"/>
<path d="M13.9047 81.7983H12.4531V73.3772H13.9162L17.8675 79.3446V73.3772H19.3191V81.7983H17.8675L13.9047 75.831V81.7983ZM23.5217 81.9481C21.8283 81.9481 20.6417 80.7155 20.6417 78.9529C20.6417 77.1673 21.8052 75.9347 23.4756 75.9347C25.1806 75.9347 26.2635 77.0751 26.2635 78.8492V79.2755L21.978 79.287C22.0817 80.2892 22.6116 80.7961 23.5447 80.7961C24.3166 80.7961 24.8235 80.4966 24.9847 79.9551H26.2865C26.0446 81.1993 25.0078 81.9481 23.5217 81.9481ZM23.4871 77.0867C22.6577 77.0867 22.1508 77.5359 22.0126 78.3884H24.8695C24.8695 77.6051 24.3281 77.0867 23.4871 77.0867ZM31.2475 76.1075H32.6529V81.7983H31.3512L31.2475 81.038C30.9019 81.5795 30.1646 81.9481 29.4043 81.9481C28.091 81.9481 27.3192 81.0611 27.3192 79.6671V76.1075H28.7246V79.1718C28.7246 80.2547 29.1508 80.6924 29.9342 80.6924C30.8212 80.6924 31.2475 80.174 31.2475 79.0911V76.1075ZM36.0399 81.7983H34.6345V77.2825H33.5401V76.1075H34.6345V74.3334H36.0399V76.1075H37.1458V77.2825H36.0399V81.7983ZM41.5907 76.0844V77.3862H41.0723C40.0586 77.3862 39.425 77.9276 39.425 79.0335V81.7983H38.0195V76.119H39.3443L39.425 76.9484C39.6669 76.3839 40.2083 76.0038 40.9687 76.0038C41.1645 76.0038 41.3603 76.0268 41.5907 76.0844ZM44.0105 81.9481C42.8009 81.9481 42.0636 81.2454 42.0636 80.174C42.0636 79.1257 42.8239 78.4691 44.1718 78.3654L45.8767 78.2387V78.1119C45.8767 77.3401 45.4159 77.0291 44.7017 77.0291C43.8722 77.0291 43.4114 77.3747 43.4114 77.9737H42.2134C42.2134 76.7411 43.2271 75.9347 44.7708 75.9347C46.303 75.9347 47.2476 76.7641 47.2476 78.3423V81.7983H46.015L45.9113 80.9574C45.6694 81.5449 44.8975 81.9481 44.0105 81.9481ZM44.4713 80.8883C45.3353 80.8883 45.8882 80.3699 45.8882 79.4943V79.1948L44.7017 79.287C43.8262 79.3676 43.4921 79.6556 43.4921 80.1164C43.4921 80.6348 43.8377 80.8883 44.4713 80.8883ZM50.0452 81.7983H48.6513V73.2275H50.0452V81.7983ZM60.9145 80.1971H59.8892V81.7983H58.4953V80.1971H54.2213V78.9068L58.0345 73.3772H59.8892V78.9068H60.9145V80.1971ZM55.7881 78.9068H58.4953V74.967L55.7881 78.9068Z" fill="#0A0D0D"/>
<path d="M100.449 78.3078H101.543L101.831 76.8793H100.564L100.829 75.566H102.084L102.511 73.3772H103.905L103.478 75.566H104.941L105.368 73.3772H106.761L106.335 75.566H107.522L107.257 76.8793H106.082L105.805 78.3078H107.119L106.854 79.6211H105.552L105.126 81.7983H103.732L104.158 79.6211H102.683L102.257 81.7983H100.863L101.289 79.6211H100.184L100.449 78.3078ZM102.937 78.3078H104.411L104.688 76.8793H103.225L102.937 78.3078ZM109.685 75.854L111.505 73.3772H113.187L111.171 76.0614C111.378 76.0038 111.597 75.9692 111.804 75.9692C113.544 75.9692 114.719 77.1903 114.719 78.8953C114.719 80.6924 113.383 81.9481 111.585 81.9481C109.765 81.9481 108.406 80.6118 108.406 78.8838C108.406 77.87 108.74 77.1327 109.685 75.854ZM109.915 78.8953C109.915 79.9206 110.595 80.6348 111.585 80.6348C112.542 80.6348 113.233 79.9206 113.233 78.8953C113.233 77.8815 112.553 77.1788 111.585 77.1788C110.583 77.1788 109.915 77.8815 109.915 78.8953ZM116.828 75.854L118.649 73.3772H120.33L118.314 76.0614C118.522 76.0038 118.741 75.9692 118.948 75.9692C120.688 75.9692 121.863 77.1903 121.863 78.8953C121.863 80.6924 120.526 81.9481 118.729 81.9481C116.909 81.9481 115.55 80.6118 115.55 78.8838C115.55 77.87 115.884 77.1327 116.828 75.854ZM117.059 78.8953C117.059 79.9206 117.738 80.6348 118.729 80.6348C119.685 80.6348 120.377 79.9206 120.377 78.8953C120.377 77.8815 119.697 77.1788 118.729 77.1788C117.727 77.1788 117.059 77.8815 117.059 78.8953ZM121.752 73.3772H127.8V74.7366L124.747 81.7983H123.215L126.325 74.7366H121.752V73.3772ZM133.476 79.3215L131.656 81.7983H129.974L131.99 79.1142C131.783 79.1718 131.564 79.2063 131.357 79.2063C129.617 79.2063 128.442 77.9852 128.442 76.2803C128.442 74.4831 129.779 73.2275 131.576 73.2275C133.396 73.2275 134.755 74.5638 134.755 76.2918C134.755 77.3055 134.421 78.0428 133.476 79.3215ZM133.246 76.2803C133.246 75.255 132.566 74.5407 131.576 74.5407C130.608 74.5407 129.928 75.255 129.928 76.2803C129.928 77.294 130.608 77.9967 131.576 77.9967C132.578 77.9967 133.246 77.294 133.246 76.2803ZM135.498 79.4137C135.498 78.4115 136.062 77.6051 136.938 77.271C136.2 76.9369 135.797 76.3033 135.797 75.4854C135.797 74.1491 136.984 73.2275 138.723 73.2275C140.451 73.2275 141.615 74.1375 141.615 75.5084C141.615 76.3263 141.2 76.9599 140.451 77.271C141.338 77.582 141.914 78.3999 141.914 79.4137C141.914 80.9343 140.659 81.9366 138.7 81.9366C136.753 81.9366 135.498 80.9459 135.498 79.4137ZM137.133 75.6121C137.133 76.3148 137.744 76.7641 138.7 76.7641C139.645 76.7641 140.244 76.3263 140.244 75.6236C140.244 74.9209 139.645 74.4831 138.7 74.4831C137.744 74.4831 137.133 74.9209 137.133 75.6121ZM136.938 79.31C136.938 80.1279 137.617 80.6348 138.712 80.6348C139.783 80.6348 140.463 80.1279 140.463 79.31C140.463 78.4921 139.783 77.9852 138.7 77.9852C137.617 77.9852 136.938 78.4921 136.938 79.31ZM142.362 73.3772H148.41V74.7366L145.357 81.7983H143.825L146.935 74.7366H142.362V73.3772Z" fill="#A1A6A6"/>
</svg>
