<svg width="160" height="101" viewBox="0 0 160 101" fill="none" xmlns="http://www.w3.org/2000/svg">
<path d="M11.52 0.388281H148.48C154.759 0.388281 159.85 5.4788 159.85 11.7583V88.6383C159.85 94.9177 154.759 100.008 148.48 100.008H11.52C5.24053 100.008 0.15 94.9178 0.15 88.6383V11.7583C0.15 5.47882 5.24052 0.388281 11.52 0.388281Z" fill="white"/>
<path d="M11.52 0.388281H148.48C154.759 0.388281 159.85 5.4788 159.85 11.7583V88.6383C159.85 94.9177 154.759 100.008 148.48 100.008H11.52C5.24053 100.008 0.15 94.9178 0.15 88.6383V11.7583C0.15 5.47882 5.24052 0.388281 11.52 0.388281Z" stroke="#848C8B" stroke-width="0.3"/>
<rect x="11.77" y="15.8481" width="136.46" height="47.5" rx="5.51" fill="white"/>
<rect x="11.77" y="15.8481" width="136.46" height="47.5" rx="5.51" stroke="#CFD9DE" stroke-width="0.5"/>
<path d="M13.9047 81.7983H12.4531V73.3772H13.9162L17.8675 79.3446V73.3772H19.3191V81.7983H17.8675L13.9047 75.831V81.7983ZM23.5217 81.9481C21.8283 81.9481 20.6417 80.7155 20.6417 78.9529C20.6417 77.1673 21.8052 75.9347 23.4756 75.9347C25.1806 75.9347 26.2635 77.0751 26.2635 78.8492V79.2755L21.978 79.287C22.0817 80.2892 22.6116 80.7961 23.5447 80.7961C24.3166 80.7961 24.8235 80.4966 24.9847 79.9551H26.2865C26.0446 81.1993 25.0078 81.9481 23.5217 81.9481ZM23.4871 77.0867C22.6577 77.0867 22.1508 77.5359 22.0126 78.3884H24.8695C24.8695 77.6051 24.3281 77.0867 23.4871 77.0867ZM31.2475 76.1075H32.6529V81.7983H31.3512L31.2475 81.038C30.9019 81.5795 30.1646 81.9481 29.4043 81.9481C28.091 81.9481 27.3192 81.0611 27.3192 79.6671V76.1075H28.7246V79.1718C28.7246 80.2547 29.1508 80.6924 29.9342 80.6924C30.8212 80.6924 31.2475 80.174 31.2475 79.0911V76.1075ZM36.0399 81.7983H34.6345V77.2825H33.5401V76.1075H34.6345V74.3334H36.0399V76.1075H37.1458V77.2825H36.0399V81.7983ZM41.5907 76.0844V77.3862H41.0723C40.0586 77.3862 39.425 77.9276 39.425 79.0335V81.7983H38.0195V76.119H39.3443L39.425 76.9484C39.6669 76.3839 40.2083 76.0038 40.9687 76.0038C41.1645 76.0038 41.3603 76.0268 41.5907 76.0844ZM44.0105 81.9481C42.8009 81.9481 42.0636 81.2454 42.0636 80.174C42.0636 79.1257 42.8239 78.4691 44.1718 78.3654L45.8767 78.2387V78.1119C45.8767 77.3401 45.4159 77.0291 44.7017 77.0291C43.8722 77.0291 43.4114 77.3747 43.4114 77.9737H42.2134C42.2134 76.7411 43.2271 75.9347 44.7708 75.9347C46.303 75.9347 47.2476 76.7641 47.2476 78.3423V81.7983H46.015L45.9113 80.9574C45.6694 81.5449 44.8975 81.9481 44.0105 81.9481ZM44.4713 80.8883C45.3353 80.8883 45.8882 80.3699 45.8882 79.4943V79.1948L44.7017 79.287C43.8262 79.3676 43.4921 79.6556 43.4921 80.1164C43.4921 80.6348 43.8377 80.8883 44.4713 80.8883ZM50.0452 81.7983H48.6513V73.2275H50.0452V81.7983ZM56.1337 74.702H54.2905V73.3772H57.5506V81.7983H56.1337V74.702Z" fill="#0A0D0D"/>
<path d="M101.72 78.3078H102.814L103.102 76.8793H101.835L102.1 75.566H103.356L103.782 73.3772H105.176L104.75 75.566H106.213L106.639 73.3772H108.033L107.606 75.566H108.793L108.528 76.8793H107.353L107.077 78.3078H108.39L108.125 79.6211H106.823L106.397 81.7983H105.003L105.429 79.6211H103.955L103.528 81.7983H102.134L102.561 79.6211H101.455L101.72 78.3078ZM104.208 78.3078H105.683L105.959 76.8793H104.496L104.208 78.3078ZM114.804 78.3539H111.67V81.7983H110.196V73.3772H115.403V74.7366H111.67V77.0291H114.804V78.3539ZM121.34 78.3539H118.206V81.7983H116.732V73.3772H121.939V74.7366H118.206V77.0291H121.34V78.3539ZM127.876 78.3539H124.743V81.7983H123.268V73.3772H128.475V74.7366H124.743V77.0291H127.876V78.3539ZM134.412 78.3539H131.279V81.7983H129.804V73.3772H135.011V74.7366H131.279V77.0291H134.412V78.3539ZM140.949 78.3539H137.815V81.7983H136.341V73.3772H141.548V74.7366H137.815V77.0291H140.949V78.3539ZM147.485 78.3539H144.351V81.7983H142.877V73.3772H148.084V74.7366H144.351V77.0291H147.485V78.3539Z" fill="#A1A6A6"/>
</svg>
