<svg width="144" height="101" viewBox="0 0 144 101" fill="none" xmlns="http://www.w3.org/2000/svg">
<path d="M0.290039 12.1201C0.290039 5.89586 5.33579 0.850098 11.56 0.850098H131.56C137.784 0.850098 142.83 5.89585 142.83 12.1201V89.0001C142.83 95.2243 137.784 100.27 131.56 100.27H11.56C5.33579 100.27 0.290039 95.2243 0.290039 89.0001V12.1201Z" fill="white"/>
<path d="M0.290039 12.1201C0.290039 5.89586 5.33579 0.850098 11.56 0.850098H131.56C137.784 0.850098 142.83 5.89585 142.83 12.1201V89.0001C142.83 95.2243 137.784 100.27 131.56 100.27H11.56C5.33579 100.27 0.290039 95.2243 0.290039 89.0001V12.1201Z" stroke="#848C8B" stroke-width="0.5"/>
<rect x="11.5601" y="15.9602" width="120" height="48" rx="5.76" fill="#E517C3"/>
<path d="M17.9306 82.1486L12.09 82.1602V81.0542L14.8433 78.7272C15.9837 77.7595 16.3639 77.2066 16.3639 76.4002C16.3639 75.444 15.8455 74.9026 14.9585 74.9026C14.0369 74.9026 13.4609 75.5477 13.4493 76.6306H11.9863C11.9978 74.7874 13.1729 73.5893 14.9585 73.5893C16.7556 73.5893 17.873 74.6146 17.873 76.3195C17.873 77.4946 17.2279 78.3816 15.9492 79.476L14.4285 80.7778H17.9306V82.1486ZM18.8392 77.9669C18.8392 75.3518 20.2446 73.5778 22.3988 73.5778C24.5531 73.5778 25.97 75.3518 25.97 77.9669C25.97 80.5704 24.6337 82.3099 22.3988 82.3099C20.164 82.3099 18.8392 80.5704 18.8392 77.9669ZM20.2907 77.9669C20.2907 79.9138 21.074 81.0082 22.3988 81.0082C23.7352 81.0082 24.5185 79.9138 24.5185 77.9669C24.5185 75.9739 23.7352 74.8795 22.3988 74.8795C21.074 74.8795 20.2907 75.9739 20.2907 77.9669ZM26.9617 77.9669C26.9617 75.3518 28.3671 73.5778 30.5213 73.5778C32.6756 73.5778 34.0925 75.3518 34.0925 77.9669C34.0925 80.5704 32.7562 82.3099 30.5213 82.3099C28.2865 82.3099 26.9617 80.5704 26.9617 77.9669ZM28.4132 77.9669C28.4132 79.9138 29.1965 81.0082 30.5213 81.0082C31.8577 81.0082 32.641 79.9138 32.641 77.9669C32.641 75.9739 31.8577 74.8795 30.5213 74.8795C29.1965 74.8795 28.4132 75.9739 28.4132 77.9669Z" fill="#0A0D0D"/>
<path d="M76.6998 78.6696H77.7942L78.0822 77.2411H76.815L77.08 75.9278H78.3357L78.7619 73.739H80.1558L79.7296 75.9278H81.1926L81.6189 73.739H83.0128L82.5866 75.9278H83.7731L83.5082 77.2411H82.3331L82.0566 78.6696H83.3699L83.105 79.9829H81.8032L81.377 82.1602H79.983L80.4093 79.9829H78.9347L78.5085 82.1602H77.1146L77.5408 79.9829H76.4349L76.6998 78.6696ZM79.1882 78.6696H80.6627L80.9392 77.2411H79.4762L79.1882 78.6696ZM88.2054 82.1602H85.1757V73.739H88.1248C90.6131 73.739 92.3296 75.4555 92.3296 77.9669C92.3296 80.4437 90.6477 82.1602 88.2054 82.1602ZM87.9866 75.0984H86.6502V80.8008H88.0672C89.7491 80.8008 90.7744 79.7179 90.7744 77.9669C90.7744 76.1813 89.7261 75.0984 87.9866 75.0984ZM99.7857 80.5589H98.7605V82.1602H97.3665V80.5589H93.0926V79.2686L96.9057 73.739H98.7605V79.2686H99.7857V80.5589ZM94.6593 79.2686H97.3665V75.3288L94.6593 79.2686ZM104.18 82.1602H101.151V73.739H104.1C106.588 73.739 108.305 75.4555 108.305 77.9669C108.305 80.4437 106.623 82.1602 104.18 82.1602ZM103.962 75.0984H102.625V80.8008H104.042C105.724 80.8008 106.749 79.7179 106.749 77.9669C106.749 76.1813 105.701 75.0984 103.962 75.0984ZM114.194 79.6834L112.374 82.1602H110.692L112.708 79.476C112.501 79.5336 112.282 79.5682 112.074 79.5682C110.335 79.5682 109.16 78.347 109.16 76.6421C109.16 74.845 110.496 73.5893 112.293 73.5893C114.113 73.5893 115.473 74.9256 115.473 76.6536C115.473 77.6674 115.139 78.4046 114.194 79.6834ZM113.964 76.6421C113.964 75.6168 113.284 74.9026 112.293 74.9026C111.326 74.9026 110.646 75.6168 110.646 76.6421C110.646 77.6558 111.326 78.3586 112.293 78.3586C113.295 78.3586 113.964 77.6558 113.964 76.6421ZM119.852 82.1602H116.822V73.739H119.771C122.259 73.739 123.976 75.4555 123.976 77.9669C123.976 80.4437 122.294 82.1602 119.852 82.1602ZM119.633 75.0984H118.296V80.8008H119.713C121.395 80.8008 122.421 79.7179 122.421 77.9669C122.421 76.1813 121.372 75.0984 119.633 75.0984ZM129.865 79.6834L128.045 82.1602H126.363L128.379 79.476C128.172 79.5336 127.953 79.5682 127.746 79.5682C126.006 79.5682 124.831 78.347 124.831 76.6421C124.831 74.845 126.167 73.5893 127.964 73.5893C129.785 73.5893 131.144 74.9256 131.144 76.6536C131.144 77.6674 130.81 78.4046 129.865 79.6834ZM129.635 76.6421C129.635 75.6168 128.955 74.9026 127.964 74.9026C126.997 74.9026 126.317 75.6168 126.317 76.6421C126.317 77.6558 126.997 78.3586 127.964 78.3586C128.967 78.3586 129.635 77.6558 129.635 76.6421Z" fill="#A1A6A6"/>
</svg>
