<svg width="144" height="101" viewBox="0 0 144 101" fill="none" xmlns="http://www.w3.org/2000/svg">
<path d="M0.330078 12.1201C0.330078 5.89586 5.37583 0.850098 11.6001 0.850098H131.6C137.824 0.850098 142.87 5.89585 142.87 12.1201V89.0001C142.87 95.2243 137.824 100.27 131.6 100.27H11.6001C5.37583 100.27 0.330078 95.2243 0.330078 89.0001V12.1201Z" fill="white"/>
<path d="M0.330078 12.1201C0.330078 5.89586 5.37583 0.850098 11.6001 0.850098H131.6C137.824 0.850098 142.87 5.89585 142.87 12.1201V89.0001C142.87 95.2243 137.824 100.27 131.6 100.27H11.6001C5.37583 100.27 0.330078 95.2243 0.330078 89.0001V12.1201Z" stroke="#848C8B" stroke-width="0.5"/>
<rect x="11.6001" y="15.9602" width="120" height="48" rx="5.76" fill="#99007F"/>
<path d="M14.5838 77.9899H13.5585V77.0338L15.7243 75.0408H12.2222V73.739H17.5675V74.9141L15.5169 76.8034C16.8071 77.0568 17.8094 78.0014 17.8094 79.4875C17.8094 81.2155 16.4615 82.3099 14.7566 82.3099C13.1092 82.3099 11.8305 81.2962 11.8305 79.476H13.282C13.282 80.4437 13.8811 80.9966 14.7796 80.9966C15.7012 80.9966 16.3118 80.3976 16.3118 79.4645C16.3118 78.612 15.7588 77.9899 14.5838 77.9899ZM18.6542 77.9669C18.6542 75.3518 20.0596 73.5778 22.2139 73.5778C24.3681 73.5778 25.7851 75.3518 25.7851 77.9669C25.7851 80.5704 24.4488 82.3099 22.2139 82.3099C19.979 82.3099 18.6542 80.5704 18.6542 77.9669ZM20.1057 77.9669C20.1057 79.9138 20.8891 81.0082 22.2139 81.0082C23.5502 81.0082 24.3336 79.9138 24.3336 77.9669C24.3336 75.9739 23.5502 74.8795 22.2139 74.8795C20.8891 74.8795 20.1057 75.9739 20.1057 77.9669ZM26.7767 77.9669C26.7767 75.3518 28.1821 73.5778 30.3364 73.5778C32.4906 73.5778 33.9076 75.3518 33.9076 77.9669C33.9076 80.5704 32.5713 82.3099 30.3364 82.3099C28.1015 82.3099 26.7767 80.5704 26.7767 77.9669ZM28.2282 77.9669C28.2282 79.9138 29.0116 81.0082 30.3364 81.0082C31.6727 81.0082 32.4561 79.9138 32.4561 77.9669C32.4561 75.9739 31.6727 74.8795 30.3364 74.8795C29.0116 74.8795 28.2282 75.9739 28.2282 77.9669Z" fill="#0A0D0D"/>
<path d="M80.9699 78.6696H82.0643L82.3523 77.2411H81.0851L81.35 75.9278H82.6057L83.032 73.739H84.4259L83.9996 75.9278H85.4627L85.8889 73.739H87.2828L86.8566 75.9278H88.0432L87.7782 77.2411H86.6032L86.3267 78.6696H87.64L87.375 79.9829H86.0732L85.647 82.1602H84.2531L84.6793 79.9829H83.2048L82.7785 82.1602H81.3846L81.8108 79.9829H80.7049L80.9699 78.6696ZM83.4582 78.6696H84.9328L85.2092 77.2411H83.7462L83.4582 78.6696ZM89.4457 82.1602V73.739H92.798C94.4569 73.739 95.4707 74.603 95.4707 76.0085C95.4707 76.9416 95.056 77.6098 94.2611 77.9438C95.1481 78.2318 95.5974 78.9 95.5974 79.8792C95.5974 81.3192 94.5952 82.1602 92.8556 82.1602H89.4457ZM92.6713 75.0408H90.9203V77.3333H92.7059C93.5123 77.3333 93.9616 76.907 93.9616 76.1582C93.9616 75.4325 93.5008 75.0408 92.6713 75.0408ZM92.798 78.5774H90.9203V80.8584H92.798C93.6275 80.8584 94.0883 80.4552 94.0883 79.6949C94.0883 78.9806 93.616 78.5774 92.798 78.5774ZM96.9495 82.1602V73.739H100.302C101.961 73.739 102.974 74.603 102.974 76.0085C102.974 76.9416 102.56 77.6098 101.765 77.9438C102.652 78.2318 103.101 78.9 103.101 79.8792C103.101 81.3192 102.099 82.1602 100.359 82.1602H96.9495ZM100.175 75.0408H98.424V77.3333H100.21C101.016 77.3333 101.465 76.907 101.465 76.1582C101.465 75.4325 101.005 75.0408 100.175 75.0408ZM100.302 78.5774H98.424V80.8584H100.302C101.131 80.8584 101.592 80.4552 101.592 79.6949C101.592 78.9806 101.12 78.5774 100.302 78.5774ZM104.453 82.1602V73.739H107.806C109.464 73.739 110.478 74.603 110.478 76.0085C110.478 76.9416 110.063 77.6098 109.269 77.9438C110.156 78.2318 110.605 78.9 110.605 79.8792C110.605 81.3192 109.603 82.1602 107.863 82.1602H104.453ZM107.679 75.0408H105.928V77.3333H107.713C108.52 77.3333 108.969 76.907 108.969 76.1582C108.969 75.4325 108.508 75.0408 107.679 75.0408ZM107.806 78.5774H105.928V80.8584H107.806C108.635 80.8584 109.096 80.4552 109.096 79.6949C109.096 78.9806 108.623 78.5774 107.806 78.5774ZM116.565 78.7157H113.432V82.1602H111.957V73.739H117.164V75.0984H113.432V77.3909H116.565V78.7157ZM118.493 82.1602V73.739H121.846C123.504 73.739 124.518 74.603 124.518 76.0085C124.518 76.9416 124.103 77.6098 123.309 77.9438C124.196 78.2318 124.645 78.9 124.645 79.8792C124.645 81.3192 123.643 82.1602 121.903 82.1602H118.493ZM121.719 75.0408H119.968V77.3333H121.753C122.56 77.3333 123.009 76.907 123.009 76.1582C123.009 75.4325 122.548 75.0408 121.719 75.0408ZM121.846 78.5774H119.968V80.8584H121.846C122.675 80.8584 123.136 80.4552 123.136 79.6949C123.136 78.9806 122.663 78.5774 121.846 78.5774ZM130.605 78.7157H127.472V82.1602H125.997V73.739H131.204V75.0984H127.472V77.3909H130.605V78.7157Z" fill="#A1A6A6"/>
</svg>
