<svg width="144" height="101" viewBox="0 0 144 101" fill="none" xmlns="http://www.w3.org/2000/svg">
<path d="M0.25 12.1201C0.25 5.89586 5.29575 0.850098 11.52 0.850098H131.52C137.744 0.850098 142.79 5.89585 142.79 12.1201V89.0001C142.79 95.2243 137.744 100.27 131.52 100.27H11.52C5.29575 100.27 0.25 95.2243 0.25 89.0001V12.1201Z" fill="white"/>
<path d="M0.25 12.1201C0.25 5.89586 5.29575 0.850098 11.52 0.850098H131.52C137.744 0.850098 142.79 5.89585 142.79 12.1201V89.0001C142.79 95.2243 137.744 100.27 131.52 100.27H11.52C5.29575 100.27 0.25 95.2243 0.25 89.0001V12.1201Z" stroke="#848C8B" stroke-width="0.5"/>
<rect x="11.52" y="15.9602" width="120" height="48" rx="5.76" fill="#FCE3F8"/>
<path d="M13.7549 75.0638H11.9117V73.739H15.1719V82.1602H13.7549V75.0638ZM16.6054 77.9669C16.6054 75.3518 18.0108 73.5778 20.1651 73.5778C22.3193 73.5778 23.7363 75.3518 23.7363 77.9669C23.7363 80.5704 22.3999 82.3099 20.1651 82.3099C17.9302 82.3099 16.6054 80.5704 16.6054 77.9669ZM18.0569 77.9669C18.0569 79.9138 18.8403 81.0082 20.1651 81.0082C21.5014 81.0082 22.2847 79.9138 22.2847 77.9669C22.2847 75.9739 21.5014 74.8795 20.1651 74.8795C18.8403 74.8795 18.0569 75.9739 18.0569 77.9669ZM24.7279 77.9669C24.7279 75.3518 26.1333 73.5778 28.2876 73.5778C30.4418 73.5778 31.8588 75.3518 31.8588 77.9669C31.8588 80.5704 30.5224 82.3099 28.2876 82.3099C26.0527 82.3099 24.7279 80.5704 24.7279 77.9669ZM26.1794 77.9669C26.1794 79.9138 26.9628 81.0082 28.2876 81.0082C29.6239 81.0082 30.4072 79.9138 30.4072 77.9669C30.4072 75.9739 29.6239 74.8795 28.2876 74.8795C26.9628 74.8795 26.1794 75.9739 26.1794 77.9669Z" fill="#0A0D0D"/>
<path d="M81.2573 78.6696H82.3517L82.6397 77.2411H81.3725L81.6375 75.9278H82.8931L83.3194 73.739H84.7133L84.2871 75.9278H85.7501L86.1763 73.739H87.5703L87.144 75.9278H88.3306L88.0656 77.2411H86.8906L86.6141 78.6696H87.9274L87.6624 79.9829H86.3607L85.9344 82.1602H84.5405L84.9667 79.9829H83.4922L83.0659 82.1602H81.672L82.0983 79.9829H80.9923L81.2573 78.6696ZM83.7456 78.6696H85.2202L85.4967 77.2411H84.0336L83.7456 78.6696ZM94.9632 82.1602H89.7331V73.739H94.9632V75.0984H91.2077V77.2642H94.5715V78.5659H91.2077V80.8008H94.9632V82.1602ZM99.5917 82.1602H96.5619V73.739H99.511C101.999 73.739 103.716 75.4555 103.716 77.9669C103.716 80.4437 102.034 82.1602 99.5917 82.1602ZM99.3728 75.0984H98.0365V80.8008H99.4534C101.135 80.8008 102.161 79.7179 102.161 77.9669C102.161 76.1813 101.112 75.0984 99.3728 75.0984ZM109.697 78.7157H106.564V82.1602H105.089V73.739H110.296V75.0984H106.564V77.3909H109.697V78.7157ZM117.063 82.1486L111.222 82.1602V81.0542L113.976 78.7272C115.116 77.7595 115.496 77.2066 115.496 76.4002C115.496 75.444 114.978 74.9026 114.091 74.9026C113.169 74.9026 112.593 75.5477 112.582 76.6306H111.119C111.13 74.7874 112.305 73.5893 114.091 73.5893C115.888 73.5893 117.005 74.6146 117.005 76.3195C117.005 77.4946 116.36 78.3816 115.082 79.476L113.561 80.7778H117.063V82.1486ZM123.017 78.7157H119.884V82.1602H118.409V73.739H123.616V75.0984H119.884V77.3909H123.017V78.7157ZM130.383 82.1486L124.542 82.1602V81.0542L127.296 78.7272C128.436 77.7595 128.816 77.2066 128.816 76.4002C128.816 75.444 128.298 74.9026 127.411 74.9026C126.489 74.9026 125.913 75.5477 125.902 76.6306H124.439C124.45 74.7874 125.625 73.5893 127.411 73.5893C129.208 73.5893 130.325 74.6146 130.325 76.3195C130.325 77.4946 129.68 78.3816 128.402 79.476L126.881 80.7778H130.383V82.1486Z" fill="#A1A6A6"/>
</svg>
