<svg width="144" height="101" viewBox="0 0 144 101" fill="none" xmlns="http://www.w3.org/2000/svg">
<path d="M0.370117 12.1999C0.370117 5.9757 5.41587 0.929932 11.6401 0.929932H131.64C137.864 0.929932 142.91 5.97568 142.91 12.1999V89.0799C142.91 95.3042 137.864 100.35 131.64 100.35H11.6401C5.41587 100.35 0.370117 95.3042 0.370117 89.0799V12.1999Z" fill="white"/>
<path d="M0.370117 12.1999C0.370117 5.9757 5.41587 0.929932 11.6401 0.929932H131.64C137.864 0.929932 142.91 5.97568 142.91 12.1999V89.0799C142.91 95.3042 137.864 100.35 131.64 100.35H11.6401C5.41587 100.35 0.370117 95.3042 0.370117 89.0799V12.1999Z" stroke="#848C8B" stroke-width="0.5"/>
<rect x="11.6401" y="16.04" width="120" height="48" rx="5.76" fill="#ECE3FC"/>
<path d="M13.875 75.1437H12.0318V73.8189H15.292V82.24H13.875V75.1437ZM16.7255 78.0467C16.7255 75.4317 18.1309 73.6576 20.2852 73.6576C22.4394 73.6576 23.8564 75.4317 23.8564 78.0467C23.8564 80.6502 22.5201 82.3898 20.2852 82.3898C18.0503 82.3898 16.7255 80.6502 16.7255 78.0467ZM18.177 78.0467C18.177 79.9936 18.9604 81.088 20.2852 81.088C21.6215 81.088 22.4049 79.9936 22.4049 78.0467C22.4049 76.0537 21.6215 74.9593 20.2852 74.9593C18.9604 74.9593 18.177 76.0537 18.177 78.0467ZM24.848 78.0467C24.848 75.4317 26.2534 73.6576 28.4077 73.6576C30.5619 73.6576 31.9789 75.4317 31.9789 78.0467C31.9789 80.6502 30.6426 82.3898 28.4077 82.3898C26.1728 82.3898 24.848 80.6502 24.848 78.0467ZM26.2995 78.0467C26.2995 79.9936 27.0829 81.088 28.4077 81.088C29.744 81.088 30.5274 79.9936 30.5274 78.0467C30.5274 76.0537 29.744 74.9593 28.4077 74.9593C27.0829 74.9593 26.2995 76.0537 26.2995 78.0467Z" fill="#0A0D0D"/>
<path d="M81.3774 78.7494H82.4718L82.7598 77.3209H81.4926L81.7576 76.0077H83.0133L83.4395 73.8189H84.8334L84.4072 76.0077H85.8702L86.2965 73.8189H87.6904L87.2641 76.0077H88.4507L88.1857 77.3209H87.0107L86.7342 78.7494H88.0475L87.7825 80.0627H86.4808L86.0545 82.24H84.6606L85.0869 80.0627H83.6123L83.1861 82.24H81.7921L82.2184 80.0627H81.1125L81.3774 78.7494ZM83.8657 78.7494H85.3403L85.6168 77.3209H84.1537L83.8657 78.7494ZM95.0833 82.24H89.8533V73.8189H95.0833V75.1782H91.3278V77.344H94.6917V78.6458H91.3278V80.8806H95.0833V82.24ZM99.7118 82.24H96.682V73.8189H99.6311C102.119 73.8189 103.836 75.5353 103.836 78.0467C103.836 80.5235 102.154 82.24 99.7118 82.24ZM99.4929 75.1782H98.1566V80.8806H99.5735C101.255 80.8806 102.281 79.7977 102.281 78.0467C102.281 76.2611 101.232 75.1782 99.4929 75.1782ZM109.818 78.7955H106.684V82.24H105.21V73.8189H110.417V75.1782H106.684V77.4707H109.818V78.7955ZM117.183 82.2285L111.343 82.24V81.1341L114.096 78.807C115.236 77.8393 115.616 77.2864 115.616 76.48C115.616 75.5238 115.098 74.9824 114.211 74.9824C113.289 74.9824 112.713 75.6275 112.702 76.7104H111.239C111.25 74.8672 112.425 73.6691 114.211 73.6691C116.008 73.6691 117.126 74.6944 117.126 76.3993C117.126 77.5744 116.48 78.4614 115.202 79.5558L113.681 80.8576H117.183V82.2285ZM123.138 78.7955H120.004V82.24H118.53V73.8189H123.737V75.1782H120.004V77.4707H123.138V78.7955ZM130.503 82.2285L124.663 82.24V81.1341L127.416 78.807C128.556 77.8393 128.936 77.2864 128.936 76.48C128.936 75.5238 128.418 74.9824 127.531 74.9824C126.609 74.9824 126.033 75.6275 126.022 76.7104H124.559C124.57 74.8672 125.745 73.6691 127.531 73.6691C129.328 73.6691 130.446 74.6944 130.446 76.3993C130.446 77.5744 129.8 78.4614 128.522 79.5558L127.001 80.8576H130.503V82.2285Z" fill="#A1A6A6"/>
</svg>
