<svg width="144" height="101" viewBox="0 0 144 101" fill="none" xmlns="http://www.w3.org/2000/svg">
<path d="M0.410156 12.1999C0.410156 5.9757 5.45591 0.929932 11.6802 0.929932H131.68C137.904 0.929932 142.95 5.97568 142.95 12.1999V89.0799C142.95 95.3042 137.904 100.35 131.68 100.35H11.6802C5.45591 100.35 0.410156 95.3042 0.410156 89.0799V12.1999Z" fill="white"/>
<path d="M0.410156 12.1999C0.410156 5.9757 5.45591 0.929932 11.6802 0.929932H131.68C137.904 0.929932 142.95 5.97568 142.95 12.1999V89.0799C142.95 95.3042 137.904 100.35 131.68 100.35H11.6802C5.45591 100.35 0.410156 95.3042 0.410156 89.0799V12.1999Z" stroke="#848C8B" stroke-width="0.5"/>
<rect x="11.6802" y="16.04" width="120" height="48" rx="5.76" fill="#5C17E5"/>
<path d="M18.0507 82.2285L12.2101 82.24V81.1341L14.9634 78.807C16.1039 77.8393 16.484 77.2864 16.484 76.48C16.484 75.5238 15.9656 74.9824 15.0786 74.9824C14.157 74.9824 13.581 75.6275 13.5695 76.7104H12.1064C12.1179 74.8672 13.293 73.6691 15.0786 73.6691C16.8757 73.6691 17.9931 74.6944 17.9931 76.3993C17.9931 77.5744 17.348 78.4614 16.0693 79.5558L14.5487 80.8576H18.0507V82.2285ZM18.9593 78.0467C18.9593 75.4317 20.3647 73.6576 22.519 73.6576C24.6732 73.6576 26.0902 75.4317 26.0902 78.0467C26.0902 80.6502 24.7538 82.3898 22.519 82.3898C20.2841 82.3898 18.9593 80.6502 18.9593 78.0467ZM20.4108 78.0467C20.4108 79.9936 21.1942 81.088 22.519 81.088C23.8553 81.088 24.6386 79.9936 24.6386 78.0467C24.6386 76.0537 23.8553 74.9593 22.519 74.9593C21.1942 74.9593 20.4108 76.0537 20.4108 78.0467ZM27.0818 78.0467C27.0818 75.4317 28.4872 73.6576 30.6415 73.6576C32.7957 73.6576 34.2127 75.4317 34.2127 78.0467C34.2127 80.6502 32.8763 82.3898 30.6415 82.3898C28.4066 82.3898 27.0818 80.6502 27.0818 78.0467ZM28.5333 78.0467C28.5333 79.9936 29.3167 81.088 30.6415 81.088C31.9778 81.088 32.7611 79.9936 32.7611 78.0467C32.7611 76.0537 31.9778 74.9593 30.6415 74.9593C29.3167 74.9593 28.5333 76.0537 28.5333 78.0467Z" fill="#0A0D0D"/>
<path d="M76.82 78.7494H77.9144L78.2024 77.3209H76.9352L77.2001 76.0077H78.4558L78.882 73.8189H80.276L79.8497 76.0077H81.3128L81.739 73.8189H83.1329L82.7067 76.0077H83.8932L83.6283 77.3209H82.4532L82.1768 78.7494H83.49L83.2251 80.0627H81.9233L81.4971 82.24H80.1032L80.5294 80.0627H79.0548L78.6286 82.24H77.2347L77.6609 80.0627H76.555L76.82 78.7494ZM79.3083 78.7494H80.7828L81.0593 77.3209H79.5963L79.3083 78.7494ZM88.3256 82.24H85.2958V73.8189H88.2449C90.7332 73.8189 92.4497 75.5353 92.4497 78.0467C92.4497 80.5235 90.7678 82.24 88.3256 82.24ZM88.1067 75.1782H86.7704V80.8806H88.1873C89.8692 80.8806 90.8945 79.7977 90.8945 78.0467C90.8945 76.2611 89.8462 75.1782 88.1067 75.1782ZM99.9059 80.6387H98.8806V82.24H97.4867V80.6387H93.2127V79.3485L97.0259 73.8189H98.8806V79.3485H99.9059V80.6387ZM94.7795 79.3485H97.4867V75.4086L94.7795 79.3485ZM104.301 82.24H101.271V73.8189H104.22C106.708 73.8189 108.425 75.5353 108.425 78.0467C108.425 80.5235 106.743 82.24 104.301 82.24ZM104.082 75.1782H102.745V80.8806H104.162C105.844 80.8806 106.87 79.7977 106.87 78.0467C106.87 76.2611 105.821 75.1782 104.082 75.1782ZM114.314 79.7632L112.494 82.24H110.812L112.828 79.5558C112.621 79.6134 112.402 79.648 112.194 79.648C110.455 79.648 109.28 78.4269 109.28 76.7219C109.28 74.9248 110.616 73.6691 112.413 73.6691C114.233 73.6691 115.593 75.0054 115.593 76.7334C115.593 77.7472 115.259 78.4845 114.314 79.7632ZM114.084 76.7219C114.084 75.6966 113.404 74.9824 112.413 74.9824C111.446 74.9824 110.766 75.6966 110.766 76.7219C110.766 77.7357 111.446 78.4384 112.413 78.4384C113.416 78.4384 114.084 77.7357 114.084 76.7219ZM119.972 82.24H116.942V73.8189H119.891C122.379 73.8189 124.096 75.5353 124.096 78.0467C124.096 80.5235 122.414 82.24 119.972 82.24ZM119.753 75.1782H118.417V80.8806H119.834C121.515 80.8806 122.541 79.7977 122.541 78.0467C122.541 76.2611 121.492 75.1782 119.753 75.1782ZM129.985 79.7632L128.165 82.24H126.483L128.499 79.5558C128.292 79.6134 128.073 79.648 127.866 79.648C126.126 79.648 124.951 78.4269 124.951 76.7219C124.951 74.9248 126.287 73.6691 128.085 73.6691C129.905 73.6691 131.264 75.0054 131.264 76.7334C131.264 77.7472 130.93 78.4845 129.985 79.7632ZM129.755 76.7219C129.755 75.6966 129.075 74.9824 128.085 74.9824C127.117 74.9824 126.437 75.6966 126.437 76.7219C126.437 77.7357 127.117 78.4384 128.085 78.4384C129.087 78.4384 129.755 77.7357 129.755 76.7219Z" fill="#A1A6A6"/>
</svg>
