<svg width="144" height="101" viewBox="0 0 144 101" fill="none" xmlns="http://www.w3.org/2000/svg">
<path d="M0.450195 12.1999C0.450195 5.9757 5.49595 0.929932 11.7202 0.929932H131.72C137.944 0.929932 142.99 5.97568 142.99 12.1999V89.0799C142.99 95.3042 137.944 100.35 131.72 100.35H11.7202C5.49594 100.35 0.450195 95.3042 0.450195 89.0799V12.1999Z" fill="white"/>
<path d="M0.450195 12.1999C0.450195 5.9757 5.49595 0.929932 11.7202 0.929932H131.72C137.944 0.929932 142.99 5.97568 142.99 12.1999V89.0799C142.99 95.3042 137.944 100.35 131.72 100.35H11.7202C5.49594 100.35 0.450195 95.3042 0.450195 89.0799V12.1999Z" stroke="#848C8B" stroke-width="0.5"/>
<rect x="11.7201" y="16.04" width="120" height="48" rx="5.76" fill="#4A0099"/>
<path d="M14.7038 78.0697H13.6785V77.1136L15.8443 75.1206H12.3422V73.8189H17.6875V74.9939L15.6369 76.8832C16.9271 77.1366 17.9294 78.0813 17.9294 79.5674C17.9294 81.2954 16.5815 82.3898 14.8766 82.3898C13.2292 82.3898 11.9505 81.376 11.9505 79.5558H13.402C13.402 80.5235 14.0011 81.0765 14.8996 81.0765C15.8212 81.0765 16.4318 80.4774 16.4318 79.5443C16.4318 78.6918 15.8788 78.0697 14.7038 78.0697ZM18.7742 78.0467C18.7742 75.4317 20.1796 73.6576 22.3339 73.6576C24.4881 73.6576 25.9051 75.4317 25.9051 78.0467C25.9051 80.6502 24.5688 82.3898 22.3339 82.3898C20.099 82.3898 18.7742 80.6502 18.7742 78.0467ZM20.2257 78.0467C20.2257 79.9936 21.0091 81.088 22.3339 81.088C23.6702 81.088 24.4536 79.9936 24.4536 78.0467C24.4536 76.0537 23.6702 74.9593 22.3339 74.9593C21.0091 74.9593 20.2257 76.0537 20.2257 78.0467ZM26.8967 78.0467C26.8967 75.4317 28.3021 73.6576 30.4564 73.6576C32.6106 73.6576 34.0276 75.4317 34.0276 78.0467C34.0276 80.6502 32.6913 82.3898 30.4564 82.3898C28.2215 82.3898 26.8967 80.6502 26.8967 78.0467ZM28.3482 78.0467C28.3482 79.9936 29.1316 81.088 30.4564 81.088C31.7927 81.088 32.5761 79.9936 32.5761 78.0467C32.5761 76.0537 31.7927 74.9593 30.4564 74.9593C29.1316 74.9593 28.3482 76.0537 28.3482 78.0467Z" fill="#0A0D0D"/>
<path d="M81.0899 78.7494H82.1843L82.4723 77.3209H81.2051L81.47 76.0077H82.7257L83.152 73.8189H84.5459L84.1196 76.0077H85.5827L86.0089 73.8189H87.4028L86.9766 76.0077H88.1632L87.8982 77.3209H86.7232L86.4467 78.7494H87.76L87.495 80.0627H86.1932L85.767 82.24H84.3731L84.7993 80.0627H83.3248L82.8985 82.24H81.5046L81.9308 80.0627H80.8249L81.0899 78.7494ZM83.5782 78.7494H85.0528L85.3292 77.3209H83.8662L83.5782 78.7494ZM89.5657 82.24V73.8189H92.918C94.5769 73.8189 95.5907 74.6829 95.5907 76.0883C95.5907 77.0214 95.176 77.6896 94.3811 78.0237C95.2681 78.3117 95.7174 78.9798 95.7174 79.959C95.7174 81.399 94.7152 82.24 92.9756 82.24H89.5657ZM92.7913 75.1206H91.0403V77.4131H92.8259C93.6323 77.4131 94.0816 76.9869 94.0816 76.2381C94.0816 75.5123 93.6208 75.1206 92.7913 75.1206ZM92.918 78.6573H91.0403V80.9382H92.918C93.7475 80.9382 94.2083 80.535 94.2083 79.7747C94.2083 79.0605 93.736 78.6573 92.918 78.6573ZM97.0695 82.24V73.8189H100.422C102.081 73.8189 103.094 74.6829 103.094 76.0883C103.094 77.0214 102.68 77.6896 101.885 78.0237C102.772 78.3117 103.221 78.9798 103.221 79.959C103.221 81.399 102.219 82.24 100.479 82.24H97.0695ZM100.295 75.1206H98.544V77.4131H100.33C101.136 77.4131 101.585 76.9869 101.585 76.2381C101.585 75.5123 101.125 75.1206 100.295 75.1206ZM100.422 78.6573H98.544V80.9382H100.422C101.251 80.9382 101.712 80.535 101.712 79.7747C101.712 79.0605 101.24 78.6573 100.422 78.6573ZM104.573 82.24V73.8189H107.926C109.584 73.8189 110.598 74.6829 110.598 76.0883C110.598 77.0214 110.183 77.6896 109.389 78.0237C110.276 78.3117 110.725 78.9798 110.725 79.959C110.725 81.399 109.723 82.24 107.983 82.24H104.573ZM107.799 75.1206H106.048V77.4131H107.833C108.64 77.4131 109.089 76.9869 109.089 76.2381C109.089 75.5123 108.628 75.1206 107.799 75.1206ZM107.926 78.6573H106.048V80.9382H107.926C108.755 80.9382 109.216 80.535 109.216 79.7747C109.216 79.0605 108.743 78.6573 107.926 78.6573ZM116.685 78.7955H113.552V82.24H112.077V73.8189H117.284V75.1782H113.552V77.4707H116.685V78.7955ZM118.613 82.24V73.8189H121.966C123.624 73.8189 124.638 74.6829 124.638 76.0883C124.638 77.0214 124.223 77.6896 123.429 78.0237C124.316 78.3117 124.765 78.9798 124.765 79.959C124.765 81.399 123.763 82.24 122.023 82.24H118.613ZM121.839 75.1206H120.088V77.4131H121.873C122.68 77.4131 123.129 76.9869 123.129 76.2381C123.129 75.5123 122.668 75.1206 121.839 75.1206ZM121.966 78.6573H120.088V80.9382H121.966C122.795 80.9382 123.256 80.535 123.256 79.7747C123.256 79.0605 122.783 78.6573 121.966 78.6573ZM130.725 78.7955H127.592V82.24H126.117V73.8189H131.324V75.1782H127.592V77.4707H130.725V78.7955Z" fill="#A1A6A6"/>
</svg>
