<svg width="144" height="101" viewBox="0 0 144 101" fill="none" xmlns="http://www.w3.org/2000/svg">
<path d="M0.450195 12.1201C0.450195 5.89586 5.49595 0.850098 11.7202 0.850098H131.72C137.944 0.850098 142.99 5.89585 142.99 12.1201V89.0001C142.99 95.2243 137.944 100.27 131.72 100.27H11.7202C5.49594 100.27 0.450195 95.2243 0.450195 89.0001V12.1201Z" fill="white"/>
<path d="M0.450195 12.1201C0.450195 5.89586 5.49595 0.850098 11.7202 0.850098H131.72C137.944 0.850098 142.99 5.89585 142.99 12.1201V89.0001C142.99 95.2243 137.944 100.27 131.72 100.27H11.7202C5.49594 100.27 0.450195 95.2243 0.450195 89.0001V12.1201Z" stroke="#848C8B" stroke-width="0.5"/>
<rect x="11.7201" y="15.9602" width="120" height="48" rx="5.76" fill="#990019"/>
<path d="M14.7038 77.9899H13.6785V77.0338L15.8443 75.0408H12.3422V73.739H17.6875V74.9141L15.6369 76.8034C16.9271 77.0568 17.9294 78.0014 17.9294 79.4875C17.9294 81.2155 16.5815 82.3099 14.8766 82.3099C13.2292 82.3099 11.9505 81.2962 11.9505 79.476H13.402C13.402 80.4437 14.0011 80.9966 14.8996 80.9966C15.8212 80.9966 16.4318 80.3976 16.4318 79.4645C16.4318 78.612 15.8788 77.9899 14.7038 77.9899ZM18.7742 77.9669C18.7742 75.3518 20.1796 73.5778 22.3339 73.5778C24.4881 73.5778 25.9051 75.3518 25.9051 77.9669C25.9051 80.5704 24.5688 82.3099 22.3339 82.3099C20.099 82.3099 18.7742 80.5704 18.7742 77.9669ZM20.2257 77.9669C20.2257 79.9138 21.0091 81.0082 22.3339 81.0082C23.6702 81.0082 24.4536 79.9138 24.4536 77.9669C24.4536 75.9739 23.6702 74.8795 22.3339 74.8795C21.0091 74.8795 20.2257 75.9739 20.2257 77.9669ZM26.8967 77.9669C26.8967 75.3518 28.3021 73.5778 30.4564 73.5778C32.6106 73.5778 34.0276 75.3518 34.0276 77.9669C34.0276 80.5704 32.6913 82.3099 30.4564 82.3099C28.2215 82.3099 26.8967 80.5704 26.8967 77.9669ZM28.3482 77.9669C28.3482 79.9138 29.1316 81.0082 30.4564 81.0082C31.7927 81.0082 32.5761 79.9138 32.5761 77.9669C32.5761 75.9739 31.7927 74.8795 30.4564 74.8795C29.1316 74.8795 28.3482 75.9739 28.3482 77.9669Z" fill="#0A0D0D"/>
<path d="M81.0899 78.6696H82.1843L82.4723 77.2411H81.2051L81.47 75.9278H82.7257L83.152 73.739H84.5459L84.1196 75.9278H85.5827L86.0089 73.739H87.4028L86.9766 75.9278H88.1632L87.8982 77.2411H86.7232L86.4467 78.6696H87.76L87.495 79.9829H86.1932L85.767 82.1602H84.3731L84.7993 79.9829H83.3248L82.8985 82.1602H81.5046L81.9308 79.9829H80.8249L81.0899 78.6696ZM83.5782 78.6696H85.0528L85.3292 77.2411H83.8662L83.5782 78.6696ZM89.5657 82.1602V73.739H92.918C94.5769 73.739 95.5907 74.603 95.5907 76.0085C95.5907 76.9416 95.176 77.6098 94.3811 77.9438C95.2681 78.2318 95.7174 78.9 95.7174 79.8792C95.7174 81.3192 94.7152 82.1602 92.9756 82.1602H89.5657ZM92.7913 75.0408H91.0403V77.3333H92.8259C93.6323 77.3333 94.0816 76.907 94.0816 76.1582C94.0816 75.4325 93.6208 75.0408 92.7913 75.0408ZM92.918 78.5774H91.0403V80.8584H92.918C93.7475 80.8584 94.2083 80.4552 94.2083 79.6949C94.2083 78.9806 93.736 78.5774 92.918 78.5774ZM97.0695 82.1602V73.739H100.422C102.081 73.739 103.094 74.603 103.094 76.0085C103.094 76.9416 102.68 77.6098 101.885 77.9438C102.772 78.2318 103.221 78.9 103.221 79.8792C103.221 81.3192 102.219 82.1602 100.479 82.1602H97.0695ZM100.295 75.0408H98.544V77.3333H100.33C101.136 77.3333 101.585 76.907 101.585 76.1582C101.585 75.4325 101.125 75.0408 100.295 75.0408ZM100.422 78.5774H98.544V80.8584H100.422C101.251 80.8584 101.712 80.4552 101.712 79.6949C101.712 78.9806 101.24 78.5774 100.422 78.5774ZM104.573 82.1602V73.739H107.926C109.584 73.739 110.598 74.603 110.598 76.0085C110.598 76.9416 110.183 77.6098 109.389 77.9438C110.276 78.2318 110.725 78.9 110.725 79.8792C110.725 81.3192 109.723 82.1602 107.983 82.1602H104.573ZM107.799 75.0408H106.048V77.3333H107.833C108.64 77.3333 109.089 76.907 109.089 76.1582C109.089 75.4325 108.628 75.0408 107.799 75.0408ZM107.926 78.5774H106.048V80.8584H107.926C108.755 80.8584 109.216 80.4552 109.216 79.6949C109.216 78.9806 108.743 78.5774 107.926 78.5774ZM116.685 78.7157H113.552V82.1602H112.077V73.739H117.284V75.0984H113.552V77.3909H116.685V78.7157ZM118.613 82.1602V73.739H121.966C123.624 73.739 124.638 74.603 124.638 76.0085C124.638 76.9416 124.223 77.6098 123.429 77.9438C124.316 78.2318 124.765 78.9 124.765 79.8792C124.765 81.3192 123.763 82.1602 122.023 82.1602H118.613ZM121.839 75.0408H120.088V77.3333H121.873C122.68 77.3333 123.129 76.907 123.129 76.1582C123.129 75.4325 122.668 75.0408 121.839 75.0408ZM121.966 78.5774H120.088V80.8584H121.966C122.795 80.8584 123.256 80.4552 123.256 79.6949C123.256 78.9806 122.783 78.5774 121.966 78.5774ZM130.725 78.7157H127.592V82.1602H126.117V73.739H131.324V75.0984H127.592V77.3909H130.725V78.7157Z" fill="#A1A6A6"/>
</svg>
