<svg width="144" height="101" viewBox="0 0 144 101" fill="none" xmlns="http://www.w3.org/2000/svg">
<path d="M0.370117 12.1201C0.370117 5.89586 5.41587 0.850098 11.6401 0.850098H131.64C137.864 0.850098 142.91 5.89585 142.91 12.1201V89.0001C142.91 95.2243 137.864 100.27 131.64 100.27H11.6401C5.41587 100.27 0.370117 95.2243 0.370117 89.0001V12.1201Z" fill="white"/>
<path d="M0.370117 12.1201C0.370117 5.89586 5.41587 0.850098 11.6401 0.850098H131.64C137.864 0.850098 142.91 5.89585 142.91 12.1201V89.0001C142.91 95.2243 137.864 100.27 131.64 100.27H11.6401C5.41587 100.27 0.370117 95.2243 0.370117 89.0001V12.1201Z" stroke="#848C8B" stroke-width="0.5"/>
<rect x="11.6401" y="15.9602" width="120" height="48" rx="5.76" fill="#FCE3E7"/>
<path d="M13.875 75.0638H12.0318V73.739H15.292V82.1602H13.875V75.0638ZM16.7255 77.9669C16.7255 75.3518 18.1309 73.5778 20.2852 73.5778C22.4394 73.5778 23.8564 75.3518 23.8564 77.9669C23.8564 80.5704 22.5201 82.3099 20.2852 82.3099C18.0503 82.3099 16.7255 80.5704 16.7255 77.9669ZM18.177 77.9669C18.177 79.9138 18.9604 81.0082 20.2852 81.0082C21.6215 81.0082 22.4049 79.9138 22.4049 77.9669C22.4049 75.9739 21.6215 74.8795 20.2852 74.8795C18.9604 74.8795 18.177 75.9739 18.177 77.9669ZM24.848 77.9669C24.848 75.3518 26.2534 73.5778 28.4077 73.5778C30.5619 73.5778 31.9789 75.3518 31.9789 77.9669C31.9789 80.5704 30.6426 82.3099 28.4077 82.3099C26.1728 82.3099 24.848 80.5704 24.848 77.9669ZM26.2995 77.9669C26.2995 79.9138 27.0829 81.0082 28.4077 81.0082C29.744 81.0082 30.5274 79.9138 30.5274 77.9669C30.5274 75.9739 29.744 74.8795 28.4077 74.8795C27.0829 74.8795 26.2995 75.9739 26.2995 77.9669Z" fill="#0A0D0D"/>
<path d="M81.3774 78.6696H82.4718L82.7598 77.2411H81.4926L81.7576 75.9278H83.0133L83.4395 73.739H84.8334L84.4072 75.9278H85.8702L86.2965 73.739H87.6904L87.2641 75.9278H88.4507L88.1857 77.2411H87.0107L86.7342 78.6696H88.0475L87.7825 79.9829H86.4808L86.0545 82.1602H84.6606L85.0869 79.9829H83.6123L83.1861 82.1602H81.7921L82.2184 79.9829H81.1125L81.3774 78.6696ZM83.8657 78.6696H85.3403L85.6168 77.2411H84.1537L83.8657 78.6696ZM95.0833 82.1602H89.8533V73.739H95.0833V75.0984H91.3278V77.2642H94.6917V78.5659H91.3278V80.8008H95.0833V82.1602ZM99.7118 82.1602H96.682V73.739H99.6311C102.119 73.739 103.836 75.4555 103.836 77.9669C103.836 80.4437 102.154 82.1602 99.7118 82.1602ZM99.4929 75.0984H98.1566V80.8008H99.5735C101.255 80.8008 102.281 79.7179 102.281 77.9669C102.281 76.1813 101.232 75.0984 99.4929 75.0984ZM109.818 78.7157H106.684V82.1602H105.21V73.739H110.417V75.0984H106.684V77.3909H109.818V78.7157ZM117.183 82.1486L111.343 82.1602V81.0542L114.096 78.7272C115.236 77.7595 115.616 77.2066 115.616 76.4002C115.616 75.444 115.098 74.9026 114.211 74.9026C113.289 74.9026 112.713 75.5477 112.702 76.6306H111.239C111.25 74.7874 112.425 73.5893 114.211 73.5893C116.008 73.5893 117.126 74.6146 117.126 76.3195C117.126 77.4946 116.48 78.3816 115.202 79.476L113.681 80.7778H117.183V82.1486ZM123.138 78.7157H120.004V82.1602H118.53V73.739H123.737V75.0984H120.004V77.3909H123.138V78.7157ZM130.503 82.1486L124.663 82.1602V81.0542L127.416 78.7272C128.556 77.7595 128.936 77.2066 128.936 76.4002C128.936 75.444 128.418 74.9026 127.531 74.9026C126.609 74.9026 126.033 75.5477 126.022 76.6306H124.559C124.57 74.7874 125.745 73.5893 127.531 73.5893C129.328 73.5893 130.446 74.6146 130.446 76.3195C130.446 77.4946 129.8 78.3816 128.522 79.476L127.001 80.7778H130.503V82.1486Z" fill="#A1A6A6"/>
</svg>
