<svg width="144" height="101" viewBox="0 0 144 101" fill="none" xmlns="http://www.w3.org/2000/svg">
<path d="M0.410156 12.1201C0.410156 5.89586 5.45591 0.850098 11.6802 0.850098H131.68C137.904 0.850098 142.95 5.89585 142.95 12.1201V89.0001C142.95 95.2243 137.904 100.27 131.68 100.27H11.6802C5.45591 100.27 0.410156 95.2243 0.410156 89.0001V12.1201Z" fill="white"/>
<path d="M0.410156 12.1201C0.410156 5.89586 5.45591 0.850098 11.6802 0.850098H131.68C137.904 0.850098 142.95 5.89585 142.95 12.1201V89.0001C142.95 95.2243 137.904 100.27 131.68 100.27H11.6802C5.45591 100.27 0.410156 95.2243 0.410156 89.0001V12.1201Z" stroke="#848C8B" stroke-width="0.5"/>
<rect x="11.6802" y="15.9602" width="120" height="48" rx="5.76" fill="#E51739"/>
<path d="M18.0507 82.1486L12.2101 82.1602V81.0542L14.9634 78.7272C16.1039 77.7595 16.484 77.2066 16.484 76.4002C16.484 75.444 15.9656 74.9026 15.0786 74.9026C14.157 74.9026 13.581 75.5477 13.5695 76.6306H12.1064C12.1179 74.7874 13.293 73.5893 15.0786 73.5893C16.8757 73.5893 17.9931 74.6146 17.9931 76.3195C17.9931 77.4946 17.348 78.3816 16.0693 79.476L14.5487 80.7778H18.0507V82.1486ZM18.9593 77.9669C18.9593 75.3518 20.3647 73.5778 22.519 73.5778C24.6732 73.5778 26.0902 75.3518 26.0902 77.9669C26.0902 80.5704 24.7538 82.3099 22.519 82.3099C20.2841 82.3099 18.9593 80.5704 18.9593 77.9669ZM20.4108 77.9669C20.4108 79.9138 21.1942 81.0082 22.519 81.0082C23.8553 81.0082 24.6386 79.9138 24.6386 77.9669C24.6386 75.9739 23.8553 74.8795 22.519 74.8795C21.1942 74.8795 20.4108 75.9739 20.4108 77.9669ZM27.0818 77.9669C27.0818 75.3518 28.4872 73.5778 30.6415 73.5778C32.7957 73.5778 34.2127 75.3518 34.2127 77.9669C34.2127 80.5704 32.8763 82.3099 30.6415 82.3099C28.4066 82.3099 27.0818 80.5704 27.0818 77.9669ZM28.5333 77.9669C28.5333 79.9138 29.3167 81.0082 30.6415 81.0082C31.9778 81.0082 32.7611 79.9138 32.7611 77.9669C32.7611 75.9739 31.9778 74.8795 30.6415 74.8795C29.3167 74.8795 28.5333 75.9739 28.5333 77.9669Z" fill="#0A0D0D"/>
<path d="M76.82 78.6696H77.9144L78.2024 77.2411H76.9352L77.2001 75.9278H78.4558L78.882 73.739H80.276L79.8497 75.9278H81.3128L81.739 73.739H83.1329L82.7067 75.9278H83.8932L83.6283 77.2411H82.4532L82.1768 78.6696H83.49L83.2251 79.9829H81.9233L81.4971 82.1602H80.1032L80.5294 79.9829H79.0548L78.6286 82.1602H77.2347L77.6609 79.9829H76.555L76.82 78.6696ZM79.3083 78.6696H80.7828L81.0593 77.2411H79.5963L79.3083 78.6696ZM88.3256 82.1602H85.2958V73.739H88.2449C90.7332 73.739 92.4497 75.4555 92.4497 77.9669C92.4497 80.4437 90.7678 82.1602 88.3256 82.1602ZM88.1067 75.0984H86.7704V80.8008H88.1873C89.8692 80.8008 90.8945 79.7179 90.8945 77.9669C90.8945 76.1813 89.8462 75.0984 88.1067 75.0984ZM99.9059 80.5589H98.8806V82.1602H97.4867V80.5589H93.2127V79.2686L97.0259 73.739H98.8806V79.2686H99.9059V80.5589ZM94.7795 79.2686H97.4867V75.3288L94.7795 79.2686ZM104.301 82.1602H101.271V73.739H104.22C106.708 73.739 108.425 75.4555 108.425 77.9669C108.425 80.4437 106.743 82.1602 104.301 82.1602ZM104.082 75.0984H102.745V80.8008H104.162C105.844 80.8008 106.87 79.7179 106.87 77.9669C106.87 76.1813 105.821 75.0984 104.082 75.0984ZM114.314 79.6834L112.494 82.1602H110.812L112.828 79.476C112.621 79.5336 112.402 79.5682 112.194 79.5682C110.455 79.5682 109.28 78.347 109.28 76.6421C109.28 74.845 110.616 73.5893 112.413 73.5893C114.233 73.5893 115.593 74.9256 115.593 76.6536C115.593 77.6674 115.259 78.4046 114.314 79.6834ZM114.084 76.6421C114.084 75.6168 113.404 74.9026 112.413 74.9026C111.446 74.9026 110.766 75.6168 110.766 76.6421C110.766 77.6558 111.446 78.3586 112.413 78.3586C113.416 78.3586 114.084 77.6558 114.084 76.6421ZM119.972 82.1602H116.942V73.739H119.891C122.379 73.739 124.096 75.4555 124.096 77.9669C124.096 80.4437 122.414 82.1602 119.972 82.1602ZM119.753 75.0984H118.417V80.8008H119.834C121.515 80.8008 122.541 79.7179 122.541 77.9669C122.541 76.1813 121.492 75.0984 119.753 75.0984ZM129.985 79.6834L128.165 82.1602H126.483L128.499 79.476C128.292 79.5336 128.073 79.5682 127.866 79.5682C126.126 79.5682 124.951 78.347 124.951 76.6421C124.951 74.845 126.287 73.5893 128.085 73.5893C129.905 73.5893 131.264 74.9256 131.264 76.6536C131.264 77.6674 130.93 78.4046 129.985 79.6834ZM129.755 76.6421C129.755 75.6168 129.075 74.9026 128.085 74.9026C127.117 74.9026 126.437 75.6168 126.437 76.6421C126.437 77.6558 127.117 78.3586 128.085 78.3586C129.087 78.3586 129.755 77.6558 129.755 76.6421Z" fill="#A1A6A6"/>
</svg>
