<svg width="190" height="24" viewBox="0 0 190 24" fill="none" xmlns="http://www.w3.org/2000/svg">
<path d="M6.974 6.758C7.47267 6.758 7.942 7.03667 8.382 7.594C8.822 8.13667 9.042 8.61333 9.042 9.024C9.042 9.27333 8.92467 9.398 8.69 9.398C8.52867 9.398 8.27933 9.27333 7.942 9.024C7.60467 8.76 7.26 8.628 6.908 8.628C6.556 8.628 5.99867 8.83333 5.236 9.244C4.488 9.65467 4.114 10.0873 4.114 10.542C4.114 10.8793 4.78867 11.4587 6.138 12.28C6.65133 12.6027 7.11333 13.0207 7.524 13.534C7.94933 14.0327 8.162 14.5753 8.162 15.162C8.162 15.734 7.75867 16.2987 6.952 16.856C6.16 17.3987 5.22867 17.67 4.158 17.67C3.102 17.67 2.16333 17.4133 1.342 16.9C0.535333 16.3867 0.132 15.9027 0.132 15.448C0.132 15.2573 0.176 15.1107 0.264 15.008C0.366667 14.8907 0.491333 14.832 0.638 14.832C0.784667 14.832 0.99 14.9273 1.254 15.118C2.046 15.69 2.86733 15.976 3.718 15.976C4.58333 15.976 5.20667 15.8807 5.588 15.69C5.96933 15.4847 6.16 15.2207 6.16 14.898C6.16 14.5607 5.94733 14.2087 5.522 13.842C5.09667 13.4607 4.62733 13.1233 4.114 12.83C3.61533 12.5367 3.15333 12.1773 2.728 11.752C2.30267 11.3267 2.09 10.894 2.09 10.454C2.09 9.67667 2.69867 8.87 3.916 8.034C5.148 7.18333 6.16733 6.758 6.974 6.758ZM16.6932 10.498C16.6932 9.99933 16.6125 9.53 16.4512 9.09C16.2899 8.63533 16.0552 8.30533 15.7472 8.1C14.7352 8.37867 13.8625 9.16333 13.1292 10.454C12.4105 11.73 12.0512 12.9327 12.0512 14.062C12.0512 15.1913 12.3299 15.8953 12.8872 16.174C13.9432 15.9687 14.8379 15.25 15.5712 14.018C16.3192 12.7713 16.6932 11.598 16.6932 10.498ZM10.9072 10.696C11.4205 9.552 12.0879 8.61333 12.9092 7.88C13.7452 7.132 14.5959 6.758 15.4612 6.758C16.3412 6.758 17.0745 7.132 17.6612 7.88C18.2479 8.61333 18.5412 9.51533 18.5412 10.586C18.5412 11.642 18.2845 12.7273 17.7712 13.842C17.2579 14.942 16.5465 15.8587 15.6372 16.592C14.7425 17.3107 13.7892 17.67 12.7772 17.67C12.0292 17.67 11.4059 17.3253 10.9072 16.636C10.4085 15.9467 10.1592 15.074 10.1592 14.018C10.1592 12.9473 10.4085 11.84 10.9072 10.696ZM34.2519 6.758C34.6919 6.758 35.0806 7.066 35.4179 7.682C35.7699 8.28333 35.9459 8.97267 35.9459 9.75C35.9459 10.5127 35.8066 11.51 35.5279 12.742C35.2639 13.974 34.9046 15.1033 34.4499 16.13C33.9953 17.1567 33.5479 17.67 33.1079 17.67C32.7999 17.67 32.6459 17.472 32.6459 17.076C32.6459 16.6653 32.8953 15.6753 33.3939 14.106C33.9073 12.522 34.1639 11.268 34.1639 10.344C34.1639 9.40533 34.0173 8.936 33.7239 8.936C33.3573 8.936 32.9319 9.25867 32.4479 9.904C31.9786 10.5493 31.4726 11.3267 30.9299 12.236C30.3873 13.1453 30.0939 13.6367 30.0499 13.71C30.0059 13.7687 29.9473 13.8567 29.8739 13.974C29.8153 14.0913 29.7419 14.216 29.6539 14.348C29.5806 14.48 29.3753 14.876 29.0379 15.536C28.7153 16.196 28.4293 16.7167 28.1799 17.098C27.9306 17.4647 27.7106 17.648 27.5199 17.648C27.3439 17.648 27.1459 17.5307 26.9259 17.296C26.7059 17.0613 26.5959 16.8413 26.5959 16.636C26.5959 16.4307 26.7279 16.0053 26.9919 15.36C27.7546 13.4533 28.1359 11.6787 28.1359 10.036C28.1359 9.728 28.0699 9.47133 27.9379 9.266C27.8059 9.046 27.6593 8.936 27.4979 8.936C27.3366 8.936 27.1679 9.00933 26.9919 9.156C26.8159 9.288 26.5959 9.53733 26.3319 9.904C26.0679 10.256 25.8333 10.5933 25.6279 10.916C25.4226 11.2387 25.1073 11.7447 24.6819 12.434C24.2713 13.1087 23.9559 13.6147 23.7359 13.952C23.5306 14.2747 23.2886 14.656 23.0099 15.096C22.7313 15.5213 22.5113 15.8513 22.3499 16.086C22.2033 16.3207 22.0346 16.5773 21.8439 16.856C21.4479 17.3987 21.1546 17.67 20.9639 17.67C20.7879 17.67 20.5533 17.5087 20.2599 17.186C19.9666 16.8487 19.8199 16.5993 19.8199 16.438C19.8199 16.262 19.8493 16.0493 19.9079 15.8C19.9666 15.5507 20.0253 15.3087 20.0839 15.074C20.1573 14.8393 20.2599 14.4947 20.3919 14.04C20.5386 13.5707 20.6999 13.028 20.8759 12.412C21.0666 11.7813 21.2059 10.9233 21.2939 9.838C21.3966 8.738 21.4699 7.93867 21.5139 7.44C21.5579 6.92667 21.6826 6.67 21.8879 6.67C22.2106 6.67 22.5259 6.83867 22.8339 7.176C23.1566 7.51333 23.3179 7.85067 23.3179 8.188C23.3179 9.47867 22.8339 11.6053 21.8659 14.568C23.5086 11.488 24.5426 9.662 24.9679 9.09C25.3933 8.518 25.7599 8.056 26.0679 7.704C26.6399 7.07333 27.2193 6.758 27.8059 6.758C28.1579 6.758 28.5759 7.066 29.0599 7.682C29.5586 8.28333 29.8079 8.892 29.8079 9.508C29.8079 10.124 29.7199 10.8867 29.5439 11.796C31.2746 8.43733 32.8439 6.758 34.2519 6.758ZM46.3057 10.41C46.3057 11.1873 45.8804 11.8253 45.0297 12.324C44.1937 12.808 43.2404 13.05 42.1697 13.05C41.1137 13.05 40.153 12.9327 39.2877 12.698C39.0824 13.3433 38.9797 13.9227 38.9797 14.436C38.9797 14.9347 39.1337 15.3233 39.4417 15.602C39.7644 15.8807 40.285 16.02 41.0037 16.02C41.737 16.02 42.485 15.8953 43.2477 15.646C44.025 15.382 44.4504 15.25 44.5237 15.25C44.905 15.25 45.0957 15.3967 45.0957 15.69C45.0957 16.086 44.6484 16.5187 43.7537 16.988C42.859 17.4427 41.9864 17.67 41.1357 17.67C39.9917 17.67 39.0604 17.3327 38.3417 16.658C37.623 15.9687 37.2637 15.1033 37.2637 14.062C37.2637 13.0207 37.5424 11.9353 38.0997 10.806C38.657 9.662 39.3757 8.70133 40.2557 7.924C41.1357 7.14667 42.0084 6.758 42.8737 6.758C43.739 6.758 44.5237 7.16867 45.2277 7.99C45.9464 8.81133 46.3057 9.618 46.3057 10.41ZM42.9837 8.496C42.441 8.496 41.8764 8.782 41.2897 9.354C40.703 9.91133 40.2044 10.608 39.7937 11.444C40.3804 11.576 41.0477 11.642 41.7957 11.642C42.5437 11.642 43.1964 11.5247 43.7537 11.29C44.311 11.0407 44.5897 10.718 44.5897 10.322C44.5897 9.926 44.4064 9.52267 44.0397 9.112C43.6877 8.70133 43.3357 8.496 42.9837 8.496ZM62.9061 10.498C62.9061 9.99933 62.8254 9.53 62.6641 9.09C62.5027 8.63533 62.2681 8.30533 61.9601 8.1C60.9481 8.37867 60.0754 9.16333 59.3421 10.454C58.6234 11.73 58.2641 12.9327 58.2641 14.062C58.2641 15.1913 58.5427 15.8953 59.1001 16.174C60.1561 15.9687 61.0507 15.25 61.7841 14.018C62.5321 12.7713 62.9061 11.598 62.9061 10.498ZM57.1201 10.696C57.6334 9.552 58.3007 8.61333 59.1221 7.88C59.9581 7.132 60.8087 6.758 61.6741 6.758C62.5541 6.758 63.2874 7.132 63.8741 7.88C64.4607 8.61333 64.7541 9.51533 64.7541 10.586C64.7541 11.642 64.4974 12.7273 63.9841 13.842C63.4707 14.942 62.7594 15.8587 61.8501 16.592C60.9554 17.3107 60.0021 17.67 58.9901 17.67C58.2421 17.67 57.6187 17.3253 57.1201 16.636C56.6214 15.9467 56.3721 15.074 56.3721 14.018C56.3721 12.9473 56.6214 11.84 57.1201 10.696ZM67.8148 17.714C67.6242 17.714 67.4188 17.5747 67.1988 17.296C66.9788 17.0173 66.8688 16.79 66.8688 16.614C66.8688 16.438 66.9422 16.0933 67.0888 15.58C67.8222 12.94 68.3208 11.0553 68.5848 9.926C67.9542 10.0727 67.5215 10.146 67.2868 10.146C67.0522 10.146 66.8175 10.0433 66.5828 9.838C66.3482 9.63267 66.2308 9.40533 66.2308 9.156C66.2308 8.90667 66.5608 8.68667 67.2208 8.496C68.0715 8.29067 68.6582 8.15867 68.9808 8.1C69.1275 7.396 69.2375 6.85333 69.3108 6.472C69.6628 4.448 70.1395 2.98867 70.7408 2.094C71.3422 1.19933 72.1562 0.751999 73.1828 0.751999C73.9162 0.751999 74.5175 1.04533 74.9868 1.632C75.4562 2.204 75.6908 2.886 75.6908 3.678C75.6908 4.45533 75.4855 4.844 75.0748 4.844C74.7228 4.844 74.4368 4.448 74.2168 3.656C74.1435 3.36267 74.0188 3.09133 73.8428 2.842C73.6668 2.59267 73.4542 2.468 73.2048 2.468C72.9555 2.468 72.7282 2.58533 72.5228 2.82C72.3175 3.04 72.1342 3.36267 71.9728 3.788C71.5475 4.976 71.2542 6.06133 71.0928 7.044L70.9168 7.814C71.4595 7.74067 71.9948 7.704 72.5228 7.704C73.0655 7.704 73.4542 7.76267 73.6888 7.88C73.9382 7.99733 74.0628 8.144 74.0628 8.32C74.0628 8.59867 73.8208 8.81133 73.3368 8.958C72.8528 9.10467 71.9068 9.29533 70.4988 9.53C69.4575 13.754 68.7462 16.2693 68.3648 17.076C68.1595 17.5013 67.9762 17.714 67.8148 17.714ZM97.5664 6.758C98.0064 6.758 98.3951 7.066 98.7324 7.682C99.0844 8.28333 99.2604 8.97267 99.2604 9.75C99.2604 10.5127 99.1211 11.51 98.8424 12.742C98.5784 13.974 98.2191 15.1033 97.7644 16.13C97.3097 17.1567 96.8624 17.67 96.4224 17.67C96.1144 17.67 95.9604 17.472 95.9604 17.076C95.9604 16.6653 96.2097 15.6753 96.7084 14.106C97.2217 12.522 97.4784 11.268 97.4784 10.344C97.4784 9.40533 97.3317 8.936 97.0384 8.936C96.6717 8.936 96.2464 9.25867 95.7624 9.904C95.2931 10.5493 94.7871 11.3267 94.2444 12.236C93.7017 13.1453 93.4084 13.6367 93.3644 13.71C93.3204 13.7687 93.2617 13.8567 93.1884 13.974C93.1297 14.0913 93.0564 14.216 92.9684 14.348C92.8951 14.48 92.6897 14.876 92.3524 15.536C92.0297 16.196 91.7437 16.7167 91.4944 17.098C91.2451 17.4647 91.0251 17.648 90.8344 17.648C90.6584 17.648 90.4604 17.5307 90.2404 17.296C90.0204 17.0613 89.9104 16.8413 89.9104 16.636C89.9104 16.4307 90.0424 16.0053 90.3064 15.36C91.0691 13.4533 91.4504 11.6787 91.4504 10.036C91.4504 9.728 91.3844 9.47133 91.2524 9.266C91.1204 9.046 90.9737 8.936 90.8124 8.936C90.6511 8.936 90.4824 9.00933 90.3064 9.156C90.1304 9.288 89.9104 9.53733 89.6464 9.904C89.3824 10.256 89.1477 10.5933 88.9424 10.916C88.7371 11.2387 88.4217 11.7447 87.9964 12.434C87.5857 13.1087 87.2704 13.6147 87.0504 13.952C86.8451 14.2747 86.6031 14.656 86.3244 15.096C86.0457 15.5213 85.8257 15.8513 85.6644 16.086C85.5177 16.3207 85.3491 16.5773 85.1584 16.856C84.7624 17.3987 84.4691 17.67 84.2784 17.67C84.1024 17.67 83.8677 17.5087 83.5744 17.186C83.2811 16.8487 83.1344 16.5993 83.1344 16.438C83.1344 16.262 83.1637 16.0493 83.2224 15.8C83.2811 15.5507 83.3397 15.3087 83.3984 15.074C83.4717 14.8393 83.5744 14.4947 83.7064 14.04C83.8531 13.5707 84.0144 13.028 84.1904 12.412C84.3811 11.7813 84.5204 10.9233 84.6084 9.838C84.7111 8.738 84.7844 7.93867 84.8284 7.44C84.8724 6.92667 84.9971 6.67 85.2024 6.67C85.5251 6.67 85.8404 6.83867 86.1484 7.176C86.4711 7.51333 86.6324 7.85067 86.6324 8.188C86.6324 9.47867 86.1484 11.6053 85.1804 14.568C86.8231 11.488 87.8571 9.662 88.2824 9.09C88.7077 8.518 89.0744 8.056 89.3824 7.704C89.9544 7.07333 90.5337 6.758 91.1204 6.758C91.4724 6.758 91.8904 7.066 92.3744 7.682C92.8731 8.28333 93.1224 8.892 93.1224 9.508C93.1224 10.124 93.0344 10.8867 92.8584 11.796C94.5891 8.43733 96.1584 6.758 97.5664 6.758ZM109.444 6.758C109.679 6.758 109.928 6.934 110.192 7.286C110.471 7.62333 110.61 8.00467 110.61 8.43C110.61 8.72333 110.309 9.72067 109.708 11.422C109.107 13.1233 108.696 14.282 108.476 14.898C108.271 15.4993 107.985 16.306 107.618 17.318C107.266 18.3153 106.921 19.2907 106.584 20.244C105.851 22.3413 104.751 23.39 103.284 23.39C102.448 23.39 101.649 23.1333 100.886 22.62C100.123 22.1213 99.7422 21.6007 99.7422 21.058C99.7422 20.8527 99.8375 20.6253 100.028 20.376C100.204 20.1267 100.358 20.002 100.49 20.002C100.622 20.002 100.835 20.1633 101.128 20.486C101.979 21.454 102.705 21.938 103.306 21.938C103.761 21.938 104.171 21.5347 104.538 20.728C104.905 19.936 105.249 19.034 105.572 18.022C105.909 17.0247 106.093 16.4747 106.122 16.372C106.166 16.2693 106.21 16.1373 106.254 15.976C106.313 15.8147 106.364 15.668 106.408 15.536C105.367 16.9587 104.34 17.67 103.328 17.67C102.712 17.67 102.14 17.384 101.612 16.812C101.099 16.24 100.842 15.5653 100.842 14.788C100.842 14.0107 101.033 12.962 101.414 11.642C101.795 10.322 102.243 9.178 102.756 8.21C103.269 7.242 103.687 6.758 104.01 6.758C104.274 6.758 104.516 6.88267 104.736 7.132C104.971 7.36667 105.088 7.60867 105.088 7.858C105.088 8.10733 104.897 8.628 104.516 9.42C103.328 11.8547 102.734 13.7467 102.734 15.096C102.734 15.3307 102.807 15.5287 102.954 15.69C103.101 15.8367 103.277 15.91 103.482 15.91C104.01 15.91 104.641 15.4407 105.374 14.502C106.107 13.5633 106.782 12.4487 107.398 11.158C107.911 10.0727 108.447 8.68667 109.004 7C109.063 6.83867 109.209 6.758 109.444 6.758ZM127.179 6.692C127.809 6.692 128.352 7.09533 128.807 7.902C129.276 8.70867 129.511 9.54467 129.511 10.41C129.511 11.2607 129.261 12.1187 128.763 12.984C128.264 13.8347 127.648 14.5973 126.915 15.272C126.181 15.9467 125.367 16.5113 124.473 16.966C123.593 17.406 122.779 17.626 122.031 17.626C121.737 17.626 121.459 17.5893 121.195 17.516C121.136 17.7653 121.033 18.2127 120.887 18.858C120.74 19.5033 120.615 20.0387 120.513 20.464C120.41 20.8893 120.293 21.344 120.161 21.828C119.897 22.8253 119.662 23.324 119.457 23.324C119.251 23.324 119.039 23.1627 118.819 22.84C118.584 22.532 118.467 22.2533 118.467 22.004C118.467 21.7547 118.701 20.684 119.171 18.792C120.579 13.0867 121.283 9.244 121.283 7.264C121.283 6.824 121.444 6.604 121.767 6.604C122.031 6.604 122.346 6.802 122.713 7.198C123.094 7.57933 123.285 8.00467 123.285 8.474C123.285 8.70867 123.255 8.96533 123.197 9.244C124.502 7.54267 125.829 6.692 127.179 6.692ZM121.811 15.91C122.588 15.91 123.424 15.646 124.319 15.118C125.228 14.59 125.998 13.8933 126.629 13.028C127.274 12.148 127.597 11.2753 127.597 10.41C127.597 9.19267 127.311 8.584 126.739 8.584C126.167 8.584 125.389 9.07533 124.407 10.058C123.439 11.0407 122.669 12.3167 122.097 13.886L121.591 15.91H121.811ZM131.811 9.442L131.745 7.792C131.745 7.10267 131.906 6.758 132.229 6.758C132.507 6.758 132.771 6.94133 133.021 7.308C133.285 7.66 133.417 8.08533 133.417 8.584C133.417 9.068 133.402 9.43467 133.373 9.684C134.649 7.748 135.859 6.78 137.003 6.78C137.721 6.78 138.081 6.956 138.081 7.308C138.081 7.484 138 7.64533 137.839 7.792C137.677 7.93867 137.421 8.10733 137.069 8.298C136.291 8.63533 135.631 9.156 135.089 9.86C134.561 10.5493 134.128 11.334 133.791 12.214C133.453 13.094 133.182 13.8347 132.977 14.436C132.786 15.0373 132.639 15.5067 132.537 15.844C132.434 16.1813 132.317 16.5113 132.185 16.834C131.95 17.4207 131.679 17.714 131.371 17.714C131.121 17.714 130.916 17.5747 130.755 17.296C130.608 17.0027 130.535 16.724 130.535 16.46C130.535 16.1813 130.659 15.6387 130.909 14.832C131.51 12.984 131.811 11.1873 131.811 9.442ZM144.418 10.498C144.418 9.99933 144.337 9.53 144.176 9.09C144.014 8.63533 143.78 8.30533 143.472 8.1C142.46 8.37867 141.587 9.16333 140.854 10.454C140.135 11.73 139.776 12.9327 139.776 14.062C139.776 15.1913 140.054 15.8953 140.612 16.174C141.668 15.9687 142.562 15.25 143.296 14.018C144.044 12.7713 144.418 11.598 144.418 10.498ZM138.632 10.696C139.145 9.552 139.812 8.61333 140.634 7.88C141.47 7.132 142.32 6.758 143.186 6.758C144.066 6.758 144.799 7.132 145.386 7.88C145.972 8.61333 146.266 9.51533 146.266 10.586C146.266 11.642 146.009 12.7273 145.496 13.842C144.982 14.942 144.271 15.8587 143.362 16.592C142.467 17.3107 141.514 17.67 140.502 17.67C139.754 17.67 139.13 17.3253 138.632 16.636C138.133 15.9467 137.884 15.074 137.884 14.018C137.884 12.9473 138.133 11.84 138.632 10.696ZM143.783 20.662C144.413 21.4687 144.934 21.872 145.345 21.872C145.755 21.872 146.1 21.652 146.379 21.212C146.657 20.772 146.929 20.0753 147.193 19.122C147.457 18.1833 147.706 17.2153 147.941 16.218C148.175 15.2207 148.476 13.9007 148.843 12.258C149.224 10.6153 149.591 9.14133 149.943 7.836C150.163 7.11733 150.375 6.758 150.581 6.758C150.83 6.758 151.087 6.91933 151.351 7.242C151.615 7.55 151.747 7.88733 151.747 8.254C151.747 8.59133 151.519 9.618 151.065 11.334C150.61 13.0353 150.207 14.568 149.855 15.932C149.503 17.296 149.158 18.6307 148.821 19.936C148.19 22.2387 147.046 23.39 145.389 23.39C144.655 23.39 143.944 23.082 143.255 22.466C142.551 21.85 142.199 21.322 142.199 20.882C142.199 20.6913 142.279 20.464 142.441 20.2C142.587 19.9507 142.727 19.826 142.859 19.826C143.02 19.826 143.189 19.9287 143.365 20.134C143.541 20.354 143.68 20.53 143.783 20.662ZM150.845 3.634C150.845 3.34067 150.962 3.062 151.197 2.798C151.431 2.534 151.673 2.402 151.923 2.402C152.172 2.402 152.458 2.70267 152.781 3.304C153.118 3.89067 153.287 4.382 153.287 4.778C153.287 4.92467 153.221 5.05667 153.089 5.174C152.957 5.29133 152.825 5.35 152.693 5.35C152.341 5.35 151.945 5.13733 151.505 4.712C151.065 4.28667 150.845 3.92733 150.845 3.634ZM162.106 10.41C162.106 11.1873 161.681 11.8253 160.83 12.324C159.994 12.808 159.041 13.05 157.97 13.05C156.914 13.05 155.954 12.9327 155.088 12.698C154.883 13.3433 154.78 13.9227 154.78 14.436C154.78 14.9347 154.934 15.3233 155.242 15.602C155.565 15.8807 156.086 16.02 156.804 16.02C157.538 16.02 158.286 15.8953 159.048 15.646C159.826 15.382 160.251 15.25 160.324 15.25C160.706 15.25 160.896 15.3967 160.896 15.69C160.896 16.086 160.449 16.5187 159.554 16.988C158.66 17.4427 157.787 17.67 156.936 17.67C155.792 17.67 154.861 17.3327 154.142 16.658C153.424 15.9687 153.064 15.1033 153.064 14.062C153.064 13.0207 153.343 11.9353 153.9 10.806C154.458 9.662 155.176 8.70133 156.056 7.924C156.936 7.14667 157.809 6.758 158.674 6.758C159.54 6.758 160.324 7.16867 161.028 7.99C161.747 8.81133 162.106 9.618 162.106 10.41ZM158.784 8.496C158.242 8.496 157.677 8.782 157.09 9.354C156.504 9.91133 156.005 10.608 155.594 11.444C156.181 11.576 156.848 11.642 157.596 11.642C158.344 11.642 158.997 11.5247 159.554 11.29C160.112 11.0407 160.39 10.718 160.39 10.322C160.39 9.926 160.207 9.52267 159.84 9.112C159.488 8.70133 159.136 8.496 158.784 8.496ZM166.775 17.67C165.924 17.67 165.125 17.34 164.377 16.68C163.629 16.0053 163.255 15.2133 163.255 14.304C163.255 13.38 163.563 12.3167 164.179 11.114C164.795 9.91133 165.587 8.88467 166.555 8.034C167.537 7.18333 168.491 6.758 169.415 6.758C170.016 6.758 170.544 7.02933 170.999 7.572C171.453 8.11467 171.681 8.59133 171.681 9.002C171.681 9.11933 171.644 9.222 171.571 9.31C171.497 9.38333 171.387 9.42 171.241 9.42C171.109 9.42 170.867 9.288 170.515 9.024C170.163 8.76 169.847 8.628 169.569 8.628C168.777 8.628 167.853 9.32467 166.797 10.718C165.741 12.1113 165.213 13.3287 165.213 14.37C165.213 14.8247 165.352 15.184 165.631 15.448C165.924 15.712 166.386 15.844 167.017 15.844C167.662 15.844 168.249 15.7707 168.777 15.624C169.319 15.4627 169.737 15.3087 170.031 15.162C170.324 15.0007 170.551 14.92 170.713 14.92C170.991 14.92 171.131 15.0593 171.131 15.338C171.131 15.7633 170.617 16.262 169.591 16.834C168.579 17.3913 167.64 17.67 166.775 17.67ZM175.494 15.47C175.494 15.7487 175.655 15.888 175.978 15.888C176.535 15.888 177.21 15.734 178.002 15.426C178.808 15.1033 179.256 14.942 179.344 14.942C179.608 14.942 179.74 15.0813 179.74 15.36C179.74 15.7853 179.3 16.2767 178.42 16.834C177.554 17.3913 176.762 17.67 176.044 17.67C175.34 17.67 174.753 17.4793 174.284 17.098C173.814 16.702 173.58 16.2987 173.58 15.888C173.58 15.4773 173.668 14.9567 173.844 14.326C174.02 13.6807 174.269 12.8373 174.592 11.796C174.929 10.74 175.193 9.86733 175.384 9.178C174.694 9.33933 174.232 9.42 173.998 9.42C173.763 9.42 173.528 9.30267 173.294 9.068C173.074 8.81867 172.964 8.584 172.964 8.364C172.964 8.012 173.917 7.67467 175.824 7.352C176.088 6.13467 176.22 5.05667 176.22 4.118C176.22 3.678 176.366 3.458 176.66 3.458C176.909 3.458 177.217 3.61933 177.584 3.942C177.95 4.25 178.134 4.602 178.134 4.998C178.134 5.394 178.009 6.09067 177.76 7.088C178.596 7.01467 179.263 6.978 179.762 6.978C180.642 6.978 181.082 7.16867 181.082 7.55C181.082 7.77 180.84 7.95333 180.356 8.1C179.886 8.24667 178.889 8.474 177.364 8.782C177.056 9.94067 176.667 11.268 176.198 12.764C175.728 14.2453 175.494 15.1473 175.494 15.47ZM187.829 6.758C188.328 6.758 188.797 7.03667 189.237 7.594C189.677 8.13667 189.897 8.61333 189.897 9.024C189.897 9.27333 189.78 9.398 189.545 9.398C189.384 9.398 189.135 9.27333 188.797 9.024C188.46 8.76 188.115 8.628 187.763 8.628C187.411 8.628 186.854 8.83333 186.091 9.244C185.343 9.65467 184.969 10.0873 184.969 10.542C184.969 10.8793 185.644 11.4587 186.993 12.28C187.507 12.6027 187.969 13.0207 188.379 13.534C188.805 14.0327 189.017 14.5753 189.017 15.162C189.017 15.734 188.614 16.2987 187.807 16.856C187.015 17.3987 186.084 17.67 185.013 17.67C183.957 17.67 183.019 17.4133 182.197 16.9C181.391 16.3867 180.987 15.9027 180.987 15.448C180.987 15.2573 181.031 15.1107 181.119 15.008C181.222 14.8907 181.347 14.832 181.493 14.832C181.64 14.832 181.845 14.9273 182.109 15.118C182.901 15.69 183.723 15.976 184.573 15.976C185.439 15.976 186.062 15.8807 186.443 15.69C186.825 15.4847 187.015 15.2207 187.015 14.898C187.015 14.5607 186.803 14.2087 186.377 13.842C185.952 13.4607 185.483 13.1233 184.969 12.83C184.471 12.5367 184.009 12.1773 183.583 11.752C183.158 11.3267 182.945 10.894 182.945 10.454C182.945 9.67667 183.554 8.87 184.771 8.034C186.003 7.18333 187.023 6.758 187.829 6.758Z" fill="#6A7372"/>
</svg>
