<svg width="144" height="101" viewBox="0 0 144 101" fill="none" xmlns="http://www.w3.org/2000/svg">
<path d="M0.370117 12.28C0.370117 6.05577 5.41587 1.01001 11.6401 1.01001H131.64C137.864 1.01001 142.91 6.05576 142.91 12.28V89.16C142.91 95.3842 137.864 100.43 131.64 100.43H11.6401C5.41587 100.43 0.370117 95.3843 0.370117 89.16V12.28Z" fill="white"/>
<path d="M0.370117 12.28C0.370117 6.05577 5.41587 1.01001 11.6401 1.01001H131.64C137.864 1.01001 142.91 6.05576 142.91 12.28V89.16C142.91 95.3842 137.864 100.43 131.64 100.43H11.6401C5.41587 100.43 0.370117 95.3843 0.370117 89.16V12.28Z" stroke="#848C8B" stroke-width="0.5"/>
<rect x="11.6401" y="16.1201" width="120" height="48" rx="5.76" fill="#E3FCFA"/>
<path d="M13.875 75.2237H12.0318V73.8989H15.292V82.3201H13.875V75.2237ZM16.7255 78.1268C16.7255 75.5117 18.1309 73.7377 20.2852 73.7377C22.4394 73.7377 23.8564 75.5117 23.8564 78.1268C23.8564 80.7303 22.5201 82.4698 20.2852 82.4698C18.0503 82.4698 16.7255 80.7303 16.7255 78.1268ZM18.177 78.1268C18.177 80.0737 18.9604 81.1681 20.2852 81.1681C21.6215 81.1681 22.4049 80.0737 22.4049 78.1268C22.4049 76.1338 21.6215 75.0394 20.2852 75.0394C18.9604 75.0394 18.177 76.1338 18.177 78.1268ZM24.848 78.1268C24.848 75.5117 26.2534 73.7377 28.4077 73.7377C30.5619 73.7377 31.9789 75.5117 31.9789 78.1268C31.9789 80.7303 30.6426 82.4698 28.4077 82.4698C26.1728 82.4698 24.848 80.7303 24.848 78.1268ZM26.2995 78.1268C26.2995 80.0737 27.0829 81.1681 28.4077 81.1681C29.744 81.1681 30.5274 80.0737 30.5274 78.1268C30.5274 76.1338 29.744 75.0394 28.4077 75.0394C27.0829 75.0394 26.2995 76.1338 26.2995 78.1268Z" fill="#0A0D0D"/>
<path d="M81.3774 78.8295H82.4718L82.7598 77.401H81.4926L81.7576 76.0877H83.0133L83.4395 73.8989H84.8334L84.4072 76.0877H85.8702L86.2965 73.8989H87.6904L87.2641 76.0877H88.4507L88.1857 77.401H87.0107L86.7342 78.8295H88.0475L87.7825 80.1428H86.4808L86.0545 82.3201H84.6606L85.0869 80.1428H83.6123L83.1861 82.3201H81.7921L82.2184 80.1428H81.1125L81.3774 78.8295ZM83.8657 78.8295H85.3403L85.6168 77.401H84.1537L83.8657 78.8295ZM95.0833 82.3201H89.8533V73.8989H95.0833V75.2583H91.3278V77.4241H94.6917V78.7258H91.3278V80.9607H95.0833V82.3201ZM99.7118 82.3201H96.682V73.8989H99.6311C102.119 73.8989 103.836 75.6154 103.836 78.1268C103.836 80.6036 102.154 82.3201 99.7118 82.3201ZM99.4929 75.2583H98.1566V80.9607H99.5735C101.255 80.9607 102.281 79.8778 102.281 78.1268C102.281 76.3412 101.232 75.2583 99.4929 75.2583ZM109.818 78.8756H106.684V82.3201H105.21V73.8989H110.417V75.2583H106.684V77.5508H109.818V78.8756ZM117.183 82.3085L111.343 82.3201V81.2141L114.096 78.8871C115.236 77.9194 115.616 77.3665 115.616 76.5601C115.616 75.6039 115.098 75.0625 114.211 75.0625C113.289 75.0625 112.713 75.7076 112.702 76.7905H111.239C111.25 74.9473 112.425 73.7492 114.211 73.7492C116.008 73.7492 117.126 74.7745 117.126 76.4794C117.126 77.6545 116.48 78.5415 115.202 79.6359L113.681 80.9377H117.183V82.3085ZM123.138 78.8756H120.004V82.3201H118.53V73.8989H123.737V75.2583H120.004V77.5508H123.138V78.8756ZM130.503 82.3085L124.663 82.3201V81.2141L127.416 78.8871C128.556 77.9194 128.936 77.3665 128.936 76.5601C128.936 75.6039 128.418 75.0625 127.531 75.0625C126.609 75.0625 126.033 75.7076 126.022 76.7905H124.559C124.57 74.9473 125.745 73.7492 127.531 73.7492C129.328 73.7492 130.446 74.7745 130.446 76.4794C130.446 77.6545 129.8 78.5415 128.522 79.6359L127.001 80.9377H130.503V82.3085Z" fill="#A1A6A6"/>
</svg>
