<svg width="144" height="101" viewBox="0 0 144 101" fill="none" xmlns="http://www.w3.org/2000/svg">
<path d="M0.450195 12.28C0.450195 6.05577 5.49595 1.01001 11.7202 1.01001H131.72C137.944 1.01001 142.99 6.05576 142.99 12.28V89.16C142.99 95.3842 137.944 100.43 131.72 100.43H11.7202C5.49594 100.43 0.450195 95.3843 0.450195 89.16V12.28Z" fill="white"/>
<path d="M0.450195 12.28C0.450195 6.05577 5.49595 1.01001 11.7202 1.01001H131.72C137.944 1.01001 142.99 6.05576 142.99 12.28V89.16C142.99 95.3842 137.944 100.43 131.72 100.43H11.7202C5.49594 100.43 0.450195 95.3843 0.450195 89.16V12.28Z" stroke="#848C8B" stroke-width="0.5"/>
<rect x="11.7201" y="16.1201" width="120" height="48" rx="5.76" fill="#008C80"/>
<path d="M14.7038 78.1498H13.6785V77.1937L15.8443 75.2007H12.3422V73.8989H17.6875V75.074L15.6369 76.9633C16.9271 77.2167 17.9294 78.1613 17.9294 79.6474C17.9294 81.3754 16.5815 82.4698 14.8766 82.4698C13.2292 82.4698 11.9505 81.4561 11.9505 79.6359H13.402C13.402 80.6036 14.0011 81.1565 14.8996 81.1565C15.8212 81.1565 16.4318 80.5575 16.4318 79.6244C16.4318 78.7719 15.8788 78.1498 14.7038 78.1498ZM18.7742 78.1268C18.7742 75.5117 20.1796 73.7377 22.3339 73.7377C24.4881 73.7377 25.9051 75.5117 25.9051 78.1268C25.9051 80.7303 24.5688 82.4698 22.3339 82.4698C20.099 82.4698 18.7742 80.7303 18.7742 78.1268ZM20.2257 78.1268C20.2257 80.0737 21.0091 81.1681 22.3339 81.1681C23.6702 81.1681 24.4536 80.0737 24.4536 78.1268C24.4536 76.1338 23.6702 75.0394 22.3339 75.0394C21.0091 75.0394 20.2257 76.1338 20.2257 78.1268ZM26.8967 78.1268C26.8967 75.5117 28.3021 73.7377 30.4564 73.7377C32.6106 73.7377 34.0276 75.5117 34.0276 78.1268C34.0276 80.7303 32.6913 82.4698 30.4564 82.4698C28.2215 82.4698 26.8967 80.7303 26.8967 78.1268ZM28.3482 78.1268C28.3482 80.0737 29.1316 81.1681 30.4564 81.1681C31.7927 81.1681 32.5761 80.0737 32.5761 78.1268C32.5761 76.1338 31.7927 75.0394 30.4564 75.0394C29.1316 75.0394 28.3482 76.1338 28.3482 78.1268Z" fill="#0A0D0D"/>
<path d="M81.0899 78.8295H82.1843L82.4723 77.401H81.2051L81.47 76.0877H82.7257L83.152 73.8989H84.5459L84.1196 76.0877H85.5827L86.0089 73.8989H87.4028L86.9766 76.0877H88.1632L87.8982 77.401H86.7232L86.4467 78.8295H87.76L87.495 80.1428H86.1932L85.767 82.3201H84.3731L84.7993 80.1428H83.3248L82.8985 82.3201H81.5046L81.9308 80.1428H80.8249L81.0899 78.8295ZM83.5782 78.8295H85.0528L85.3292 77.401H83.8662L83.5782 78.8295ZM89.5657 82.3201V73.8989H92.918C94.5769 73.8989 95.5907 74.7629 95.5907 76.1684C95.5907 77.1015 95.176 77.7697 94.3811 78.1037C95.2681 78.3917 95.7174 79.0599 95.7174 80.0391C95.7174 81.4791 94.7152 82.3201 92.9756 82.3201H89.5657ZM92.7913 75.2007H91.0403V77.4932H92.8259C93.6323 77.4932 94.0816 77.0669 94.0816 76.3181C94.0816 75.5924 93.6208 75.2007 92.7913 75.2007ZM92.918 78.7373H91.0403V81.0183H92.918C93.7475 81.0183 94.2083 80.6151 94.2083 79.8548C94.2083 79.1405 93.736 78.7373 92.918 78.7373ZM97.0695 82.3201V73.8989H100.422C102.081 73.8989 103.094 74.7629 103.094 76.1684C103.094 77.1015 102.68 77.7697 101.885 78.1037C102.772 78.3917 103.221 79.0599 103.221 80.0391C103.221 81.4791 102.219 82.3201 100.479 82.3201H97.0695ZM100.295 75.2007H98.544V77.4932H100.33C101.136 77.4932 101.585 77.0669 101.585 76.3181C101.585 75.5924 101.125 75.2007 100.295 75.2007ZM100.422 78.7373H98.544V81.0183H100.422C101.251 81.0183 101.712 80.6151 101.712 79.8548C101.712 79.1405 101.24 78.7373 100.422 78.7373ZM104.573 82.3201V73.8989H107.926C109.584 73.8989 110.598 74.7629 110.598 76.1684C110.598 77.1015 110.183 77.7697 109.389 78.1037C110.276 78.3917 110.725 79.0599 110.725 80.0391C110.725 81.4791 109.723 82.3201 107.983 82.3201H104.573ZM107.799 75.2007H106.048V77.4932H107.833C108.64 77.4932 109.089 77.0669 109.089 76.3181C109.089 75.5924 108.628 75.2007 107.799 75.2007ZM107.926 78.7373H106.048V81.0183H107.926C108.755 81.0183 109.216 80.6151 109.216 79.8548C109.216 79.1405 108.743 78.7373 107.926 78.7373ZM116.685 78.8756H113.552V82.3201H112.077V73.8989H117.284V75.2583H113.552V77.5508H116.685V78.8756ZM118.613 82.3201V73.8989H121.966C123.624 73.8989 124.638 74.7629 124.638 76.1684C124.638 77.1015 124.223 77.7697 123.429 78.1037C124.316 78.3917 124.765 79.0599 124.765 80.0391C124.765 81.4791 123.763 82.3201 122.023 82.3201H118.613ZM121.839 75.2007H120.088V77.4932H121.873C122.68 77.4932 123.129 77.0669 123.129 76.3181C123.129 75.5924 122.668 75.2007 121.839 75.2007ZM121.966 78.7373H120.088V81.0183H121.966C122.795 81.0183 123.256 80.6151 123.256 79.8548C123.256 79.1405 122.783 78.7373 121.966 78.7373ZM130.725 78.8756H127.592V82.3201H126.117V73.8989H131.324V75.2583H127.592V77.5508H130.725V78.8756Z" fill="#A1A6A6"/>
</svg>
