<svg width="144" height="101" viewBox="0 0 144 101" fill="none" xmlns="http://www.w3.org/2000/svg">
<path d="M0.410156 12.28C0.410156 6.05577 5.45591 1.01001 11.6802 1.01001H131.68C137.904 1.01001 142.95 6.05576 142.95 12.28V89.16C142.95 95.3842 137.904 100.43 131.68 100.43H11.6802C5.45591 100.43 0.410156 95.3843 0.410156 89.16V12.28Z" fill="white"/>
<path d="M0.410156 12.28C0.410156 6.05577 5.45591 1.01001 11.6802 1.01001H131.68C137.904 1.01001 142.95 6.05576 142.95 12.28V89.16C142.95 95.3842 137.904 100.43 131.68 100.43H11.6802C5.45591 100.43 0.410156 95.3843 0.410156 89.16V12.28Z" stroke="#848C8B" stroke-width="0.5"/>
<rect x="11.6802" y="16.1201" width="120" height="48" rx="5.76" fill="#00A698"/>
<path d="M18.0507 82.3085L12.2101 82.3201V81.2141L14.9634 78.8871C16.1039 77.9194 16.484 77.3665 16.484 76.5601C16.484 75.6039 15.9656 75.0625 15.0786 75.0625C14.157 75.0625 13.581 75.7076 13.5695 76.7905H12.1064C12.1179 74.9473 13.293 73.7492 15.0786 73.7492C16.8757 73.7492 17.9931 74.7745 17.9931 76.4794C17.9931 77.6545 17.348 78.5415 16.0693 79.6359L14.5487 80.9377H18.0507V82.3085ZM18.9593 78.1268C18.9593 75.5117 20.3647 73.7377 22.519 73.7377C24.6732 73.7377 26.0902 75.5117 26.0902 78.1268C26.0902 80.7303 24.7538 82.4698 22.519 82.4698C20.2841 82.4698 18.9593 80.7303 18.9593 78.1268ZM20.4108 78.1268C20.4108 80.0737 21.1942 81.1681 22.519 81.1681C23.8553 81.1681 24.6386 80.0737 24.6386 78.1268C24.6386 76.1338 23.8553 75.0394 22.519 75.0394C21.1942 75.0394 20.4108 76.1338 20.4108 78.1268ZM27.0818 78.1268C27.0818 75.5117 28.4872 73.7377 30.6415 73.7377C32.7957 73.7377 34.2127 75.5117 34.2127 78.1268C34.2127 80.7303 32.8763 82.4698 30.6415 82.4698C28.4066 82.4698 27.0818 80.7303 27.0818 78.1268ZM28.5333 78.1268C28.5333 80.0737 29.3167 81.1681 30.6415 81.1681C31.9778 81.1681 32.7611 80.0737 32.7611 78.1268C32.7611 76.1338 31.9778 75.0394 30.6415 75.0394C29.3167 75.0394 28.5333 76.1338 28.5333 78.1268Z" fill="#0A0D0D"/>
<path d="M76.82 78.8295H77.9144L78.2024 77.401H76.9352L77.2001 76.0877H78.4558L78.882 73.8989H80.276L79.8497 76.0877H81.3128L81.739 73.8989H83.1329L82.7067 76.0877H83.8932L83.6283 77.401H82.4532L82.1768 78.8295H83.49L83.2251 80.1428H81.9233L81.4971 82.3201H80.1032L80.5294 80.1428H79.0548L78.6286 82.3201H77.2347L77.6609 80.1428H76.555L76.82 78.8295ZM79.3083 78.8295H80.7828L81.0593 77.401H79.5963L79.3083 78.8295ZM88.3256 82.3201H85.2958V73.8989H88.2449C90.7332 73.8989 92.4497 75.6154 92.4497 78.1268C92.4497 80.6036 90.7678 82.3201 88.3256 82.3201ZM88.1067 75.2583H86.7704V80.9607H88.1873C89.8692 80.9607 90.8945 79.8778 90.8945 78.1268C90.8945 76.3412 89.8462 75.2583 88.1067 75.2583ZM99.9059 80.7188H98.8806V82.3201H97.4867V80.7188H93.2127V79.4285L97.0259 73.8989H98.8806V79.4285H99.9059V80.7188ZM94.7795 79.4285H97.4867V75.4887L94.7795 79.4285ZM104.301 82.3201H101.271V73.8989H104.22C106.708 73.8989 108.425 75.6154 108.425 78.1268C108.425 80.6036 106.743 82.3201 104.301 82.3201ZM104.082 75.2583H102.745V80.9607H104.162C105.844 80.9607 106.87 79.8778 106.87 78.1268C106.87 76.3412 105.821 75.2583 104.082 75.2583ZM114.314 79.8433L112.494 82.3201H110.812L112.828 79.6359C112.621 79.6935 112.402 79.7281 112.194 79.7281C110.455 79.7281 109.28 78.5069 109.28 76.802C109.28 75.0049 110.616 73.7492 112.413 73.7492C114.233 73.7492 115.593 75.0855 115.593 76.8135C115.593 77.8273 115.259 78.5645 114.314 79.8433ZM114.084 76.802C114.084 75.7767 113.404 75.0625 112.413 75.0625C111.446 75.0625 110.766 75.7767 110.766 76.802C110.766 77.8157 111.446 78.5185 112.413 78.5185C113.416 78.5185 114.084 77.8157 114.084 76.802ZM119.972 82.3201H116.942V73.8989H119.891C122.379 73.8989 124.096 75.6154 124.096 78.1268C124.096 80.6036 122.414 82.3201 119.972 82.3201ZM119.753 75.2583H118.417V80.9607H119.834C121.515 80.9607 122.541 79.8778 122.541 78.1268C122.541 76.3412 121.492 75.2583 119.753 75.2583ZM129.985 79.8433L128.165 82.3201H126.483L128.499 79.6359C128.292 79.6935 128.073 79.7281 127.866 79.7281C126.126 79.7281 124.951 78.5069 124.951 76.802C124.951 75.0049 126.287 73.7492 128.085 73.7492C129.905 73.7492 131.264 75.0855 131.264 76.8135C131.264 77.8273 130.93 78.5645 129.985 79.8433ZM129.755 76.802C129.755 75.7767 129.075 75.0625 128.085 75.0625C127.117 75.0625 126.437 75.7767 126.437 76.802C126.437 77.8157 127.117 78.5185 128.085 78.5185C129.087 78.5185 129.755 77.8157 129.755 76.802Z" fill="#A1A6A6"/>
</svg>
