<svg width="72" height="73" viewBox="0 0 72 73" fill="none" xmlns="http://www.w3.org/2000/svg">
<mask id="mask0_142_6381" style="mask-type:alpha" maskUnits="userSpaceOnUse" x="0" y="0" width="72" height="73">
<path d="M0 20.77C0 9.71326 8.96326 0.75 20.02 0.75H51.48C62.5367 0.75 71.5 9.71326 71.5 20.77V52.23C71.5 63.2867 62.5367 72.25 51.48 72.25H20.02C8.96326 72.25 0 63.2867 0 52.23V20.77Z" fill="#024751"/>
</mask>
<g mask="url(#mask0_142_6381)">
<path d="M0 20.77C0 9.71326 8.96326 0.75 20.02 0.75H51.48C62.5367 0.75 71.5 9.71326 71.5 20.77V52.23C71.5 63.2867 62.5367 72.25 51.48 72.25H20.02C8.96326 72.25 0 63.2867 0 52.23V20.77Z" fill="#024751"/>
<path d="M113.19 100.349L87.2712 1.14282C87.2712 1.14282 54.6562 12.5062 32.6562 27.4348C10.6562 42.3634 -5.00542 75.9954 -5.00542 75.9954L113.19 100.349Z" fill="white" fill-opacity="0.05"/>
</g>
<g clip-path="url(#clip0_142_6381)">
<path d="M50.4623 41.5815L45.9149 49.0934C45.1457 50.3638 43.3032 50.3638 42.5347 49.0934L28.502 25.9144C27.705 24.5974 28.6531 22.915 30.1921 22.915H39.2876C39.9795 22.915 40.6206 23.2763 40.9776 23.868L50.4623 39.5343C50.8437 40.1643 50.8437 40.9522 50.4623 41.5815ZM33.3313 39.5343L23.8467 23.868C23.4883 23.2763 22.8472 22.915 22.156 22.915H13.0612C11.5222 22.915 10.5741 24.5974 11.3711 25.9144L25.4031 49.0934C26.1723 50.3638 28.0148 50.3638 28.7839 49.0934L33.3313 41.5815C33.7121 40.9522 33.7121 40.1643 33.3313 39.5343ZM59.9469 25.9144L54.4807 34.9445C53.7115 36.2148 51.869 36.2148 51.0999 34.9445L45.6336 25.9144C44.8359 24.5974 45.784 22.915 47.3237 22.915H58.2568C59.7958 22.915 60.7446 24.5974 59.9469 25.9144Z" fill="white"/>
</g>
<defs>
<clipPath id="clip0_142_6381">
<rect width="49.1532" height="27.1311" fill="white" transform="translate(11.0825 22.915)"/>
</clipPath>
</defs>
</svg>
