<svg width="144" height="101" viewBox="0 0 144 101" fill="none" xmlns="http://www.w3.org/2000/svg">
<path d="M0.450195 12.3601C0.450195 6.13585 5.49595 1.09009 11.7202 1.09009H131.72C137.944 1.09009 142.99 6.13584 142.99 12.3601V89.2401C142.99 95.4643 137.944 100.51 131.72 100.51H11.7202C5.49594 100.51 0.450195 95.4643 0.450195 89.2401V12.3601Z" fill="white"/>
<path d="M0.450195 12.3601C0.450195 6.13585 5.49595 1.09009 11.7202 1.09009H131.72C137.944 1.09009 142.99 6.13584 142.99 12.3601V89.2401C142.99 95.4643 137.944 100.51 131.72 100.51H11.7202C5.49594 100.51 0.450195 95.4643 0.450195 89.2401V12.3601Z" stroke="#848C8B" stroke-width="0.5"/>
<rect x="11.7201" y="16.2002" width="120" height="48" rx="5.76" fill="#CCAD14"/>
<path d="M14.7038 78.2299H13.6785V77.2737L15.8443 75.2808H12.3422V73.979H17.6875V75.1541L15.6369 77.0433C16.9271 77.2968 17.9294 78.2414 17.9294 79.7275C17.9294 81.4555 16.5815 82.5499 14.8766 82.5499C13.2292 82.5499 11.9505 81.5361 11.9505 79.716H13.402C13.402 80.6837 14.0011 81.2366 14.8996 81.2366C15.8212 81.2366 16.4318 80.6376 16.4318 79.7045C16.4318 78.852 15.8788 78.2299 14.7038 78.2299ZM18.7742 78.2069C18.7742 75.5918 20.1796 73.8177 22.3339 73.8177C24.4881 73.8177 25.9051 75.5918 25.9051 78.2069C25.9051 80.8104 24.5688 82.5499 22.3339 82.5499C20.099 82.5499 18.7742 80.8104 18.7742 78.2069ZM20.2257 78.2069C20.2257 80.1537 21.0091 81.2481 22.3339 81.2481C23.6702 81.2481 24.4536 80.1537 24.4536 78.2069C24.4536 76.2139 23.6702 75.1195 22.3339 75.1195C21.0091 75.1195 20.2257 76.2139 20.2257 78.2069ZM26.8967 78.2069C26.8967 75.5918 28.3021 73.8177 30.4564 73.8177C32.6106 73.8177 34.0276 75.5918 34.0276 78.2069C34.0276 80.8104 32.6913 82.5499 30.4564 82.5499C28.2215 82.5499 26.8967 80.8104 26.8967 78.2069ZM28.3482 78.2069C28.3482 80.1537 29.1316 81.2481 30.4564 81.2481C31.7927 81.2481 32.5761 80.1537 32.5761 78.2069C32.5761 76.2139 31.7927 75.1195 30.4564 75.1195C29.1316 75.1195 28.3482 76.2139 28.3482 78.2069Z" fill="#0A0D0D"/>
<path d="M81.0899 78.9096H82.1843L82.4723 77.4811H81.2051L81.47 76.1678H82.7257L83.152 73.979H84.5459L84.1196 76.1678H85.5827L86.0089 73.979H87.4028L86.9766 76.1678H88.1632L87.8982 77.4811H86.7232L86.4467 78.9096H87.76L87.495 80.2229H86.1932L85.767 82.4001H84.3731L84.7993 80.2229H83.3248L82.8985 82.4001H81.5046L81.9308 80.2229H80.8249L81.0899 78.9096ZM83.5782 78.9096H85.0528L85.3292 77.4811H83.8662L83.5782 78.9096ZM89.5657 82.4001V73.979H92.918C94.5769 73.979 95.5907 74.843 95.5907 76.2485C95.5907 77.1816 95.176 77.8497 94.3811 78.1838C95.2681 78.4718 95.7174 79.14 95.7174 80.1192C95.7174 81.5592 94.7152 82.4001 92.9756 82.4001H89.5657ZM92.7913 75.2808H91.0403V77.5733H92.8259C93.6323 77.5733 94.0816 77.147 94.0816 76.3982C94.0816 75.6725 93.6208 75.2808 92.7913 75.2808ZM92.918 78.8174H91.0403V81.0984H92.918C93.7475 81.0984 94.2083 80.6952 94.2083 79.9349C94.2083 79.2206 93.736 78.8174 92.918 78.8174ZM97.0695 82.4001V73.979H100.422C102.081 73.979 103.094 74.843 103.094 76.2485C103.094 77.1816 102.68 77.8497 101.885 78.1838C102.772 78.4718 103.221 79.14 103.221 80.1192C103.221 81.5592 102.219 82.4001 100.479 82.4001H97.0695ZM100.295 75.2808H98.544V77.5733H100.33C101.136 77.5733 101.585 77.147 101.585 76.3982C101.585 75.6725 101.125 75.2808 100.295 75.2808ZM100.422 78.8174H98.544V81.0984H100.422C101.251 81.0984 101.712 80.6952 101.712 79.9349C101.712 79.2206 101.24 78.8174 100.422 78.8174ZM104.573 82.4001V73.979H107.926C109.584 73.979 110.598 74.843 110.598 76.2485C110.598 77.1816 110.183 77.8497 109.389 78.1838C110.276 78.4718 110.725 79.14 110.725 80.1192C110.725 81.5592 109.723 82.4001 107.983 82.4001H104.573ZM107.799 75.2808H106.048V77.5733H107.833C108.64 77.5733 109.089 77.147 109.089 76.3982C109.089 75.6725 108.628 75.2808 107.799 75.2808ZM107.926 78.8174H106.048V81.0984H107.926C108.755 81.0984 109.216 80.6952 109.216 79.9349C109.216 79.2206 108.743 78.8174 107.926 78.8174ZM116.685 78.9557H113.552V82.4001H112.077V73.979H117.284V75.3384H113.552V77.6309H116.685V78.9557ZM118.613 82.4001V73.979H121.966C123.624 73.979 124.638 74.843 124.638 76.2485C124.638 77.1816 124.223 77.8497 123.429 78.1838C124.316 78.4718 124.765 79.14 124.765 80.1192C124.765 81.5592 123.763 82.4001 122.023 82.4001H118.613ZM121.839 75.2808H120.088V77.5733H121.873C122.68 77.5733 123.129 77.147 123.129 76.3982C123.129 75.6725 122.668 75.2808 121.839 75.2808ZM121.966 78.8174H120.088V81.0984H121.966C122.795 81.0984 123.256 80.6952 123.256 79.9349C123.256 79.2206 122.783 78.8174 121.966 78.8174ZM130.725 78.9557H127.592V82.4001H126.117V73.979H131.324V75.3384H127.592V77.6309H130.725V78.9557Z" fill="#A1A6A6"/>
</svg>
