<svg width="144" height="101" viewBox="0 0 144 101" fill="none" xmlns="http://www.w3.org/2000/svg">
<path d="M0.370117 12.3601C0.370117 6.13585 5.41587 1.09009 11.6401 1.09009H131.64C137.864 1.09009 142.91 6.13584 142.91 12.3601V89.2401C142.91 95.4643 137.864 100.51 131.64 100.51H11.6401C5.41587 100.51 0.370117 95.4643 0.370117 89.2401V12.3601Z" fill="white"/>
<path d="M0.370117 12.3601C0.370117 6.13585 5.41587 1.09009 11.6401 1.09009H131.64C137.864 1.09009 142.91 6.13584 142.91 12.3601V89.2401C142.91 95.4643 137.864 100.51 131.64 100.51H11.6401C5.41587 100.51 0.370117 95.4643 0.370117 89.2401V12.3601Z" stroke="#848C8B" stroke-width="0.5"/>
<rect x="11.6401" y="16.2002" width="120" height="48" rx="5.76" fill="#FCF8E3"/>
<path d="M13.875 75.3038H12.0318V73.979H15.292V82.4001H13.875V75.3038ZM16.7255 78.2069C16.7255 75.5918 18.1309 73.8177 20.2852 73.8177C22.4394 73.8177 23.8564 75.5918 23.8564 78.2069C23.8564 80.8104 22.5201 82.5499 20.2852 82.5499C18.0503 82.5499 16.7255 80.8104 16.7255 78.2069ZM18.177 78.2069C18.177 80.1537 18.9604 81.2481 20.2852 81.2481C21.6215 81.2481 22.4049 80.1537 22.4049 78.2069C22.4049 76.2139 21.6215 75.1195 20.2852 75.1195C18.9604 75.1195 18.177 76.2139 18.177 78.2069ZM24.848 78.2069C24.848 75.5918 26.2534 73.8177 28.4077 73.8177C30.5619 73.8177 31.9789 75.5918 31.9789 78.2069C31.9789 80.8104 30.6426 82.5499 28.4077 82.5499C26.1728 82.5499 24.848 80.8104 24.848 78.2069ZM26.2995 78.2069C26.2995 80.1537 27.0829 81.2481 28.4077 81.2481C29.744 81.2481 30.5274 80.1537 30.5274 78.2069C30.5274 76.2139 29.744 75.1195 28.4077 75.1195C27.0829 75.1195 26.2995 76.2139 26.2995 78.2069Z" fill="#0A0D0D"/>
<path d="M81.3774 78.9096H82.4718L82.7598 77.4811H81.4926L81.7576 76.1678H83.0133L83.4395 73.979H84.8334L84.4072 76.1678H85.8702L86.2965 73.979H87.6904L87.2641 76.1678H88.4507L88.1857 77.4811H87.0107L86.7342 78.9096H88.0475L87.7825 80.2229H86.4808L86.0545 82.4001H84.6606L85.0869 80.2229H83.6123L83.1861 82.4001H81.7921L82.2184 80.2229H81.1125L81.3774 78.9096ZM83.8657 78.9096H85.3403L85.6168 77.4811H84.1537L83.8657 78.9096ZM95.0833 82.4001H89.8533V73.979H95.0833V75.3384H91.3278V77.5041H94.6917V78.8059H91.3278V81.0408H95.0833V82.4001ZM99.7118 82.4001H96.682V73.979H99.6311C102.119 73.979 103.836 75.6955 103.836 78.2069C103.836 80.6837 102.154 82.4001 99.7118 82.4001ZM99.4929 75.3384H98.1566V81.0408H99.5735C101.255 81.0408 102.281 79.9579 102.281 78.2069C102.281 76.4213 101.232 75.3384 99.4929 75.3384ZM109.818 78.9557H106.684V82.4001H105.21V73.979H110.417V75.3384H106.684V77.6309H109.818V78.9557ZM117.183 82.3886L111.343 82.4001V81.2942L114.096 78.9672C115.236 77.9995 115.616 77.4465 115.616 76.6401C115.616 75.684 115.098 75.1425 114.211 75.1425C113.289 75.1425 112.713 75.7877 112.702 76.8705H111.239C111.25 75.0273 112.425 73.8293 114.211 73.8293C116.008 73.8293 117.126 74.8545 117.126 76.5595C117.126 77.7345 116.48 78.6216 115.202 79.716L113.681 81.0177H117.183V82.3886ZM123.138 78.9557H120.004V82.4001H118.53V73.979H123.737V75.3384H120.004V77.6309H123.138V78.9557ZM130.503 82.3886L124.663 82.4001V81.2942L127.416 78.9672C128.556 77.9995 128.936 77.4465 128.936 76.6401C128.936 75.684 128.418 75.1425 127.531 75.1425C126.609 75.1425 126.033 75.7877 126.022 76.8705H124.559C124.57 75.0273 125.745 73.8293 127.531 73.8293C129.328 73.8293 130.446 74.8545 130.446 76.5595C130.446 77.7345 129.8 78.6216 128.522 79.716L127.001 81.0177H130.503V82.3886Z" fill="#A1A6A6"/>
</svg>
