<svg width="144" height="101" viewBox="0 0 144 101" fill="none" xmlns="http://www.w3.org/2000/svg">
<path d="M0.410156 12.3601C0.410156 6.13585 5.45591 1.09009 11.6802 1.09009H131.68C137.904 1.09009 142.95 6.13584 142.95 12.3601V89.2401C142.95 95.4643 137.904 100.51 131.68 100.51H11.6802C5.45591 100.51 0.410156 95.4643 0.410156 89.2401V12.3601Z" fill="white"/>
<path d="M0.410156 12.3601C0.410156 6.13585 5.45591 1.09009 11.6802 1.09009H131.68C137.904 1.09009 142.95 6.13584 142.95 12.3601V89.2401C142.95 95.4643 137.904 100.51 131.68 100.51H11.6802C5.45591 100.51 0.410156 95.4643 0.410156 89.2401V12.3601Z" stroke="#848C8B" stroke-width="0.5"/>
<rect x="11.6802" y="16.2002" width="120" height="48" rx="5.76" fill="#FFD91A"/>
<path d="M18.0507 82.3886L12.2101 82.4001V81.2942L14.9634 78.9672C16.1039 77.9995 16.484 77.4465 16.484 76.6401C16.484 75.684 15.9656 75.1425 15.0786 75.1425C14.157 75.1425 13.581 75.7877 13.5695 76.8705H12.1064C12.1179 75.0273 13.293 73.8293 15.0786 73.8293C16.8757 73.8293 17.9931 74.8545 17.9931 76.5595C17.9931 77.7345 17.348 78.6216 16.0693 79.716L14.5487 81.0177H18.0507V82.3886ZM18.9593 78.2069C18.9593 75.5918 20.3647 73.8177 22.519 73.8177C24.6732 73.8177 26.0902 75.5918 26.0902 78.2069C26.0902 80.8104 24.7538 82.5499 22.519 82.5499C20.2841 82.5499 18.9593 80.8104 18.9593 78.2069ZM20.4108 78.2069C20.4108 80.1537 21.1942 81.2481 22.519 81.2481C23.8553 81.2481 24.6386 80.1537 24.6386 78.2069C24.6386 76.2139 23.8553 75.1195 22.519 75.1195C21.1942 75.1195 20.4108 76.2139 20.4108 78.2069ZM27.0818 78.2069C27.0818 75.5918 28.4872 73.8177 30.6415 73.8177C32.7957 73.8177 34.2127 75.5918 34.2127 78.2069C34.2127 80.8104 32.8763 82.5499 30.6415 82.5499C28.4066 82.5499 27.0818 80.8104 27.0818 78.2069ZM28.5333 78.2069C28.5333 80.1537 29.3167 81.2481 30.6415 81.2481C31.9778 81.2481 32.7611 80.1537 32.7611 78.2069C32.7611 76.2139 31.9778 75.1195 30.6415 75.1195C29.3167 75.1195 28.5333 76.2139 28.5333 78.2069Z" fill="#0A0D0D"/>
<path d="M76.82 78.9096H77.9144L78.2024 77.4811H76.9352L77.2001 76.1678H78.4558L78.882 73.979H80.276L79.8497 76.1678H81.3128L81.739 73.979H83.1329L82.7067 76.1678H83.8932L83.6283 77.4811H82.4532L82.1768 78.9096H83.49L83.2251 80.2229H81.9233L81.4971 82.4001H80.1032L80.5294 80.2229H79.0548L78.6286 82.4001H77.2347L77.6609 80.2229H76.555L76.82 78.9096ZM79.3083 78.9096H80.7828L81.0593 77.4811H79.5963L79.3083 78.9096ZM88.3256 82.4001H85.2958V73.979H88.2449C90.7332 73.979 92.4497 75.6955 92.4497 78.2069C92.4497 80.6837 90.7678 82.4001 88.3256 82.4001ZM88.1067 75.3384H86.7704V81.0408H88.1873C89.8692 81.0408 90.8945 79.9579 90.8945 78.2069C90.8945 76.4213 89.8462 75.3384 88.1067 75.3384ZM99.9059 80.7989H98.8806V82.4001H97.4867V80.7989H93.2127V79.5086L97.0259 73.979H98.8806V79.5086H99.9059V80.7989ZM94.7795 79.5086H97.4867V75.5688L94.7795 79.5086ZM104.301 82.4001H101.271V73.979H104.22C106.708 73.979 108.425 75.6955 108.425 78.2069C108.425 80.6837 106.743 82.4001 104.301 82.4001ZM104.082 75.3384H102.745V81.0408H104.162C105.844 81.0408 106.87 79.9579 106.87 78.2069C106.87 76.4213 105.821 75.3384 104.082 75.3384ZM114.314 79.9233L112.494 82.4001H110.812L112.828 79.716C112.621 79.7736 112.402 79.8081 112.194 79.8081C110.455 79.8081 109.28 78.587 109.28 76.8821C109.28 75.0849 110.616 73.8293 112.413 73.8293C114.233 73.8293 115.593 75.1656 115.593 76.8936C115.593 77.9073 115.259 78.6446 114.314 79.9233ZM114.084 76.8821C114.084 75.8568 113.404 75.1425 112.413 75.1425C111.446 75.1425 110.766 75.8568 110.766 76.8821C110.766 77.8958 111.446 78.5985 112.413 78.5985C113.416 78.5985 114.084 77.8958 114.084 76.8821ZM119.972 82.4001H116.942V73.979H119.891C122.379 73.979 124.096 75.6955 124.096 78.2069C124.096 80.6837 122.414 82.4001 119.972 82.4001ZM119.753 75.3384H118.417V81.0408H119.834C121.515 81.0408 122.541 79.9579 122.541 78.2069C122.541 76.4213 121.492 75.3384 119.753 75.3384ZM129.985 79.9233L128.165 82.4001H126.483L128.499 79.716C128.292 79.7736 128.073 79.8081 127.866 79.8081C126.126 79.8081 124.951 78.587 124.951 76.8821C124.951 75.0849 126.287 73.8293 128.085 73.8293C129.905 73.8293 131.264 75.1656 131.264 76.8936C131.264 77.9073 130.93 78.6446 129.985 79.9233ZM129.755 76.8821C129.755 75.8568 129.075 75.1425 128.085 75.1425C127.117 75.1425 126.437 75.8568 126.437 76.8821C126.437 77.8958 127.117 78.5985 128.085 78.5985C129.087 78.5985 129.755 77.8958 129.755 76.8821Z" fill="#A1A6A6"/>
</svg>
